M48
; DRILL file {KiCad 5.1.6-c6e7f7d~87~ubuntu18.04.1} date Fri Jan  8 15:26:23 2021
; FORMAT={-:-/ absolute / metric / decimal}
; #@! TF.CreationDate,2021-01-08T15:26:23+00:00
; #@! TF.GenerationSoftware,Kicad,Pcbnew,5.1.6-c6e7f7d~87~ubuntu18.04.1
FMAT,2
METRIC
T1C0.900
T2C1.000
T3C1.016
T4C3.200
%
G90
G05
T1
X92.71Y-166.116
X90.17Y-161.036
X90.17Y-163.576
X97.79Y-161.036
X97.79Y-163.576
X92.71Y-158.496
X95.25Y-158.496
X95.25Y-166.116
T2
X29.464Y-165.862
X29.972Y-168.656
X37.084Y-162.052
X37.97Y-170.304
X41.148Y-170.942
X45.72Y-157.226
X46.736Y-148.336
X49.784Y-169.672
X50.546Y-172.72
X51.562Y-166.37
X53.848Y-162.56
X59.69Y-171.45
X61.468Y-162.052
X62.738Y-148.336
X62.738Y-170.942
X66.04Y-159.766
X68.58Y-169.418
X71.374Y-160.02
X76.2Y-163.576
X79.502Y-158.75
X79.502Y-162.56
X80.198Y-166.944
X82.55Y-158.75
X86.106Y-165.1
X89.154Y-155.702
X97.536Y-170.942
X101.346Y-163.576
X102.616Y-158.75
X102.87Y-171.196
X109.22Y-156.464
X73.152Y-173.736
X75.692Y-173.736
T3
X41.044Y-128.59
X43.584Y-128.59
X46.124Y-128.59
X48.664Y-128.59
X50.188Y-176.85
X51.204Y-128.59
X52.728Y-176.85
X53.744Y-128.59
X55.268Y-176.85
X56.284Y-128.59
X57.808Y-176.85
X58.824Y-128.59
X60.348Y-176.85
X61.364Y-128.59
X62.888Y-176.85
X63.904Y-128.59
X65.428Y-176.85
X67.968Y-128.59
X67.968Y-176.85
X70.508Y-128.59
X73.048Y-128.59
X73.048Y-176.85
X75.588Y-128.59
X75.588Y-176.85
X78.128Y-128.59
X78.128Y-176.85
X80.668Y-128.59
X80.668Y-176.85
X83.208Y-128.59
X83.208Y-176.85
X85.748Y-128.59
X85.748Y-176.85
X88.288Y-176.85
X90.828Y-128.59
X90.828Y-176.85
X93.368Y-128.59
X95.908Y-128.59
X95.908Y-176.85
X98.448Y-128.59
X98.448Y-176.85
X100.988Y-128.59
X100.988Y-176.85
X103.528Y-128.59
X103.528Y-176.85
X106.068Y-128.59
X106.068Y-176.85
X108.608Y-128.59
X108.608Y-176.85
X111.148Y-176.85
X113.688Y-176.85
X116.228Y-128.59
X116.228Y-131.13
X116.228Y-133.67
X116.228Y-136.21
X116.228Y-138.75
X116.228Y-141.29
X116.228Y-143.83
X116.228Y-146.37
X116.228Y-148.91
X116.228Y-151.45
X116.228Y-153.99
X116.228Y-156.53
X116.228Y-159.07
X116.228Y-161.61
X116.228Y-164.15
X116.228Y-166.69
X116.228Y-169.23
X116.228Y-171.77
X118.768Y-128.59
X118.768Y-131.13
X118.768Y-133.67
X118.768Y-136.21
X118.768Y-138.75
X118.768Y-141.29
X118.768Y-143.83
X118.768Y-146.37
X118.768Y-148.91
X118.768Y-151.45
X118.768Y-153.99
X118.768Y-156.53
X118.768Y-159.07
X118.768Y-161.61
X118.768Y-164.15
X118.768Y-166.69
X118.768Y-169.23
X118.768Y-171.77
T4
X36.218Y-176.85
X37.488Y-128.59
X112.418Y-128.59
X118.768Y-176.85
T0
M30
