M48
; DRILL file {KiCad 7.0.8-7.0.8~ubuntu20.04.1} date Mon Nov  6 15:40:26 2023
; FORMAT={-:-/ absolute / inch / decimal}
; #@! TF.CreationDate,2023-11-06T15:40:26+00:00
; #@! TF.GenerationSoftware,Kicad,Pcbnew,7.0.8-7.0.8~ubuntu20.04.1
; #@! TF.FileFunction,Plated,1,2,PTH
FMAT,2
INCH
; #@! TA.AperFunction,Plated,PTH,ComponentDrill
T1C0.0118
; #@! TA.AperFunction,Plated,PTH,ViaDrill
T2C0.0157
; #@! TA.AperFunction,Plated,PTH,ComponentDrill
T3C0.0315
; #@! TA.AperFunction,Plated,PTH,ComponentDrill
T4C0.0394
; #@! TA.AperFunction,Plated,PTH,ComponentDrill
T5C0.0984
%
G90
G05
T1
X2.749Y-5.8209
X2.749Y-5.872
X2.749Y-5.9232
X2.8191Y-5.8209
X2.8191Y-5.872
X2.8191Y-5.9232
X2.8892Y-5.8209
X2.8892Y-5.872
X2.8892Y-5.9232
X2.9593Y-5.8209
X2.9593Y-5.872
X2.9593Y-5.9232
X3.0293Y-5.8209
X3.0293Y-5.872
X3.0293Y-5.9232
X3.0994Y-5.8209
X3.0994Y-5.872
X3.0994Y-5.9232
T2
X2.4016Y-5.5413
X2.4705Y-5.4724
X2.5197Y-5.8465
X2.5197Y-6.25
X2.5591Y-4.813
X2.5591Y-5.6496
X2.5787Y-5.7677
X2.5787Y-6.6339
X2.6378Y-6.1024
X2.6457Y-5.6378
X2.6476Y-5.2264
X2.6476Y-6.5945
X2.6772Y-4.7717
X2.6929Y-7.0394
X2.6969Y-5.2165
X2.7756Y-5.689
X2.7756Y-6.1417
X2.7874Y-6.4409
X2.8445Y-5.5512
X2.874Y-6.1417
X2.8839Y-5.3248
X2.8937Y-5.4035
X2.9134Y-6.7913
X2.9449Y-5.0787
X2.9528Y-6.8406
X2.9626Y-4.8622
X2.9843Y-5.1339
X3.0236Y-6.7559
X3.0315Y-6.3878
X3.0551Y-4.6063
X3.0807Y-5.1339
X3.0866Y-5.2283
X3.1201Y-6.3287
X3.1201Y-6.5945
X3.1299Y-5.4331
X3.2185Y-6.2795
X3.2185Y-6.4665
X3.2283Y-5.4724
X3.2677Y-5.0492
X3.2756Y-6.4094
X3.2776Y-4.813
X3.2972Y-6.6437
X3.315Y-5.2047
X3.3169Y-5.5118
X3.3169Y-6.2402
X3.3169Y-6.437
X3.3465Y-6.5059
X3.3661Y-5.2362
X3.3701Y-5.3543
X3.3957Y-6.5748
X3.4016Y-7.0079
X3.4154Y-5.3839
X3.4154Y-5.561
X3.4252Y-6.1811
X3.4449Y-6.998
X3.4567Y-6.378
X3.4646Y-5.3346
X3.5039Y-5.6201
X3.5138Y-6.1319
X3.5138Y-6.3287
X3.5827Y-5.0591
X3.5827Y-5.2854
X3.5827Y-6.5354
X3.5827Y-6.7815
X3.6024Y-5.6693
X3.6024Y-6.0925
X3.6909Y-6.8996
X3.7205Y-5.9744
X3.75Y-6.4567
X3.811Y-4.9528
X3.9075Y-4.9409
X3.9272Y-6.998
X3.937Y-6.1516
X3.937Y-6.939
X3.9567Y-6.8898
X3.9764Y-5.0098
X3.9862Y-6.7618
X3.9961Y-6.4665
X4.0059Y-5.9449
X4.0059Y-7.0079
X4.0157Y-6.1516
X4.0354Y-5.1181
X4.0453Y-5.2362
X4.065Y-5.7283
X4.065Y-6.939
X4.1339Y-5.2756
X4.1732Y-5.6457
X4.2205Y-6.748
X4.2421Y-6.8406
X4.2441Y-6.2992
X4.252Y-5.6594
X4.252Y-5.7972
X4.252Y-6.063
X4.2598Y-4.9528
X4.2677Y-5.1732
X4.311Y-5.3051
X4.315Y-5.3465
X4.3209Y-6.6142
X4.3228Y-5.2441
X4.3386Y-6.5669
X4.3406Y-5.4724
X4.3602Y-6.0728
X4.3622Y-5.685
X4.3701Y-6.8189
X4.3898Y-6.378
X4.4094Y-4.9902
X4.4173Y-5.4646
X4.4193Y-5.0689
X4.4252Y-6.1496
X4.4291Y-4.8524
X4.4409Y-6.4016
X4.4488Y-7.0374
X4.5571Y-6.8701
X4.5768Y-5.6594
X4.5827Y-5.4094
X4.6161Y-6.0039
X4.6161Y-6.4862
X4.6358Y-6.565
X4.6457Y-5.0787
X4.6535Y-5.3701
X4.6535Y-5.6142
X4.6555Y-6.063
X4.6555Y-6.3976
X4.685Y-6.5059
X4.6949Y-6.2894
X4.7146Y-6.6831
X4.7244Y-6.998
X4.7835Y-4.872
X4.7835Y-5.4331
X4.8622Y-5.3445
X4.8976Y-5.6142
X4.8976Y-6.6614
X4.9134Y-6.4409
X4.9449Y-5.7874
X4.9606Y-5.7323
X4.9843Y-6.4488
X5.0Y-6.0315
X5.0Y-6.0787
X5.0Y-6.122
X5.0197Y-5.3445
X5.0551Y-6.4331
X5.0551Y-6.9213
X5.0551Y-7.0394
X5.0866Y-6.8504
X5.189Y-5.5276
X5.189Y-6.0236
X5.2126Y-4.7008
X5.2205Y-4.874
X5.2441Y-6.1339
X5.252Y-5.5276
X5.252Y-6.6063
X5.2913Y-6.5827
X5.315Y-6.2283
X5.3307Y-6.3543
X5.3858Y-6.0394
X5.4173Y-5.9134
X5.4488Y-6.1181
X5.4567Y-5.9449
X5.5118Y-5.3445
X5.5197Y-6.9606
T3
X2.2047Y-6.7853
X2.2047Y-6.8838
T4
X2.1457Y-5.6661
X2.1457Y-5.7661
X2.1457Y-5.8661
X2.1457Y-5.9661
X2.1457Y-6.0661
X2.1457Y-6.1661
X2.1457Y-6.2661
X2.1457Y-6.4764
X2.1457Y-6.5764
X2.4606Y-6.4266
X2.4606Y-6.5266
X3.8898Y-4.5965
X3.9898Y-4.5965
X4.0898Y-4.5965
X4.1898Y-4.5965
X4.2898Y-4.5965
X4.3898Y-4.5965
X4.4898Y-4.5965
X4.5898Y-4.5965
X4.7575Y-4.5965
X4.8157Y-5.0556
X4.8575Y-4.5965
X4.9157Y-5.0556
X4.9575Y-4.5965
X5.0157Y-5.0556
X5.0559Y-5.6382
X5.0575Y-4.5965
X5.1157Y-5.0556
X5.1543Y-5.7382
X5.1559Y-5.6382
X5.1575Y-4.5965
X5.2157Y-5.0556
X5.2543Y-5.7382
X5.2559Y-5.6382
X5.2575Y-4.5965
X5.3157Y-5.0556
X5.3543Y-5.7382
X5.3559Y-5.6382
X5.3575Y-4.5965
X5.4157Y-5.0556
X5.4575Y-4.5965
X5.5157Y-5.0556
X5.5591Y-5.6661
X5.5591Y-5.7661
X5.5591Y-5.8661
X5.5591Y-5.9661
X5.5591Y-6.0661
X5.5591Y-6.1661
X5.5591Y-6.2661
T5
X2.1654Y-4.8031
X2.1654Y-7.1654
X5.4724Y-4.8031
X5.4724Y-7.1654
T0
M30
