%TF.GenerationSoftware,KiCad,Pcbnew,7.0.8-7.0.8~ubuntu20.04.1*%
%TF.CreationDate,2023-11-06T15:40:33+00:00*%
%TF.ProjectId,one-synapse-electronic,6f6e652d-7379-46e6-9170-73652d656c65,rev?*%
%TF.SameCoordinates,Original*%
%TF.FileFunction,Soldermask,Bot*%
%TF.FilePolarity,Negative*%
%FSLAX46Y46*%
G04 Gerber Fmt 4.6, Leading zero omitted, Abs format (unit mm)*
G04 Created by KiCad (PCBNEW 7.0.8-7.0.8~ubuntu20.04.1) date 2023-11-06 15:40:33*
%MOMM*%
%LPD*%
G01*
G04 APERTURE LIST*
%ADD10R,1.700000X1.700000*%
%ADD11O,1.700000X1.700000*%
%ADD12C,2.500000*%
%ADD13R,1.600000X1.600000*%
%ADD14C,1.600000*%
G04 APERTURE END LIST*
D10*
%TO.C,J5*%
X141200000Y-143920000D03*
D11*
X141200000Y-146460000D03*
X141200000Y-149000000D03*
X141200000Y-151540000D03*
X141200000Y-154080000D03*
X141200000Y-156620000D03*
X141200000Y-159160000D03*
%TD*%
D10*
%TO.C,J2*%
X98800000Y-116750000D03*
D11*
X101340000Y-116750000D03*
X103880000Y-116750000D03*
X106420000Y-116750000D03*
X108960000Y-116750000D03*
X111500000Y-116750000D03*
X114040000Y-116750000D03*
X116580000Y-116750000D03*
%TD*%
D12*
%TO.C,H1*%
X55000000Y-122000000D03*
%TD*%
D10*
%TO.C,J3*%
X138620000Y-116750000D03*
D11*
X136080000Y-116750000D03*
X133540000Y-116750000D03*
X131000000Y-116750000D03*
X128460000Y-116750000D03*
X125920000Y-116750000D03*
X123380000Y-116750000D03*
X120840000Y-116750000D03*
%TD*%
D12*
%TO.C,H2*%
X139000000Y-122000000D03*
%TD*%
D13*
%TO.C,C24*%
X56000000Y-172347349D03*
D14*
X56000000Y-174847349D03*
%TD*%
D10*
%TO.C,J4*%
X54500000Y-159160000D03*
D11*
X54500000Y-156620000D03*
X54500000Y-154080000D03*
X54500000Y-151540000D03*
X54500000Y-149000000D03*
X54500000Y-146460000D03*
X54500000Y-143920000D03*
%TD*%
D12*
%TO.C,H4*%
X55000000Y-182000000D03*
%TD*%
D10*
%TO.C,J10*%
X130920000Y-145750000D03*
D11*
X133460000Y-145750000D03*
X136000000Y-145750000D03*
%TD*%
D12*
%TO.C,H3*%
X139000000Y-182000000D03*
%TD*%
D10*
%TO.C,J6*%
X54500000Y-164500000D03*
D11*
X54500000Y-167040000D03*
%TD*%
D10*
%TO.C,J9*%
X128420000Y-143210000D03*
D11*
X130960000Y-143210000D03*
X133500000Y-143210000D03*
X136040000Y-143210000D03*
%TD*%
D10*
%TO.C,J1*%
X62500000Y-165775000D03*
D11*
X62500000Y-163235000D03*
%TD*%
D10*
%TO.C,J7*%
X140100000Y-128412500D03*
D11*
X137560000Y-128412500D03*
X135020000Y-128412500D03*
X132480000Y-128412500D03*
X129940000Y-128412500D03*
X127400000Y-128412500D03*
X124860000Y-128412500D03*
X122320000Y-128412500D03*
%TD*%
M02*
