<?xml version="1.0" standalone="no"?>
<!DOCTYPE svg PUBLIC "-//W3C//DTD SVG 1.1//EN"
"http://www.w3.org/Graphics/SVG/1.1/DTD/svg11.dtd">
<svg width="385.096" height="202.696" viewBox="0 0 8022.83 4222.83" version="1.1"
xmlns="http://www.w3.org/2000/svg"
xmlns:xlink="http://www.w3.org/1999/xlink">
<circle cx="611.417" cy="3371.42" r="35.4331" style=""/>
<circle cx="571.417" cy="3151.42" r="35.4331" style=""/>
<circle cx="1171.42" cy="2851.42" r="35.4331" style=""/>
<circle cx="1241.18" cy="3501.18" r="35.4331" style=""/>
<circle cx="1103.23" cy="4016.61" r="35.4331" style=""/>
<circle cx="1491.42" cy="3551.42" r="35.4331" style=""/>
<circle cx="2171.42" cy="3451.42" r="35.4331" style=""/>
<circle cx="2231.42" cy="3691.42" r="35.4331" style=""/>
<circle cx="2203.23" cy="4016.61" r="35.4331" style=""/>
<circle cx="2403.23" cy="4016.61" r="35.4331" style=""/>
<circle cx="2603.23" cy="4016.61" r="35.4331" style=""/>
<circle cx="2803.23" cy="4016.61" r="35.4331" style=""/>
<circle cx="3003.23" cy="4016.61" r="35.4331" style=""/>
<circle cx="3203.23" cy="4016.61" r="35.4331" style=""/>
<circle cx="3403.23" cy="4016.61" r="35.4331" style=""/>
<circle cx="3603.23" cy="4016.61" r="35.4331" style=""/>
<circle cx="4003.23" cy="4016.61" r="35.4331" style=""/>
<circle cx="4203.23" cy="4016.61" r="35.4331" style=""/>
<circle cx="4403.23" cy="4016.61" r="35.4331" style=""/>
<circle cx="4603.23" cy="4016.61" r="35.4331" style=""/>
<circle cx="4803.23" cy="4016.61" r="35.4331" style=""/>
<circle cx="5003.23" cy="4016.61" r="35.4331" style=""/>
<circle cx="5203.23" cy="4016.61" r="35.4331" style=""/>
<circle cx="5403.23" cy="4016.61" r="35.4331" style=""/>
<circle cx="5803.23" cy="4016.61" r="35.4331" style=""/>
<circle cx="6003.23" cy="4016.61" r="35.4331" style=""/>
<circle cx="6203.23" cy="4016.61" r="35.4331" style=""/>
<circle cx="6403.23" cy="4016.61" r="35.4331" style=""/>
<circle cx="6603.23" cy="4016.61" r="35.4331" style=""/>
<circle cx="6803.23" cy="4016.61" r="35.4331" style=""/>
<circle cx="7003.23" cy="4016.61" r="35.4331" style=""/>
<circle cx="7203.23" cy="4016.61" r="35.4331" style=""/>
<circle cx="7603.23" cy="4016.61" r="35.4331" style=""/>
<circle cx="7603.23" cy="3616.61" r="35.4331" style=""/>
<circle cx="7403.23" cy="3616.61" r="35.4331" style=""/>
<circle cx="7603.23" cy="3416.61" r="35.4331" style=""/>
<circle cx="7603.23" cy="3216.61" r="35.4331" style=""/>
<circle cx="7603.23" cy="3016.61" r="35.4331" style=""/>
<circle cx="7603.23" cy="2816.61" r="35.4331" style=""/>
<circle cx="7603.23" cy="2616.61" r="35.4331" style=""/>
<circle cx="7603.23" cy="2416.61" r="35.4331" style=""/>
<circle cx="7603.23" cy="2216.61" r="35.4331" style=""/>
<circle cx="7403.23" cy="2216.61" r="35.4331" style=""/>
<circle cx="7403.23" cy="2416.61" r="35.4331" style=""/>
<circle cx="7403.23" cy="2616.61" r="35.4331" style=""/>
<circle cx="7403.23" cy="2816.61" r="35.4331" style=""/>
<circle cx="7403.23" cy="3016.61" r="35.4331" style=""/>
<circle cx="7403.23" cy="3216.61" r="35.4331" style=""/>
<circle cx="7403.23" cy="3416.61" r="35.4331" style=""/>
<circle cx="6351.42" cy="3571.42" r="35.4331" style=""/>
<circle cx="5931.42" cy="3551.42" r="35.4331" style=""/>
<circle cx="5751.42" cy="3171.42" r="35.4331" style=""/>
<circle cx="5551.42" cy="3171.42" r="35.4331" style=""/>
<circle cx="5351.42" cy="2971.42" r="35.4331" style=""/>
<circle cx="5031.42" cy="3091.42" r="35.4331" style=""/>
<circle cx="4566.22" cy="3236.61" r="35.4331" style=""/>
<circle cx="4211.42" cy="3771.42" r="35.4331" style=""/>
<circle cx="4011.42" cy="3771.42" r="35.4331" style=""/>
<circle cx="3651.42" cy="3431.42" r="35.4331" style=""/>
<circle cx="3191.42" cy="3551.42" r="35.4331" style=""/>
<circle cx="2951.42" cy="3591.42" r="35.4331" style=""/>
<circle cx="2311.42" cy="3191.42" r="35.4331" style=""/>
<circle cx="2491.42" cy="2891.42" r="35.4331" style=""/>
<circle cx="1851.42" cy="2471.42" r="35.4331" style=""/>
<circle cx="1931.42" cy="1771.42" r="35.4331" style=""/>
<circle cx="3191.42" cy="1771.42" r="35.4331" style=""/>
<circle cx="3091.42" cy="2851.42" r="35.4331" style=""/>
<circle cx="3451.42" cy="2671.42" r="35.4331" style=""/>
<circle cx="3871.42" cy="2691.42" r="35.4331" style=""/>
<circle cx="4251.42" cy="2971.42" r="35.4331" style=""/>
<circle cx="4511.42" cy="2891.42" r="35.4331" style=""/>
<circle cx="4511.42" cy="2591.42" r="35.4331" style=""/>
<circle cx="4751.42" cy="2591.42" r="35.4331" style=""/>
<circle cx="5271.42" cy="2351.42" r="35.4331" style=""/>
<circle cx="5351.42" cy="2771.42" r="35.4331" style=""/>
<circle cx="5551.42" cy="2571.42" r="35.4331" style=""/>
<circle cx="5751.42" cy="2571.42" r="35.4331" style=""/>
<circle cx="5951.42" cy="2771.42" r="35.4331" style=""/>
<circle cx="5951.42" cy="2971.42" r="35.4331" style=""/>
<circle cx="6231.42" cy="2971.42" r="35.4331" style=""/>
<circle cx="6331.42" cy="2591.42" r="35.4331" style=""/>
<circle cx="6851.42" cy="2411.42" r="35.4331" style=""/>
<circle cx="7403.23" cy="2016.61" r="35.4331" style=""/>
<circle cx="7603.23" cy="2016.61" r="35.4331" style=""/>
<circle cx="7603.23" cy="1816.61" r="35.4331" style=""/>
<circle cx="7403.23" cy="1816.61" r="35.4331" style=""/>
<circle cx="7403.23" cy="1616.61" r="35.4331" style=""/>
<circle cx="7603.23" cy="1616.61" r="35.4331" style=""/>
<circle cx="7603.23" cy="1416.61" r="35.4331" style=""/>
<circle cx="7403.23" cy="1416.61" r="35.4331" style=""/>
<circle cx="7403.23" cy="1216.61" r="35.4331" style=""/>
<circle cx="7603.23" cy="1216.61" r="35.4331" style=""/>
<circle cx="7603.23" cy="1016.61" r="35.4331" style=""/>
<circle cx="7403.23" cy="1016.61" r="35.4331" style=""/>
<circle cx="7403.23" cy="816.614" r="35.4331" style=""/>
<circle cx="7603.23" cy="816.614" r="35.4331" style=""/>
<circle cx="7603.23" cy="616.614" r="35.4331" style=""/>
<circle cx="7603.23" cy="416.614" r="35.4331" style=""/>
<circle cx="7603.23" cy="216.614" r="35.4331" style=""/>
<circle cx="7403.23" cy="216.614" r="35.4331" style=""/>
<circle cx="7403.23" cy="416.614" r="35.4331" style=""/>
<circle cx="7403.23" cy="616.614" r="35.4331" style=""/>
<circle cx="7103.23" cy="216.614" r="35.4331" style=""/>
<circle cx="6803.23" cy="216.614" r="35.4331" style=""/>
<circle cx="6603.23" cy="216.614" r="35.4331" style=""/>
<circle cx="6403.23" cy="216.614" r="35.4331" style=""/>
<circle cx="6203.23" cy="216.614" r="35.4331" style=""/>
<circle cx="6003.23" cy="216.614" r="35.4331" style=""/>
<circle cx="5803.23" cy="216.614" r="35.4331" style=""/>
<circle cx="5603.23" cy="216.614" r="35.4331" style=""/>
<circle cx="5403.23" cy="216.614" r="35.4331" style=""/>
<circle cx="5003.23" cy="216.614" r="35.4331" style=""/>
<circle cx="4803.23" cy="216.614" r="35.4331" style=""/>
<circle cx="4603.23" cy="216.614" r="35.4331" style=""/>
<circle cx="4403.23" cy="216.614" r="35.4331" style=""/>
<circle cx="4203.23" cy="216.614" r="35.4331" style=""/>
<circle cx="4003.23" cy="216.614" r="35.4331" style=""/>
<circle cx="3803.23" cy="216.614" r="35.4331" style=""/>
<circle cx="3603.23" cy="216.614" r="35.4331" style=""/>
<circle cx="3283.23" cy="216.614" r="35.4331" style=""/>
<circle cx="3083.23" cy="216.614" r="35.4331" style=""/>
<circle cx="2883.23" cy="216.614" r="35.4331" style=""/>
<circle cx="2683.23" cy="216.614" r="35.4331" style=""/>
<circle cx="2483.23" cy="216.614" r="35.4331" style=""/>
<circle cx="2283.23" cy="216.614" r="35.4331" style=""/>
<circle cx="2083.23" cy="216.614" r="35.4331" style=""/>
<circle cx="1883.23" cy="216.614" r="35.4331" style=""/>
<circle cx="1683.23" cy="216.614" r="35.4331" style=""/>
<circle cx="1483.23" cy="216.614" r="35.4331" style=""/>
<circle cx="1203.23" cy="216.614" r="35.4331" style=""/>
</svg>
