<?xml version="1.0" standalone="no"?>
<!DOCTYPE svg PUBLIC "-//W3C//DTD SVG 1.1//EN"
"http://www.w3.org/Graphics/SVG/1.1/DTD/svg11.dtd">
<svg width="385.096" height="202.696" viewBox="0 0 8022.83 4222.83" version="1.1"
xmlns="http://www.w3.org/2000/svg"
xmlns:xlink="http://www.w3.org/1999/xlink">
<polyline points="6.69132,4211.42 6.69132,11.4173 6.78332,10.4953 7.05132,9.60932 7.48732,8.79132 8.07532,8.07532 8.79132,7.48732 9.60932,7.05132 10.4953,6.78332 11.4173,6.69132 7691.42,6.69132 7692.34,6.78332 7693.22,7.05132 7694.04,7.48732 7694.76,8.07532 7814.76,128.075 7815.35,128.791 7815.78,129.609 7816.05,130.495 7816.14,131.417 7816.14,1009.46 8014.76,1208.08 8015.35,1208.79 8015.78,1209.61 8016.05,1210.5 8016.14,1211.42 8016.14,3911.42 8016.05,3912.34 8015.78,3913.22 8015.35,3914.04 8014.76,3914.76 7816.14,4113.37 7816.14,4211.42 7816.05,4212.34 7815.78,4213.22 7815.35,4214.04 7814.76,4214.76 7814.04,4215.35 7813.22,4215.78 7812.34,4216.05 7811.42,4216.14 11.4173,4216.14 10.4953,4216.05 9.60932,4215.78 8.79132,4215.35 8.07532,4214.76 7.48732,4214.04 7.05132,4213.22 6.78332,4212.34 6.69132,4211.42" style="stroke:rgb(103,198,105);stroke-width:9.448819;fill:none;stroke-opacity:0.5;stroke-linecap:round;stroke-linejoin:round;;fill:none"/>
<polyline points="6.69132,4211.42 6.69132,11.4173 6.78332,10.4953 7.05132,9.60932 7.48732,8.79132 8.07532,8.07532 8.79132,7.48732 9.60932,7.05132 10.4953,6.78332 11.4173,6.69132 7691.42,6.69132 7692.34,6.78332 7693.22,7.05132 7694.04,7.48732 7694.76,8.07532 7814.76,128.075 7815.35,128.791 7815.78,129.609 7816.05,130.495 7816.14,131.417 7816.14,1009.46 8014.76,1208.08 8015.35,1208.79 8015.78,1209.61 8016.05,1210.5 8016.14,1211.42 8016.14,3911.42 8016.05,3912.34 8015.78,3913.22 8015.35,3914.04 8014.76,3914.76 7816.14,4113.37 7816.14,4211.42 7816.05,4212.34 7815.78,4213.22 7815.35,4214.04 7814.76,4214.76 7814.04,4215.35 7813.22,4215.78 7812.34,4216.05 7811.42,4216.14 11.4173,4216.14 10.4953,4216.05 9.60932,4215.78 8.79132,4215.35 8.07532,4214.76 7.48732,4214.04 7.05132,4213.22 6.78332,4212.34 6.69132,4211.42" style="stroke:rgb(0,0,0);stroke-width:1px;fill:none;stroke-opacity:1;stroke-linecap:round;stroke-linejoin:round;;fill:none"/>
</svg>
