M48
; DRILL file {KiCad 7.0.11-7.0.11~ubuntu20.04.1} date Tue May 21 12:38:48 2024
; FORMAT={-:-/ absolute / inch / decimal}
; #@! TF.CreationDate,2024-05-21T12:38:48+01:00
; #@! TF.GenerationSoftware,Kicad,Pcbnew,7.0.11-7.0.11~ubuntu20.04.1
; #@! TF.FileFunction,Plated,1,2,PTH
FMAT,2
INCH
; #@! TA.AperFunction,Plated,PTH,ViaDrill
T1C0.0118
; #@! TA.AperFunction,Plated,PTH,ComponentDrill
T2C0.0276
; #@! TA.AperFunction,Plated,PTH,ComponentDrill
T3C0.0866
%
G90
G05
T1
X2.1663Y-2.6575
X2.3278Y-2.5443
X2.3278Y-3.0413
X2.3285Y-2.7657
X2.3285Y-2.8051
X2.3285Y-2.8445
X2.3285Y-2.8839
X2.3285Y-2.9232
X2.3285Y-2.9626
X2.3285Y-3.002
X2.3622Y-2.5591
X2.3671Y-2.7165
X2.372Y-2.623
X2.4656Y-2.6624
X2.4951Y-2.687
X2.5394Y-2.6772
X2.5935Y-2.6181
X2.6033Y-2.5394
X2.6181Y-2.3819
X2.6476Y-2.6181
X2.6526Y-3.189
X2.6624Y-2.7018
X2.6624Y-2.8346
X2.6722Y-3.2136
X2.7018Y-2.3622
X2.7411Y-2.7707
X2.7977Y-3.0167
X2.8396Y-3.0797
X2.8789Y-2.8346
X2.938Y-2.8248
X2.9405Y-3.0167
X2.9478Y-2.6476
X2.9724Y-2.8002
X2.9783Y-2.6043
X3.0069Y-2.7756
X3.0169Y-2.5543
X3.0266Y-2.7313
X3.0522Y-2.5043
X3.0561Y-2.7018
X3.0709Y-2.4543
X3.0758Y-2.678
T2
X2.126Y-2.3996
X2.126Y-2.4496
X2.126Y-2.4996
X2.126Y-2.5496
X2.126Y-2.5996
X2.126Y-2.6496
X2.126Y-2.6996
X2.126Y-2.7496
X2.126Y-2.7996
X2.126Y-2.8496
X2.126Y-2.8996
X2.126Y-2.9496
X2.126Y-2.9996
X2.126Y-3.0496
X2.126Y-3.0996
X2.126Y-3.1496
X2.2638Y-2.2638
X2.2638Y-3.2874
X2.3138Y-2.2638
X2.3138Y-3.2874
X2.3638Y-2.2638
X2.3638Y-3.2874
X2.4138Y-2.2638
X2.4138Y-3.2874
X2.4638Y-2.2638
X2.4638Y-3.2874
X2.5138Y-2.2638
X2.5138Y-3.2874
X2.5638Y-2.2638
X2.5638Y-3.2874
X2.6138Y-2.2638
X2.6138Y-3.2874
X2.6638Y-2.2638
X2.6638Y-3.2874
X2.7138Y-2.2638
X2.7138Y-3.2874
X2.7165Y-2.5246
X2.7165Y-2.5746
X2.7638Y-2.2638
X2.7638Y-3.2874
X2.7665Y-2.5246
X2.7665Y-2.5746
X2.8138Y-2.2638
X2.8138Y-3.2874
X2.8165Y-2.5246
X2.8165Y-2.5746
X2.8638Y-2.2638
X2.8638Y-3.2874
X2.9138Y-2.2638
X2.9138Y-3.2874
X2.9638Y-2.2638
X2.9638Y-3.2874
X3.0138Y-2.2638
X3.0138Y-3.2874
X3.1496Y-2.3996
X3.1496Y-2.4496
X3.1496Y-2.4996
X3.1496Y-2.5496
X3.1496Y-2.5996
X3.1496Y-2.6496
X3.1496Y-2.6996
X3.1496Y-2.7496
X3.1496Y-2.7996
X3.1496Y-2.8496
X3.1496Y-2.8996
X3.1496Y-2.9496
X3.1496Y-2.9996
X3.1496Y-3.0496
X3.1496Y-3.0996
X3.1496Y-3.1496
T3
X2.1358Y-2.2736
X2.1358Y-3.2776
X3.1447Y-2.2736
X3.1447Y-3.2825
M30
