%TF.GenerationSoftware,KiCad,Pcbnew,7.0.11-7.0.11~ubuntu20.04.1*%
%TF.CreationDate,2024-05-21T12:38:46+01:00*%
%TF.ProjectId,crosspoint-switches,63726f73-7370-46f6-996e-742d73776974,rev?*%
%TF.SameCoordinates,Original*%
%TF.FileFunction,Copper,L1,Top*%
%TF.FilePolarity,Positive*%
%FSLAX46Y46*%
G04 Gerber Fmt 4.6, Leading zero omitted, Abs format (unit mm)*
G04 Created by KiCad (PCBNEW 7.0.11-7.0.11~ubuntu20.04.1) date 2024-05-21 12:38:46*
%MOMM*%
%LPD*%
G01*
G04 APERTURE LIST*
G04 Aperture macros list*
%AMRoundRect*
0 Rectangle with rounded corners*
0 $1 Rounding radius*
0 $2 $3 $4 $5 $6 $7 $8 $9 X,Y pos of 4 corners*
0 Add a 4 corners polygon primitive as box body*
4,1,4,$2,$3,$4,$5,$6,$7,$8,$9,$2,$3,0*
0 Add four circle primitives for the rounded corners*
1,1,$1+$1,$2,$3*
1,1,$1+$1,$4,$5*
1,1,$1+$1,$6,$7*
1,1,$1+$1,$8,$9*
0 Add four rect primitives between the rounded corners*
20,1,$1+$1,$2,$3,$4,$5,0*
20,1,$1+$1,$4,$5,$6,$7,0*
20,1,$1+$1,$6,$7,$8,$9,0*
20,1,$1+$1,$8,$9,$2,$3,0*%
G04 Aperture macros list end*
%TA.AperFunction,ComponentPad*%
%ADD10R,1.000000X1.000000*%
%TD*%
%TA.AperFunction,ComponentPad*%
%ADD11O,1.000000X1.000000*%
%TD*%
%TA.AperFunction,SMDPad,CuDef*%
%ADD12RoundRect,0.007800X-0.412200X-0.122200X0.412200X-0.122200X0.412200X0.122200X-0.412200X0.122200X0*%
%TD*%
%TA.AperFunction,SMDPad,CuDef*%
%ADD13RoundRect,0.007800X0.122200X-0.412200X0.122200X0.412200X-0.122200X0.412200X-0.122200X-0.412200X0*%
%TD*%
%TA.AperFunction,SMDPad,CuDef*%
%ADD14R,3.600000X3.600000*%
%TD*%
%TA.AperFunction,ComponentPad*%
%ADD15C,3.800000*%
%TD*%
%TA.AperFunction,SMDPad,CuDef*%
%ADD16RoundRect,0.250000X-0.250000X-0.475000X0.250000X-0.475000X0.250000X0.475000X-0.250000X0.475000X0*%
%TD*%
%TA.AperFunction,SMDPad,CuDef*%
%ADD17RoundRect,0.250000X0.475000X-0.250000X0.475000X0.250000X-0.475000X0.250000X-0.475000X-0.250000X0*%
%TD*%
%TA.AperFunction,SMDPad,CuDef*%
%ADD18RoundRect,0.243750X0.243750X0.456250X-0.243750X0.456250X-0.243750X-0.456250X0.243750X-0.456250X0*%
%TD*%
%TA.AperFunction,SMDPad,CuDef*%
%ADD19RoundRect,0.100000X0.650000X0.100000X-0.650000X0.100000X-0.650000X-0.100000X0.650000X-0.100000X0*%
%TD*%
%TA.AperFunction,SMDPad,CuDef*%
%ADD20RoundRect,0.250000X0.450000X-0.262500X0.450000X0.262500X-0.450000X0.262500X-0.450000X-0.262500X0*%
%TD*%
%TA.AperFunction,SMDPad,CuDef*%
%ADD21RoundRect,0.243750X-0.243750X-0.456250X0.243750X-0.456250X0.243750X0.456250X-0.243750X0.456250X0*%
%TD*%
%TA.AperFunction,ViaPad*%
%ADD22C,0.600000*%
%TD*%
%TA.AperFunction,Conductor*%
%ADD23C,0.200000*%
%TD*%
%TA.AperFunction,Conductor*%
%ADD24C,1.000000*%
%TD*%
G04 APERTURE END LIST*
D10*
%TO.P,J4,1,Pin_1*%
%TO.N,unconnected-(J4-Pin_1-Pad1)*%
X76550000Y-83500000D03*
D11*
%TO.P,J4,2,Pin_2*%
%TO.N,CROSS-RST*%
X75280000Y-83500000D03*
%TO.P,J4,3,Pin_3*%
%TO.N,SDA*%
X74010000Y-83500000D03*
%TO.P,J4,4,Pin_4*%
%TO.N,SCL*%
X72740000Y-83500000D03*
%TO.P,J4,5,Pin_5*%
%TO.N,SHIFT-RST*%
X71470000Y-83500000D03*
%TO.P,J4,6,Pin_6*%
%TO.N,SHIFT-CLK*%
X70200000Y-83500000D03*
%TO.P,J4,7,Pin_7*%
%TO.N,+5V*%
X68930000Y-83500000D03*
%TO.P,J4,8,Pin_8*%
%TO.N,Y7*%
X67660000Y-83500000D03*
%TO.P,J4,9,Pin_9*%
%TO.N,Y6*%
X66390000Y-83500000D03*
%TO.P,J4,10,Pin_10*%
%TO.N,Y5*%
X65120000Y-83500000D03*
%TO.P,J4,11,Pin_11*%
%TO.N,Y4*%
X63850000Y-83500000D03*
%TO.P,J4,12,Pin_12*%
%TO.N,Y3*%
X62580000Y-83500000D03*
%TO.P,J4,13,Pin_13*%
%TO.N,Y2*%
X61310000Y-83500000D03*
%TO.P,J4,14,Pin_14*%
%TO.N,Y1*%
X60040000Y-83500000D03*
%TO.P,J4,15,Pin_15*%
%TO.N,Y0*%
X58770000Y-83500000D03*
%TO.P,J4,16,Pin_16*%
%TO.N,GND*%
X57500000Y-83500000D03*
%TD*%
D12*
%TO.P,U1,1,Vss*%
%TO.N,GND*%
X60755000Y-70375000D03*
%TO.P,U1,2*%
%TO.N,N/C*%
X60755000Y-70875000D03*
%TO.P,U1,3,X0*%
%TO.N,X0*%
X60755000Y-71375000D03*
%TO.P,U1,4,X1*%
%TO.N,X1*%
X60755000Y-71875000D03*
%TO.P,U1,5,X2*%
%TO.N,X2*%
X60755000Y-72375000D03*
%TO.P,U1,6,X3*%
%TO.N,X3*%
X60755000Y-72875000D03*
%TO.P,U1,7,X4*%
%TO.N,X4*%
X60755000Y-73375000D03*
%TO.P,U1,8,X5*%
%TO.N,X5*%
X60755000Y-73875000D03*
D13*
%TO.P,U1,9,Y0*%
%TO.N,Y0*%
X61440000Y-74560000D03*
%TO.P,U1,10,Y1*%
%TO.N,Y1*%
X61940000Y-74560000D03*
%TO.P,U1,11,Y2*%
%TO.N,Y2*%
X62440000Y-74560000D03*
%TO.P,U1,12,Y3*%
%TO.N,Y3*%
X62940000Y-74560000D03*
%TO.P,U1,13,Y4*%
%TO.N,Y4*%
X63440000Y-74560000D03*
%TO.P,U1,14,Y5*%
%TO.N,Y5*%
X63940000Y-74560000D03*
%TO.P,U1,15,Y6*%
%TO.N,Y6*%
X64440000Y-74560000D03*
%TO.P,U1,16,Y7*%
%TO.N,Y7*%
X64940000Y-74560000D03*
D12*
%TO.P,U1,17,X6*%
%TO.N,X6*%
X65625000Y-73875000D03*
%TO.P,U1,18,X7*%
%TO.N,X7*%
X65625000Y-73375000D03*
%TO.P,U1,19*%
%TO.N,N/C*%
X65625000Y-72875000D03*
%TO.P,U1,20*%
X65625000Y-72375000D03*
%TO.P,U1,21*%
X65625000Y-71875000D03*
%TO.P,U1,22*%
X65625000Y-71375000D03*
%TO.P,U1,23*%
X65625000Y-70875000D03*
%TO.P,U1,24,Vdd*%
%TO.N,+5V*%
X65625000Y-70375000D03*
D13*
%TO.P,U1,25,VL*%
X64940000Y-69690000D03*
%TO.P,U1,26,SDA*%
%TO.N,SDA*%
X64440000Y-69690000D03*
%TO.P,U1,27,SCL*%
%TO.N,SCL*%
X63940000Y-69690000D03*
%TO.P,U1,28,A0*%
%TO.N,Net-(J6-Pin_4)*%
X63440000Y-69690000D03*
%TO.P,U1,29,A1*%
%TO.N,GND*%
X62940000Y-69690000D03*
%TO.P,U1,30,A2*%
X62440000Y-69690000D03*
%TO.P,U1,31,RST*%
%TO.N,CROSS-RST*%
X61940000Y-69690000D03*
%TO.P,U1,32,GND*%
%TO.N,GND*%
X61440000Y-69690000D03*
D14*
%TO.P,U1,33,EPAD*%
X63190000Y-72125000D03*
%TD*%
D15*
%TO.P,H4,1,1*%
%TO.N,GND*%
X54250000Y-83250000D03*
%TD*%
D16*
%TO.P,C2,1*%
%TO.N,+5V*%
X67800000Y-70375000D03*
%TO.P,C2,2*%
%TO.N,GND*%
X69700000Y-70375000D03*
%TD*%
D15*
%TO.P,H3,1,1*%
%TO.N,GND*%
X79875000Y-83375000D03*
%TD*%
D10*
%TO.P,J3,1,Pin_1*%
%TO.N,GND*%
X80000000Y-80000000D03*
D11*
%TO.P,J3,2,Pin_2*%
%TO.N,X7*%
X80000000Y-78730000D03*
%TO.P,J3,3,Pin_3*%
%TO.N,X6*%
X80000000Y-77460000D03*
%TO.P,J3,4,Pin_4*%
%TO.N,X5*%
X80000000Y-76190000D03*
%TO.P,J3,5,Pin_5*%
%TO.N,X4*%
X80000000Y-74920000D03*
%TO.P,J3,6,Pin_6*%
%TO.N,X3*%
X80000000Y-73650000D03*
%TO.P,J3,7,Pin_7*%
%TO.N,X2*%
X80000000Y-72380000D03*
%TO.P,J3,8,Pin_8*%
%TO.N,X1*%
X80000000Y-71110000D03*
%TO.P,J3,9,Pin_9*%
%TO.N,X0*%
X80000000Y-69840000D03*
%TO.P,J3,10,Pin_10*%
%TO.N,+5V*%
X80000000Y-68570000D03*
%TO.P,J3,11,Pin_11*%
%TO.N,SHIFT-CLK*%
X80000000Y-67300000D03*
%TO.P,J3,12,Pin_12*%
%TO.N,SHIFT-RST*%
X80000000Y-66030000D03*
%TO.P,J3,13,Pin_13*%
%TO.N,SCL*%
X80000000Y-64760000D03*
%TO.P,J3,14,Pin_14*%
%TO.N,SDA*%
X80000000Y-63490000D03*
%TO.P,J3,15,Pin_15*%
%TO.N,CROSS-RST*%
X80000000Y-62220000D03*
%TO.P,J3,16,Pin_16*%
%TO.N,QLDR*%
X80000000Y-60950000D03*
%TD*%
D17*
%TO.P,C1,1*%
%TO.N,+5V*%
X71500000Y-71950000D03*
%TO.P,C1,2*%
%TO.N,GND*%
X71500000Y-70050000D03*
%TD*%
D18*
%TO.P,D1,1,K*%
%TO.N,Net-(D1-K)*%
X71062500Y-76625000D03*
%TO.P,D1,2,A*%
%TO.N,Net-(D1-A)*%
X69187500Y-76625000D03*
%TD*%
D15*
%TO.P,H1,1,1*%
%TO.N,GND*%
X79875000Y-57750000D03*
%TD*%
D19*
%TO.P,U2,1,C*%
%TO.N,SHIFT-CLK*%
X64250000Y-65125000D03*
%TO.P,U2,2,GND*%
%TO.N,GND*%
X64250000Y-64475000D03*
%TO.P,U2,3,D*%
%TO.N,Net-(J6-Pin_3)*%
X64250000Y-63825000D03*
%TO.P,U2,4,Q*%
%TO.N,Net-(J6-Pin_4)*%
X61590000Y-63825000D03*
%TO.P,U2,5,VCC*%
%TO.N,+5V*%
X61590000Y-64475000D03*
%TO.P,U2,6,~{CLR}*%
%TO.N,SHIFT-RST*%
X61590000Y-65125000D03*
%TD*%
D10*
%TO.P,J5,1,Pin_1*%
%TO.N,unconnected-(J5-Pin_1-Pad1)*%
X76550000Y-57500000D03*
D11*
%TO.P,J5,2,Pin_2*%
%TO.N,CROSS-RST*%
X75280000Y-57500000D03*
%TO.P,J5,3,Pin_3*%
%TO.N,SDA*%
X74010000Y-57500000D03*
%TO.P,J5,4,Pin_4*%
%TO.N,SCL*%
X72740000Y-57500000D03*
%TO.P,J5,5,Pin_5*%
%TO.N,SHIFT-RST*%
X71470000Y-57500000D03*
%TO.P,J5,6,Pin_6*%
%TO.N,SHIFT-CLK*%
X70200000Y-57500000D03*
%TO.P,J5,7,Pin_7*%
%TO.N,+5V*%
X68930000Y-57500000D03*
%TO.P,J5,8,Pin_8*%
%TO.N,Y7*%
X67660000Y-57500000D03*
%TO.P,J5,9,Pin_9*%
%TO.N,Y6*%
X66390000Y-57500000D03*
%TO.P,J5,10,Pin_10*%
%TO.N,Y5*%
X65120000Y-57500000D03*
%TO.P,J5,11,Pin_11*%
%TO.N,Y4*%
X63850000Y-57500000D03*
%TO.P,J5,12,Pin_12*%
%TO.N,Y3*%
X62580000Y-57500000D03*
%TO.P,J5,13,Pin_13*%
%TO.N,Y2*%
X61310000Y-57500000D03*
%TO.P,J5,14,Pin_14*%
%TO.N,Y1*%
X60040000Y-57500000D03*
%TO.P,J5,15,Pin_15*%
%TO.N,Y0*%
X58770000Y-57500000D03*
%TO.P,J5,16,Pin_16*%
%TO.N,GND*%
X57500000Y-57500000D03*
%TD*%
D10*
%TO.P,J6,1,Pin_1*%
%TO.N,DLQR*%
X69000000Y-64125000D03*
D11*
%TO.P,J6,2,Pin_2*%
%TO.N,QLDR*%
X69000000Y-65395000D03*
%TO.P,J6,3,Pin_3*%
%TO.N,Net-(J6-Pin_3)*%
X70270000Y-64125000D03*
%TO.P,J6,4,Pin_4*%
%TO.N,Net-(J6-Pin_4)*%
X70270000Y-65395000D03*
%TO.P,J6,5,Pin_5*%
%TO.N,QLDR*%
X71540000Y-64125000D03*
%TO.P,J6,6,Pin_6*%
%TO.N,DLQR*%
X71540000Y-65395000D03*
%TD*%
D15*
%TO.P,H2,1,1*%
%TO.N,GND*%
X54250000Y-57750000D03*
%TD*%
D20*
%TO.P,R1,1*%
%TO.N,Net-(D1-A)*%
X69250000Y-74037500D03*
%TO.P,R1,2*%
%TO.N,+5V*%
X69250000Y-72212500D03*
%TD*%
D21*
%TO.P,D4,1,K*%
%TO.N,GND*%
X72812500Y-76625000D03*
%TO.P,D4,2,A*%
%TO.N,Net-(D3-K)*%
X74687500Y-76625000D03*
%TD*%
D10*
%TO.P,J2,1,Pin_1*%
%TO.N,GND*%
X54000000Y-80000000D03*
D11*
%TO.P,J2,2,Pin_2*%
%TO.N,X7*%
X54000000Y-78730000D03*
%TO.P,J2,3,Pin_3*%
%TO.N,X6*%
X54000000Y-77460000D03*
%TO.P,J2,4,Pin_4*%
%TO.N,X5*%
X54000000Y-76190000D03*
%TO.P,J2,5,Pin_5*%
%TO.N,X4*%
X54000000Y-74920000D03*
%TO.P,J2,6,Pin_6*%
%TO.N,X3*%
X54000000Y-73650000D03*
%TO.P,J2,7,Pin_7*%
%TO.N,X2*%
X54000000Y-72380000D03*
%TO.P,J2,8,Pin_8*%
%TO.N,X1*%
X54000000Y-71110000D03*
%TO.P,J2,9,Pin_9*%
%TO.N,X0*%
X54000000Y-69840000D03*
%TO.P,J2,10,Pin_10*%
%TO.N,+5V*%
X54000000Y-68570000D03*
%TO.P,J2,11,Pin_11*%
%TO.N,SHIFT-CLK*%
X54000000Y-67300000D03*
%TO.P,J2,12,Pin_12*%
%TO.N,SHIFT-RST*%
X54000000Y-66030000D03*
%TO.P,J2,13,Pin_13*%
%TO.N,SCL*%
X54000000Y-64760000D03*
%TO.P,J2,14,Pin_14*%
%TO.N,SDA*%
X54000000Y-63490000D03*
%TO.P,J2,15,Pin_15*%
%TO.N,CROSS-RST*%
X54000000Y-62220000D03*
%TO.P,J2,16,Pin_16*%
%TO.N,DLQR*%
X54000000Y-60950000D03*
%TD*%
D22*
%TO.N,+5V*%
X59125000Y-64625000D03*
X67625000Y-72000000D03*
X73125000Y-72000000D03*
X60125000Y-69000000D03*
%TO.N,GND*%
X65875000Y-66500000D03*
X66125000Y-64500000D03*
X69625000Y-70375000D03*
X67250000Y-66500000D03*
X72125000Y-78225000D03*
X62625000Y-67625000D03*
X68625000Y-60000000D03*
%TO.N,DLQR*%
X55025000Y-67500000D03*
%TO.N,QLDR*%
X78125000Y-68020000D03*
%TO.N,CROSS-RST*%
X78000000Y-62340000D03*
X77625000Y-68625000D03*
%TO.N,SDA*%
X76875000Y-69375000D03*
X77525000Y-63610000D03*
%TO.N,SCL*%
X76375000Y-70500000D03*
X76630000Y-64880000D03*
X64500000Y-68000000D03*
X67625000Y-68625000D03*
%TO.N,SHIFT-RST*%
X66500000Y-60500000D03*
X60000000Y-65000000D03*
X75500000Y-71125000D03*
X75650000Y-66150000D03*
%TO.N,SHIFT-CLK*%
X74875000Y-67250000D03*
X74625000Y-71750000D03*
%TO.N,X7*%
X67875000Y-81625000D03*
X59125000Y-77250000D03*
%TO.N,X6*%
X67375000Y-81000000D03*
X59145000Y-76250000D03*
%TO.N,X5*%
X59145000Y-75250000D03*
%TO.N,X4*%
X59145000Y-74250000D03*
%TO.N,X3*%
X59145000Y-73250000D03*
%TO.N,X2*%
X59145000Y-72250000D03*
%TO.N,X1*%
X59145000Y-71250000D03*
%TO.N,X0*%
X59145000Y-70250000D03*
%TO.N,Net-(J6-Pin_4)*%
X60250000Y-66625000D03*
X63375000Y-68250000D03*
%TO.N,Net-(D1-K)*%
X71062500Y-76625000D03*
%TO.N,Net-(D3-K)*%
X74687500Y-76625000D03*
%TD*%
D23*
%TO.N,SCL*%
X64500000Y-68000000D02*
X63940000Y-68560000D01*
X63940000Y-68560000D02*
X63940000Y-69690000D01*
D24*
%TO.N,+5V*%
X67625000Y-78697258D02*
X68930000Y-80002258D01*
D23*
X61515000Y-64400000D02*
X59350000Y-64400000D01*
D24*
X67625000Y-72000000D02*
X67625000Y-78697258D01*
D23*
X65565000Y-69690000D02*
X65625000Y-69750000D01*
D24*
X68930000Y-80002258D02*
X68930000Y-83500000D01*
D23*
X61590000Y-64475000D02*
X61515000Y-64400000D01*
D24*
X67625000Y-72000000D02*
X67625000Y-70550000D01*
D23*
X65625000Y-69750000D02*
X65625000Y-70375000D01*
D24*
X59695000Y-68570000D02*
X60125000Y-69000000D01*
D23*
X64940000Y-69690000D02*
X65565000Y-69690000D01*
D24*
X54000000Y-68570000D02*
X59695000Y-68570000D01*
X67625000Y-70550000D02*
X67800000Y-70375000D01*
D23*
X59350000Y-64400000D02*
X59125000Y-64625000D01*
D24*
X67625000Y-72000000D02*
X73125000Y-72000000D01*
D23*
X65625000Y-70375000D02*
X67800000Y-70375000D01*
%TO.N,GND*%
X72812500Y-76625000D02*
X72812500Y-77562500D01*
X61440000Y-69690000D02*
X60810000Y-69690000D01*
D24*
X54375000Y-57500000D02*
X54250000Y-57625000D01*
D23*
X69825000Y-70500000D02*
X69700000Y-70375000D01*
X62940000Y-71875000D02*
X63190000Y-72125000D01*
X62625000Y-67625000D02*
X62440000Y-67810000D01*
X62440000Y-67810000D02*
X62440000Y-69690000D01*
D24*
X78000000Y-59625000D02*
X69000000Y-59625000D01*
D23*
X60790000Y-70410000D02*
X61475000Y-70410000D01*
X64275000Y-64500000D02*
X64250000Y-64475000D01*
X61440000Y-69690000D02*
X61440000Y-70375000D01*
X60810000Y-69690000D02*
X60755000Y-69745000D01*
X61475000Y-70410000D02*
X63190000Y-72125000D01*
X61440000Y-70375000D02*
X63190000Y-72125000D01*
X66125000Y-64500000D02*
X64275000Y-64500000D01*
D24*
X57500000Y-57500000D02*
X54375000Y-57500000D01*
D23*
X72812500Y-77562500D02*
X72125000Y-78250000D01*
X62940000Y-69690000D02*
X62940000Y-70125000D01*
D24*
X54000000Y-83000000D02*
X54250000Y-83250000D01*
D23*
X62940000Y-70125000D02*
X62940000Y-71875000D01*
X62440000Y-69690000D02*
X62940000Y-69690000D01*
X72125000Y-78250000D02*
X72125000Y-78225000D01*
D24*
X71500000Y-70050000D02*
X70025000Y-70050000D01*
X57500000Y-83500000D02*
X54500000Y-83500000D01*
X80000000Y-83250000D02*
X79875000Y-83375000D01*
X69000000Y-59625000D02*
X68750000Y-59875000D01*
X54000000Y-80000000D02*
X54000000Y-83000000D01*
D23*
X62440000Y-69690000D02*
X62440000Y-71375000D01*
D24*
X70025000Y-70050000D02*
X69700000Y-70375000D01*
D23*
X62440000Y-71375000D02*
X63190000Y-72125000D01*
D24*
X80000000Y-80120000D02*
X80000000Y-83250000D01*
D23*
X60755000Y-69745000D02*
X60755000Y-70375000D01*
D24*
X79875000Y-57750000D02*
X78000000Y-59625000D01*
X54500000Y-83500000D02*
X54250000Y-83250000D01*
X65875000Y-66500000D02*
X67250000Y-66500000D01*
D23*
X60755000Y-70375000D02*
X60790000Y-70410000D01*
%TO.N,DLQR*%
X66000000Y-65125000D02*
X64625000Y-66500000D01*
X67375000Y-65125000D02*
X66000000Y-65125000D01*
X67500000Y-64125000D02*
X67375000Y-64250000D01*
X67375000Y-64250000D02*
X67375000Y-65125000D01*
X64625000Y-66500000D02*
X61500000Y-66500000D01*
X60500000Y-67500000D02*
X55025000Y-67500000D01*
X69000000Y-64125000D02*
X67500000Y-64125000D01*
X61500000Y-66500000D02*
X60500000Y-67500000D01*
%TO.N,QLDR*%
X72500000Y-65085000D02*
X71540000Y-64125000D01*
X72500000Y-66625000D02*
X70230000Y-66625000D01*
X70230000Y-66625000D02*
X69000000Y-65395000D01*
X72500000Y-66625000D02*
X72500000Y-65085000D01*
X73895000Y-68020000D02*
X72500000Y-66625000D01*
X78125000Y-68020000D02*
X73895000Y-68020000D01*
%TO.N,CROSS-RST*%
X78625000Y-79825000D02*
X75280000Y-83170000D01*
X67950000Y-60625000D02*
X67950000Y-59075000D01*
X78625000Y-69250000D02*
X78625000Y-79825000D01*
X72500000Y-67375000D02*
X73750000Y-68625000D01*
X61437500Y-67312500D02*
X61850000Y-66900000D01*
X67950000Y-59075000D02*
X67625000Y-58750000D01*
X78000000Y-62340000D02*
X77590000Y-62340000D01*
X75280000Y-83170000D02*
X75280000Y-83500000D01*
X64500000Y-67375000D02*
X72500000Y-67375000D01*
X67625000Y-58750000D02*
X58750000Y-58750000D01*
X80000000Y-62220000D02*
X78120000Y-62220000D01*
X61850000Y-66900000D02*
X64025000Y-66900000D01*
X61940000Y-68440000D02*
X61437500Y-67937500D01*
X55280000Y-62220000D02*
X54000000Y-62220000D01*
X61437500Y-67937500D02*
X61437500Y-67312500D01*
X77590000Y-62340000D02*
X76100000Y-60850000D01*
X73750000Y-68625000D02*
X78000000Y-68625000D01*
X64025000Y-66900000D02*
X64500000Y-67375000D01*
X76100000Y-60850000D02*
X68975000Y-60850000D01*
X78120000Y-62220000D02*
X78000000Y-62340000D01*
X61940000Y-69690000D02*
X61940000Y-68440000D01*
X68750000Y-60625000D02*
X67950000Y-60625000D01*
X68975000Y-60850000D02*
X68750000Y-60625000D01*
X58750000Y-58750000D02*
X55280000Y-62220000D01*
X78000000Y-68625000D02*
X78625000Y-69250000D01*
%TO.N,SDA*%
X77750000Y-70250000D02*
X77750000Y-70750000D01*
X77750000Y-70750000D02*
X77750000Y-79760000D01*
X80000000Y-63490000D02*
X77645000Y-63490000D01*
X77750000Y-70375000D02*
X77750000Y-70750000D01*
X65785088Y-67875000D02*
X64440000Y-69220088D01*
X58915686Y-59150000D02*
X67375000Y-59150000D01*
X68600000Y-61100000D02*
X68750000Y-61250000D01*
X64440000Y-69220088D02*
X64440000Y-69690000D01*
X54575686Y-63490000D02*
X58915686Y-59150000D01*
X77645000Y-63490000D02*
X77525000Y-63610000D01*
X74010000Y-83500000D02*
X77750000Y-79760000D01*
X72250000Y-67875000D02*
X65785088Y-67875000D01*
X77100000Y-63475000D02*
X77250000Y-63625000D01*
X76875000Y-69375000D02*
X77750000Y-70250000D01*
X67375000Y-59150000D02*
X67550000Y-59325000D01*
X68750000Y-61250000D02*
X75850000Y-61250000D01*
X73750000Y-69375000D02*
X72250000Y-67875000D01*
X75850000Y-61250000D02*
X77100000Y-62500000D01*
X54000000Y-63490000D02*
X54575686Y-63490000D01*
X67550000Y-61050000D02*
X67600000Y-61100000D01*
X76875000Y-69375000D02*
X73750000Y-69375000D01*
X77250000Y-63625000D02*
X77265000Y-63610000D01*
X67550000Y-59325000D02*
X67550000Y-61050000D01*
X67600000Y-61100000D02*
X68600000Y-61100000D01*
X77100000Y-62500000D02*
X77100000Y-63475000D01*
%TO.N,SCL*%
X76375000Y-70500000D02*
X77350000Y-71475000D01*
X68250000Y-61500000D02*
X68450000Y-61700000D01*
X74000000Y-70500000D02*
X72125000Y-68625000D01*
X80000000Y-64760000D02*
X76750000Y-64760000D01*
X67100000Y-59650000D02*
X67100000Y-61475000D01*
X76750000Y-64760000D02*
X76630000Y-64880000D01*
X54000000Y-64760000D02*
X59210000Y-59550000D01*
X72125000Y-68625000D02*
X67625000Y-68625000D01*
X76625000Y-64875000D02*
X76630000Y-64880000D01*
X77350000Y-71475000D02*
X77350000Y-78890000D01*
X67125000Y-61500000D02*
X68250000Y-61500000D01*
X67100000Y-61475000D02*
X67125000Y-61500000D01*
X72740000Y-83500000D02*
X77350000Y-78890000D01*
X67000000Y-59550000D02*
X67100000Y-59650000D01*
X68450000Y-61700000D02*
X75700000Y-61700000D01*
X76625000Y-62625000D02*
X76625000Y-64875000D01*
X59210000Y-59550000D02*
X67000000Y-59550000D01*
X75700000Y-61700000D02*
X76625000Y-62625000D01*
X76375000Y-70500000D02*
X74000000Y-70500000D01*
%TO.N,SHIFT-RST*%
X75770000Y-66030000D02*
X75650000Y-66150000D01*
X66500000Y-61975000D02*
X67975000Y-61975000D01*
X75475000Y-62100000D02*
X75500000Y-62125000D01*
X73250000Y-82125000D02*
X76875000Y-78500000D01*
X66500000Y-60500000D02*
X66500000Y-61975000D01*
X71470000Y-83500000D02*
X72845000Y-82125000D01*
X76875000Y-72500000D02*
X76875000Y-78500000D01*
X68100000Y-62100000D02*
X75475000Y-62100000D01*
X80000000Y-66030000D02*
X75770000Y-66030000D01*
X60125000Y-65125000D02*
X60000000Y-65000000D01*
X61590000Y-65125000D02*
X60125000Y-65125000D01*
X67975000Y-61975000D02*
X68100000Y-62100000D01*
X75500000Y-71125000D02*
X76875000Y-72500000D01*
X66500000Y-60500000D02*
X66500000Y-59950000D01*
X75500000Y-66000000D02*
X75500000Y-62125000D01*
X72845000Y-82125000D02*
X73250000Y-82125000D01*
X60080000Y-59950000D02*
X54000000Y-66030000D01*
X75650000Y-66150000D02*
X75500000Y-66000000D01*
X66500000Y-59950000D02*
X60080000Y-59950000D01*
%TO.N,SHIFT-CLK*%
X74875000Y-62500000D02*
X74875000Y-67250000D01*
X74625000Y-71750000D02*
X76375000Y-73500000D01*
X80000000Y-67300000D02*
X74925000Y-67300000D01*
X67000000Y-62375000D02*
X67125000Y-62500000D01*
X54000000Y-67300000D02*
X60950000Y-60350000D01*
X65375000Y-60350000D02*
X65375000Y-60750000D01*
X64250000Y-65125000D02*
X63250000Y-65125000D01*
X72779314Y-81625000D02*
X71702157Y-82702157D01*
X76375000Y-78375000D02*
X73125000Y-81625000D01*
X74925000Y-67300000D02*
X74875000Y-67250000D01*
X67125000Y-62500000D02*
X74875000Y-62500000D01*
X63000000Y-64875000D02*
X63000000Y-63125000D01*
X63000000Y-63125000D02*
X65375000Y-60750000D01*
X63250000Y-65125000D02*
X63000000Y-64875000D01*
X65375000Y-60750000D02*
X65625000Y-61000000D01*
X65625000Y-61000000D02*
X65625000Y-62375000D01*
X71000000Y-82700000D02*
X70200000Y-83500000D01*
X73125000Y-81625000D02*
X72779314Y-81625000D01*
X76375000Y-73500000D02*
X76375000Y-78375000D01*
X71700000Y-82700000D02*
X71000000Y-82700000D01*
X60950000Y-60350000D02*
X65375000Y-60350000D01*
X65625000Y-62375000D02*
X67000000Y-62375000D01*
X71702157Y-82702157D02*
X71700000Y-82700000D01*
X75045000Y-67420000D02*
X74875000Y-67250000D01*
%TO.N,X7*%
X66625000Y-73375000D02*
X66775000Y-73525000D01*
X68032843Y-80236471D02*
X68032843Y-81467157D01*
X54000000Y-78730000D02*
X56770000Y-78730000D01*
X65625000Y-73375000D02*
X66625000Y-73375000D01*
X56770000Y-78730000D02*
X58250000Y-77250000D01*
X66775000Y-73525000D02*
X66775000Y-78978628D01*
X66775000Y-78978628D02*
X68032843Y-80236471D01*
X58250000Y-77250000D02*
X59125000Y-77250000D01*
X68032843Y-81467157D02*
X67875000Y-81625000D01*
%TO.N,X6*%
X58000000Y-76250000D02*
X59145000Y-76250000D01*
X67375000Y-80144314D02*
X67375000Y-81000000D01*
X65625000Y-73875000D02*
X65625000Y-78394314D01*
X54000000Y-77460000D02*
X56790000Y-77460000D01*
X65625000Y-78394314D02*
X67375000Y-80144314D01*
X56790000Y-77460000D02*
X58000000Y-76250000D01*
%TO.N,X5*%
X57750000Y-75250000D02*
X59145000Y-75250000D01*
X60755000Y-73875000D02*
X59380000Y-75250000D01*
X54000000Y-76190000D02*
X56810000Y-76190000D01*
X56810000Y-76190000D02*
X57750000Y-75250000D01*
X59380000Y-75250000D02*
X59145000Y-75250000D01*
%TO.N,X4*%
X54000000Y-74920000D02*
X56455000Y-74920000D01*
X60755000Y-73375000D02*
X60020000Y-73375000D01*
X57125000Y-74250000D02*
X59145000Y-74250000D01*
X60020000Y-73375000D02*
X59145000Y-74250000D01*
X56455000Y-74920000D02*
X57125000Y-74250000D01*
%TO.N,X3*%
X59145000Y-73250000D02*
X57125000Y-73250000D01*
X57125000Y-73250000D02*
X56725000Y-73650000D01*
X59520000Y-72875000D02*
X59145000Y-73250000D01*
X56725000Y-73650000D02*
X54000000Y-73650000D01*
X60755000Y-72875000D02*
X59520000Y-72875000D01*
%TO.N,X2*%
X57375000Y-72250000D02*
X59145000Y-72250000D01*
X59270000Y-72375000D02*
X59145000Y-72250000D01*
X60755000Y-72375000D02*
X59270000Y-72375000D01*
X54000000Y-72380000D02*
X57245000Y-72380000D01*
X57245000Y-72380000D02*
X57375000Y-72250000D01*
%TO.N,X1*%
X59005000Y-71110000D02*
X59145000Y-71250000D01*
X54000000Y-71110000D02*
X59005000Y-71110000D01*
X54000000Y-71110000D02*
X54000000Y-71000000D01*
X59770000Y-71875000D02*
X60755000Y-71875000D01*
X59145000Y-71250000D02*
X59770000Y-71875000D01*
%TO.N,X0*%
X59145000Y-70250000D02*
X59160088Y-70250000D01*
X59160088Y-70250000D02*
X60285088Y-71375000D01*
X58735000Y-69840000D02*
X59145000Y-70250000D01*
X60285088Y-71375000D02*
X60755000Y-71375000D01*
X54000000Y-69840000D02*
X58735000Y-69840000D01*
%TO.N,Y7*%
X64940000Y-78275000D02*
X66790000Y-80125000D01*
X67660000Y-82625000D02*
X67535000Y-82500000D01*
X64940000Y-74560000D02*
X64940000Y-78275000D01*
X67000000Y-82500000D02*
X66790000Y-82290000D01*
X67660000Y-83500000D02*
X67660000Y-82625000D01*
X66790000Y-82290000D02*
X66790000Y-80125000D01*
X67535000Y-82500000D02*
X67000000Y-82500000D01*
%TO.N,Y6*%
X66390000Y-80750000D02*
X66390000Y-83500000D01*
X64440000Y-78800000D02*
X66390000Y-80750000D01*
X64440000Y-74560000D02*
X64440000Y-78800000D01*
%TO.N,Y5*%
X65120000Y-80745000D02*
X65120000Y-83500000D01*
X63940000Y-74560000D02*
X63940000Y-79565000D01*
X63940000Y-79565000D02*
X65120000Y-80745000D01*
%TO.N,Y4*%
X63440000Y-80565000D02*
X63850000Y-80975000D01*
X63850000Y-80975000D02*
X63850000Y-83500000D01*
X63440000Y-74560000D02*
X63440000Y-80565000D01*
%TO.N,Y3*%
X62580000Y-80170000D02*
X62580000Y-83500000D01*
X62940000Y-79810000D02*
X62580000Y-80170000D01*
X62940000Y-74560000D02*
X62940000Y-79810000D01*
%TO.N,Y2*%
X62440000Y-78560000D02*
X61310000Y-79690000D01*
X61310000Y-79690000D02*
X61310000Y-83500000D01*
X62440000Y-74560000D02*
X62440000Y-78560000D01*
%TO.N,Y1*%
X61940000Y-77560000D02*
X60000000Y-79500000D01*
X60000000Y-79500000D02*
X60040000Y-79540000D01*
X60040000Y-79540000D02*
X60040000Y-83500000D01*
X61940000Y-74560000D02*
X61940000Y-77560000D01*
%TO.N,Y0*%
X61440000Y-76935000D02*
X58770000Y-79605000D01*
X58770000Y-79605000D02*
X58770000Y-83500000D01*
X61440000Y-74560000D02*
X61440000Y-76935000D01*
%TO.N,Net-(J6-Pin_3)*%
X65300000Y-63825000D02*
X66000000Y-63125000D01*
X70250000Y-63125000D02*
X70270000Y-63145000D01*
X64250000Y-63825000D02*
X65300000Y-63825000D01*
X66000000Y-63125000D02*
X70250000Y-63125000D01*
X70270000Y-63145000D02*
X70270000Y-64125000D01*
%TO.N,Net-(J6-Pin_4)*%
X57000000Y-65125000D02*
X57000000Y-66500000D01*
X63440000Y-69690000D02*
X63440000Y-68315000D01*
X57000000Y-66500000D02*
X57125000Y-66625000D01*
X58300000Y-63825000D02*
X57000000Y-65125000D01*
X57125000Y-66625000D02*
X60250000Y-66625000D01*
X63440000Y-68315000D02*
X63375000Y-68250000D01*
X61590000Y-63825000D02*
X58300000Y-63825000D01*
%TO.N,Net-(D1-A)*%
X69250000Y-76562500D02*
X69187500Y-76625000D01*
X69250000Y-74037500D02*
X69250000Y-76562500D01*
%TD*%
%TA.AperFunction,Conductor*%
%TO.N,GND*%
G36*
X53414894Y-83973624D02*
G01*
X53566932Y-84118592D01*
X53669222Y-84184329D01*
X52736564Y-85116987D01*
X52736565Y-85116989D01*
X52954299Y-85275182D01*
X52996965Y-85330512D01*
X53002944Y-85400125D01*
X52970338Y-85461920D01*
X52909500Y-85496277D01*
X52881414Y-85499500D01*
X52124500Y-85499500D01*
X52057461Y-85479815D01*
X52011706Y-85427011D01*
X52000500Y-85375500D01*
X52000500Y-84611226D01*
X52020185Y-84544187D01*
X52072989Y-84498432D01*
X52142147Y-84488488D01*
X52205703Y-84517513D01*
X52229197Y-84544784D01*
X52304516Y-84663469D01*
X52385311Y-84761133D01*
X53314210Y-83832234D01*
X53414894Y-83973624D01*
G37*
%TD.AperFunction*%
%TA.AperFunction,Conductor*%
G36*
X57750000Y-84469159D02*
G01*
X57884534Y-84428349D01*
X58058259Y-84335492D01*
X58063320Y-84332111D01*
X58064444Y-84333793D01*
X58120203Y-84310086D01*
X58189075Y-84321851D01*
X58206186Y-84332843D01*
X58206399Y-84332526D01*
X58211457Y-84335906D01*
X58211462Y-84335910D01*
X58332956Y-84400850D01*
X58383147Y-84427678D01*
X58385273Y-84428814D01*
X58573868Y-84486024D01*
X58770000Y-84505341D01*
X58966132Y-84486024D01*
X59154727Y-84428814D01*
X59328538Y-84335910D01*
X59328544Y-84335904D01*
X59333607Y-84332523D01*
X59334703Y-84334164D01*
X59390639Y-84310405D01*
X59459507Y-84322194D01*
X59476148Y-84332888D01*
X59476393Y-84332523D01*
X59481458Y-84335907D01*
X59481462Y-84335910D01*
X59617263Y-84408497D01*
X59653147Y-84427678D01*
X59655273Y-84428814D01*
X59843868Y-84486024D01*
X60040000Y-84505341D01*
X60236132Y-84486024D01*
X60424727Y-84428814D01*
X60598538Y-84335910D01*
X60598544Y-84335904D01*
X60603607Y-84332523D01*
X60604703Y-84334164D01*
X60660639Y-84310405D01*
X60729507Y-84322194D01*
X60746148Y-84332888D01*
X60746393Y-84332523D01*
X60751458Y-84335907D01*
X60751462Y-84335910D01*
X60887263Y-84408497D01*
X60923147Y-84427678D01*
X60925273Y-84428814D01*
X61113868Y-84486024D01*
X61310000Y-84505341D01*
X61506132Y-84486024D01*
X61694727Y-84428814D01*
X61868538Y-84335910D01*
X61868544Y-84335904D01*
X61873607Y-84332523D01*
X61874703Y-84334164D01*
X61930639Y-84310405D01*
X61999507Y-84322194D01*
X62016148Y-84332888D01*
X62016393Y-84332523D01*
X62021458Y-84335907D01*
X62021462Y-84335910D01*
X62157263Y-84408497D01*
X62193147Y-84427678D01*
X62195273Y-84428814D01*
X62383868Y-84486024D01*
X62580000Y-84505341D01*
X62776132Y-84486024D01*
X62964727Y-84428814D01*
X63138538Y-84335910D01*
X63138544Y-84335904D01*
X63143607Y-84332523D01*
X63144703Y-84334164D01*
X63200639Y-84310405D01*
X63269507Y-84322194D01*
X63286148Y-84332888D01*
X63286393Y-84332523D01*
X63291458Y-84335907D01*
X63291462Y-84335910D01*
X63427263Y-84408497D01*
X63463147Y-84427678D01*
X63465273Y-84428814D01*
X63653868Y-84486024D01*
X63850000Y-84505341D01*
X64046132Y-84486024D01*
X64234727Y-84428814D01*
X64408538Y-84335910D01*
X64408544Y-84335904D01*
X64413607Y-84332523D01*
X64414703Y-84334164D01*
X64470639Y-84310405D01*
X64539507Y-84322194D01*
X64556148Y-84332888D01*
X64556393Y-84332523D01*
X64561458Y-84335907D01*
X64561462Y-84335910D01*
X64697263Y-84408497D01*
X64733147Y-84427678D01*
X64735273Y-84428814D01*
X64923868Y-84486024D01*
X65120000Y-84505341D01*
X65316132Y-84486024D01*
X65504727Y-84428814D01*
X65678538Y-84335910D01*
X65678544Y-84335904D01*
X65683607Y-84332523D01*
X65684703Y-84334164D01*
X65740639Y-84310405D01*
X65809507Y-84322194D01*
X65826148Y-84332888D01*
X65826393Y-84332523D01*
X65831458Y-84335907D01*
X65831462Y-84335910D01*
X65967263Y-84408497D01*
X66003147Y-84427678D01*
X66005273Y-84428814D01*
X66193868Y-84486024D01*
X66390000Y-84505341D01*
X66586132Y-84486024D01*
X66774727Y-84428814D01*
X66948538Y-84335910D01*
X66948544Y-84335904D01*
X66953607Y-84332523D01*
X66954703Y-84334164D01*
X67010639Y-84310405D01*
X67079507Y-84322194D01*
X67096148Y-84332888D01*
X67096393Y-84332523D01*
X67101458Y-84335907D01*
X67101462Y-84335910D01*
X67237263Y-84408497D01*
X67273147Y-84427678D01*
X67275273Y-84428814D01*
X67463868Y-84486024D01*
X67660000Y-84505341D01*
X67856132Y-84486024D01*
X68044727Y-84428814D01*
X68218538Y-84335910D01*
X68218544Y-84335904D01*
X68223607Y-84332523D01*
X68224706Y-84334169D01*
X68280610Y-84310408D01*
X68349481Y-84322180D01*
X68366153Y-84332892D01*
X68366398Y-84332526D01*
X68371455Y-84335904D01*
X68371462Y-84335910D01*
X68374939Y-84337768D01*
X68392389Y-84349072D01*
X68398042Y-84353448D01*
X68471078Y-84389273D01*
X68471808Y-84389631D01*
X68475654Y-84391601D01*
X68513040Y-84411585D01*
X68545273Y-84428814D01*
X68552477Y-84430999D01*
X68571093Y-84438333D01*
X68580729Y-84443060D01*
X68656850Y-84462769D01*
X68661733Y-84464142D01*
X68716376Y-84480718D01*
X68733868Y-84486024D01*
X68742956Y-84486918D01*
X68744926Y-84487113D01*
X68763854Y-84490474D01*
X68777711Y-84494062D01*
X68777715Y-84494063D01*
X68852679Y-84497864D01*
X68858484Y-84498297D01*
X68930000Y-84505341D01*
X68944630Y-84503899D01*
X68963056Y-84503462D01*
X68980936Y-84504369D01*
X69051596Y-84493543D01*
X69058176Y-84492716D01*
X69126132Y-84486024D01*
X69143632Y-84480714D01*
X69160837Y-84476808D01*
X69182071Y-84473556D01*
X69218578Y-84460035D01*
X69245742Y-84449974D01*
X69252798Y-84447598D01*
X69314727Y-84428814D01*
X69334006Y-84418508D01*
X69349391Y-84411586D01*
X69372887Y-84402886D01*
X69372891Y-84402882D01*
X69372894Y-84402882D01*
X69427488Y-84368853D01*
X69434628Y-84364725D01*
X69455728Y-84353447D01*
X69488538Y-84335910D01*
X69488544Y-84335904D01*
X69493599Y-84332528D01*
X69494697Y-84334172D01*
X69550614Y-84310408D01*
X69619485Y-84322183D01*
X69636155Y-84332891D01*
X69636399Y-84332527D01*
X69641458Y-84335907D01*
X69641462Y-84335910D01*
X69641464Y-84335911D01*
X69641467Y-84335913D01*
X69815266Y-84428811D01*
X69815269Y-84428811D01*
X69815273Y-84428814D01*
X70003868Y-84486024D01*
X70200000Y-84505341D01*
X70396132Y-84486024D01*
X70584727Y-84428814D01*
X70758538Y-84335910D01*
X70758544Y-84335904D01*
X70763607Y-84332523D01*
X70764703Y-84334164D01*
X70820639Y-84310405D01*
X70889507Y-84322194D01*
X70906148Y-84332888D01*
X70906393Y-84332523D01*
X70911458Y-84335907D01*
X70911462Y-84335910D01*
X71047263Y-84408497D01*
X71083147Y-84427678D01*
X71085273Y-84428814D01*
X71273868Y-84486024D01*
X71470000Y-84505341D01*
X71666132Y-84486024D01*
X71854727Y-84428814D01*
X72028538Y-84335910D01*
X72028544Y-84335904D01*
X72033607Y-84332523D01*
X72034703Y-84334164D01*
X72090639Y-84310405D01*
X72159507Y-84322194D01*
X72176148Y-84332888D01*
X72176393Y-84332523D01*
X72181458Y-84335907D01*
X72181462Y-84335910D01*
X72317263Y-84408497D01*
X72353147Y-84427678D01*
X72355273Y-84428814D01*
X72543868Y-84486024D01*
X72740000Y-84505341D01*
X72936132Y-84486024D01*
X73124727Y-84428814D01*
X73298538Y-84335910D01*
X73298544Y-84335904D01*
X73303607Y-84332523D01*
X73304703Y-84334164D01*
X73360639Y-84310405D01*
X73429507Y-84322194D01*
X73446148Y-84332888D01*
X73446393Y-84332523D01*
X73451458Y-84335907D01*
X73451462Y-84335910D01*
X73587263Y-84408497D01*
X73623147Y-84427678D01*
X73625273Y-84428814D01*
X73813868Y-84486024D01*
X74010000Y-84505341D01*
X74206132Y-84486024D01*
X74394727Y-84428814D01*
X74568538Y-84335910D01*
X74568544Y-84335904D01*
X74573607Y-84332523D01*
X74574703Y-84334164D01*
X74630639Y-84310405D01*
X74699507Y-84322194D01*
X74716148Y-84332888D01*
X74716393Y-84332523D01*
X74721458Y-84335907D01*
X74721462Y-84335910D01*
X74857263Y-84408497D01*
X74893147Y-84427678D01*
X74895273Y-84428814D01*
X75083868Y-84486024D01*
X75280000Y-84505341D01*
X75476132Y-84486024D01*
X75664727Y-84428814D01*
X75666853Y-84427677D01*
X75668095Y-84427418D01*
X75670355Y-84426483D01*
X75670532Y-84426911D01*
X75735254Y-84413435D01*
X75799615Y-84437767D01*
X75807669Y-84443796D01*
X75899772Y-84478148D01*
X75942517Y-84494091D01*
X75942516Y-84494091D01*
X75949444Y-84494835D01*
X76002127Y-84500500D01*
X77097872Y-84500499D01*
X77157483Y-84494091D01*
X77292331Y-84443796D01*
X77407546Y-84357546D01*
X77454227Y-84295188D01*
X77510160Y-84253318D01*
X77579852Y-84248334D01*
X77641175Y-84281819D01*
X77665692Y-84316703D01*
X77767709Y-84533500D01*
X77929516Y-84788469D01*
X78010311Y-84886133D01*
X78939210Y-83957234D01*
X79039894Y-84098624D01*
X79191932Y-84243592D01*
X79294222Y-84309329D01*
X78361564Y-85241987D01*
X78361565Y-85241989D01*
X78407251Y-85275182D01*
X78449917Y-85330512D01*
X78455896Y-85400125D01*
X78423290Y-85461920D01*
X78362452Y-85496277D01*
X78334366Y-85499500D01*
X55618586Y-85499500D01*
X55551547Y-85479815D01*
X55505792Y-85427011D01*
X55495848Y-85357853D01*
X55524873Y-85294297D01*
X55545700Y-85275182D01*
X55763433Y-85116987D01*
X55763434Y-85116987D01*
X54833307Y-84186859D01*
X54847410Y-84179589D01*
X55012540Y-84049729D01*
X55150110Y-83890965D01*
X55184665Y-83831112D01*
X56114687Y-84761134D01*
X56195486Y-84663464D01*
X56357292Y-84408497D01*
X56357295Y-84408491D01*
X56485867Y-84135263D01*
X56487031Y-84132324D01*
X56530006Y-84077234D01*
X56595943Y-84054123D01*
X56663907Y-84070328D01*
X56698182Y-84099293D01*
X56789471Y-84210528D01*
X56941739Y-84335491D01*
X57115465Y-84428349D01*
X57250000Y-84469159D01*
X57250000Y-83748938D01*
X57331115Y-83812072D01*
X57441595Y-83850000D01*
X57529005Y-83850000D01*
X57615216Y-83835614D01*
X57717947Y-83780019D01*
X57750000Y-83745200D01*
X57750000Y-84469159D01*
G37*
%TD.AperFunction*%
%TA.AperFunction,Conductor*%
G36*
X81739687Y-84886134D02*
G01*
X81779956Y-84837458D01*
X81837856Y-84798350D01*
X81907707Y-84796754D01*
X81967333Y-84833175D01*
X81997803Y-84896051D01*
X81999500Y-84916498D01*
X81999500Y-85375500D01*
X81979815Y-85442539D01*
X81927011Y-85488294D01*
X81875500Y-85499500D01*
X81415632Y-85499500D01*
X81348593Y-85479815D01*
X81302838Y-85427011D01*
X81292894Y-85357853D01*
X81321919Y-85294297D01*
X81342746Y-85275182D01*
X81388433Y-85241987D01*
X81388434Y-85241987D01*
X80458307Y-84311859D01*
X80472410Y-84304589D01*
X80637540Y-84174729D01*
X80775110Y-84015965D01*
X80809665Y-83956112D01*
X81739687Y-84886134D01*
G37*
%TD.AperFunction*%
%TA.AperFunction,Conductor*%
G36*
X58590099Y-77861649D02*
G01*
X58616527Y-77876610D01*
X58616842Y-77876111D01*
X58622737Y-77879815D01*
X58622738Y-77879816D01*
X58775478Y-77975789D01*
X58945745Y-78035368D01*
X58945750Y-78035369D01*
X59124996Y-78055565D01*
X59124999Y-78055565D01*
X59124999Y-78055564D01*
X59125000Y-78055565D01*
X59161890Y-78051408D01*
X59230709Y-78063461D01*
X59282089Y-78110809D01*
X59299715Y-78178419D01*
X59277990Y-78244826D01*
X59263454Y-78262309D01*
X58378965Y-79146798D01*
X58366775Y-79157489D01*
X58341716Y-79176718D01*
X58279419Y-79257908D01*
X58257261Y-79286785D01*
X58245464Y-79302159D01*
X58245462Y-79302162D01*
X58245461Y-79302163D01*
X58184957Y-79448234D01*
X58184955Y-79448239D01*
X58164318Y-79604998D01*
X58164318Y-79604999D01*
X58168439Y-79636301D01*
X58169500Y-79652487D01*
X58169500Y-82517085D01*
X58149815Y-82584124D01*
X58097011Y-82629879D01*
X58027853Y-82639823D01*
X57987047Y-82626443D01*
X57884541Y-82571652D01*
X57750000Y-82530839D01*
X57750000Y-83251061D01*
X57668885Y-83187928D01*
X57558405Y-83150000D01*
X57470995Y-83150000D01*
X57384784Y-83164386D01*
X57282053Y-83219981D01*
X57250000Y-83254799D01*
X57250000Y-82530839D01*
X57249999Y-82530839D01*
X57115458Y-82571652D01*
X56941746Y-82664503D01*
X56941739Y-82664507D01*
X56791694Y-82787647D01*
X56727384Y-82814960D01*
X56658516Y-82803169D01*
X56606956Y-82756017D01*
X56591225Y-82715028D01*
X56579194Y-82651960D01*
X56485874Y-82364752D01*
X56485872Y-82364747D01*
X56357295Y-82091508D01*
X56357292Y-82091502D01*
X56195483Y-81836530D01*
X56114686Y-81738864D01*
X55185787Y-82667763D01*
X55085106Y-82526376D01*
X54933068Y-82381408D01*
X54830776Y-82315669D01*
X55763434Y-81383011D01*
X55763433Y-81383009D01*
X55538538Y-81219614D01*
X55538520Y-81219602D01*
X55273890Y-81074121D01*
X55273882Y-81074117D01*
X54993110Y-80962952D01*
X54993106Y-80962951D01*
X54992143Y-80962704D01*
X54991901Y-80962559D01*
X54989405Y-80961749D01*
X54989588Y-80961183D01*
X54932112Y-80926955D01*
X54900937Y-80864426D01*
X54908517Y-80794969D01*
X54923737Y-80768292D01*
X54943352Y-80742090D01*
X54943354Y-80742086D01*
X54993596Y-80607379D01*
X54993598Y-80607372D01*
X54999999Y-80547844D01*
X55000000Y-80547827D01*
X55000000Y-80250000D01*
X54245581Y-80250000D01*
X54297060Y-80194079D01*
X54343982Y-80087108D01*
X54353628Y-79970698D01*
X54324953Y-79857462D01*
X54261064Y-79759673D01*
X54248636Y-79750000D01*
X55000000Y-79750000D01*
X55000000Y-79454500D01*
X55019685Y-79387461D01*
X55072489Y-79341706D01*
X55124000Y-79330500D01*
X56722513Y-79330500D01*
X56738697Y-79331560D01*
X56770000Y-79335682D01*
X56770001Y-79335682D01*
X56850857Y-79325037D01*
X56926762Y-79315044D01*
X57072841Y-79254536D01*
X57107056Y-79228282D01*
X57198282Y-79158282D01*
X57217510Y-79133222D01*
X57228189Y-79121044D01*
X58459086Y-77890148D01*
X58520407Y-77856665D01*
X58590099Y-77861649D01*
G37*
%TD.AperFunction*%
%TA.AperFunction,Conductor*%
G36*
X78923617Y-80478130D02*
G01*
X78979550Y-80520002D01*
X79003572Y-80581056D01*
X79006401Y-80607372D01*
X79006403Y-80607379D01*
X79056645Y-80742086D01*
X79056649Y-80742093D01*
X79142809Y-80857187D01*
X79142812Y-80857190D01*
X79163107Y-80872383D01*
X79204978Y-80928316D01*
X79209962Y-80998008D01*
X79176477Y-81059331D01*
X79134444Y-81086941D01*
X78851112Y-81199120D01*
X78851109Y-81199121D01*
X78586476Y-81344604D01*
X78586471Y-81344607D01*
X78361565Y-81508010D01*
X78361564Y-81508011D01*
X79291693Y-82438140D01*
X79277590Y-82445411D01*
X79112460Y-82575271D01*
X78974890Y-82734035D01*
X78940334Y-82793887D01*
X78010311Y-81863864D01*
X77929520Y-81961525D01*
X77929518Y-81961528D01*
X77767707Y-82216502D01*
X77767704Y-82216508D01*
X77639127Y-82489747D01*
X77639127Y-82489748D01*
X77607414Y-82587348D01*
X77567976Y-82645023D01*
X77503617Y-82672221D01*
X77434771Y-82660306D01*
X77415554Y-82646552D01*
X77414645Y-82647768D01*
X77292335Y-82556206D01*
X77292328Y-82556202D01*
X77157482Y-82505908D01*
X77157483Y-82505908D01*
X77097883Y-82499501D01*
X77097881Y-82499500D01*
X77097873Y-82499500D01*
X77097864Y-82499500D01*
X77094548Y-82499322D01*
X77094609Y-82498182D01*
X77032057Y-82479815D01*
X76986302Y-82427011D01*
X76976358Y-82357853D01*
X77005383Y-82294297D01*
X77011415Y-82287819D01*
X77791225Y-81508009D01*
X78792604Y-80506629D01*
X78853925Y-80473146D01*
X78923617Y-80478130D01*
G37*
%TD.AperFunction*%
%TA.AperFunction,Conductor*%
G36*
X81739687Y-59261134D02*
G01*
X81779956Y-59212458D01*
X81837856Y-59173350D01*
X81907707Y-59171754D01*
X81967333Y-59208175D01*
X81997803Y-59271051D01*
X81999500Y-59291498D01*
X81999500Y-81833500D01*
X81979815Y-81900539D01*
X81927011Y-81946294D01*
X81857853Y-81956238D01*
X81794297Y-81927213D01*
X81779957Y-81912541D01*
X81739687Y-81863864D01*
X80810788Y-82792763D01*
X80710106Y-82651376D01*
X80558068Y-82506408D01*
X80455776Y-82440669D01*
X81388434Y-81508011D01*
X81388433Y-81508009D01*
X81163538Y-81344614D01*
X81163520Y-81344602D01*
X80898890Y-81199121D01*
X80898887Y-81199120D01*
X80779073Y-81151682D01*
X80723988Y-81108701D01*
X80700885Y-81042762D01*
X80717099Y-80974799D01*
X80750410Y-80937123D01*
X80857190Y-80857186D01*
X80943350Y-80742093D01*
X80943354Y-80742086D01*
X80993596Y-80607379D01*
X80993598Y-80607372D01*
X80999999Y-80547844D01*
X81000000Y-80547827D01*
X81000000Y-80250000D01*
X80245581Y-80250000D01*
X80297060Y-80194079D01*
X80343982Y-80087108D01*
X80353628Y-79970698D01*
X80324953Y-79857462D01*
X80261064Y-79759673D01*
X80248636Y-79750000D01*
X81000000Y-79750000D01*
X81000000Y-79452172D01*
X80999999Y-79452155D01*
X80993598Y-79392627D01*
X80993597Y-79392623D01*
X80943351Y-79257908D01*
X80937510Y-79250106D01*
X80913091Y-79184642D01*
X80926752Y-79120466D01*
X80926483Y-79120355D01*
X80927086Y-79118899D01*
X80927418Y-79117338D01*
X80928814Y-79114727D01*
X80986024Y-78926132D01*
X81005341Y-78730000D01*
X80986024Y-78533868D01*
X80928814Y-78345273D01*
X80835910Y-78171462D01*
X80835907Y-78171458D01*
X80832523Y-78166393D01*
X80834164Y-78165296D01*
X80810405Y-78109361D01*
X80822194Y-78040493D01*
X80832888Y-78023851D01*
X80832523Y-78023607D01*
X80835904Y-78018544D01*
X80835910Y-78018538D01*
X80928814Y-77844727D01*
X80986024Y-77656132D01*
X81005341Y-77460000D01*
X80986024Y-77263868D01*
X80928814Y-77075273D01*
X80926396Y-77070750D01*
X80915986Y-77051275D01*
X80835910Y-76901462D01*
X80835907Y-76901458D01*
X80832523Y-76896393D01*
X80834164Y-76895296D01*
X80810405Y-76839361D01*
X80822194Y-76770493D01*
X80832888Y-76753851D01*
X80832523Y-76753607D01*
X80835904Y-76748544D01*
X80835910Y-76748538D01*
X80928814Y-76574727D01*
X80986024Y-76386132D01*
X81005341Y-76190000D01*
X80986024Y-75993868D01*
X80928814Y-75805273D01*
X80835910Y-75631462D01*
X80835907Y-75631458D01*
X80832523Y-75626393D01*
X80834164Y-75625296D01*
X80810405Y-75569361D01*
X80822194Y-75500493D01*
X80832888Y-75483851D01*
X80832523Y-75483607D01*
X80835904Y-75478544D01*
X80835910Y-75478538D01*
X80928814Y-75304727D01*
X80986024Y-75116132D01*
X81005341Y-74920000D01*
X80986024Y-74723868D01*
X80928814Y-74535273D01*
X80835910Y-74361462D01*
X80835907Y-74361458D01*
X80832523Y-74356393D01*
X80834164Y-74355296D01*
X80810405Y-74299361D01*
X80822194Y-74230493D01*
X80832888Y-74213851D01*
X80832523Y-74213607D01*
X80835904Y-74208544D01*
X80835910Y-74208538D01*
X80928814Y-74034727D01*
X80986024Y-73846132D01*
X81005341Y-73650000D01*
X80986024Y-73453868D01*
X80928814Y-73265273D01*
X80835910Y-73091462D01*
X80835907Y-73091458D01*
X80832523Y-73086393D01*
X80834164Y-73085296D01*
X80810405Y-73029361D01*
X80822194Y-72960493D01*
X80832888Y-72943851D01*
X80832523Y-72943607D01*
X80835904Y-72938544D01*
X80835910Y-72938538D01*
X80928814Y-72764727D01*
X80986024Y-72576132D01*
X81005341Y-72380000D01*
X80986024Y-72183868D01*
X80928814Y-71995273D01*
X80835910Y-71821462D01*
X80835907Y-71821458D01*
X80832523Y-71816393D01*
X80834164Y-71815296D01*
X80810405Y-71759361D01*
X80822194Y-71690493D01*
X80832888Y-71673851D01*
X80832523Y-71673607D01*
X80835904Y-71668544D01*
X80835910Y-71668538D01*
X80928814Y-71494727D01*
X80986024Y-71306132D01*
X81005341Y-71110000D01*
X80986024Y-70913868D01*
X80928814Y-70725273D01*
X80835910Y-70551462D01*
X80835907Y-70551458D01*
X80832523Y-70546393D01*
X80834164Y-70545296D01*
X80810405Y-70489361D01*
X80822194Y-70420493D01*
X80832888Y-70403851D01*
X80832523Y-70403607D01*
X80835904Y-70398544D01*
X80835910Y-70398538D01*
X80928814Y-70224727D01*
X80986024Y-70036132D01*
X81005341Y-69840000D01*
X80986024Y-69643868D01*
X80928814Y-69455273D01*
X80835910Y-69281462D01*
X80835907Y-69281458D01*
X80832523Y-69276393D01*
X80834164Y-69275296D01*
X80810405Y-69219361D01*
X80822194Y-69150493D01*
X80832888Y-69133851D01*
X80832523Y-69133607D01*
X80835904Y-69128544D01*
X80835910Y-69128538D01*
X80928814Y-68954727D01*
X80986024Y-68766132D01*
X81005341Y-68570000D01*
X80986024Y-68373868D01*
X80928814Y-68185273D01*
X80835910Y-68011462D01*
X80835907Y-68011458D01*
X80832523Y-68006393D01*
X80834164Y-68005296D01*
X80810405Y-67949361D01*
X80822194Y-67880493D01*
X80832888Y-67863851D01*
X80832523Y-67863607D01*
X80835904Y-67858544D01*
X80835910Y-67858538D01*
X80928814Y-67684727D01*
X80986024Y-67496132D01*
X81005341Y-67300000D01*
X80986024Y-67103868D01*
X80928814Y-66915273D01*
X80835910Y-66741462D01*
X80835907Y-66741458D01*
X80832523Y-66736393D01*
X80834164Y-66735296D01*
X80810405Y-66679361D01*
X80822194Y-66610493D01*
X80832888Y-66593851D01*
X80832523Y-66593607D01*
X80835904Y-66588544D01*
X80835910Y-66588538D01*
X80928814Y-66414727D01*
X80986024Y-66226132D01*
X81005341Y-66030000D01*
X80986024Y-65833868D01*
X80928814Y-65645273D01*
X80835910Y-65471462D01*
X80835907Y-65471458D01*
X80832523Y-65466393D01*
X80834164Y-65465296D01*
X80810405Y-65409361D01*
X80822194Y-65340493D01*
X80832888Y-65323851D01*
X80832523Y-65323607D01*
X80835904Y-65318544D01*
X80835910Y-65318538D01*
X80928814Y-65144727D01*
X80986024Y-64956132D01*
X81005341Y-64760000D01*
X80986024Y-64563868D01*
X80928814Y-64375273D01*
X80835910Y-64201462D01*
X80835907Y-64201458D01*
X80832523Y-64196393D01*
X80834164Y-64195296D01*
X80810405Y-64139361D01*
X80822194Y-64070493D01*
X80832888Y-64053851D01*
X80832523Y-64053607D01*
X80835904Y-64048544D01*
X80835910Y-64048538D01*
X80928814Y-63874727D01*
X80986024Y-63686132D01*
X81005341Y-63490000D01*
X80986024Y-63293868D01*
X80928814Y-63105273D01*
X80835910Y-62931462D01*
X80835907Y-62931458D01*
X80832523Y-62926393D01*
X80834164Y-62925296D01*
X80810405Y-62869361D01*
X80822194Y-62800493D01*
X80832888Y-62783851D01*
X80832523Y-62783607D01*
X80835904Y-62778544D01*
X80835910Y-62778538D01*
X80928814Y-62604727D01*
X80986024Y-62416132D01*
X81005341Y-62220000D01*
X80986024Y-62023868D01*
X80928814Y-61835273D01*
X80835910Y-61661462D01*
X80835907Y-61661458D01*
X80832523Y-61656393D01*
X80834164Y-61655296D01*
X80810405Y-61599361D01*
X80822194Y-61530493D01*
X80832888Y-61513851D01*
X80832523Y-61513607D01*
X80835904Y-61508544D01*
X80835910Y-61508538D01*
X80928814Y-61334727D01*
X80986024Y-61146132D01*
X81005341Y-60950000D01*
X80986024Y-60753868D01*
X80928814Y-60565273D01*
X80928811Y-60565269D01*
X80928811Y-60565266D01*
X80835913Y-60391467D01*
X80835909Y-60391460D01*
X80710885Y-60239119D01*
X80710880Y-60239115D01*
X80687906Y-60220260D01*
X80677405Y-60211642D01*
X80638071Y-60153896D01*
X80636202Y-60084051D01*
X80672389Y-60024283D01*
X80710424Y-60000496D01*
X80898893Y-59925876D01*
X81163520Y-59780397D01*
X81163530Y-59780390D01*
X81388433Y-59616987D01*
X81388434Y-59616987D01*
X80458307Y-58686859D01*
X80472410Y-58679589D01*
X80637540Y-58549729D01*
X80775110Y-58390965D01*
X80809665Y-58331112D01*
X81739687Y-59261134D01*
G37*
%TD.AperFunction*%
%TA.AperFunction,Conductor*%
G36*
X53414894Y-58473624D02*
G01*
X53566932Y-58618592D01*
X53669222Y-58684329D01*
X52736564Y-59616987D01*
X52736565Y-59616989D01*
X52961461Y-59780385D01*
X52961479Y-59780397D01*
X53226106Y-59925876D01*
X53330254Y-59967111D01*
X53385339Y-60010092D01*
X53408443Y-60076031D01*
X53392230Y-60143994D01*
X53363273Y-60178256D01*
X53289117Y-60239115D01*
X53164090Y-60391460D01*
X53164086Y-60391467D01*
X53071188Y-60565266D01*
X53013975Y-60753870D01*
X52994659Y-60950000D01*
X53013975Y-61146129D01*
X53071188Y-61334733D01*
X53164086Y-61508532D01*
X53167473Y-61513601D01*
X53165836Y-61514694D01*
X53189596Y-61570663D01*
X53177795Y-61639529D01*
X53167109Y-61656156D01*
X53167473Y-61656399D01*
X53164086Y-61661467D01*
X53071188Y-61835266D01*
X53013975Y-62023870D01*
X52994659Y-62220000D01*
X53013975Y-62416129D01*
X53071188Y-62604733D01*
X53164086Y-62778532D01*
X53167473Y-62783601D01*
X53165836Y-62784694D01*
X53189596Y-62840663D01*
X53177795Y-62909529D01*
X53167109Y-62926156D01*
X53167473Y-62926399D01*
X53164086Y-62931467D01*
X53071188Y-63105266D01*
X53013975Y-63293870D01*
X52994659Y-63490000D01*
X53013975Y-63686129D01*
X53071188Y-63874733D01*
X53164086Y-64048532D01*
X53167473Y-64053601D01*
X53165836Y-64054694D01*
X53189596Y-64110663D01*
X53177795Y-64179529D01*
X53167109Y-64196156D01*
X53167473Y-64196399D01*
X53164086Y-64201467D01*
X53071188Y-64375266D01*
X53013975Y-64563870D01*
X52994659Y-64760000D01*
X53013975Y-64956129D01*
X53013976Y-64956132D01*
X53053261Y-65085638D01*
X53071188Y-65144733D01*
X53164086Y-65318532D01*
X53167473Y-65323601D01*
X53165836Y-65324694D01*
X53189596Y-65380663D01*
X53177795Y-65449529D01*
X53167109Y-65466156D01*
X53167473Y-65466399D01*
X53164086Y-65471467D01*
X53071188Y-65645266D01*
X53013975Y-65833870D01*
X52994659Y-66030000D01*
X53013975Y-66226129D01*
X53071188Y-66414733D01*
X53164086Y-66588532D01*
X53167473Y-66593601D01*
X53165836Y-66594694D01*
X53189596Y-66650663D01*
X53177795Y-66719529D01*
X53167109Y-66736156D01*
X53167473Y-66736399D01*
X53164086Y-66741467D01*
X53071188Y-66915266D01*
X53013975Y-67103870D01*
X52994659Y-67300000D01*
X53013975Y-67496129D01*
X53013976Y-67496132D01*
X53058269Y-67642147D01*
X53071188Y-67684733D01*
X53164086Y-67858532D01*
X53167473Y-67863601D01*
X53165832Y-67864697D01*
X53189594Y-67920638D01*
X53177805Y-67989506D01*
X53167112Y-68006151D01*
X53167476Y-68006395D01*
X53164085Y-68011469D01*
X53162224Y-68014951D01*
X53150937Y-68032374D01*
X53146555Y-68038035D01*
X53146553Y-68038037D01*
X53110356Y-68111832D01*
X53108386Y-68115676D01*
X53071185Y-68185273D01*
X53071185Y-68185274D01*
X53068998Y-68192483D01*
X53061672Y-68211079D01*
X53056943Y-68220721D01*
X53056939Y-68220731D01*
X53037240Y-68296811D01*
X53035860Y-68301722D01*
X53013976Y-68373866D01*
X53012885Y-68384938D01*
X53009527Y-68403848D01*
X53005937Y-68417715D01*
X53002135Y-68492654D01*
X53001697Y-68498521D01*
X52994659Y-68569996D01*
X52994659Y-68570003D01*
X52996099Y-68584630D01*
X52996537Y-68603053D01*
X52995631Y-68620931D01*
X52995631Y-68620940D01*
X53006450Y-68691564D01*
X53007283Y-68698185D01*
X53013975Y-68766131D01*
X53019282Y-68783626D01*
X53023189Y-68800831D01*
X53026443Y-68822068D01*
X53026445Y-68822075D01*
X53050022Y-68885734D01*
X53052401Y-68892804D01*
X53071186Y-68954728D01*
X53081487Y-68974000D01*
X53088410Y-68989385D01*
X53097115Y-69012889D01*
X53097117Y-69012892D01*
X53131146Y-69067488D01*
X53135271Y-69074624D01*
X53164091Y-69128540D01*
X53167477Y-69133608D01*
X53165834Y-69134705D01*
X53189594Y-69190634D01*
X53177809Y-69259503D01*
X53167105Y-69276161D01*
X53167469Y-69276405D01*
X53164087Y-69281465D01*
X53071188Y-69455266D01*
X53013975Y-69643870D01*
X52994659Y-69840000D01*
X53013975Y-70036129D01*
X53071188Y-70224733D01*
X53164086Y-70398532D01*
X53167473Y-70403601D01*
X53165836Y-70404694D01*
X53189596Y-70460663D01*
X53177795Y-70529529D01*
X53167109Y-70546156D01*
X53167473Y-70546399D01*
X53164086Y-70551467D01*
X53071188Y-70725266D01*
X53013975Y-70913870D01*
X52994659Y-71110000D01*
X53013975Y-71306129D01*
X53071188Y-71494733D01*
X53164086Y-71668532D01*
X53167473Y-71673601D01*
X53165836Y-71674694D01*
X53189596Y-71730663D01*
X53177795Y-71799529D01*
X53167109Y-71816156D01*
X53167473Y-71816399D01*
X53164086Y-71821467D01*
X53071188Y-71995266D01*
X53013975Y-72183870D01*
X52994659Y-72380000D01*
X53013975Y-72576129D01*
X53071188Y-72764733D01*
X53164086Y-72938532D01*
X53167473Y-72943601D01*
X53165836Y-72944694D01*
X53189596Y-73000663D01*
X53177795Y-73069529D01*
X53167109Y-73086156D01*
X53167473Y-73086399D01*
X53164086Y-73091467D01*
X53071188Y-73265266D01*
X53013975Y-73453870D01*
X52994659Y-73650000D01*
X53013975Y-73846129D01*
X53071188Y-74034733D01*
X53164086Y-74208532D01*
X53167473Y-74213601D01*
X53165836Y-74214694D01*
X53189596Y-74270663D01*
X53177795Y-74339529D01*
X53167109Y-74356156D01*
X53167473Y-74356399D01*
X53164086Y-74361467D01*
X53071188Y-74535266D01*
X53013975Y-74723870D01*
X52994659Y-74920000D01*
X53013975Y-75116129D01*
X53071188Y-75304733D01*
X53164086Y-75478532D01*
X53167473Y-75483601D01*
X53165836Y-75484694D01*
X53189596Y-75540663D01*
X53177795Y-75609529D01*
X53167109Y-75626156D01*
X53167473Y-75626399D01*
X53164086Y-75631467D01*
X53071188Y-75805266D01*
X53013975Y-75993870D01*
X52994659Y-76190000D01*
X53013975Y-76386129D01*
X53071188Y-76574733D01*
X53164086Y-76748532D01*
X53167473Y-76753601D01*
X53165836Y-76754694D01*
X53189596Y-76810663D01*
X53177795Y-76879529D01*
X53167109Y-76896156D01*
X53167473Y-76896399D01*
X53164086Y-76901467D01*
X53071188Y-77075266D01*
X53013975Y-77263870D01*
X52994659Y-77460000D01*
X53013975Y-77656129D01*
X53013976Y-77656132D01*
X53062194Y-77815086D01*
X53071188Y-77844733D01*
X53164086Y-78018532D01*
X53167473Y-78023601D01*
X53165836Y-78024694D01*
X53189596Y-78080663D01*
X53177795Y-78149529D01*
X53167109Y-78166156D01*
X53167473Y-78166399D01*
X53164086Y-78171467D01*
X53071188Y-78345266D01*
X53013975Y-78533870D01*
X52994659Y-78730000D01*
X53013975Y-78926129D01*
X53013976Y-78926132D01*
X53071186Y-79114727D01*
X53071187Y-79114730D01*
X53071188Y-79114731D01*
X53072583Y-79117341D01*
X53072901Y-79118870D01*
X53073518Y-79120359D01*
X53073235Y-79120475D01*
X53086824Y-79185743D01*
X53062492Y-79250102D01*
X53056648Y-79257907D01*
X53056645Y-79257913D01*
X53006403Y-79392620D01*
X53006401Y-79392627D01*
X53000000Y-79452155D01*
X53000000Y-79750000D01*
X53754419Y-79750000D01*
X53702940Y-79805921D01*
X53656018Y-79912892D01*
X53646372Y-80029302D01*
X53675047Y-80142538D01*
X53738936Y-80240327D01*
X53751364Y-80250000D01*
X53000000Y-80250000D01*
X53000000Y-80547844D01*
X53006401Y-80607372D01*
X53006403Y-80607379D01*
X53056645Y-80742086D01*
X53056649Y-80742093D01*
X53142809Y-80857187D01*
X53191188Y-80893404D01*
X53233058Y-80949338D01*
X53238042Y-81019029D01*
X53204556Y-81080352D01*
X53176614Y-81101332D01*
X52961470Y-81219608D01*
X52736565Y-81383010D01*
X52736564Y-81383011D01*
X53666693Y-82313140D01*
X53652590Y-82320411D01*
X53487460Y-82450271D01*
X53349890Y-82609035D01*
X53315334Y-82668887D01*
X52385311Y-81738864D01*
X52304522Y-81836523D01*
X52229197Y-81955217D01*
X52176655Y-82001272D01*
X52107554Y-82011611D01*
X52043834Y-81982949D01*
X52005724Y-81924388D01*
X52000500Y-81888774D01*
X52000500Y-59111226D01*
X52020185Y-59044187D01*
X52072989Y-58998432D01*
X52142147Y-58988488D01*
X52205703Y-59017513D01*
X52229197Y-59044784D01*
X52304516Y-59163469D01*
X52385311Y-59261133D01*
X53314210Y-58332234D01*
X53414894Y-58473624D01*
G37*
%TD.AperFunction*%
%TA.AperFunction,Conductor*%
G36*
X74186123Y-72419643D02*
G01*
X74275478Y-72475789D01*
X74445745Y-72535368D01*
X74532669Y-72545161D01*
X74597080Y-72572226D01*
X74606465Y-72580700D01*
X75738181Y-73712416D01*
X75771666Y-73773739D01*
X75774500Y-73800097D01*
X75774500Y-75680947D01*
X75754815Y-75747986D01*
X75702011Y-75793741D01*
X75632853Y-75803685D01*
X75569297Y-75774660D01*
X75544962Y-75746045D01*
X75519026Y-75703997D01*
X75396003Y-75580974D01*
X75395999Y-75580971D01*
X75247933Y-75489642D01*
X75247927Y-75489639D01*
X75247925Y-75489638D01*
X75229725Y-75483607D01*
X75082776Y-75434913D01*
X74980855Y-75424500D01*
X74980848Y-75424500D01*
X74394152Y-75424500D01*
X74394144Y-75424500D01*
X74292223Y-75434913D01*
X74127077Y-75489637D01*
X74127066Y-75489642D01*
X73979000Y-75580971D01*
X73978996Y-75580974D01*
X73855974Y-75703996D01*
X73855967Y-75704005D01*
X73855234Y-75705194D01*
X73854519Y-75705836D01*
X73851493Y-75709664D01*
X73850838Y-75709146D01*
X73803280Y-75751911D01*
X73734316Y-75763123D01*
X73670238Y-75735271D01*
X73648238Y-75709877D01*
X73648112Y-75709977D01*
X73645885Y-75707161D01*
X73644163Y-75705173D01*
X73643630Y-75704309D01*
X73520691Y-75581370D01*
X73372714Y-75490096D01*
X73372709Y-75490094D01*
X73207673Y-75435407D01*
X73105815Y-75425000D01*
X73062500Y-75425000D01*
X73062500Y-77825000D01*
X73105803Y-77825000D01*
X73105815Y-77824999D01*
X73207673Y-77814592D01*
X73372709Y-77759905D01*
X73372714Y-77759903D01*
X73520691Y-77668629D01*
X73643628Y-77545692D01*
X73644159Y-77544832D01*
X73644680Y-77544363D01*
X73648112Y-77540023D01*
X73648853Y-77540608D01*
X73696101Y-77498102D01*
X73765063Y-77486872D01*
X73829148Y-77514708D01*
X73851413Y-77540398D01*
X73851493Y-77540336D01*
X73852890Y-77542103D01*
X73855238Y-77544812D01*
X73855968Y-77545995D01*
X73855974Y-77546003D01*
X73978996Y-77669025D01*
X73979000Y-77669028D01*
X74127066Y-77760357D01*
X74127069Y-77760358D01*
X74127075Y-77760362D01*
X74292225Y-77815087D01*
X74394152Y-77825500D01*
X74394157Y-77825500D01*
X74980843Y-77825500D01*
X74980848Y-77825500D01*
X75082775Y-77815087D01*
X75247925Y-77760362D01*
X75396003Y-77669026D01*
X75519026Y-77546003D01*
X75544962Y-77503953D01*
X75596909Y-77457231D01*
X75665872Y-77446008D01*
X75729954Y-77473852D01*
X75768810Y-77531921D01*
X75774500Y-77569052D01*
X75774500Y-78074903D01*
X75754815Y-78141942D01*
X75738181Y-78162584D01*
X72912804Y-80987960D01*
X72851481Y-81021445D01*
X72808938Y-81023218D01*
X72779315Y-81019318D01*
X72779313Y-81019318D01*
X72622553Y-81039955D01*
X72622551Y-81039956D01*
X72476474Y-81100463D01*
X72351028Y-81196721D01*
X72331809Y-81221769D01*
X72321114Y-81233964D01*
X71491898Y-82063181D01*
X71430575Y-82096666D01*
X71404217Y-82099500D01*
X71047487Y-82099500D01*
X71031302Y-82098439D01*
X71000000Y-82094318D01*
X70999999Y-82094318D01*
X70843239Y-82114955D01*
X70843237Y-82114956D01*
X70697157Y-82175464D01*
X70571718Y-82271716D01*
X70552489Y-82296775D01*
X70541798Y-82308965D01*
X70383579Y-82467184D01*
X70322256Y-82500669D01*
X70283746Y-82502906D01*
X70200001Y-82494659D01*
X70200000Y-82494659D01*
X70066654Y-82507792D01*
X69998008Y-82494773D01*
X69947298Y-82446708D01*
X69930500Y-82384389D01*
X69930500Y-80016535D01*
X69930540Y-80013393D01*
X69932757Y-79925899D01*
X69932756Y-79925898D01*
X69932757Y-79925895D01*
X69922350Y-79867832D01*
X69921041Y-79858500D01*
X69915074Y-79799824D01*
X69915074Y-79799822D01*
X69915074Y-79799820D01*
X69905962Y-79770782D01*
X69902225Y-79755553D01*
X69896858Y-79725606D01*
X69874972Y-79670814D01*
X69871824Y-79661972D01*
X69854159Y-79605670D01*
X69839398Y-79579075D01*
X69832663Y-79564893D01*
X69821379Y-79536642D01*
X69821377Y-79536638D01*
X69788915Y-79487385D01*
X69784040Y-79479340D01*
X69755409Y-79427756D01*
X69735590Y-79404670D01*
X69726145Y-79392142D01*
X69709404Y-79366742D01*
X69667699Y-79325037D01*
X69661306Y-79318140D01*
X69622866Y-79273363D01*
X69598800Y-79254734D01*
X69587022Y-79244360D01*
X68661819Y-78319157D01*
X68628334Y-78257834D01*
X68625500Y-78231476D01*
X68625500Y-77931560D01*
X68645185Y-77864521D01*
X68697989Y-77818766D01*
X68767147Y-77808822D01*
X68788507Y-77813855D01*
X68792225Y-77815087D01*
X68894152Y-77825500D01*
X68894157Y-77825500D01*
X69480843Y-77825500D01*
X69480848Y-77825500D01*
X69582775Y-77815087D01*
X69747925Y-77760362D01*
X69896003Y-77669026D01*
X70019026Y-77546003D01*
X70019458Y-77545301D01*
X70019881Y-77544921D01*
X70023507Y-77540336D01*
X70024290Y-77540955D01*
X70071402Y-77498575D01*
X70140364Y-77487349D01*
X70204448Y-77515188D01*
X70226342Y-77540455D01*
X70226493Y-77540336D01*
X70229143Y-77543687D01*
X70230540Y-77545299D01*
X70230969Y-77545995D01*
X70230975Y-77546004D01*
X70353996Y-77669025D01*
X70354000Y-77669028D01*
X70502066Y-77760357D01*
X70502069Y-77760358D01*
X70502075Y-77760362D01*
X70667225Y-77815087D01*
X70769152Y-77825500D01*
X70769157Y-77825500D01*
X71355843Y-77825500D01*
X71355848Y-77825500D01*
X71457775Y-77815087D01*
X71622925Y-77760362D01*
X71771003Y-77669026D01*
X71850173Y-77589856D01*
X71911496Y-77556371D01*
X71981188Y-77561355D01*
X72025535Y-77589856D01*
X72104308Y-77668629D01*
X72252285Y-77759903D01*
X72252290Y-77759905D01*
X72417326Y-77814592D01*
X72519184Y-77824999D01*
X72519197Y-77825000D01*
X72562500Y-77825000D01*
X72562500Y-75425000D01*
X72519184Y-75425000D01*
X72417326Y-75435407D01*
X72252290Y-75490094D01*
X72252285Y-75490096D01*
X72104308Y-75581370D01*
X72025533Y-75660144D01*
X71964210Y-75693629D01*
X71894518Y-75688643D01*
X71850172Y-75660143D01*
X71771003Y-75580974D01*
X71770999Y-75580971D01*
X71622933Y-75489642D01*
X71622927Y-75489639D01*
X71622925Y-75489638D01*
X71604725Y-75483607D01*
X71457776Y-75434913D01*
X71355855Y-75424500D01*
X71355848Y-75424500D01*
X70769152Y-75424500D01*
X70769144Y-75424500D01*
X70667223Y-75434913D01*
X70502077Y-75489637D01*
X70502066Y-75489642D01*
X70354000Y-75580971D01*
X70353996Y-75580974D01*
X70230974Y-75703996D01*
X70230971Y-75704000D01*
X70230538Y-75704703D01*
X70230114Y-75705083D01*
X70226493Y-75709664D01*
X70225710Y-75709045D01*
X70178590Y-75751428D01*
X70109628Y-75762649D01*
X70045546Y-75734806D01*
X70023657Y-75709544D01*
X70023507Y-75709664D01*
X70020859Y-75706315D01*
X70019462Y-75704703D01*
X70019028Y-75704000D01*
X70019027Y-75703999D01*
X70019026Y-75703997D01*
X69896003Y-75580974D01*
X69896002Y-75580973D01*
X69890896Y-75575867D01*
X69892176Y-75574586D01*
X69857210Y-75525198D01*
X69850500Y-75484961D01*
X69850500Y-75130300D01*
X69870185Y-75063261D01*
X69922989Y-75017506D01*
X69935482Y-75012599D01*
X70019334Y-74984814D01*
X70168656Y-74892712D01*
X70292712Y-74768656D01*
X70384814Y-74619334D01*
X70439999Y-74452797D01*
X70450500Y-74350009D01*
X70450499Y-73724992D01*
X70449214Y-73712416D01*
X70439999Y-73622203D01*
X70439998Y-73622200D01*
X70414687Y-73545816D01*
X70384814Y-73455666D01*
X70292712Y-73306344D01*
X70199049Y-73212681D01*
X70165564Y-73151358D01*
X70170548Y-73081666D01*
X70199049Y-73037319D01*
X70199549Y-73036819D01*
X70260872Y-73003334D01*
X70287230Y-73000500D01*
X73175743Y-73000500D01*
X73327439Y-72985074D01*
X73521579Y-72924162D01*
X73521580Y-72924161D01*
X73521588Y-72924159D01*
X73699502Y-72825409D01*
X73853895Y-72692866D01*
X73968229Y-72545160D01*
X73978445Y-72531962D01*
X73978445Y-72531961D01*
X73978448Y-72531958D01*
X74008825Y-72470029D01*
X74056019Y-72418511D01*
X74123577Y-72400685D01*
X74186123Y-72419643D01*
G37*
%TD.AperFunction*%
%TA.AperFunction,Conductor*%
G36*
X62760099Y-67520185D02*
G01*
X62805854Y-67572989D01*
X62815798Y-67642147D01*
X62786773Y-67705703D01*
X62780741Y-67712181D01*
X62745184Y-67747737D01*
X62649209Y-67900480D01*
X62610257Y-68011798D01*
X62569536Y-68068574D01*
X62504583Y-68094321D01*
X62436021Y-68080865D01*
X62394841Y-68046330D01*
X62368282Y-68011718D01*
X62368281Y-68011717D01*
X62343228Y-67992493D01*
X62331034Y-67981799D01*
X62074319Y-67725084D01*
X62040834Y-67663761D01*
X62038000Y-67637403D01*
X62038000Y-67624500D01*
X62057685Y-67557461D01*
X62110489Y-67511706D01*
X62162000Y-67500500D01*
X62693060Y-67500500D01*
X62760099Y-67520185D01*
G37*
%TD.AperFunction*%
%TA.AperFunction,Conductor*%
G36*
X67986095Y-65547501D02*
G01*
X68016128Y-65598230D01*
X68071186Y-65779728D01*
X68164086Y-65953532D01*
X68164090Y-65953539D01*
X68289116Y-66105883D01*
X68441460Y-66230909D01*
X68441467Y-66230913D01*
X68615266Y-66323811D01*
X68615269Y-66323811D01*
X68615273Y-66323814D01*
X68803868Y-66381024D01*
X69000000Y-66400341D01*
X69083745Y-66392092D01*
X69152389Y-66405110D01*
X69183579Y-66427814D01*
X69318584Y-66562819D01*
X69352069Y-66624142D01*
X69347085Y-66693834D01*
X69305213Y-66749767D01*
X69239749Y-66774184D01*
X69230903Y-66774500D01*
X65499097Y-66774500D01*
X65432058Y-66754815D01*
X65386303Y-66702011D01*
X65376359Y-66632853D01*
X65405384Y-66569297D01*
X65411416Y-66562819D01*
X66212416Y-65761819D01*
X66273739Y-65728334D01*
X66300097Y-65725500D01*
X67327513Y-65725500D01*
X67343697Y-65726560D01*
X67375000Y-65730682D01*
X67375001Y-65730682D01*
X67427254Y-65723802D01*
X67531762Y-65710044D01*
X67677841Y-65649536D01*
X67803282Y-65553282D01*
X67803286Y-65553277D01*
X67809029Y-65547535D01*
X67811326Y-65549832D01*
X67855397Y-65517581D01*
X67925139Y-65513353D01*
X67986095Y-65547501D01*
G37*
%TD.AperFunction*%
%TA.AperFunction,Conductor*%
G36*
X66836142Y-63745185D02*
G01*
X66881897Y-63797989D01*
X66891841Y-63867147D01*
X66867478Y-63924986D01*
X66855961Y-63939994D01*
X66850462Y-63947161D01*
X66850461Y-63947163D01*
X66789957Y-64093234D01*
X66789955Y-64093239D01*
X66772183Y-64228235D01*
X66769318Y-64250000D01*
X66773439Y-64281301D01*
X66774500Y-64297487D01*
X66774500Y-64400500D01*
X66754815Y-64467539D01*
X66702011Y-64513294D01*
X66650500Y-64524500D01*
X66047487Y-64524500D01*
X66031302Y-64523439D01*
X66000000Y-64519318D01*
X65999999Y-64519318D01*
X65843239Y-64539955D01*
X65843237Y-64539956D01*
X65697157Y-64600464D01*
X65627597Y-64653840D01*
X65562428Y-64679034D01*
X65542761Y-64675000D01*
X65449500Y-64675000D01*
X65382461Y-64655315D01*
X65351125Y-64626488D01*
X65340718Y-64612925D01*
X65315524Y-64547758D01*
X65329562Y-64479313D01*
X65378375Y-64429322D01*
X65422908Y-64414500D01*
X65456762Y-64410044D01*
X65602841Y-64349536D01*
X65639858Y-64321132D01*
X65728282Y-64253282D01*
X65747510Y-64228222D01*
X65758182Y-64216051D01*
X66212418Y-63761816D01*
X66273740Y-63728334D01*
X66300098Y-63725500D01*
X66769103Y-63725500D01*
X66836142Y-63745185D01*
G37*
%TD.AperFunction*%
%TA.AperFunction,Conductor*%
G36*
X74699507Y-58322194D02*
G01*
X74716148Y-58332888D01*
X74716393Y-58332523D01*
X74721458Y-58335907D01*
X74721462Y-58335910D01*
X74866501Y-58413435D01*
X74893744Y-58427997D01*
X74895273Y-58428814D01*
X75083868Y-58486024D01*
X75280000Y-58505341D01*
X75476132Y-58486024D01*
X75664727Y-58428814D01*
X75666853Y-58427677D01*
X75668095Y-58427418D01*
X75670355Y-58426483D01*
X75670532Y-58426911D01*
X75735254Y-58413435D01*
X75799615Y-58437767D01*
X75807669Y-58443796D01*
X75807672Y-58443797D01*
X75942517Y-58494091D01*
X75942516Y-58494091D01*
X75949444Y-58494835D01*
X76002127Y-58500500D01*
X77097872Y-58500499D01*
X77157483Y-58494091D01*
X77292331Y-58443796D01*
X77382538Y-58376266D01*
X77448001Y-58351849D01*
X77516275Y-58366700D01*
X77565680Y-58416105D01*
X77574780Y-58437215D01*
X77639125Y-58635247D01*
X77639127Y-58635252D01*
X77767704Y-58908491D01*
X77767707Y-58908497D01*
X77929516Y-59163469D01*
X78010311Y-59261133D01*
X78939210Y-58332234D01*
X79039894Y-58473624D01*
X79191932Y-58618592D01*
X79294222Y-58684329D01*
X78361564Y-59616987D01*
X78361565Y-59616989D01*
X78586461Y-59780385D01*
X78586479Y-59780397D01*
X78851109Y-59925878D01*
X78851117Y-59925882D01*
X79131885Y-60037045D01*
X79210288Y-60057175D01*
X79270327Y-60092913D01*
X79301513Y-60155436D01*
X79293946Y-60224895D01*
X79275305Y-60255945D01*
X79164091Y-60391460D01*
X79164086Y-60391467D01*
X79071188Y-60565266D01*
X79013975Y-60753870D01*
X78994659Y-60950000D01*
X79013975Y-61146129D01*
X79071188Y-61334733D01*
X79125876Y-61437047D01*
X79140118Y-61505450D01*
X79115118Y-61570694D01*
X79058812Y-61612064D01*
X79016518Y-61619500D01*
X78385705Y-61619500D01*
X78344750Y-61612541D01*
X78179262Y-61554633D01*
X78179249Y-61554630D01*
X78000004Y-61534435D01*
X77999996Y-61534435D01*
X77820746Y-61554631D01*
X77820745Y-61554631D01*
X77770663Y-61572155D01*
X77700884Y-61575716D01*
X77642029Y-61542794D01*
X76558199Y-60458964D01*
X76547503Y-60446767D01*
X76528286Y-60421722D01*
X76528283Y-60421720D01*
X76528282Y-60421718D01*
X76402841Y-60325464D01*
X76256762Y-60264956D01*
X76256760Y-60264955D01*
X76100001Y-60244318D01*
X76100000Y-60244318D01*
X76068697Y-60248439D01*
X76052513Y-60249500D01*
X69279933Y-60249500D01*
X69212894Y-60229815D01*
X69181559Y-60200988D01*
X69178284Y-60196721D01*
X69178282Y-60196718D01*
X69052841Y-60100464D01*
X69034611Y-60092913D01*
X68906762Y-60039956D01*
X68906760Y-60039955D01*
X68789361Y-60024500D01*
X68750000Y-60019318D01*
X68718697Y-60023439D01*
X68702513Y-60024500D01*
X68674500Y-60024500D01*
X68607461Y-60004815D01*
X68561706Y-59952011D01*
X68550500Y-59900500D01*
X68550500Y-59122487D01*
X68551561Y-59106301D01*
X68555682Y-59074999D01*
X68555682Y-59074998D01*
X68535044Y-58918239D01*
X68535044Y-58918238D01*
X68474536Y-58772159D01*
X68474535Y-58772158D01*
X68474535Y-58772157D01*
X68433990Y-58719318D01*
X68378282Y-58646718D01*
X68378280Y-58646716D01*
X68378279Y-58646715D01*
X68353228Y-58627493D01*
X68341034Y-58616799D01*
X68293764Y-58569529D01*
X68260279Y-58508206D01*
X68265263Y-58438514D01*
X68307135Y-58382581D01*
X68372599Y-58358164D01*
X68439897Y-58372489D01*
X68516501Y-58413435D01*
X68543744Y-58427997D01*
X68545273Y-58428814D01*
X68733868Y-58486024D01*
X68930000Y-58505341D01*
X69126132Y-58486024D01*
X69314727Y-58428814D01*
X69488538Y-58335910D01*
X69488544Y-58335904D01*
X69493607Y-58332523D01*
X69494703Y-58334164D01*
X69550639Y-58310405D01*
X69619507Y-58322194D01*
X69636148Y-58332888D01*
X69636393Y-58332523D01*
X69641458Y-58335907D01*
X69641462Y-58335910D01*
X69786501Y-58413435D01*
X69813744Y-58427997D01*
X69815273Y-58428814D01*
X70003868Y-58486024D01*
X70200000Y-58505341D01*
X70396132Y-58486024D01*
X70584727Y-58428814D01*
X70758538Y-58335910D01*
X70758544Y-58335904D01*
X70763607Y-58332523D01*
X70764703Y-58334164D01*
X70820639Y-58310405D01*
X70889507Y-58322194D01*
X70906148Y-58332888D01*
X70906393Y-58332523D01*
X70911458Y-58335907D01*
X70911462Y-58335910D01*
X71056501Y-58413435D01*
X71083744Y-58427997D01*
X71085273Y-58428814D01*
X71273868Y-58486024D01*
X71470000Y-58505341D01*
X71666132Y-58486024D01*
X71854727Y-58428814D01*
X72028538Y-58335910D01*
X72028544Y-58335904D01*
X72033607Y-58332523D01*
X72034703Y-58334164D01*
X72090639Y-58310405D01*
X72159507Y-58322194D01*
X72176148Y-58332888D01*
X72176393Y-58332523D01*
X72181458Y-58335907D01*
X72181462Y-58335910D01*
X72326501Y-58413435D01*
X72353744Y-58427997D01*
X72355273Y-58428814D01*
X72543868Y-58486024D01*
X72740000Y-58505341D01*
X72936132Y-58486024D01*
X73124727Y-58428814D01*
X73298538Y-58335910D01*
X73298544Y-58335904D01*
X73303607Y-58332523D01*
X73304703Y-58334164D01*
X73360639Y-58310405D01*
X73429507Y-58322194D01*
X73446148Y-58332888D01*
X73446393Y-58332523D01*
X73451458Y-58335907D01*
X73451462Y-58335910D01*
X73596501Y-58413435D01*
X73623744Y-58427997D01*
X73625273Y-58428814D01*
X73813868Y-58486024D01*
X74010000Y-58505341D01*
X74206132Y-58486024D01*
X74394727Y-58428814D01*
X74568538Y-58335910D01*
X74568544Y-58335904D01*
X74573607Y-58332523D01*
X74574703Y-58334164D01*
X74630639Y-58310405D01*
X74699507Y-58322194D01*
G37*
%TD.AperFunction*%
%TA.AperFunction,Conductor*%
G36*
X57750000Y-58469159D02*
G01*
X57884534Y-58428349D01*
X57885385Y-58427997D01*
X57885866Y-58427945D01*
X57890364Y-58426581D01*
X57890622Y-58427433D01*
X57954854Y-58420523D01*
X58017336Y-58451793D01*
X58052993Y-58511879D01*
X58050504Y-58581704D01*
X58020528Y-58630235D01*
X55075270Y-61575494D01*
X55013947Y-61608979D01*
X54944255Y-61603995D01*
X54888322Y-61562123D01*
X54863905Y-61496659D01*
X54878230Y-61429362D01*
X54928814Y-61334727D01*
X54986024Y-61146132D01*
X55005341Y-60950000D01*
X54986024Y-60753868D01*
X54928814Y-60565273D01*
X54928811Y-60565269D01*
X54928811Y-60565266D01*
X54835913Y-60391467D01*
X54835909Y-60391460D01*
X54746449Y-60282454D01*
X54719136Y-60218144D01*
X54730927Y-60149277D01*
X54778079Y-60097716D01*
X54811465Y-60083685D01*
X54993107Y-60037047D01*
X54993110Y-60037047D01*
X55273882Y-59925882D01*
X55273890Y-59925878D01*
X55538520Y-59780397D01*
X55538530Y-59780390D01*
X55763433Y-59616987D01*
X55763434Y-59616987D01*
X54833307Y-58686859D01*
X54847410Y-58679589D01*
X55012540Y-58549729D01*
X55150110Y-58390965D01*
X55184665Y-58331112D01*
X56114687Y-59261134D01*
X56195486Y-59163464D01*
X56357292Y-58908497D01*
X56357295Y-58908491D01*
X56485872Y-58635252D01*
X56485874Y-58635247D01*
X56579194Y-58348039D01*
X56591225Y-58284971D01*
X56623122Y-58222807D01*
X56683564Y-58187757D01*
X56753361Y-58190947D01*
X56791694Y-58212352D01*
X56941739Y-58335491D01*
X57115465Y-58428349D01*
X57250000Y-58469159D01*
X57250000Y-57748938D01*
X57331115Y-57812072D01*
X57441595Y-57850000D01*
X57529005Y-57850000D01*
X57615216Y-57835614D01*
X57717947Y-57780019D01*
X57750000Y-57745200D01*
X57750000Y-58469159D01*
G37*
%TD.AperFunction*%
%TA.AperFunction,Conductor*%
G36*
X78573454Y-55520185D02*
G01*
X78619209Y-55572989D01*
X78629153Y-55642147D01*
X78600128Y-55705703D01*
X78579300Y-55724818D01*
X78361565Y-55883010D01*
X78361564Y-55883011D01*
X79291693Y-56813140D01*
X79277590Y-56820411D01*
X79112460Y-56950271D01*
X78974890Y-57109035D01*
X78940334Y-57168887D01*
X78010311Y-56238864D01*
X77929520Y-56336525D01*
X77929518Y-56336528D01*
X77767707Y-56591502D01*
X77767703Y-56591508D01*
X77701808Y-56731543D01*
X77655453Y-56783821D01*
X77588193Y-56802738D01*
X77521383Y-56782288D01*
X77490343Y-56753057D01*
X77407546Y-56642454D01*
X77384709Y-56625358D01*
X77292335Y-56556206D01*
X77292328Y-56556202D01*
X77157482Y-56505908D01*
X77157483Y-56505908D01*
X77097883Y-56499501D01*
X77097881Y-56499500D01*
X77097873Y-56499500D01*
X77097864Y-56499500D01*
X76002129Y-56499500D01*
X76002123Y-56499501D01*
X75942516Y-56505908D01*
X75807671Y-56556202D01*
X75807666Y-56556205D01*
X75799614Y-56562233D01*
X75734149Y-56586648D01*
X75670530Y-56573104D01*
X75670359Y-56573518D01*
X75668123Y-56572592D01*
X75666850Y-56572321D01*
X75664729Y-56571187D01*
X75664728Y-56571186D01*
X75664727Y-56571186D01*
X75476132Y-56513976D01*
X75476129Y-56513975D01*
X75280000Y-56494659D01*
X75083870Y-56513975D01*
X74895266Y-56571188D01*
X74721467Y-56664086D01*
X74716399Y-56667473D01*
X74715305Y-56665836D01*
X74659337Y-56689596D01*
X74590471Y-56677795D01*
X74573843Y-56667109D01*
X74573601Y-56667473D01*
X74568532Y-56664086D01*
X74394733Y-56571188D01*
X74394727Y-56571186D01*
X74206132Y-56513976D01*
X74206129Y-56513975D01*
X74010000Y-56494659D01*
X73813870Y-56513975D01*
X73625266Y-56571188D01*
X73451467Y-56664086D01*
X73446399Y-56667473D01*
X73445305Y-56665836D01*
X73389337Y-56689596D01*
X73320471Y-56677795D01*
X73303843Y-56667109D01*
X73303601Y-56667473D01*
X73298532Y-56664086D01*
X73124733Y-56571188D01*
X73124727Y-56571186D01*
X72936132Y-56513976D01*
X72936129Y-56513975D01*
X72740000Y-56494659D01*
X72543870Y-56513975D01*
X72355266Y-56571188D01*
X72181467Y-56664086D01*
X72176399Y-56667473D01*
X72175305Y-56665836D01*
X72119337Y-56689596D01*
X72050471Y-56677795D01*
X72033843Y-56667109D01*
X72033601Y-56667473D01*
X72028532Y-56664086D01*
X71854733Y-56571188D01*
X71854727Y-56571186D01*
X71666132Y-56513976D01*
X71666129Y-56513975D01*
X71470000Y-56494659D01*
X71273870Y-56513975D01*
X71085266Y-56571188D01*
X70911467Y-56664086D01*
X70906399Y-56667473D01*
X70905305Y-56665836D01*
X70849337Y-56689596D01*
X70780471Y-56677795D01*
X70763843Y-56667109D01*
X70763601Y-56667473D01*
X70758532Y-56664086D01*
X70584733Y-56571188D01*
X70584727Y-56571186D01*
X70396132Y-56513976D01*
X70396129Y-56513975D01*
X70200000Y-56494659D01*
X70003870Y-56513975D01*
X69815266Y-56571188D01*
X69641467Y-56664086D01*
X69636399Y-56667473D01*
X69635305Y-56665836D01*
X69579337Y-56689596D01*
X69510471Y-56677795D01*
X69493843Y-56667109D01*
X69493601Y-56667473D01*
X69488532Y-56664086D01*
X69314733Y-56571188D01*
X69314727Y-56571186D01*
X69126132Y-56513976D01*
X69126129Y-56513975D01*
X68930000Y-56494659D01*
X68733870Y-56513975D01*
X68545266Y-56571188D01*
X68371467Y-56664086D01*
X68366399Y-56667473D01*
X68365305Y-56665836D01*
X68309337Y-56689596D01*
X68240471Y-56677795D01*
X68223843Y-56667109D01*
X68223601Y-56667473D01*
X68218532Y-56664086D01*
X68044733Y-56571188D01*
X68044727Y-56571186D01*
X67856132Y-56513976D01*
X67856129Y-56513975D01*
X67660000Y-56494659D01*
X67463870Y-56513975D01*
X67275266Y-56571188D01*
X67101467Y-56664086D01*
X67096399Y-56667473D01*
X67095305Y-56665836D01*
X67039337Y-56689596D01*
X66970471Y-56677795D01*
X66953843Y-56667109D01*
X66953601Y-56667473D01*
X66948532Y-56664086D01*
X66774733Y-56571188D01*
X66774727Y-56571186D01*
X66586132Y-56513976D01*
X66586129Y-56513975D01*
X66390000Y-56494659D01*
X66193870Y-56513975D01*
X66005266Y-56571188D01*
X65831467Y-56664086D01*
X65826399Y-56667473D01*
X65825305Y-56665836D01*
X65769337Y-56689596D01*
X65700471Y-56677795D01*
X65683843Y-56667109D01*
X65683601Y-56667473D01*
X65678532Y-56664086D01*
X65504733Y-56571188D01*
X65504727Y-56571186D01*
X65316132Y-56513976D01*
X65316129Y-56513975D01*
X65120000Y-56494659D01*
X64923870Y-56513975D01*
X64735266Y-56571188D01*
X64561467Y-56664086D01*
X64556399Y-56667473D01*
X64555305Y-56665836D01*
X64499337Y-56689596D01*
X64430471Y-56677795D01*
X64413843Y-56667109D01*
X64413601Y-56667473D01*
X64408532Y-56664086D01*
X64234733Y-56571188D01*
X64234727Y-56571186D01*
X64046132Y-56513976D01*
X64046129Y-56513975D01*
X63850000Y-56494659D01*
X63653870Y-56513975D01*
X63465266Y-56571188D01*
X63291467Y-56664086D01*
X63286399Y-56667473D01*
X63285305Y-56665836D01*
X63229337Y-56689596D01*
X63160471Y-56677795D01*
X63143843Y-56667109D01*
X63143601Y-56667473D01*
X63138532Y-56664086D01*
X62964733Y-56571188D01*
X62964727Y-56571186D01*
X62776132Y-56513976D01*
X62776129Y-56513975D01*
X62580000Y-56494659D01*
X62383870Y-56513975D01*
X62195266Y-56571188D01*
X62021467Y-56664086D01*
X62016399Y-56667473D01*
X62015305Y-56665836D01*
X61959337Y-56689596D01*
X61890471Y-56677795D01*
X61873843Y-56667109D01*
X61873601Y-56667473D01*
X61868532Y-56664086D01*
X61694733Y-56571188D01*
X61694727Y-56571186D01*
X61506132Y-56513976D01*
X61506129Y-56513975D01*
X61310000Y-56494659D01*
X61113870Y-56513975D01*
X60925266Y-56571188D01*
X60751467Y-56664086D01*
X60746399Y-56667473D01*
X60745305Y-56665836D01*
X60689337Y-56689596D01*
X60620471Y-56677795D01*
X60603843Y-56667109D01*
X60603601Y-56667473D01*
X60598532Y-56664086D01*
X60424733Y-56571188D01*
X60424727Y-56571186D01*
X60236132Y-56513976D01*
X60236129Y-56513975D01*
X60040000Y-56494659D01*
X59843870Y-56513975D01*
X59655266Y-56571188D01*
X59481467Y-56664086D01*
X59476399Y-56667473D01*
X59475305Y-56665836D01*
X59419337Y-56689596D01*
X59350471Y-56677795D01*
X59333843Y-56667109D01*
X59333601Y-56667473D01*
X59328532Y-56664086D01*
X59154733Y-56571188D01*
X59154727Y-56571186D01*
X58966132Y-56513976D01*
X58966129Y-56513975D01*
X58770000Y-56494659D01*
X58573870Y-56513975D01*
X58385266Y-56571188D01*
X58211467Y-56664086D01*
X58206399Y-56667473D01*
X58205386Y-56665958D01*
X58148936Y-56689920D01*
X58080071Y-56678115D01*
X58063574Y-56667511D01*
X58063322Y-56667890D01*
X58058253Y-56664503D01*
X57884541Y-56571652D01*
X57750000Y-56530839D01*
X57750000Y-57251061D01*
X57668885Y-57187928D01*
X57558405Y-57150000D01*
X57470995Y-57150000D01*
X57384784Y-57164386D01*
X57282053Y-57219981D01*
X57250000Y-57254799D01*
X57250000Y-56530839D01*
X57249999Y-56530839D01*
X57115458Y-56571652D01*
X56941746Y-56664503D01*
X56941739Y-56664507D01*
X56789470Y-56789472D01*
X56698181Y-56900707D01*
X56640435Y-56940041D01*
X56570591Y-56941910D01*
X56510823Y-56905723D01*
X56487034Y-56867681D01*
X56485872Y-56864748D01*
X56357295Y-56591508D01*
X56357292Y-56591502D01*
X56195483Y-56336530D01*
X56114686Y-56238864D01*
X55185787Y-57167763D01*
X55085106Y-57026376D01*
X54933068Y-56881408D01*
X54830776Y-56815669D01*
X55763434Y-55883011D01*
X55763433Y-55883009D01*
X55545701Y-55724818D01*
X55503035Y-55669488D01*
X55497056Y-55599875D01*
X55529662Y-55538080D01*
X55590500Y-55503723D01*
X55618586Y-55500500D01*
X65964201Y-55500500D01*
X78506415Y-55500500D01*
X78573454Y-55520185D01*
G37*
%TD.AperFunction*%
%TA.AperFunction,Conductor*%
G36*
X52948454Y-55520185D02*
G01*
X52994209Y-55572989D01*
X53004153Y-55642147D01*
X52975128Y-55705703D01*
X52954300Y-55724818D01*
X52736565Y-55883010D01*
X52736564Y-55883011D01*
X53666693Y-56813140D01*
X53652590Y-56820411D01*
X53487460Y-56950271D01*
X53349890Y-57109035D01*
X53315334Y-57168887D01*
X52385311Y-56238864D01*
X52304522Y-56336523D01*
X52229197Y-56455217D01*
X52176655Y-56501272D01*
X52107554Y-56511611D01*
X52043834Y-56482949D01*
X52005724Y-56424388D01*
X52000500Y-56388774D01*
X52000500Y-55624500D01*
X52020185Y-55557461D01*
X52072989Y-55511706D01*
X52124500Y-55500500D01*
X52881415Y-55500500D01*
X52948454Y-55520185D01*
G37*
%TD.AperFunction*%
%TA.AperFunction,Conductor*%
G36*
X81942539Y-55520185D02*
G01*
X81988294Y-55572989D01*
X81999500Y-55624500D01*
X81999500Y-56208500D01*
X81979815Y-56275539D01*
X81927011Y-56321294D01*
X81857853Y-56331238D01*
X81794297Y-56302213D01*
X81779957Y-56287541D01*
X81739687Y-56238864D01*
X80810788Y-57167763D01*
X80710106Y-57026376D01*
X80558068Y-56881408D01*
X80455776Y-56815669D01*
X81388434Y-55883011D01*
X81388433Y-55883009D01*
X81170701Y-55724818D01*
X81128035Y-55669488D01*
X81122056Y-55599875D01*
X81154662Y-55538080D01*
X81215500Y-55503723D01*
X81243586Y-55500500D01*
X81875500Y-55500500D01*
X81942539Y-55520185D01*
G37*
%TD.AperFunction*%
%TD*%
M02*
