%TF.GenerationSoftware,KiCad,Pcbnew,7.0.11-7.0.11~ubuntu20.04.1*%
%TF.CreationDate,2024-05-21T12:38:46+01:00*%
%TF.ProjectId,crosspoint-switches,63726f73-7370-46f6-996e-742d73776974,rev?*%
%TF.SameCoordinates,Original*%
%TF.FileFunction,Copper,L2,Bot*%
%TF.FilePolarity,Positive*%
%FSLAX46Y46*%
G04 Gerber Fmt 4.6, Leading zero omitted, Abs format (unit mm)*
G04 Created by KiCad (PCBNEW 7.0.11-7.0.11~ubuntu20.04.1) date 2024-05-21 12:38:46*
%MOMM*%
%LPD*%
G01*
G04 APERTURE LIST*
G04 Aperture macros list*
%AMRoundRect*
0 Rectangle with rounded corners*
0 $1 Rounding radius*
0 $2 $3 $4 $5 $6 $7 $8 $9 X,Y pos of 4 corners*
0 Add a 4 corners polygon primitive as box body*
4,1,4,$2,$3,$4,$5,$6,$7,$8,$9,$2,$3,0*
0 Add four circle primitives for the rounded corners*
1,1,$1+$1,$2,$3*
1,1,$1+$1,$4,$5*
1,1,$1+$1,$6,$7*
1,1,$1+$1,$8,$9*
0 Add four rect primitives between the rounded corners*
20,1,$1+$1,$2,$3,$4,$5,0*
20,1,$1+$1,$4,$5,$6,$7,0*
20,1,$1+$1,$6,$7,$8,$9,0*
20,1,$1+$1,$8,$9,$2,$3,0*%
G04 Aperture macros list end*
%TA.AperFunction,ComponentPad*%
%ADD10R,1.000000X1.000000*%
%TD*%
%TA.AperFunction,ComponentPad*%
%ADD11O,1.000000X1.000000*%
%TD*%
%TA.AperFunction,ComponentPad*%
%ADD12C,3.800000*%
%TD*%
%TA.AperFunction,SMDPad,CuDef*%
%ADD13RoundRect,0.243750X-0.243750X-0.456250X0.243750X-0.456250X0.243750X0.456250X-0.243750X0.456250X0*%
%TD*%
%TA.AperFunction,SMDPad,CuDef*%
%ADD14RoundRect,0.250000X0.450000X-0.262500X0.450000X0.262500X-0.450000X0.262500X-0.450000X-0.262500X0*%
%TD*%
%TA.AperFunction,SMDPad,CuDef*%
%ADD15RoundRect,0.243750X0.243750X0.456250X-0.243750X0.456250X-0.243750X-0.456250X0.243750X-0.456250X0*%
%TD*%
%TA.AperFunction,SMDPad,CuDef*%
%ADD16RoundRect,0.250000X-0.250000X-0.475000X0.250000X-0.475000X0.250000X0.475000X-0.250000X0.475000X0*%
%TD*%
%TA.AperFunction,ViaPad*%
%ADD17C,0.600000*%
%TD*%
%TA.AperFunction,Conductor*%
%ADD18C,1.000000*%
%TD*%
%TA.AperFunction,Conductor*%
%ADD19C,0.200000*%
%TD*%
G04 APERTURE END LIST*
D10*
%TO.P,J4,1,Pin_1*%
%TO.N,unconnected-(J4-Pin_1-Pad1)*%
X76550000Y-83500000D03*
D11*
%TO.P,J4,2,Pin_2*%
%TO.N,CROSS-RST*%
X75280000Y-83500000D03*
%TO.P,J4,3,Pin_3*%
%TO.N,SDA*%
X74010000Y-83500000D03*
%TO.P,J4,4,Pin_4*%
%TO.N,SCL*%
X72740000Y-83500000D03*
%TO.P,J4,5,Pin_5*%
%TO.N,SHIFT-RST*%
X71470000Y-83500000D03*
%TO.P,J4,6,Pin_6*%
%TO.N,SHIFT-CLK*%
X70200000Y-83500000D03*
%TO.P,J4,7,Pin_7*%
%TO.N,+5V*%
X68930000Y-83500000D03*
%TO.P,J4,8,Pin_8*%
%TO.N,Y7*%
X67660000Y-83500000D03*
%TO.P,J4,9,Pin_9*%
%TO.N,Y6*%
X66390000Y-83500000D03*
%TO.P,J4,10,Pin_10*%
%TO.N,Y5*%
X65120000Y-83500000D03*
%TO.P,J4,11,Pin_11*%
%TO.N,Y4*%
X63850000Y-83500000D03*
%TO.P,J4,12,Pin_12*%
%TO.N,Y3*%
X62580000Y-83500000D03*
%TO.P,J4,13,Pin_13*%
%TO.N,Y2*%
X61310000Y-83500000D03*
%TO.P,J4,14,Pin_14*%
%TO.N,Y1*%
X60040000Y-83500000D03*
%TO.P,J4,15,Pin_15*%
%TO.N,Y0*%
X58770000Y-83500000D03*
%TO.P,J4,16,Pin_16*%
%TO.N,GND*%
X57500000Y-83500000D03*
%TD*%
D12*
%TO.P,H4,1,1*%
%TO.N,GND*%
X54250000Y-83250000D03*
%TD*%
%TO.P,H3,1,1*%
%TO.N,GND*%
X79875000Y-83375000D03*
%TD*%
D10*
%TO.P,J3,1,Pin_1*%
%TO.N,GND*%
X80000000Y-80000000D03*
D11*
%TO.P,J3,2,Pin_2*%
%TO.N,X7*%
X80000000Y-78730000D03*
%TO.P,J3,3,Pin_3*%
%TO.N,X6*%
X80000000Y-77460000D03*
%TO.P,J3,4,Pin_4*%
%TO.N,X5*%
X80000000Y-76190000D03*
%TO.P,J3,5,Pin_5*%
%TO.N,X4*%
X80000000Y-74920000D03*
%TO.P,J3,6,Pin_6*%
%TO.N,X3*%
X80000000Y-73650000D03*
%TO.P,J3,7,Pin_7*%
%TO.N,X2*%
X80000000Y-72380000D03*
%TO.P,J3,8,Pin_8*%
%TO.N,X1*%
X80000000Y-71110000D03*
%TO.P,J3,9,Pin_9*%
%TO.N,X0*%
X80000000Y-69840000D03*
%TO.P,J3,10,Pin_10*%
%TO.N,+5V*%
X80000000Y-68570000D03*
%TO.P,J3,11,Pin_11*%
%TO.N,SHIFT-CLK*%
X80000000Y-67300000D03*
%TO.P,J3,12,Pin_12*%
%TO.N,SHIFT-RST*%
X80000000Y-66030000D03*
%TO.P,J3,13,Pin_13*%
%TO.N,SCL*%
X80000000Y-64760000D03*
%TO.P,J3,14,Pin_14*%
%TO.N,SDA*%
X80000000Y-63490000D03*
%TO.P,J3,15,Pin_15*%
%TO.N,CROSS-RST*%
X80000000Y-62220000D03*
%TO.P,J3,16,Pin_16*%
%TO.N,QLDR*%
X80000000Y-60950000D03*
%TD*%
D12*
%TO.P,H1,1,1*%
%TO.N,GND*%
X79875000Y-57750000D03*
%TD*%
D10*
%TO.P,J5,1,Pin_1*%
%TO.N,unconnected-(J5-Pin_1-Pad1)*%
X76550000Y-57500000D03*
D11*
%TO.P,J5,2,Pin_2*%
%TO.N,CROSS-RST*%
X75280000Y-57500000D03*
%TO.P,J5,3,Pin_3*%
%TO.N,SDA*%
X74010000Y-57500000D03*
%TO.P,J5,4,Pin_4*%
%TO.N,SCL*%
X72740000Y-57500000D03*
%TO.P,J5,5,Pin_5*%
%TO.N,SHIFT-RST*%
X71470000Y-57500000D03*
%TO.P,J5,6,Pin_6*%
%TO.N,SHIFT-CLK*%
X70200000Y-57500000D03*
%TO.P,J5,7,Pin_7*%
%TO.N,+5V*%
X68930000Y-57500000D03*
%TO.P,J5,8,Pin_8*%
%TO.N,Y7*%
X67660000Y-57500000D03*
%TO.P,J5,9,Pin_9*%
%TO.N,Y6*%
X66390000Y-57500000D03*
%TO.P,J5,10,Pin_10*%
%TO.N,Y5*%
X65120000Y-57500000D03*
%TO.P,J5,11,Pin_11*%
%TO.N,Y4*%
X63850000Y-57500000D03*
%TO.P,J5,12,Pin_12*%
%TO.N,Y3*%
X62580000Y-57500000D03*
%TO.P,J5,13,Pin_13*%
%TO.N,Y2*%
X61310000Y-57500000D03*
%TO.P,J5,14,Pin_14*%
%TO.N,Y1*%
X60040000Y-57500000D03*
%TO.P,J5,15,Pin_15*%
%TO.N,Y0*%
X58770000Y-57500000D03*
%TO.P,J5,16,Pin_16*%
%TO.N,GND*%
X57500000Y-57500000D03*
%TD*%
D10*
%TO.P,J6,1,Pin_1*%
%TO.N,DLQR*%
X69000000Y-64125000D03*
D11*
%TO.P,J6,2,Pin_2*%
%TO.N,QLDR*%
X69000000Y-65395000D03*
%TO.P,J6,3,Pin_3*%
%TO.N,Net-(J6-Pin_3)*%
X70270000Y-64125000D03*
%TO.P,J6,4,Pin_4*%
%TO.N,Net-(J6-Pin_4)*%
X70270000Y-65395000D03*
%TO.P,J6,5,Pin_5*%
%TO.N,QLDR*%
X71540000Y-64125000D03*
%TO.P,J6,6,Pin_6*%
%TO.N,DLQR*%
X71540000Y-65395000D03*
%TD*%
D12*
%TO.P,H2,1,1*%
%TO.N,GND*%
X54250000Y-57750000D03*
%TD*%
D10*
%TO.P,J2,1,Pin_1*%
%TO.N,GND*%
X54000000Y-80000000D03*
D11*
%TO.P,J2,2,Pin_2*%
%TO.N,X7*%
X54000000Y-78730000D03*
%TO.P,J2,3,Pin_3*%
%TO.N,X6*%
X54000000Y-77460000D03*
%TO.P,J2,4,Pin_4*%
%TO.N,X5*%
X54000000Y-76190000D03*
%TO.P,J2,5,Pin_5*%
%TO.N,X4*%
X54000000Y-74920000D03*
%TO.P,J2,6,Pin_6*%
%TO.N,X3*%
X54000000Y-73650000D03*
%TO.P,J2,7,Pin_7*%
%TO.N,X2*%
X54000000Y-72380000D03*
%TO.P,J2,8,Pin_8*%
%TO.N,X1*%
X54000000Y-71110000D03*
%TO.P,J2,9,Pin_9*%
%TO.N,X0*%
X54000000Y-69840000D03*
%TO.P,J2,10,Pin_10*%
%TO.N,+5V*%
X54000000Y-68570000D03*
%TO.P,J2,11,Pin_11*%
%TO.N,SHIFT-CLK*%
X54000000Y-67300000D03*
%TO.P,J2,12,Pin_12*%
%TO.N,SHIFT-RST*%
X54000000Y-66030000D03*
%TO.P,J2,13,Pin_13*%
%TO.N,SCL*%
X54000000Y-64760000D03*
%TO.P,J2,14,Pin_14*%
%TO.N,SDA*%
X54000000Y-63490000D03*
%TO.P,J2,15,Pin_15*%
%TO.N,CROSS-RST*%
X54000000Y-62220000D03*
%TO.P,J2,16,Pin_16*%
%TO.N,DLQR*%
X54000000Y-60950000D03*
%TD*%
D13*
%TO.P,D2,1,K*%
%TO.N,GND*%
X69187500Y-76625000D03*
%TO.P,D2,2,A*%
%TO.N,Net-(D1-K)*%
X71062500Y-76625000D03*
%TD*%
D14*
%TO.P,R2,1*%
%TO.N,Net-(D3-A)*%
X71250000Y-71037500D03*
%TO.P,R2,2*%
%TO.N,Net-(J6-Pin_4)*%
X71250000Y-69212500D03*
%TD*%
D15*
%TO.P,D3,1,K*%
%TO.N,Net-(D3-K)*%
X74687500Y-76625000D03*
%TO.P,D3,2,A*%
%TO.N,Net-(D3-A)*%
X72812500Y-76625000D03*
%TD*%
D16*
%TO.P,C3,1*%
%TO.N,+5V*%
X61425000Y-64250000D03*
%TO.P,C3,2*%
%TO.N,GND*%
X63325000Y-64250000D03*
%TD*%
D17*
%TO.N,+5V*%
X59125000Y-64625000D03*
X67625000Y-72000000D03*
X73125000Y-72000000D03*
X60125000Y-69000000D03*
%TO.N,GND*%
X65875000Y-66500000D03*
X66125000Y-64500000D03*
X69625000Y-70375000D03*
X67250000Y-66500000D03*
X72125000Y-78225000D03*
X62625000Y-67625000D03*
X68625000Y-60000000D03*
%TO.N,DLQR*%
X55025000Y-67500000D03*
%TO.N,QLDR*%
X78125000Y-68020000D03*
%TO.N,CROSS-RST*%
X78000000Y-62340000D03*
X77625000Y-68625000D03*
%TO.N,SDA*%
X76875000Y-69375000D03*
X77525000Y-63610000D03*
%TO.N,SCL*%
X76375000Y-70500000D03*
X76630000Y-64880000D03*
X64500000Y-68000000D03*
X67625000Y-68625000D03*
%TO.N,SHIFT-RST*%
X66500000Y-60500000D03*
X60000000Y-65000000D03*
X75500000Y-71125000D03*
X75650000Y-66150000D03*
%TO.N,SHIFT-CLK*%
X74875000Y-67250000D03*
X74625000Y-71750000D03*
%TO.N,X7*%
X67875000Y-81625000D03*
X59125000Y-77250000D03*
%TO.N,X6*%
X67375000Y-81000000D03*
X59145000Y-76250000D03*
%TO.N,X5*%
X59145000Y-75250000D03*
%TO.N,X4*%
X59145000Y-74250000D03*
%TO.N,X3*%
X59145000Y-73250000D03*
%TO.N,X2*%
X59145000Y-72250000D03*
%TO.N,X1*%
X59145000Y-71250000D03*
%TO.N,X0*%
X59145000Y-70250000D03*
%TO.N,Net-(J6-Pin_4)*%
X60250000Y-66625000D03*
X63375000Y-68250000D03*
%TO.N,Net-(D1-K)*%
X71062500Y-76625000D03*
%TO.N,Net-(D3-K)*%
X74687500Y-76625000D03*
%TD*%
D18*
%TO.N,+5V*%
X61000000Y-69875000D02*
X66375000Y-69875000D01*
X67625000Y-71125000D02*
X67625000Y-72000000D01*
X75539214Y-72750000D02*
X73875000Y-72750000D01*
D19*
X59125000Y-64625000D02*
X59125000Y-65875000D01*
D18*
X66375000Y-69875000D02*
X67625000Y-71125000D01*
X73875000Y-72750000D02*
X73125000Y-72000000D01*
X73625000Y-69500000D02*
X73625000Y-70625000D01*
X77375000Y-70750000D02*
X77375000Y-70914214D01*
X71963972Y-60036028D02*
X71963972Y-60213972D01*
X71963972Y-60213972D02*
X73625000Y-61875000D01*
X73625000Y-61875000D02*
X73625000Y-69500000D01*
D19*
X61425000Y-64250000D02*
X61425000Y-64975000D01*
D18*
X73125000Y-71125000D02*
X73125000Y-72000000D01*
X68930000Y-58686370D02*
X70279658Y-60036028D01*
X68930000Y-57500000D02*
X68930000Y-58686370D01*
X79555000Y-68570000D02*
X80000000Y-68570000D01*
X77375000Y-70914214D02*
X75539214Y-72750000D01*
X70279658Y-60036028D02*
X71963972Y-60036028D01*
D19*
X60525000Y-65875000D02*
X59125000Y-65875000D01*
X61425000Y-64975000D02*
X60525000Y-65875000D01*
X59125000Y-68000000D02*
X60125000Y-69000000D01*
D18*
X60125000Y-69000000D02*
X61000000Y-69875000D01*
X73625000Y-70625000D02*
X73125000Y-71125000D01*
D19*
X59125000Y-65875000D02*
X59125000Y-68000000D01*
D18*
X73625000Y-69875000D02*
X73625000Y-69500000D01*
X77375000Y-70750000D02*
X79555000Y-68570000D01*
D19*
%TO.N,GND*%
X64125000Y-66125000D02*
X65125000Y-66125000D01*
X66125000Y-64500000D02*
X65875000Y-64250000D01*
X68625000Y-67875000D02*
X68625000Y-70375000D01*
X72125000Y-78225000D02*
X70100000Y-78225000D01*
X69125000Y-70875000D02*
X69125000Y-71375000D01*
X70100000Y-78225000D02*
X69187500Y-77312500D01*
X68625000Y-60000000D02*
X66125000Y-62500000D01*
X68562500Y-67812500D02*
X68625000Y-67875000D01*
X69187500Y-71437500D02*
X69187500Y-76625000D01*
X62625000Y-67625000D02*
X64125000Y-66125000D01*
X69625000Y-70375000D02*
X69125000Y-70875000D01*
X65500000Y-65750000D02*
X66125000Y-65125000D01*
X65875000Y-64250000D02*
X63325000Y-64250000D01*
X68625000Y-70375000D02*
X69625000Y-70375000D01*
X69187500Y-77312500D02*
X69187500Y-76625000D01*
X65125000Y-66125000D02*
X65500000Y-65750000D01*
X65875000Y-66500000D02*
X65500000Y-66500000D01*
X66125000Y-62500000D02*
X66125000Y-64500000D01*
X67250000Y-66500000D02*
X68562500Y-67812500D01*
X66125000Y-65125000D02*
X66125000Y-64500000D01*
X65500000Y-66500000D02*
X65125000Y-66125000D01*
X69125000Y-71375000D02*
X69187500Y-71437500D01*
%TO.N,DLQR*%
X69000000Y-63750000D02*
X69500000Y-63250000D01*
X55000000Y-61125000D02*
X55000000Y-67475000D01*
X72500000Y-65375000D02*
X72480000Y-65395000D01*
X72480000Y-65395000D02*
X71540000Y-65395000D01*
X69000000Y-64125000D02*
X69000000Y-63750000D01*
X54000000Y-60950000D02*
X54825000Y-60950000D01*
X54825000Y-60950000D02*
X55000000Y-61125000D01*
X69500000Y-63250000D02*
X72125000Y-63250000D01*
X72125000Y-63250000D02*
X72500000Y-63625000D01*
X72500000Y-63625000D02*
X72500000Y-65375000D01*
X55000000Y-67475000D02*
X55025000Y-67500000D01*
%TO.N,QLDR*%
X79300000Y-60950000D02*
X78875000Y-61375000D01*
X80000000Y-60950000D02*
X79300000Y-60950000D01*
X78125000Y-67000000D02*
X78125000Y-68020000D01*
X78875000Y-61375000D02*
X78875000Y-66250000D01*
X78875000Y-66250000D02*
X78125000Y-67000000D01*
%TO.N,CROSS-RST*%
X77625000Y-68625000D02*
X77500000Y-68500000D01*
X77500000Y-66625000D02*
X78125000Y-66000000D01*
X75280000Y-58155000D02*
X75625000Y-58500000D01*
X78000000Y-60625000D02*
X78000000Y-62340000D01*
X78125000Y-66000000D02*
X78125000Y-65625000D01*
X75875000Y-58500000D02*
X78000000Y-60625000D01*
X75625000Y-58500000D02*
X75875000Y-58500000D01*
X78000000Y-62340000D02*
X78125000Y-62465000D01*
X77500000Y-68500000D02*
X77500000Y-66625000D01*
X78125000Y-62465000D02*
X78125000Y-65625000D01*
X75280000Y-57500000D02*
X75280000Y-58155000D01*
%TO.N,SDA*%
X74750000Y-58750000D02*
X74385000Y-58750000D01*
X76875000Y-66375000D02*
X77525000Y-65725000D01*
X77525000Y-65725000D02*
X77525000Y-63610000D01*
X76875000Y-69375000D02*
X76875000Y-66375000D01*
X77187500Y-63272500D02*
X77525000Y-63610000D01*
X77187500Y-61625000D02*
X77187500Y-63272500D01*
X74385000Y-58750000D02*
X74010000Y-58375000D01*
X77187500Y-61625000D02*
X77187500Y-61187500D01*
X77187500Y-61187500D02*
X74750000Y-58750000D01*
X74010000Y-58375000D02*
X74010000Y-57500000D01*
%TO.N,SCL*%
X76630000Y-64880000D02*
X76630000Y-61820685D01*
X76375000Y-70500000D02*
X76000000Y-70125000D01*
X64500000Y-68000000D02*
X65125000Y-68625000D01*
X76630000Y-61820685D02*
X72740000Y-57930685D01*
X65125000Y-68625000D02*
X67625000Y-68625000D01*
X76000000Y-67000000D02*
X76375000Y-66625000D01*
X76375000Y-66625000D02*
X76375000Y-65135000D01*
X76000000Y-70125000D02*
X76000000Y-67000000D01*
X76375000Y-65135000D02*
X76630000Y-64880000D01*
X72740000Y-57930685D02*
X72740000Y-57500000D01*
%TO.N,SHIFT-RST*%
X75650000Y-64205000D02*
X75625000Y-64180000D01*
X75625000Y-62000000D02*
X72250000Y-58625000D01*
X75625000Y-64180000D02*
X75625000Y-62000000D01*
X61000000Y-61500000D02*
X66000000Y-61500000D01*
X71470000Y-58595000D02*
X71470000Y-57500000D01*
X72250000Y-58625000D02*
X71500000Y-58625000D01*
X75650000Y-66150000D02*
X75650000Y-64205000D01*
X75650000Y-66150000D02*
X75500000Y-66300000D01*
X75500000Y-66300000D02*
X75500000Y-71125000D01*
X71500000Y-58625000D02*
X71470000Y-58595000D01*
X66000000Y-61500000D02*
X66500000Y-61000000D01*
X60000000Y-62500000D02*
X61000000Y-61500000D01*
X60000000Y-65000000D02*
X60000000Y-62500000D01*
X66500000Y-61000000D02*
X66500000Y-60500000D01*
%TO.N,SHIFT-CLK*%
X70200000Y-58825000D02*
X70200000Y-57500000D01*
X74625000Y-67500000D02*
X74625000Y-71750000D01*
X70532843Y-59157843D02*
X70200000Y-58825000D01*
X72217157Y-59157843D02*
X70532843Y-59157843D01*
X74875000Y-61815686D02*
X72217157Y-59157843D01*
X74875000Y-67250000D02*
X74875000Y-61815686D01*
X74875000Y-67250000D02*
X74625000Y-67500000D01*
%TO.N,X7*%
X59250000Y-79000000D02*
X64203430Y-79000000D01*
X59125000Y-78875000D02*
X59250000Y-79000000D01*
X67875000Y-81625000D02*
X66828430Y-81625000D01*
X64414215Y-79210785D02*
X64328429Y-79125000D01*
X59125000Y-77250000D02*
X59125000Y-78875000D01*
X64203430Y-79000000D02*
X64414215Y-79210785D01*
X66828430Y-81625000D02*
X64414215Y-79210785D01*
X76100000Y-81625000D02*
X78995000Y-78730000D01*
X78995000Y-78730000D02*
X80000000Y-78730000D01*
X67875000Y-81625000D02*
X76100000Y-81625000D01*
%TO.N,X6*%
X59750000Y-78500000D02*
X64500000Y-78500000D01*
X67657843Y-80717157D02*
X67782843Y-80717157D01*
X66375000Y-80375000D02*
X67440686Y-80375000D01*
X67375000Y-81000000D02*
X67657843Y-80717157D01*
X64500000Y-78500000D02*
X66375000Y-80375000D01*
X79515000Y-77460000D02*
X80000000Y-77460000D01*
X68290686Y-81225000D02*
X75750000Y-81225000D01*
X59145000Y-76250000D02*
X59375000Y-76250000D01*
X67782843Y-80717157D02*
X68290686Y-81225000D01*
X59750000Y-76625000D02*
X59750000Y-78500000D01*
X67440686Y-80375000D02*
X67782843Y-80717157D01*
X59375000Y-76250000D02*
X59750000Y-76625000D01*
X75750000Y-81225000D02*
X79515000Y-77460000D01*
%TO.N,X5*%
X75500000Y-80825000D02*
X78750000Y-77575000D01*
X60375000Y-77875000D02*
X64525000Y-77875000D01*
X78750000Y-76375000D02*
X78935000Y-76190000D01*
X78750000Y-77575000D02*
X78750000Y-76375000D01*
X78935000Y-76190000D02*
X80000000Y-76190000D01*
X67650000Y-79975000D02*
X68500000Y-80825000D01*
X66625000Y-79975000D02*
X67650000Y-79975000D01*
X60375000Y-76480000D02*
X60375000Y-77875000D01*
X59145000Y-75250000D02*
X60375000Y-76480000D01*
X68500000Y-80825000D02*
X75500000Y-80825000D01*
X64525000Y-77875000D02*
X66625000Y-79975000D01*
%TO.N,X4*%
X64775000Y-77475000D02*
X60875000Y-77475000D01*
X79310000Y-75040000D02*
X79880000Y-75040000D01*
X79310000Y-75040000D02*
X78350000Y-76000000D01*
X60875000Y-75980000D02*
X59145000Y-74250000D01*
X60875000Y-77475000D02*
X60875000Y-75980000D01*
X66875000Y-79575000D02*
X64775000Y-77475000D01*
X78350000Y-76000000D02*
X78350000Y-77325000D01*
X69000000Y-80425000D02*
X68150000Y-79575000D01*
X79880000Y-75040000D02*
X80000000Y-74920000D01*
X78350000Y-77325000D02*
X75250000Y-80425000D01*
X68150000Y-79575000D02*
X66875000Y-79575000D01*
X75250000Y-80425000D02*
X69000000Y-80425000D01*
%TO.N,X3*%
X69165686Y-80025000D02*
X68315685Y-79175000D01*
X61625000Y-77075000D02*
X61625000Y-75730000D01*
X75084314Y-80025000D02*
X77929657Y-77179657D01*
X77929657Y-75195343D02*
X79475000Y-73650000D01*
X67375000Y-79175000D02*
X65275000Y-77075000D01*
X65275000Y-77075000D02*
X61625000Y-77075000D01*
X77929657Y-75500000D02*
X77929657Y-75195343D01*
X69165686Y-80025000D02*
X75084314Y-80025000D01*
X77929657Y-77179657D02*
X77929657Y-75500000D01*
X79475000Y-73650000D02*
X80000000Y-73650000D01*
X61625000Y-75730000D02*
X59145000Y-73250000D01*
X68315685Y-79175000D02*
X67375000Y-79175000D01*
%TO.N,X2*%
X77529657Y-75000000D02*
X77529657Y-74850343D01*
X69331372Y-79625000D02*
X74918628Y-79625000D01*
X65440685Y-76675000D02*
X62875000Y-76675000D01*
X77529657Y-77013971D02*
X77529657Y-75000000D01*
X74918628Y-79625000D02*
X77529657Y-77013971D01*
X77529657Y-74850343D02*
X80000000Y-72380000D01*
X69331372Y-79625000D02*
X68386027Y-78679657D01*
X67445343Y-78679657D02*
X65440685Y-76675000D01*
X62875000Y-76675000D02*
X62875000Y-75980000D01*
X62875000Y-75980000D02*
X59145000Y-72250000D01*
X68386027Y-78679657D02*
X67445343Y-78679657D01*
%TO.N,X1*%
X67611030Y-78279658D02*
X65606370Y-76275000D01*
X77129657Y-76848285D02*
X74752942Y-79225000D01*
X64170000Y-76275000D02*
X59145000Y-71250000D01*
X79125000Y-71230000D02*
X79245000Y-71110000D01*
X79125000Y-71230000D02*
X79125000Y-72629657D01*
X79245000Y-71110000D02*
X80000000Y-71110000D01*
X77129657Y-74625000D02*
X77129657Y-76848285D01*
X68554657Y-78279657D02*
X67611030Y-78279658D01*
X65606370Y-76275000D02*
X64170000Y-76275000D01*
X79125000Y-72629657D02*
X77129657Y-74625000D01*
X69500000Y-79225000D02*
X68554657Y-78279657D01*
X74752942Y-79225000D02*
X69500000Y-79225000D01*
%TO.N,X0*%
X59145000Y-70250000D02*
X64770000Y-75875000D01*
X80000000Y-69960000D02*
X79829315Y-69960000D01*
X78625000Y-71125000D02*
X79910000Y-69840000D01*
X65772055Y-75875000D02*
X67776715Y-77879657D01*
X68929657Y-77879657D02*
X69875000Y-78825000D01*
X79910000Y-69840000D02*
X80000000Y-69840000D01*
X64770000Y-75875000D02*
X65772055Y-75875000D01*
X76706128Y-74293872D02*
X78625000Y-72375000D01*
X69875000Y-78825000D02*
X74587256Y-78825000D01*
X67776715Y-77879657D02*
X68929657Y-77879657D01*
X74587256Y-78825000D02*
X76706128Y-76706128D01*
X76706128Y-76706128D02*
X76706128Y-74293872D01*
X78625000Y-72375000D02*
X78625000Y-71125000D01*
%TO.N,Y7*%
X67660000Y-57840000D02*
X67660000Y-57500000D01*
X60500000Y-60950000D02*
X64550000Y-60950000D01*
X67250000Y-82625000D02*
X66790000Y-82165000D01*
X59852942Y-61597058D02*
X60500000Y-60950000D01*
X66790000Y-82165000D02*
X66790000Y-82152256D01*
X58472058Y-79262256D02*
X58472058Y-61597058D01*
X67660000Y-83500000D02*
X67660000Y-82625000D01*
X64220343Y-79582599D02*
X58792401Y-79582599D01*
X58792401Y-79582599D02*
X58472058Y-79262256D01*
X66790000Y-82152256D02*
X64220343Y-79582599D01*
X64550000Y-60950000D02*
X67660000Y-57840000D01*
X67660000Y-82625000D02*
X67250000Y-82625000D01*
X58472058Y-61597058D02*
X59852942Y-61597058D01*
%TO.N,Y6*%
X58072058Y-79427942D02*
X58072058Y-61197058D01*
X60250000Y-60572058D02*
X60250000Y-60550000D01*
X66390000Y-82317942D02*
X64125000Y-80052942D01*
X66390000Y-58360000D02*
X66390000Y-57500000D01*
X58697058Y-80052942D02*
X58072058Y-79427942D01*
X59625000Y-61197058D02*
X60250000Y-60572058D01*
X64125000Y-80052942D02*
X58697058Y-80052942D01*
X63390685Y-60550000D02*
X63415685Y-60525000D01*
X60250000Y-60550000D02*
X63390685Y-60550000D01*
X63415685Y-60525000D02*
X64225000Y-60525000D01*
X58072058Y-61197058D02*
X59625000Y-61197058D01*
X66390000Y-83500000D02*
X66390000Y-82317942D01*
X64225000Y-60525000D02*
X66390000Y-58360000D01*
%TO.N,Y5*%
X62540685Y-60150000D02*
X62565686Y-60125000D01*
X63268285Y-80523285D02*
X58601715Y-80523285D01*
X60047058Y-60150000D02*
X62540685Y-60150000D01*
X65125000Y-58250000D02*
X65120000Y-58245000D01*
X59540686Y-60656372D02*
X60047058Y-60150000D01*
X57650000Y-79571570D02*
X57650000Y-61053430D01*
X65120000Y-82375000D02*
X63268285Y-80523285D01*
X63250000Y-60125000D02*
X65125000Y-58250000D01*
X62565686Y-60125000D02*
X63250000Y-60125000D01*
X58601715Y-80523285D02*
X57650000Y-79571570D01*
X65120000Y-58245000D02*
X65120000Y-57500000D01*
X65120000Y-83500000D02*
X65120000Y-82375000D01*
X57650000Y-61053430D02*
X58047058Y-60656372D01*
X58047058Y-60656372D02*
X59540686Y-60656372D01*
%TO.N,Y4*%
X63850000Y-82375000D02*
X62406128Y-80931128D01*
X58443872Y-80931128D02*
X57250000Y-79737256D01*
X63850000Y-83500000D02*
X63850000Y-82375000D01*
X57250000Y-60887744D02*
X57881372Y-60256372D01*
X57250000Y-79737256D02*
X57250000Y-60887744D01*
X62406128Y-80931128D02*
X58443872Y-80931128D01*
X59375000Y-60256372D02*
X59875000Y-59756372D01*
X57881372Y-60256372D02*
X59375000Y-60256372D01*
X59875000Y-59756372D02*
X59875000Y-59750000D01*
X59875000Y-59750000D02*
X62375000Y-59750000D01*
X63850000Y-58275000D02*
X63850000Y-57500000D01*
X62375000Y-59750000D02*
X63850000Y-58275000D01*
%TO.N,Y3*%
X58293872Y-81346814D02*
X61506814Y-81346814D01*
X62580000Y-57500000D02*
X62580000Y-58295000D01*
X61506814Y-81346814D02*
X62580000Y-82420000D01*
X59250000Y-59770343D02*
X57801715Y-59770343D01*
X62580000Y-82420000D02*
X62580000Y-83500000D01*
X59682843Y-59337500D02*
X59250000Y-59770343D01*
X56840686Y-79893628D02*
X58293872Y-81346814D01*
X62580000Y-58295000D02*
X61537500Y-59337500D01*
X56840686Y-60731372D02*
X56840686Y-79893628D01*
X61537500Y-59337500D02*
X59682843Y-59337500D01*
X57801715Y-59770343D02*
X56840686Y-60731372D01*
%TO.N,Y2*%
X61310000Y-82560000D02*
X61310000Y-83500000D01*
X58128186Y-81746814D02*
X60496814Y-81746814D01*
X60562500Y-58937500D02*
X59348529Y-58937500D01*
X60496814Y-81746814D02*
X61310000Y-82560000D01*
X57636029Y-59370343D02*
X56440686Y-60565686D01*
X61310000Y-58190000D02*
X60562500Y-58937500D01*
X56440686Y-60565686D02*
X56440686Y-80059314D01*
X59000000Y-59286029D02*
X59000000Y-59370343D01*
X59348529Y-58937500D02*
X59000000Y-59286029D01*
X59000000Y-59370343D02*
X57636029Y-59370343D01*
X56440686Y-80059314D02*
X58128186Y-81746814D01*
X61310000Y-57500000D02*
X61310000Y-58190000D01*
%TO.N,Y1*%
X60040000Y-57500000D02*
X60040000Y-58460000D01*
X60040000Y-82792894D02*
X60040000Y-83500000D01*
X57970343Y-82154657D02*
X59401763Y-82154657D01*
X59260343Y-58460000D02*
X58750000Y-58970343D01*
X59401763Y-82154657D02*
X60040000Y-82792894D01*
X58750000Y-58970343D02*
X57470343Y-58970343D01*
X56025000Y-60415686D02*
X56025000Y-80209314D01*
X60040000Y-58460000D02*
X59260343Y-58460000D01*
X57470343Y-58970343D02*
X56025000Y-60415686D01*
X56025000Y-80209314D02*
X57970343Y-82154657D01*
%TO.N,Y0*%
X55625000Y-60250000D02*
X55625000Y-80375000D01*
X58770000Y-58355000D02*
X58750000Y-58375000D01*
X57500000Y-58375000D02*
X55625000Y-60250000D01*
X58770000Y-57500000D02*
X58770000Y-58355000D01*
X58750000Y-82625000D02*
X58770000Y-82645000D01*
X58750000Y-58375000D02*
X57500000Y-58375000D01*
X58770000Y-82645000D02*
X58770000Y-83500000D01*
X55625000Y-80375000D02*
X57875000Y-82625000D01*
X57875000Y-82625000D02*
X58750000Y-82625000D01*
%TO.N,Net-(J6-Pin_4)*%
X61250000Y-68375000D02*
X63250000Y-68375000D01*
X60250000Y-66625000D02*
X60250000Y-67375000D01*
X64125000Y-67250000D02*
X63375000Y-68000000D01*
X66625000Y-67125000D02*
X66500000Y-67250000D01*
X60250000Y-67375000D02*
X61250000Y-68375000D01*
X71250000Y-69212500D02*
X71250000Y-67500000D01*
X63375000Y-68000000D02*
X63375000Y-68250000D01*
X70270000Y-65395000D02*
X70270000Y-66520000D01*
X71250000Y-67500000D02*
X71187500Y-67437500D01*
X66625000Y-65750000D02*
X66625000Y-67125000D01*
X68000000Y-65750000D02*
X66625000Y-65750000D01*
X68375000Y-66625000D02*
X68000000Y-66250000D01*
X66500000Y-67250000D02*
X64125000Y-67250000D01*
X68000000Y-66250000D02*
X68000000Y-65750000D01*
X63250000Y-68375000D02*
X63375000Y-68250000D01*
X70270000Y-65395000D02*
X69040000Y-66625000D01*
X69040000Y-66625000D02*
X68375000Y-66625000D01*
X70270000Y-66520000D02*
X71187500Y-67437500D01*
%TO.N,Net-(D1-K)*%
X71312500Y-76750000D02*
X71375000Y-76750000D01*
%TO.N,Net-(D3-A)*%
X72812500Y-74187500D02*
X72812500Y-76625000D01*
X71250000Y-71037500D02*
X71250000Y-72625000D01*
X71250000Y-72625000D02*
X72812500Y-74187500D01*
%TD*%
%TA.AperFunction,Conductor*%
%TO.N,GND*%
G36*
X53414894Y-83973624D02*
G01*
X53566932Y-84118592D01*
X53669222Y-84184329D01*
X52736564Y-85116987D01*
X52736565Y-85116989D01*
X52954299Y-85275182D01*
X52996965Y-85330512D01*
X53002944Y-85400125D01*
X52970338Y-85461920D01*
X52909500Y-85496277D01*
X52881414Y-85499500D01*
X52124500Y-85499500D01*
X52057461Y-85479815D01*
X52011706Y-85427011D01*
X52000500Y-85375500D01*
X52000500Y-84611226D01*
X52020185Y-84544187D01*
X52072989Y-84498432D01*
X52142147Y-84488488D01*
X52205703Y-84517513D01*
X52229197Y-84544784D01*
X52304516Y-84663469D01*
X52385311Y-84761133D01*
X53314210Y-83832234D01*
X53414894Y-83973624D01*
G37*
%TD.AperFunction*%
%TA.AperFunction,Conductor*%
G36*
X57750000Y-84469159D02*
G01*
X57884534Y-84428349D01*
X58058259Y-84335492D01*
X58063320Y-84332111D01*
X58064444Y-84333793D01*
X58120203Y-84310086D01*
X58189075Y-84321851D01*
X58206186Y-84332843D01*
X58206399Y-84332526D01*
X58211457Y-84335906D01*
X58211462Y-84335910D01*
X58332956Y-84400850D01*
X58383147Y-84427678D01*
X58385273Y-84428814D01*
X58573868Y-84486024D01*
X58770000Y-84505341D01*
X58966132Y-84486024D01*
X59154727Y-84428814D01*
X59328538Y-84335910D01*
X59328544Y-84335904D01*
X59333607Y-84332523D01*
X59334703Y-84334164D01*
X59390639Y-84310405D01*
X59459507Y-84322194D01*
X59476148Y-84332888D01*
X59476393Y-84332523D01*
X59481458Y-84335907D01*
X59481462Y-84335910D01*
X59617263Y-84408497D01*
X59653147Y-84427678D01*
X59655273Y-84428814D01*
X59843868Y-84486024D01*
X60040000Y-84505341D01*
X60236132Y-84486024D01*
X60424727Y-84428814D01*
X60598538Y-84335910D01*
X60598544Y-84335904D01*
X60603607Y-84332523D01*
X60604703Y-84334164D01*
X60660639Y-84310405D01*
X60729507Y-84322194D01*
X60746148Y-84332888D01*
X60746393Y-84332523D01*
X60751458Y-84335907D01*
X60751462Y-84335910D01*
X60887263Y-84408497D01*
X60923147Y-84427678D01*
X60925273Y-84428814D01*
X61113868Y-84486024D01*
X61310000Y-84505341D01*
X61506132Y-84486024D01*
X61694727Y-84428814D01*
X61868538Y-84335910D01*
X61868544Y-84335904D01*
X61873607Y-84332523D01*
X61874703Y-84334164D01*
X61930639Y-84310405D01*
X61999507Y-84322194D01*
X62016148Y-84332888D01*
X62016393Y-84332523D01*
X62021458Y-84335907D01*
X62021462Y-84335910D01*
X62157263Y-84408497D01*
X62193147Y-84427678D01*
X62195273Y-84428814D01*
X62383868Y-84486024D01*
X62580000Y-84505341D01*
X62776132Y-84486024D01*
X62964727Y-84428814D01*
X63138538Y-84335910D01*
X63138544Y-84335904D01*
X63143607Y-84332523D01*
X63144703Y-84334164D01*
X63200639Y-84310405D01*
X63269507Y-84322194D01*
X63286148Y-84332888D01*
X63286393Y-84332523D01*
X63291458Y-84335907D01*
X63291462Y-84335910D01*
X63427263Y-84408497D01*
X63463147Y-84427678D01*
X63465273Y-84428814D01*
X63653868Y-84486024D01*
X63850000Y-84505341D01*
X64046132Y-84486024D01*
X64234727Y-84428814D01*
X64408538Y-84335910D01*
X64408544Y-84335904D01*
X64413607Y-84332523D01*
X64414703Y-84334164D01*
X64470639Y-84310405D01*
X64539507Y-84322194D01*
X64556148Y-84332888D01*
X64556393Y-84332523D01*
X64561458Y-84335907D01*
X64561462Y-84335910D01*
X64697263Y-84408497D01*
X64733147Y-84427678D01*
X64735273Y-84428814D01*
X64923868Y-84486024D01*
X65120000Y-84505341D01*
X65316132Y-84486024D01*
X65504727Y-84428814D01*
X65678538Y-84335910D01*
X65678544Y-84335904D01*
X65683607Y-84332523D01*
X65684703Y-84334164D01*
X65740639Y-84310405D01*
X65809507Y-84322194D01*
X65826148Y-84332888D01*
X65826393Y-84332523D01*
X65831458Y-84335907D01*
X65831462Y-84335910D01*
X65967263Y-84408497D01*
X66003147Y-84427678D01*
X66005273Y-84428814D01*
X66193868Y-84486024D01*
X66390000Y-84505341D01*
X66586132Y-84486024D01*
X66774727Y-84428814D01*
X66948538Y-84335910D01*
X66948544Y-84335904D01*
X66953607Y-84332523D01*
X66954703Y-84334164D01*
X67010639Y-84310405D01*
X67079507Y-84322194D01*
X67096148Y-84332888D01*
X67096393Y-84332523D01*
X67101458Y-84335907D01*
X67101462Y-84335910D01*
X67237263Y-84408497D01*
X67273147Y-84427678D01*
X67275273Y-84428814D01*
X67463868Y-84486024D01*
X67660000Y-84505341D01*
X67856132Y-84486024D01*
X68044727Y-84428814D01*
X68218538Y-84335910D01*
X68218544Y-84335904D01*
X68223607Y-84332523D01*
X68224703Y-84334164D01*
X68280639Y-84310405D01*
X68349507Y-84322194D01*
X68366148Y-84332888D01*
X68366393Y-84332523D01*
X68371458Y-84335907D01*
X68371462Y-84335910D01*
X68507263Y-84408497D01*
X68543147Y-84427678D01*
X68545273Y-84428814D01*
X68733868Y-84486024D01*
X68930000Y-84505341D01*
X69126132Y-84486024D01*
X69314727Y-84428814D01*
X69488538Y-84335910D01*
X69488544Y-84335904D01*
X69493607Y-84332523D01*
X69494703Y-84334164D01*
X69550639Y-84310405D01*
X69619507Y-84322194D01*
X69636148Y-84332888D01*
X69636393Y-84332523D01*
X69641458Y-84335907D01*
X69641462Y-84335910D01*
X69777263Y-84408497D01*
X69813147Y-84427678D01*
X69815273Y-84428814D01*
X70003868Y-84486024D01*
X70200000Y-84505341D01*
X70396132Y-84486024D01*
X70584727Y-84428814D01*
X70758538Y-84335910D01*
X70758544Y-84335904D01*
X70763607Y-84332523D01*
X70764703Y-84334164D01*
X70820639Y-84310405D01*
X70889507Y-84322194D01*
X70906148Y-84332888D01*
X70906393Y-84332523D01*
X70911458Y-84335907D01*
X70911462Y-84335910D01*
X71047263Y-84408497D01*
X71083147Y-84427678D01*
X71085273Y-84428814D01*
X71273868Y-84486024D01*
X71470000Y-84505341D01*
X71666132Y-84486024D01*
X71854727Y-84428814D01*
X72028538Y-84335910D01*
X72028544Y-84335904D01*
X72033607Y-84332523D01*
X72034703Y-84334164D01*
X72090639Y-84310405D01*
X72159507Y-84322194D01*
X72176148Y-84332888D01*
X72176393Y-84332523D01*
X72181458Y-84335907D01*
X72181462Y-84335910D01*
X72317263Y-84408497D01*
X72353147Y-84427678D01*
X72355273Y-84428814D01*
X72543868Y-84486024D01*
X72740000Y-84505341D01*
X72936132Y-84486024D01*
X73124727Y-84428814D01*
X73298538Y-84335910D01*
X73298544Y-84335904D01*
X73303607Y-84332523D01*
X73304703Y-84334164D01*
X73360639Y-84310405D01*
X73429507Y-84322194D01*
X73446148Y-84332888D01*
X73446393Y-84332523D01*
X73451458Y-84335907D01*
X73451462Y-84335910D01*
X73587263Y-84408497D01*
X73623147Y-84427678D01*
X73625273Y-84428814D01*
X73813868Y-84486024D01*
X74010000Y-84505341D01*
X74206132Y-84486024D01*
X74394727Y-84428814D01*
X74568538Y-84335910D01*
X74568544Y-84335904D01*
X74573607Y-84332523D01*
X74574703Y-84334164D01*
X74630639Y-84310405D01*
X74699507Y-84322194D01*
X74716148Y-84332888D01*
X74716393Y-84332523D01*
X74721458Y-84335907D01*
X74721462Y-84335910D01*
X74857263Y-84408497D01*
X74893147Y-84427678D01*
X74895273Y-84428814D01*
X75083868Y-84486024D01*
X75280000Y-84505341D01*
X75476132Y-84486024D01*
X75664727Y-84428814D01*
X75666853Y-84427677D01*
X75668095Y-84427418D01*
X75670355Y-84426483D01*
X75670532Y-84426911D01*
X75735254Y-84413435D01*
X75799615Y-84437767D01*
X75807669Y-84443796D01*
X75807672Y-84443797D01*
X75942517Y-84494091D01*
X75942516Y-84494091D01*
X75949444Y-84494835D01*
X76002127Y-84500500D01*
X77097872Y-84500499D01*
X77157483Y-84494091D01*
X77292331Y-84443796D01*
X77407546Y-84357546D01*
X77454227Y-84295188D01*
X77510160Y-84253318D01*
X77579852Y-84248334D01*
X77641175Y-84281819D01*
X77665692Y-84316703D01*
X77767709Y-84533500D01*
X77929516Y-84788469D01*
X78010311Y-84886133D01*
X78939210Y-83957234D01*
X79039894Y-84098624D01*
X79191932Y-84243592D01*
X79294222Y-84309329D01*
X78361564Y-85241987D01*
X78361565Y-85241989D01*
X78407251Y-85275182D01*
X78449917Y-85330512D01*
X78455896Y-85400125D01*
X78423290Y-85461920D01*
X78362452Y-85496277D01*
X78334366Y-85499500D01*
X55618586Y-85499500D01*
X55551547Y-85479815D01*
X55505792Y-85427011D01*
X55495848Y-85357853D01*
X55524873Y-85294297D01*
X55545700Y-85275182D01*
X55763433Y-85116987D01*
X55763434Y-85116987D01*
X54833307Y-84186859D01*
X54847410Y-84179589D01*
X55012540Y-84049729D01*
X55150110Y-83890965D01*
X55184665Y-83831112D01*
X56114687Y-84761134D01*
X56195486Y-84663464D01*
X56357292Y-84408497D01*
X56357295Y-84408491D01*
X56485867Y-84135263D01*
X56487031Y-84132324D01*
X56530006Y-84077234D01*
X56595943Y-84054123D01*
X56663907Y-84070328D01*
X56698182Y-84099293D01*
X56789471Y-84210528D01*
X56941739Y-84335491D01*
X57115465Y-84428349D01*
X57250000Y-84469159D01*
X57250000Y-83748938D01*
X57331115Y-83812072D01*
X57441595Y-83850000D01*
X57529005Y-83850000D01*
X57615216Y-83835614D01*
X57717947Y-83780019D01*
X57750000Y-83745200D01*
X57750000Y-84469159D01*
G37*
%TD.AperFunction*%
%TA.AperFunction,Conductor*%
G36*
X81739687Y-84886134D02*
G01*
X81779956Y-84837458D01*
X81837856Y-84798350D01*
X81907707Y-84796754D01*
X81967333Y-84833175D01*
X81997803Y-84896051D01*
X81999500Y-84916498D01*
X81999500Y-85375500D01*
X81979815Y-85442539D01*
X81927011Y-85488294D01*
X81875500Y-85499500D01*
X81415632Y-85499500D01*
X81348593Y-85479815D01*
X81302838Y-85427011D01*
X81292894Y-85357853D01*
X81321919Y-85294297D01*
X81342746Y-85275182D01*
X81388433Y-85241987D01*
X81388434Y-85241987D01*
X80458307Y-84311859D01*
X80472410Y-84304589D01*
X80637540Y-84174729D01*
X80775110Y-84015965D01*
X80809665Y-83956112D01*
X81739687Y-84886134D01*
G37*
%TD.AperFunction*%
%TA.AperFunction,Conductor*%
G36*
X78955451Y-79721297D02*
G01*
X78999798Y-79749798D01*
X79000000Y-79750000D01*
X79754419Y-79750000D01*
X79702940Y-79805921D01*
X79656018Y-79912892D01*
X79646372Y-80029302D01*
X79675047Y-80142538D01*
X79738936Y-80240327D01*
X79751364Y-80250000D01*
X79000000Y-80250000D01*
X79000000Y-80547844D01*
X79006401Y-80607372D01*
X79006403Y-80607379D01*
X79056645Y-80742086D01*
X79056649Y-80742093D01*
X79142809Y-80857187D01*
X79142812Y-80857190D01*
X79163107Y-80872383D01*
X79204978Y-80928316D01*
X79209962Y-80998008D01*
X79176477Y-81059331D01*
X79134444Y-81086941D01*
X78851112Y-81199120D01*
X78851109Y-81199121D01*
X78586476Y-81344604D01*
X78586471Y-81344607D01*
X78361565Y-81508010D01*
X78361564Y-81508011D01*
X79291693Y-82438140D01*
X79277590Y-82445411D01*
X79112460Y-82575271D01*
X78974890Y-82734035D01*
X78940334Y-82793887D01*
X78010311Y-81863864D01*
X77929520Y-81961525D01*
X77929518Y-81961528D01*
X77767707Y-82216502D01*
X77767704Y-82216508D01*
X77639127Y-82489747D01*
X77639127Y-82489748D01*
X77607414Y-82587348D01*
X77567976Y-82645023D01*
X77503617Y-82672221D01*
X77434771Y-82660306D01*
X77415554Y-82646552D01*
X77414645Y-82647768D01*
X77292335Y-82556206D01*
X77292328Y-82556202D01*
X77157482Y-82505908D01*
X77157483Y-82505908D01*
X77097883Y-82499501D01*
X77097881Y-82499500D01*
X77097873Y-82499500D01*
X77097864Y-82499500D01*
X76002129Y-82499500D01*
X76002123Y-82499501D01*
X75942516Y-82505908D01*
X75807671Y-82556202D01*
X75807666Y-82556205D01*
X75799614Y-82562233D01*
X75734149Y-82586648D01*
X75670530Y-82573104D01*
X75670359Y-82573518D01*
X75668123Y-82572592D01*
X75666850Y-82572321D01*
X75664729Y-82571187D01*
X75664728Y-82571186D01*
X75664727Y-82571186D01*
X75476132Y-82513976D01*
X75476129Y-82513975D01*
X75280000Y-82494659D01*
X75083870Y-82513975D01*
X74895266Y-82571188D01*
X74721467Y-82664086D01*
X74716399Y-82667473D01*
X74715305Y-82665836D01*
X74659337Y-82689596D01*
X74590471Y-82677795D01*
X74573843Y-82667109D01*
X74573601Y-82667473D01*
X74568532Y-82664086D01*
X74394733Y-82571188D01*
X74394727Y-82571186D01*
X74206132Y-82513976D01*
X74206129Y-82513975D01*
X74010000Y-82494659D01*
X73813870Y-82513975D01*
X73625266Y-82571188D01*
X73451467Y-82664086D01*
X73446399Y-82667473D01*
X73445305Y-82665836D01*
X73389337Y-82689596D01*
X73320471Y-82677795D01*
X73303843Y-82667109D01*
X73303601Y-82667473D01*
X73298532Y-82664086D01*
X73124733Y-82571188D01*
X73124727Y-82571186D01*
X72936132Y-82513976D01*
X72936129Y-82513975D01*
X72740000Y-82494659D01*
X72543870Y-82513975D01*
X72355266Y-82571188D01*
X72181467Y-82664086D01*
X72176399Y-82667473D01*
X72175305Y-82665836D01*
X72119337Y-82689596D01*
X72050471Y-82677795D01*
X72033843Y-82667109D01*
X72033601Y-82667473D01*
X72028532Y-82664086D01*
X71854733Y-82571188D01*
X71854727Y-82571186D01*
X71666132Y-82513976D01*
X71666129Y-82513975D01*
X71470000Y-82494659D01*
X71273870Y-82513975D01*
X71085266Y-82571188D01*
X70911467Y-82664086D01*
X70906399Y-82667473D01*
X70905305Y-82665836D01*
X70849337Y-82689596D01*
X70780471Y-82677795D01*
X70763843Y-82667109D01*
X70763601Y-82667473D01*
X70758532Y-82664086D01*
X70584733Y-82571188D01*
X70584727Y-82571186D01*
X70396132Y-82513976D01*
X70396129Y-82513975D01*
X70200000Y-82494659D01*
X70003870Y-82513975D01*
X69815266Y-82571188D01*
X69641467Y-82664086D01*
X69636399Y-82667473D01*
X69635305Y-82665836D01*
X69579337Y-82689596D01*
X69510471Y-82677795D01*
X69493843Y-82667109D01*
X69493601Y-82667473D01*
X69488532Y-82664086D01*
X69314733Y-82571188D01*
X69314727Y-82571186D01*
X69126132Y-82513976D01*
X69126129Y-82513975D01*
X68930000Y-82494659D01*
X68733870Y-82513975D01*
X68658918Y-82536712D01*
X68545273Y-82571186D01*
X68545270Y-82571187D01*
X68545268Y-82571188D01*
X68435449Y-82629887D01*
X68367047Y-82644128D01*
X68301803Y-82619127D01*
X68260433Y-82562822D01*
X68254059Y-82536718D01*
X68245044Y-82468238D01*
X68242273Y-82461549D01*
X68234804Y-82392083D01*
X68266077Y-82329603D01*
X68290852Y-82309110D01*
X68377262Y-82254816D01*
X68377266Y-82254812D01*
X68380097Y-82252555D01*
X68382273Y-82251666D01*
X68383159Y-82251110D01*
X68383256Y-82251265D01*
X68444783Y-82226145D01*
X68457412Y-82225500D01*
X76052513Y-82225500D01*
X76068697Y-82226560D01*
X76100000Y-82230682D01*
X76100001Y-82230682D01*
X76152254Y-82223802D01*
X76256762Y-82210044D01*
X76402841Y-82149536D01*
X76440728Y-82120464D01*
X76528282Y-82053282D01*
X76547509Y-82028223D01*
X76558190Y-82016043D01*
X78824436Y-79749798D01*
X78885759Y-79716313D01*
X78955451Y-79721297D01*
G37*
%TD.AperFunction*%
%TA.AperFunction,Conductor*%
G36*
X81739687Y-59261134D02*
G01*
X81779956Y-59212458D01*
X81837856Y-59173350D01*
X81907707Y-59171754D01*
X81967333Y-59208175D01*
X81997803Y-59271051D01*
X81999500Y-59291498D01*
X81999500Y-81833500D01*
X81979815Y-81900539D01*
X81927011Y-81946294D01*
X81857853Y-81956238D01*
X81794297Y-81927213D01*
X81779957Y-81912541D01*
X81739687Y-81863864D01*
X80810788Y-82792763D01*
X80710106Y-82651376D01*
X80558068Y-82506408D01*
X80455776Y-82440669D01*
X81388434Y-81508011D01*
X81388433Y-81508009D01*
X81163538Y-81344614D01*
X81163520Y-81344602D01*
X80898890Y-81199121D01*
X80898887Y-81199120D01*
X80779073Y-81151682D01*
X80723988Y-81108701D01*
X80700885Y-81042762D01*
X80717099Y-80974799D01*
X80750410Y-80937123D01*
X80857190Y-80857186D01*
X80943350Y-80742093D01*
X80943354Y-80742086D01*
X80993596Y-80607379D01*
X80993598Y-80607372D01*
X80999999Y-80547844D01*
X81000000Y-80547827D01*
X81000000Y-80250000D01*
X80245581Y-80250000D01*
X80297060Y-80194079D01*
X80343982Y-80087108D01*
X80353628Y-79970698D01*
X80324953Y-79857462D01*
X80261064Y-79759673D01*
X80248636Y-79750000D01*
X81000000Y-79750000D01*
X81000000Y-79452172D01*
X80999999Y-79452155D01*
X80993598Y-79392627D01*
X80993597Y-79392623D01*
X80943351Y-79257908D01*
X80937510Y-79250106D01*
X80913091Y-79184642D01*
X80926752Y-79120466D01*
X80926483Y-79120355D01*
X80927086Y-79118899D01*
X80927418Y-79117338D01*
X80928814Y-79114727D01*
X80986024Y-78926132D01*
X81005341Y-78730000D01*
X80986024Y-78533868D01*
X80928814Y-78345273D01*
X80835910Y-78171462D01*
X80835907Y-78171458D01*
X80832523Y-78166393D01*
X80834164Y-78165296D01*
X80810405Y-78109361D01*
X80822194Y-78040493D01*
X80832888Y-78023851D01*
X80832523Y-78023607D01*
X80835904Y-78018544D01*
X80835910Y-78018538D01*
X80928814Y-77844727D01*
X80986024Y-77656132D01*
X81005341Y-77460000D01*
X80986024Y-77263868D01*
X80928814Y-77075273D01*
X80835910Y-76901462D01*
X80835907Y-76901458D01*
X80832523Y-76896393D01*
X80834164Y-76895296D01*
X80810405Y-76839361D01*
X80822194Y-76770493D01*
X80832888Y-76753851D01*
X80832523Y-76753607D01*
X80835904Y-76748544D01*
X80835910Y-76748538D01*
X80928814Y-76574727D01*
X80986024Y-76386132D01*
X81005341Y-76190000D01*
X80986024Y-75993868D01*
X80928814Y-75805273D01*
X80835910Y-75631462D01*
X80835907Y-75631458D01*
X80832523Y-75626393D01*
X80834164Y-75625296D01*
X80810405Y-75569361D01*
X80822194Y-75500493D01*
X80832888Y-75483851D01*
X80832523Y-75483607D01*
X80835904Y-75478544D01*
X80835910Y-75478538D01*
X80928814Y-75304727D01*
X80986024Y-75116132D01*
X81005341Y-74920000D01*
X80986024Y-74723868D01*
X80928814Y-74535273D01*
X80835910Y-74361462D01*
X80835907Y-74361458D01*
X80832523Y-74356393D01*
X80834164Y-74355296D01*
X80810405Y-74299361D01*
X80822194Y-74230493D01*
X80832888Y-74213851D01*
X80832523Y-74213607D01*
X80835904Y-74208544D01*
X80835910Y-74208538D01*
X80928814Y-74034727D01*
X80986024Y-73846132D01*
X81005341Y-73650000D01*
X80986024Y-73453868D01*
X80928814Y-73265273D01*
X80835910Y-73091462D01*
X80835907Y-73091458D01*
X80832523Y-73086393D01*
X80834164Y-73085296D01*
X80810405Y-73029361D01*
X80822194Y-72960493D01*
X80832888Y-72943851D01*
X80832523Y-72943607D01*
X80835904Y-72938544D01*
X80835910Y-72938538D01*
X80928814Y-72764727D01*
X80986024Y-72576132D01*
X81005341Y-72380000D01*
X80986024Y-72183868D01*
X80928814Y-71995273D01*
X80923222Y-71984812D01*
X80873994Y-71892712D01*
X80835910Y-71821462D01*
X80835907Y-71821458D01*
X80832523Y-71816393D01*
X80834164Y-71815296D01*
X80810405Y-71759361D01*
X80822194Y-71690493D01*
X80832888Y-71673851D01*
X80832523Y-71673607D01*
X80835904Y-71668544D01*
X80835910Y-71668538D01*
X80928814Y-71494727D01*
X80986024Y-71306132D01*
X81005341Y-71110000D01*
X80986024Y-70913868D01*
X80928814Y-70725273D01*
X80835910Y-70551462D01*
X80835907Y-70551458D01*
X80832523Y-70546393D01*
X80834164Y-70545296D01*
X80810405Y-70489361D01*
X80822194Y-70420493D01*
X80832888Y-70403851D01*
X80832523Y-70403607D01*
X80835904Y-70398544D01*
X80835910Y-70398538D01*
X80928814Y-70224727D01*
X80986024Y-70036132D01*
X81005341Y-69840000D01*
X80986024Y-69643868D01*
X80928814Y-69455273D01*
X80835910Y-69281462D01*
X80835906Y-69281457D01*
X80832526Y-69276399D01*
X80834167Y-69275301D01*
X80810405Y-69219366D01*
X80822190Y-69150497D01*
X80832887Y-69133856D01*
X80832521Y-69133612D01*
X80835905Y-69128546D01*
X80835907Y-69128540D01*
X80835910Y-69128538D01*
X80837766Y-69125063D01*
X80849076Y-69107605D01*
X80853448Y-69101958D01*
X80868120Y-69072045D01*
X80889642Y-69028170D01*
X80891593Y-69024358D01*
X80928814Y-68954727D01*
X80931000Y-68947517D01*
X80938330Y-68928912D01*
X80943060Y-68919271D01*
X80962770Y-68843143D01*
X80964136Y-68838282D01*
X80986024Y-68766132D01*
X80987113Y-68755065D01*
X80990473Y-68736148D01*
X80994063Y-68722285D01*
X80997864Y-68647318D01*
X80998296Y-68641520D01*
X81005341Y-68570000D01*
X81003899Y-68555369D01*
X81003462Y-68536937D01*
X81004369Y-68519064D01*
X80993544Y-68448407D01*
X80992714Y-68441802D01*
X80986024Y-68373872D01*
X80986024Y-68373868D01*
X80980713Y-68356361D01*
X80976809Y-68339167D01*
X80973556Y-68317929D01*
X80949967Y-68254239D01*
X80947598Y-68247200D01*
X80928814Y-68185273D01*
X80918512Y-68166000D01*
X80911588Y-68150610D01*
X80902887Y-68127117D01*
X80902886Y-68127113D01*
X80868842Y-68072493D01*
X80864722Y-68065366D01*
X80835911Y-68011463D01*
X80832527Y-68006399D01*
X80834164Y-68005305D01*
X80810403Y-67949341D01*
X80822202Y-67880475D01*
X80832889Y-67863851D01*
X80832523Y-67863607D01*
X80835904Y-67858544D01*
X80835910Y-67858538D01*
X80928814Y-67684727D01*
X80986024Y-67496132D01*
X81005341Y-67300000D01*
X80986024Y-67103868D01*
X80928814Y-66915273D01*
X80923013Y-66904421D01*
X80914777Y-66889012D01*
X80835910Y-66741462D01*
X80835907Y-66741458D01*
X80832523Y-66736393D01*
X80834164Y-66735296D01*
X80810405Y-66679361D01*
X80822194Y-66610493D01*
X80832888Y-66593851D01*
X80832523Y-66593607D01*
X80835904Y-66588544D01*
X80835910Y-66588538D01*
X80928814Y-66414727D01*
X80986024Y-66226132D01*
X81005341Y-66030000D01*
X80986024Y-65833868D01*
X80928814Y-65645273D01*
X80835910Y-65471462D01*
X80835907Y-65471458D01*
X80832523Y-65466393D01*
X80834164Y-65465296D01*
X80810405Y-65409361D01*
X80822194Y-65340493D01*
X80832888Y-65323851D01*
X80832523Y-65323607D01*
X80835904Y-65318544D01*
X80835910Y-65318538D01*
X80928814Y-65144727D01*
X80986024Y-64956132D01*
X81005341Y-64760000D01*
X80986024Y-64563868D01*
X80928814Y-64375273D01*
X80835910Y-64201462D01*
X80835907Y-64201458D01*
X80832523Y-64196393D01*
X80834164Y-64195296D01*
X80810405Y-64139361D01*
X80822194Y-64070493D01*
X80832888Y-64053851D01*
X80832523Y-64053607D01*
X80835904Y-64048544D01*
X80835910Y-64048538D01*
X80928814Y-63874727D01*
X80986024Y-63686132D01*
X81005341Y-63490000D01*
X80986024Y-63293868D01*
X80928814Y-63105273D01*
X80835910Y-62931462D01*
X80835907Y-62931458D01*
X80832523Y-62926393D01*
X80834164Y-62925296D01*
X80810405Y-62869361D01*
X80822194Y-62800493D01*
X80832888Y-62783851D01*
X80832523Y-62783607D01*
X80835904Y-62778544D01*
X80835910Y-62778538D01*
X80928814Y-62604727D01*
X80986024Y-62416132D01*
X81005341Y-62220000D01*
X80986024Y-62023868D01*
X80928814Y-61835273D01*
X80835910Y-61661462D01*
X80835907Y-61661458D01*
X80832523Y-61656393D01*
X80834164Y-61655296D01*
X80810405Y-61599361D01*
X80822194Y-61530493D01*
X80832888Y-61513851D01*
X80832523Y-61513607D01*
X80835904Y-61508544D01*
X80835910Y-61508538D01*
X80928814Y-61334727D01*
X80986024Y-61146132D01*
X81005341Y-60950000D01*
X80986024Y-60753868D01*
X80928814Y-60565273D01*
X80928811Y-60565269D01*
X80928811Y-60565266D01*
X80835913Y-60391467D01*
X80835909Y-60391460D01*
X80710885Y-60239119D01*
X80710880Y-60239115D01*
X80677405Y-60211642D01*
X80638071Y-60153896D01*
X80636202Y-60084051D01*
X80672389Y-60024283D01*
X80710424Y-60000496D01*
X80898893Y-59925876D01*
X81163520Y-59780397D01*
X81163530Y-59780390D01*
X81388433Y-59616987D01*
X81388434Y-59616987D01*
X80458307Y-58686859D01*
X80472410Y-58679589D01*
X80637540Y-58549729D01*
X80775110Y-58390965D01*
X80809665Y-58331112D01*
X81739687Y-59261134D01*
G37*
%TD.AperFunction*%
%TA.AperFunction,Conductor*%
G36*
X53414894Y-58473624D02*
G01*
X53566932Y-58618592D01*
X53669222Y-58684329D01*
X52736564Y-59616987D01*
X52736565Y-59616989D01*
X52961461Y-59780385D01*
X52961479Y-59780397D01*
X53226106Y-59925876D01*
X53330254Y-59967111D01*
X53385339Y-60010092D01*
X53408443Y-60076031D01*
X53392230Y-60143994D01*
X53363273Y-60178256D01*
X53289117Y-60239115D01*
X53164090Y-60391460D01*
X53164086Y-60391467D01*
X53071188Y-60565266D01*
X53013975Y-60753870D01*
X52994659Y-60950000D01*
X53013975Y-61146129D01*
X53013976Y-61146132D01*
X53061513Y-61302841D01*
X53071188Y-61334733D01*
X53164086Y-61508532D01*
X53167473Y-61513601D01*
X53165836Y-61514694D01*
X53189596Y-61570663D01*
X53177795Y-61639529D01*
X53167109Y-61656156D01*
X53167473Y-61656399D01*
X53164086Y-61661467D01*
X53071188Y-61835266D01*
X53013975Y-62023870D01*
X52994659Y-62220000D01*
X53013975Y-62416129D01*
X53071188Y-62604733D01*
X53164086Y-62778532D01*
X53167473Y-62783601D01*
X53165836Y-62784694D01*
X53189596Y-62840663D01*
X53177795Y-62909529D01*
X53167109Y-62926156D01*
X53167473Y-62926399D01*
X53164086Y-62931467D01*
X53071188Y-63105266D01*
X53013975Y-63293870D01*
X52994659Y-63490000D01*
X53013975Y-63686129D01*
X53021704Y-63711607D01*
X53059082Y-63834827D01*
X53071188Y-63874733D01*
X53164086Y-64048532D01*
X53167473Y-64053601D01*
X53165836Y-64054694D01*
X53189596Y-64110663D01*
X53177795Y-64179529D01*
X53167109Y-64196156D01*
X53167473Y-64196399D01*
X53164086Y-64201467D01*
X53071188Y-64375266D01*
X53013975Y-64563870D01*
X52994659Y-64760000D01*
X53013975Y-64956129D01*
X53013976Y-64956132D01*
X53063665Y-65119935D01*
X53071188Y-65144733D01*
X53164086Y-65318532D01*
X53167473Y-65323601D01*
X53165836Y-65324694D01*
X53189596Y-65380663D01*
X53177795Y-65449529D01*
X53167109Y-65466156D01*
X53167473Y-65466399D01*
X53164086Y-65471467D01*
X53071188Y-65645266D01*
X53013975Y-65833870D01*
X52994659Y-66030000D01*
X53013975Y-66226129D01*
X53071188Y-66414733D01*
X53164086Y-66588532D01*
X53167473Y-66593601D01*
X53165836Y-66594694D01*
X53189596Y-66650663D01*
X53177795Y-66719529D01*
X53167109Y-66736156D01*
X53167473Y-66736399D01*
X53164086Y-66741467D01*
X53071188Y-66915266D01*
X53013975Y-67103870D01*
X52994659Y-67300000D01*
X53013975Y-67496129D01*
X53071188Y-67684733D01*
X53164086Y-67858532D01*
X53167473Y-67863601D01*
X53165836Y-67864694D01*
X53189596Y-67920663D01*
X53177795Y-67989529D01*
X53167109Y-68006156D01*
X53167473Y-68006399D01*
X53164086Y-68011467D01*
X53071188Y-68185266D01*
X53013975Y-68373870D01*
X52994659Y-68570000D01*
X53013975Y-68766129D01*
X53013976Y-68766132D01*
X53069003Y-68947532D01*
X53071188Y-68954733D01*
X53164086Y-69128532D01*
X53167473Y-69133601D01*
X53165836Y-69134694D01*
X53189596Y-69190663D01*
X53177795Y-69259529D01*
X53167109Y-69276156D01*
X53167473Y-69276399D01*
X53164086Y-69281467D01*
X53071188Y-69455266D01*
X53013975Y-69643870D01*
X52994659Y-69840000D01*
X53013975Y-70036129D01*
X53071188Y-70224733D01*
X53164086Y-70398532D01*
X53167473Y-70403601D01*
X53165836Y-70404694D01*
X53189596Y-70460663D01*
X53177795Y-70529529D01*
X53167109Y-70546156D01*
X53167473Y-70546399D01*
X53164086Y-70551467D01*
X53071188Y-70725266D01*
X53013975Y-70913870D01*
X52994659Y-71110000D01*
X53013975Y-71306129D01*
X53071188Y-71494733D01*
X53164086Y-71668532D01*
X53167473Y-71673601D01*
X53165836Y-71674694D01*
X53189596Y-71730663D01*
X53177795Y-71799529D01*
X53167109Y-71816156D01*
X53167473Y-71816399D01*
X53164086Y-71821467D01*
X53071188Y-71995266D01*
X53013975Y-72183870D01*
X52994659Y-72380000D01*
X53013975Y-72576129D01*
X53013976Y-72576132D01*
X53060316Y-72728895D01*
X53071188Y-72764733D01*
X53164086Y-72938532D01*
X53167473Y-72943601D01*
X53165836Y-72944694D01*
X53189596Y-73000663D01*
X53177795Y-73069529D01*
X53167109Y-73086156D01*
X53167473Y-73086399D01*
X53164086Y-73091467D01*
X53071188Y-73265266D01*
X53013975Y-73453870D01*
X52994659Y-73650000D01*
X53013975Y-73846129D01*
X53071188Y-74034733D01*
X53164086Y-74208532D01*
X53167473Y-74213601D01*
X53165836Y-74214694D01*
X53189596Y-74270663D01*
X53177795Y-74339529D01*
X53167109Y-74356156D01*
X53167473Y-74356399D01*
X53164086Y-74361467D01*
X53071188Y-74535266D01*
X53013975Y-74723870D01*
X52994659Y-74920000D01*
X53013975Y-75116129D01*
X53071188Y-75304733D01*
X53164086Y-75478532D01*
X53167473Y-75483601D01*
X53165836Y-75484694D01*
X53189596Y-75540663D01*
X53177795Y-75609529D01*
X53167109Y-75626156D01*
X53167473Y-75626399D01*
X53164086Y-75631467D01*
X53071188Y-75805266D01*
X53013975Y-75993870D01*
X52994659Y-76190000D01*
X53013975Y-76386129D01*
X53071188Y-76574733D01*
X53164086Y-76748532D01*
X53167473Y-76753601D01*
X53165836Y-76754694D01*
X53189596Y-76810663D01*
X53177795Y-76879529D01*
X53167109Y-76896156D01*
X53167473Y-76896399D01*
X53164086Y-76901467D01*
X53071188Y-77075266D01*
X53013975Y-77263870D01*
X52994659Y-77460000D01*
X53013975Y-77656129D01*
X53013976Y-77656132D01*
X53062194Y-77815086D01*
X53071188Y-77844733D01*
X53164086Y-78018532D01*
X53167473Y-78023601D01*
X53165836Y-78024694D01*
X53189596Y-78080663D01*
X53177795Y-78149529D01*
X53167109Y-78166156D01*
X53167473Y-78166399D01*
X53164086Y-78171467D01*
X53071188Y-78345266D01*
X53013975Y-78533870D01*
X52994659Y-78730000D01*
X53013975Y-78926129D01*
X53013976Y-78926132D01*
X53071186Y-79114727D01*
X53071187Y-79114730D01*
X53071188Y-79114731D01*
X53072583Y-79117341D01*
X53072901Y-79118870D01*
X53073518Y-79120359D01*
X53073235Y-79120475D01*
X53086824Y-79185743D01*
X53062492Y-79250102D01*
X53056648Y-79257907D01*
X53056645Y-79257913D01*
X53006403Y-79392620D01*
X53006401Y-79392627D01*
X53000000Y-79452155D01*
X53000000Y-79750000D01*
X53754419Y-79750000D01*
X53702940Y-79805921D01*
X53656018Y-79912892D01*
X53646372Y-80029302D01*
X53675047Y-80142538D01*
X53738936Y-80240327D01*
X53751364Y-80250000D01*
X53000000Y-80250000D01*
X53000000Y-80547844D01*
X53006401Y-80607372D01*
X53006403Y-80607379D01*
X53056645Y-80742086D01*
X53056649Y-80742093D01*
X53142809Y-80857187D01*
X53191188Y-80893404D01*
X53233058Y-80949338D01*
X53238042Y-81019029D01*
X53204556Y-81080352D01*
X53176614Y-81101332D01*
X52961470Y-81219608D01*
X52736565Y-81383010D01*
X52736564Y-81383011D01*
X53666693Y-82313140D01*
X53652590Y-82320411D01*
X53487460Y-82450271D01*
X53349890Y-82609035D01*
X53315334Y-82668887D01*
X52385311Y-81738864D01*
X52304522Y-81836523D01*
X52229197Y-81955217D01*
X52176655Y-82001272D01*
X52107554Y-82011611D01*
X52043834Y-81982949D01*
X52005724Y-81924388D01*
X52000500Y-81888774D01*
X52000500Y-59111226D01*
X52020185Y-59044187D01*
X52072989Y-58998432D01*
X52142147Y-58988488D01*
X52205703Y-59017513D01*
X52229197Y-59044784D01*
X52304516Y-59163469D01*
X52385311Y-59261133D01*
X53314210Y-58332234D01*
X53414894Y-58473624D01*
G37*
%TD.AperFunction*%
%TA.AperFunction,Conductor*%
G36*
X70204148Y-77514708D02*
G01*
X70226413Y-77540398D01*
X70226493Y-77540336D01*
X70227890Y-77542103D01*
X70230238Y-77544812D01*
X70230968Y-77545995D01*
X70230974Y-77546003D01*
X70353996Y-77669025D01*
X70354000Y-77669028D01*
X70502066Y-77760357D01*
X70502069Y-77760358D01*
X70502075Y-77760362D01*
X70667225Y-77815087D01*
X70769152Y-77825500D01*
X70769157Y-77825500D01*
X71355843Y-77825500D01*
X71355848Y-77825500D01*
X71457775Y-77815087D01*
X71622925Y-77760362D01*
X71771003Y-77669026D01*
X71849819Y-77590210D01*
X71911142Y-77556725D01*
X71980834Y-77561709D01*
X72025181Y-77590210D01*
X72103996Y-77669025D01*
X72104000Y-77669028D01*
X72252066Y-77760357D01*
X72252069Y-77760358D01*
X72252075Y-77760362D01*
X72417225Y-77815087D01*
X72519152Y-77825500D01*
X72519157Y-77825500D01*
X73105843Y-77825500D01*
X73105848Y-77825500D01*
X73207775Y-77815087D01*
X73372925Y-77760362D01*
X73521003Y-77669026D01*
X73644026Y-77546003D01*
X73644458Y-77545301D01*
X73644881Y-77544921D01*
X73648507Y-77540336D01*
X73649290Y-77540955D01*
X73696402Y-77498575D01*
X73765364Y-77487349D01*
X73829448Y-77515188D01*
X73851342Y-77540455D01*
X73851493Y-77540336D01*
X73854143Y-77543687D01*
X73855540Y-77545299D01*
X73855969Y-77545995D01*
X73855975Y-77546004D01*
X73978996Y-77669025D01*
X73979000Y-77669028D01*
X74127066Y-77760357D01*
X74127069Y-77760358D01*
X74127075Y-77760362D01*
X74292225Y-77815087D01*
X74394152Y-77825500D01*
X74438159Y-77825500D01*
X74505198Y-77845185D01*
X74550953Y-77897989D01*
X74560897Y-77967147D01*
X74531872Y-78030703D01*
X74525840Y-78037181D01*
X74374840Y-78188181D01*
X74313517Y-78221666D01*
X74287159Y-78224500D01*
X70175097Y-78224500D01*
X70108058Y-78204815D01*
X70087416Y-78188181D01*
X69803821Y-77904586D01*
X69770336Y-77843263D01*
X69775320Y-77773571D01*
X69817192Y-77717638D01*
X69826405Y-77711366D01*
X69895691Y-77668629D01*
X70018628Y-77545692D01*
X70019159Y-77544832D01*
X70019680Y-77544363D01*
X70023112Y-77540023D01*
X70023853Y-77540608D01*
X70071101Y-77498102D01*
X70140063Y-77486872D01*
X70204148Y-77514708D01*
G37*
%TD.AperFunction*%
%TA.AperFunction,Conductor*%
G36*
X67430703Y-66479051D02*
G01*
X67464061Y-66525312D01*
X67475462Y-66552838D01*
X67475463Y-66552840D01*
X67475464Y-66552841D01*
X67571718Y-66678282D01*
X67571719Y-66678283D01*
X67596769Y-66697504D01*
X67608964Y-66708199D01*
X67916799Y-67016034D01*
X67927493Y-67028228D01*
X67946717Y-67053281D01*
X67946718Y-67053282D01*
X67998717Y-67093182D01*
X68072159Y-67149536D01*
X68072161Y-67149536D01*
X68072163Y-67149538D01*
X68145198Y-67179790D01*
X68218238Y-67210044D01*
X68296619Y-67220363D01*
X68374999Y-67230682D01*
X68375000Y-67230682D01*
X68406302Y-67226560D01*
X68422487Y-67225500D01*
X68992513Y-67225500D01*
X69008697Y-67226560D01*
X69040000Y-67230682D01*
X69040001Y-67230682D01*
X69092254Y-67223802D01*
X69196762Y-67210044D01*
X69342841Y-67149536D01*
X69416283Y-67093182D01*
X69468282Y-67053282D01*
X69487509Y-67028223D01*
X69498190Y-67016043D01*
X69622008Y-66892225D01*
X69683329Y-66858742D01*
X69753021Y-66863726D01*
X69808061Y-66904419D01*
X69841718Y-66948282D01*
X69841719Y-66948283D01*
X69866769Y-66967504D01*
X69878964Y-66978199D01*
X70613181Y-67712416D01*
X70646666Y-67773739D01*
X70649500Y-67800097D01*
X70649500Y-68119699D01*
X70629815Y-68186738D01*
X70577011Y-68232493D01*
X70564507Y-68237403D01*
X70534995Y-68247183D01*
X70480668Y-68265185D01*
X70480663Y-68265187D01*
X70331342Y-68357289D01*
X70207289Y-68481342D01*
X70115187Y-68630663D01*
X70115185Y-68630668D01*
X70113018Y-68637209D01*
X70060001Y-68797203D01*
X70060001Y-68797204D01*
X70060000Y-68797204D01*
X70049500Y-68899983D01*
X70049500Y-69525001D01*
X70049501Y-69525019D01*
X70060000Y-69627796D01*
X70060001Y-69627799D01*
X70115185Y-69794331D01*
X70115187Y-69794336D01*
X70207289Y-69943657D01*
X70300951Y-70037319D01*
X70334436Y-70098642D01*
X70329452Y-70168334D01*
X70300951Y-70212681D01*
X70207289Y-70306342D01*
X70115187Y-70455663D01*
X70115185Y-70455668D01*
X70103982Y-70489478D01*
X70060001Y-70622203D01*
X70060001Y-70622204D01*
X70060000Y-70622204D01*
X70049500Y-70724983D01*
X70049500Y-71350001D01*
X70049501Y-71350019D01*
X70060000Y-71452796D01*
X70060001Y-71452799D01*
X70105725Y-71590782D01*
X70115186Y-71619334D01*
X70207288Y-71768656D01*
X70331344Y-71892712D01*
X70480666Y-71984814D01*
X70564505Y-72012595D01*
X70621948Y-72052366D01*
X70648772Y-72116882D01*
X70649500Y-72130300D01*
X70649500Y-72577512D01*
X70648439Y-72593697D01*
X70644318Y-72624998D01*
X70644318Y-72625000D01*
X70649500Y-72664360D01*
X70649500Y-72664361D01*
X70664955Y-72781760D01*
X70664956Y-72781762D01*
X70694648Y-72853446D01*
X70725464Y-72927841D01*
X70803363Y-73029361D01*
X70821719Y-73053283D01*
X70846769Y-73072504D01*
X70858964Y-73083199D01*
X72175681Y-74399916D01*
X72209166Y-74461239D01*
X72212000Y-74487597D01*
X72212000Y-75445149D01*
X72192315Y-75512188D01*
X72153099Y-75550686D01*
X72103997Y-75580973D01*
X72025180Y-75659790D01*
X71963856Y-75693274D01*
X71894165Y-75688290D01*
X71849818Y-75659789D01*
X71771003Y-75580974D01*
X71770999Y-75580971D01*
X71622933Y-75489642D01*
X71622927Y-75489639D01*
X71622925Y-75489638D01*
X71604725Y-75483607D01*
X71457776Y-75434913D01*
X71355855Y-75424500D01*
X71355848Y-75424500D01*
X70769152Y-75424500D01*
X70769144Y-75424500D01*
X70667223Y-75434913D01*
X70502077Y-75489637D01*
X70502066Y-75489642D01*
X70354000Y-75580971D01*
X70353996Y-75580974D01*
X70230974Y-75703996D01*
X70230967Y-75704005D01*
X70230234Y-75705194D01*
X70229519Y-75705836D01*
X70226493Y-75709664D01*
X70225838Y-75709146D01*
X70178280Y-75751911D01*
X70109316Y-75763123D01*
X70045238Y-75735271D01*
X70023238Y-75709877D01*
X70023112Y-75709977D01*
X70020885Y-75707161D01*
X70019163Y-75705173D01*
X70018630Y-75704309D01*
X69895691Y-75581370D01*
X69747714Y-75490096D01*
X69747709Y-75490094D01*
X69582673Y-75435407D01*
X69480815Y-75425000D01*
X69437500Y-75425000D01*
X69437500Y-76751000D01*
X69417815Y-76818039D01*
X69365011Y-76863794D01*
X69313500Y-76875000D01*
X68200000Y-76875000D01*
X68200000Y-77130814D01*
X68201200Y-77142554D01*
X68188431Y-77211247D01*
X68140551Y-77262132D01*
X68077842Y-77279157D01*
X68076813Y-77279157D01*
X68009774Y-77259472D01*
X67989132Y-77242838D01*
X67121292Y-76375000D01*
X68200000Y-76375000D01*
X68937500Y-76375000D01*
X68937500Y-75425000D01*
X68894184Y-75425000D01*
X68792326Y-75435407D01*
X68627290Y-75490094D01*
X68627285Y-75490096D01*
X68479308Y-75581370D01*
X68356370Y-75704308D01*
X68265096Y-75852285D01*
X68265094Y-75852290D01*
X68210407Y-76017326D01*
X68200000Y-76119184D01*
X68200000Y-76375000D01*
X67121292Y-76375000D01*
X66230254Y-75483964D01*
X66219558Y-75471767D01*
X66200341Y-75446722D01*
X66200338Y-75446720D01*
X66200337Y-75446718D01*
X66074896Y-75350464D01*
X65928817Y-75289956D01*
X65928815Y-75289955D01*
X65811416Y-75274500D01*
X65772055Y-75269318D01*
X65740752Y-75273439D01*
X65724568Y-75274500D01*
X65070097Y-75274500D01*
X65003058Y-75254815D01*
X64982416Y-75238181D01*
X60831416Y-71087181D01*
X60797931Y-71025858D01*
X60802915Y-70956166D01*
X60844787Y-70900233D01*
X60910251Y-70875816D01*
X60919097Y-70875500D01*
X60957241Y-70875500D01*
X60966655Y-70875857D01*
X60975009Y-70876494D01*
X61025475Y-70880337D01*
X61025475Y-70880336D01*
X61025476Y-70880337D01*
X61055651Y-70876493D01*
X61071318Y-70875500D01*
X65909217Y-70875500D01*
X65976256Y-70895185D01*
X65996898Y-70911819D01*
X66588181Y-71503101D01*
X66621666Y-71564424D01*
X66624500Y-71590782D01*
X66624500Y-72050743D01*
X66639925Y-72202439D01*
X66700837Y-72396579D01*
X66700844Y-72396594D01*
X66799589Y-72574499D01*
X66799592Y-72574504D01*
X66932132Y-72728893D01*
X66932134Y-72728895D01*
X67093037Y-72853445D01*
X67093038Y-72853445D01*
X67093042Y-72853448D01*
X67275729Y-72943060D01*
X67472715Y-72994063D01*
X67675936Y-73004369D01*
X67877071Y-72973556D01*
X68067887Y-72902886D01*
X68240571Y-72795252D01*
X68388053Y-72655059D01*
X68504295Y-72488049D01*
X68584540Y-72301058D01*
X68625500Y-72101741D01*
X68625500Y-71139277D01*
X68625540Y-71136135D01*
X68627757Y-71048641D01*
X68627756Y-71048640D01*
X68627757Y-71048637D01*
X68617349Y-70990573D01*
X68616041Y-70981242D01*
X68610074Y-70922562D01*
X68606703Y-70911819D01*
X68600963Y-70893524D01*
X68597226Y-70878301D01*
X68591858Y-70848347D01*
X68569974Y-70793562D01*
X68566822Y-70784709D01*
X68549159Y-70728412D01*
X68549158Y-70728411D01*
X68549157Y-70728406D01*
X68534396Y-70701814D01*
X68527659Y-70687629D01*
X68516378Y-70659385D01*
X68516375Y-70659380D01*
X68483918Y-70610131D01*
X68479036Y-70602074D01*
X68450409Y-70550498D01*
X68430588Y-70527410D01*
X68421144Y-70514885D01*
X68404402Y-70489481D01*
X68362692Y-70447771D01*
X68356298Y-70440874D01*
X68317866Y-70396105D01*
X68293804Y-70377479D01*
X68282026Y-70367105D01*
X67951050Y-70036129D01*
X67555860Y-69640940D01*
X67522376Y-69579618D01*
X67527360Y-69509927D01*
X67569232Y-69453993D01*
X67629658Y-69430040D01*
X67657573Y-69426894D01*
X67804249Y-69410369D01*
X67804252Y-69410368D01*
X67804255Y-69410368D01*
X67974522Y-69350789D01*
X68127262Y-69254816D01*
X68254816Y-69127262D01*
X68350789Y-68974522D01*
X68410368Y-68804255D01*
X68410369Y-68804249D01*
X68430565Y-68625003D01*
X68430565Y-68624996D01*
X68410369Y-68445750D01*
X68410368Y-68445745D01*
X68408988Y-68441802D01*
X68350789Y-68275478D01*
X68344321Y-68265185D01*
X68294105Y-68185266D01*
X68254816Y-68122738D01*
X68127262Y-67995184D01*
X68056600Y-67950784D01*
X67974523Y-67899211D01*
X67804254Y-67839631D01*
X67804249Y-67839630D01*
X67625004Y-67819435D01*
X67624996Y-67819435D01*
X67445750Y-67839630D01*
X67445745Y-67839631D01*
X67275476Y-67899211D01*
X67122736Y-67995185D01*
X67119903Y-67997445D01*
X67117724Y-67998334D01*
X67116842Y-67998889D01*
X67116744Y-67998734D01*
X67055217Y-68023855D01*
X67042588Y-68024500D01*
X66822765Y-68024500D01*
X66755726Y-68004815D01*
X66709971Y-67952011D01*
X66700027Y-67882853D01*
X66729052Y-67819297D01*
X66775313Y-67785939D01*
X66802836Y-67774538D01*
X66802835Y-67774538D01*
X66802841Y-67774536D01*
X66855551Y-67734090D01*
X66928282Y-67678282D01*
X66947509Y-67653223D01*
X66958190Y-67641043D01*
X67016043Y-67583190D01*
X67028223Y-67572509D01*
X67053282Y-67553282D01*
X67149536Y-67427841D01*
X67210044Y-67281762D01*
X67225500Y-67164361D01*
X67230682Y-67125000D01*
X67226561Y-67093697D01*
X67225500Y-67077512D01*
X67225500Y-66572764D01*
X67245185Y-66505725D01*
X67297989Y-66459970D01*
X67367147Y-66450026D01*
X67430703Y-66479051D01*
G37*
%TD.AperFunction*%
%TA.AperFunction,Conductor*%
G36*
X67847612Y-58604135D02*
G01*
X67903545Y-58646007D01*
X67927962Y-58711471D01*
X67928238Y-58723457D01*
X67927243Y-58762732D01*
X67927243Y-58762741D01*
X67937648Y-58820790D01*
X67938956Y-58830118D01*
X67944925Y-58888800D01*
X67944927Y-58888814D01*
X67954033Y-58917838D01*
X67957772Y-58933071D01*
X67963142Y-58963023D01*
X67963142Y-58963025D01*
X67977286Y-58998432D01*
X67984907Y-59017513D01*
X67985020Y-59017794D01*
X67988177Y-59026662D01*
X68005841Y-59082958D01*
X68005842Y-59082959D01*
X68005844Y-59082965D01*
X68020603Y-59109555D01*
X68027336Y-59123731D01*
X68038622Y-59151984D01*
X68038627Y-59151994D01*
X68071080Y-59201236D01*
X68075962Y-59209293D01*
X68104588Y-59260868D01*
X68104589Y-59260870D01*
X68104591Y-59260872D01*
X68124410Y-59283958D01*
X68133855Y-59296485D01*
X68150599Y-59321891D01*
X68192299Y-59363590D01*
X68198704Y-59370501D01*
X68237131Y-59415262D01*
X68237134Y-59415265D01*
X68261187Y-59433883D01*
X68272968Y-59444259D01*
X69562107Y-60733398D01*
X69564300Y-60735647D01*
X69624596Y-60799078D01*
X69624599Y-60799081D01*
X69673006Y-60832774D01*
X69680527Y-60838445D01*
X69726245Y-60875722D01*
X69726248Y-60875723D01*
X69726251Y-60875726D01*
X69753223Y-60889814D01*
X69766638Y-60897943D01*
X69791609Y-60915323D01*
X69845821Y-60938587D01*
X69854321Y-60942623D01*
X69906609Y-60969937D01*
X69935857Y-60978305D01*
X69950633Y-60983566D01*
X69978600Y-60995568D01*
X69978603Y-60995568D01*
X69978604Y-60995569D01*
X70036371Y-61007440D01*
X70045524Y-61009686D01*
X70102240Y-61025915D01*
X70132572Y-61028224D01*
X70148121Y-61030405D01*
X70177913Y-61036528D01*
X70177917Y-61036528D01*
X70236900Y-61036528D01*
X70246314Y-61036885D01*
X70254668Y-61037522D01*
X70305134Y-61041365D01*
X70305134Y-61041364D01*
X70305135Y-61041365D01*
X70335310Y-61037521D01*
X70350977Y-61036528D01*
X71320245Y-61036528D01*
X71387284Y-61056213D01*
X71407926Y-61072847D01*
X72588181Y-62253102D01*
X72621666Y-62314425D01*
X72624500Y-62340783D01*
X72624500Y-62624918D01*
X72604815Y-62691957D01*
X72552011Y-62737712D01*
X72482853Y-62747656D01*
X72435845Y-62727858D01*
X72434881Y-62729528D01*
X72427843Y-62725465D01*
X72281762Y-62664956D01*
X72281760Y-62664955D01*
X72164361Y-62649500D01*
X72125000Y-62644318D01*
X72093697Y-62648439D01*
X72077513Y-62649500D01*
X69547487Y-62649500D01*
X69531302Y-62648439D01*
X69500000Y-62644318D01*
X69460639Y-62649500D01*
X69343239Y-62664955D01*
X69343237Y-62664956D01*
X69197157Y-62725464D01*
X69071718Y-62821716D01*
X69052489Y-62846775D01*
X69041798Y-62858965D01*
X68812582Y-63088181D01*
X68751259Y-63121666D01*
X68724901Y-63124500D01*
X68452130Y-63124500D01*
X68452123Y-63124501D01*
X68392516Y-63130908D01*
X68257671Y-63181202D01*
X68257664Y-63181206D01*
X68142455Y-63267452D01*
X68142452Y-63267455D01*
X68056206Y-63382664D01*
X68056202Y-63382671D01*
X68005908Y-63517517D01*
X67999501Y-63577116D01*
X67999500Y-63577135D01*
X67999500Y-64672870D01*
X67999501Y-64672876D01*
X68005908Y-64732483D01*
X68056202Y-64867328D01*
X68056204Y-64867331D01*
X68062231Y-64875382D01*
X68086648Y-64940846D01*
X68073105Y-65004470D01*
X68073518Y-65004641D01*
X68072595Y-65006869D01*
X68072324Y-65008143D01*
X68071185Y-65010272D01*
X68055647Y-65061496D01*
X68017349Y-65119935D01*
X67953537Y-65148391D01*
X67936987Y-65149500D01*
X66672487Y-65149500D01*
X66656302Y-65148439D01*
X66625000Y-65144318D01*
X66585639Y-65149500D01*
X66468239Y-65164955D01*
X66468237Y-65164956D01*
X66322160Y-65225463D01*
X66196718Y-65321718D01*
X66100463Y-65447160D01*
X66039956Y-65593237D01*
X66039955Y-65593239D01*
X66019318Y-65749998D01*
X66019318Y-65749999D01*
X66023439Y-65781301D01*
X66024500Y-65797487D01*
X66024500Y-66525500D01*
X66004815Y-66592539D01*
X65952011Y-66638294D01*
X65900500Y-66649500D01*
X64172487Y-66649500D01*
X64156302Y-66648439D01*
X64125000Y-66644318D01*
X64124999Y-66644318D01*
X63968239Y-66664955D01*
X63968237Y-66664956D01*
X63822160Y-66725463D01*
X63696714Y-66821721D01*
X63677495Y-66846769D01*
X63666800Y-66858964D01*
X62983965Y-67541798D01*
X62971775Y-67552489D01*
X62940278Y-67576660D01*
X62939933Y-67576210D01*
X62929564Y-67584476D01*
X62872742Y-67620181D01*
X62872735Y-67620186D01*
X62754741Y-67738181D01*
X62693418Y-67771666D01*
X62667060Y-67774500D01*
X61550097Y-67774500D01*
X61483058Y-67754815D01*
X61462416Y-67738181D01*
X60938811Y-67214576D01*
X60905326Y-67153253D01*
X60910310Y-67083561D01*
X60921492Y-67060934D01*
X60975789Y-66974522D01*
X61035368Y-66804255D01*
X61037582Y-66784607D01*
X61055565Y-66625003D01*
X61055565Y-66624996D01*
X61035369Y-66445750D01*
X61035366Y-66445737D01*
X61000996Y-66347513D01*
X60997434Y-66277734D01*
X61030354Y-66218879D01*
X61748086Y-65501147D01*
X61809407Y-65467664D01*
X61823167Y-65465472D01*
X61824889Y-65465296D01*
X61827797Y-65464999D01*
X61994334Y-65409814D01*
X62143656Y-65317712D01*
X62267712Y-65193656D01*
X62269752Y-65190347D01*
X62271745Y-65188555D01*
X62272193Y-65187989D01*
X62272289Y-65188065D01*
X62321694Y-65143623D01*
X62390656Y-65132395D01*
X62454740Y-65160234D01*
X62480829Y-65190339D01*
X62482681Y-65193341D01*
X62482683Y-65193344D01*
X62606654Y-65317315D01*
X62755875Y-65409356D01*
X62755880Y-65409358D01*
X62922302Y-65464505D01*
X62922309Y-65464506D01*
X63025019Y-65474999D01*
X63074999Y-65474998D01*
X63075000Y-65474998D01*
X63075000Y-64500000D01*
X63575000Y-64500000D01*
X63575000Y-65474999D01*
X63624972Y-65474999D01*
X63624986Y-65474998D01*
X63727697Y-65464505D01*
X63894119Y-65409358D01*
X63894124Y-65409356D01*
X64043345Y-65317315D01*
X64167315Y-65193345D01*
X64259356Y-65044124D01*
X64259358Y-65044119D01*
X64314505Y-64877697D01*
X64314506Y-64877690D01*
X64324999Y-64774986D01*
X64325000Y-64774973D01*
X64325000Y-64500000D01*
X63575000Y-64500000D01*
X63075000Y-64500000D01*
X63075000Y-63025000D01*
X63575000Y-63025000D01*
X63575000Y-64000000D01*
X64324999Y-64000000D01*
X64324999Y-63725028D01*
X64324998Y-63725013D01*
X64314505Y-63622302D01*
X64259358Y-63455880D01*
X64259356Y-63455875D01*
X64167315Y-63306654D01*
X64043345Y-63182684D01*
X63894124Y-63090643D01*
X63894119Y-63090641D01*
X63727697Y-63035494D01*
X63727690Y-63035493D01*
X63624986Y-63025000D01*
X63575000Y-63025000D01*
X63075000Y-63025000D01*
X63074999Y-63024999D01*
X63025029Y-63025000D01*
X63025011Y-63025001D01*
X62922302Y-63035494D01*
X62755880Y-63090641D01*
X62755875Y-63090643D01*
X62606654Y-63182684D01*
X62482683Y-63306655D01*
X62482679Y-63306660D01*
X62480826Y-63309665D01*
X62479018Y-63311290D01*
X62478202Y-63312323D01*
X62478025Y-63312183D01*
X62428874Y-63356385D01*
X62359911Y-63367601D01*
X62295831Y-63339752D01*
X62269753Y-63309653D01*
X62269737Y-63309628D01*
X62267712Y-63306344D01*
X62143656Y-63182288D01*
X61995072Y-63090641D01*
X61994336Y-63090187D01*
X61994331Y-63090185D01*
X61947935Y-63074811D01*
X61827797Y-63035001D01*
X61827795Y-63035000D01*
X61725010Y-63024500D01*
X61124998Y-63024500D01*
X61124980Y-63024501D01*
X61022203Y-63035000D01*
X61022200Y-63035001D01*
X60855668Y-63090185D01*
X60855659Y-63090190D01*
X60789596Y-63130937D01*
X60722203Y-63149377D01*
X60655540Y-63128454D01*
X60610771Y-63074811D01*
X60600500Y-63025398D01*
X60600500Y-62800097D01*
X60620185Y-62733058D01*
X60636819Y-62712416D01*
X61212416Y-62136819D01*
X61273739Y-62103334D01*
X61300097Y-62100500D01*
X65952513Y-62100500D01*
X65968697Y-62101560D01*
X66000000Y-62105682D01*
X66000001Y-62105682D01*
X66052254Y-62098802D01*
X66156762Y-62085044D01*
X66302841Y-62024536D01*
X66347226Y-61990478D01*
X66428282Y-61928282D01*
X66447509Y-61903223D01*
X66458190Y-61891043D01*
X66891043Y-61458190D01*
X66903223Y-61447509D01*
X66928282Y-61428282D01*
X67024536Y-61302841D01*
X67085044Y-61156762D01*
X67090845Y-61112696D01*
X67096185Y-61072130D01*
X67124450Y-61008235D01*
X67128975Y-61003315D01*
X67129812Y-61002265D01*
X67129816Y-61002262D01*
X67225789Y-60849522D01*
X67285368Y-60679255D01*
X67294580Y-60597496D01*
X67305565Y-60500003D01*
X67305565Y-60499996D01*
X67285369Y-60320750D01*
X67285368Y-60320745D01*
X67235242Y-60177493D01*
X67225789Y-60150478D01*
X67129816Y-59997738D01*
X67002262Y-59870184D01*
X66886663Y-59797548D01*
X66849521Y-59774210D01*
X66832447Y-59768236D01*
X66775671Y-59727514D01*
X66749923Y-59662562D01*
X66763379Y-59594000D01*
X66785717Y-59563516D01*
X67716599Y-58632634D01*
X67777920Y-58599151D01*
X67847612Y-58604135D01*
G37*
%TD.AperFunction*%
%TA.AperFunction,Conductor*%
G36*
X79039894Y-58473624D02*
G01*
X79191932Y-58618592D01*
X79294222Y-58684329D01*
X78361564Y-59616987D01*
X78361565Y-59616989D01*
X78586461Y-59780385D01*
X78586479Y-59780397D01*
X78851109Y-59925878D01*
X78851117Y-59925882D01*
X79131888Y-60037046D01*
X79210290Y-60057177D01*
X79270328Y-60092915D01*
X79301513Y-60155439D01*
X79293945Y-60224897D01*
X79275304Y-60255947D01*
X79222087Y-60320790D01*
X79164341Y-60360124D01*
X79145035Y-60364474D01*
X79143237Y-60364956D01*
X78997160Y-60425463D01*
X78871714Y-60521721D01*
X78852495Y-60546769D01*
X78841800Y-60558964D01*
X78803268Y-60597496D01*
X78741945Y-60630981D01*
X78672253Y-60625997D01*
X78616320Y-60584125D01*
X78592648Y-60526000D01*
X78592085Y-60521721D01*
X78585044Y-60468238D01*
X78524536Y-60322159D01*
X78498401Y-60288099D01*
X78428282Y-60196718D01*
X78428280Y-60196716D01*
X78428279Y-60196715D01*
X78403228Y-60177493D01*
X78391034Y-60166799D01*
X76936415Y-58712180D01*
X76902930Y-58650857D01*
X76907914Y-58581165D01*
X76949786Y-58525232D01*
X77015250Y-58500815D01*
X77024096Y-58500499D01*
X77097871Y-58500499D01*
X77097872Y-58500499D01*
X77157483Y-58494091D01*
X77292331Y-58443796D01*
X77382538Y-58376266D01*
X77448001Y-58351849D01*
X77516275Y-58366700D01*
X77565680Y-58416105D01*
X77574780Y-58437215D01*
X77639125Y-58635247D01*
X77639127Y-58635252D01*
X77767704Y-58908491D01*
X77767707Y-58908497D01*
X77929516Y-59163469D01*
X78010311Y-59261133D01*
X78939210Y-58332234D01*
X79039894Y-58473624D01*
G37*
%TD.AperFunction*%
%TA.AperFunction,Conductor*%
G36*
X78573454Y-55520185D02*
G01*
X78619209Y-55572989D01*
X78629153Y-55642147D01*
X78600128Y-55705703D01*
X78579300Y-55724818D01*
X78361565Y-55883010D01*
X78361564Y-55883011D01*
X79291693Y-56813140D01*
X79277590Y-56820411D01*
X79112460Y-56950271D01*
X78974890Y-57109035D01*
X78940334Y-57168887D01*
X78010311Y-56238864D01*
X77929520Y-56336525D01*
X77929518Y-56336528D01*
X77767707Y-56591502D01*
X77767703Y-56591508D01*
X77701808Y-56731543D01*
X77655453Y-56783821D01*
X77588193Y-56802738D01*
X77521383Y-56782288D01*
X77490343Y-56753057D01*
X77407546Y-56642454D01*
X77384709Y-56625358D01*
X77292335Y-56556206D01*
X77292328Y-56556202D01*
X77157482Y-56505908D01*
X77157483Y-56505908D01*
X77097883Y-56499501D01*
X77097881Y-56499500D01*
X77097873Y-56499500D01*
X77097864Y-56499500D01*
X76002129Y-56499500D01*
X76002123Y-56499501D01*
X75942516Y-56505908D01*
X75807671Y-56556202D01*
X75807666Y-56556205D01*
X75799614Y-56562233D01*
X75734149Y-56586648D01*
X75670530Y-56573104D01*
X75670359Y-56573518D01*
X75668123Y-56572592D01*
X75666850Y-56572321D01*
X75664729Y-56571187D01*
X75664728Y-56571186D01*
X75664727Y-56571186D01*
X75476132Y-56513976D01*
X75476129Y-56513975D01*
X75280000Y-56494659D01*
X75083870Y-56513975D01*
X74895266Y-56571188D01*
X74721467Y-56664086D01*
X74716399Y-56667473D01*
X74715305Y-56665836D01*
X74659337Y-56689596D01*
X74590471Y-56677795D01*
X74573843Y-56667109D01*
X74573601Y-56667473D01*
X74568532Y-56664086D01*
X74394733Y-56571188D01*
X74394727Y-56571186D01*
X74206132Y-56513976D01*
X74206129Y-56513975D01*
X74010000Y-56494659D01*
X73813870Y-56513975D01*
X73625266Y-56571188D01*
X73451467Y-56664086D01*
X73446399Y-56667473D01*
X73445305Y-56665836D01*
X73389337Y-56689596D01*
X73320471Y-56677795D01*
X73303843Y-56667109D01*
X73303601Y-56667473D01*
X73298532Y-56664086D01*
X73124733Y-56571188D01*
X73124727Y-56571186D01*
X72936132Y-56513976D01*
X72936129Y-56513975D01*
X72740000Y-56494659D01*
X72543870Y-56513975D01*
X72355266Y-56571188D01*
X72181467Y-56664086D01*
X72176399Y-56667473D01*
X72175305Y-56665836D01*
X72119337Y-56689596D01*
X72050471Y-56677795D01*
X72033843Y-56667109D01*
X72033601Y-56667473D01*
X72028532Y-56664086D01*
X71854733Y-56571188D01*
X71854727Y-56571186D01*
X71666132Y-56513976D01*
X71666129Y-56513975D01*
X71470000Y-56494659D01*
X71273870Y-56513975D01*
X71085266Y-56571188D01*
X70911467Y-56664086D01*
X70906399Y-56667473D01*
X70905305Y-56665836D01*
X70849337Y-56689596D01*
X70780471Y-56677795D01*
X70763843Y-56667109D01*
X70763601Y-56667473D01*
X70758532Y-56664086D01*
X70584733Y-56571188D01*
X70584727Y-56571186D01*
X70396132Y-56513976D01*
X70396129Y-56513975D01*
X70200000Y-56494659D01*
X70003870Y-56513975D01*
X69815266Y-56571188D01*
X69641467Y-56664086D01*
X69636399Y-56667473D01*
X69635307Y-56665839D01*
X69579311Y-56689599D01*
X69510448Y-56677784D01*
X69493844Y-56667109D01*
X69493601Y-56667473D01*
X69488540Y-56664091D01*
X69488538Y-56664090D01*
X69485064Y-56662233D01*
X69467607Y-56650925D01*
X69461959Y-56646553D01*
X69461958Y-56646552D01*
X69388189Y-56610367D01*
X69384345Y-56608398D01*
X69352735Y-56591502D01*
X69314727Y-56571186D01*
X69314724Y-56571185D01*
X69314722Y-56571184D01*
X69307521Y-56569000D01*
X69288909Y-56561667D01*
X69284427Y-56559469D01*
X69279270Y-56556939D01*
X69203188Y-56537240D01*
X69198285Y-56535862D01*
X69126132Y-56513976D01*
X69126122Y-56513975D01*
X69115054Y-56512884D01*
X69096149Y-56509526D01*
X69082285Y-56505937D01*
X69007344Y-56502135D01*
X69001476Y-56501697D01*
X68930003Y-56494659D01*
X68929996Y-56494659D01*
X68915369Y-56496099D01*
X68896945Y-56496537D01*
X68879068Y-56495631D01*
X68879057Y-56495631D01*
X68808433Y-56506450D01*
X68801814Y-56507283D01*
X68733872Y-56513975D01*
X68733866Y-56513976D01*
X68716367Y-56519284D01*
X68699163Y-56523190D01*
X68677932Y-56526443D01*
X68677921Y-56526446D01*
X68614259Y-56550024D01*
X68607190Y-56552403D01*
X68545277Y-56571184D01*
X68545272Y-56571186D01*
X68525998Y-56581488D01*
X68510618Y-56588408D01*
X68487113Y-56597114D01*
X68487109Y-56597115D01*
X68432500Y-56631153D01*
X68425365Y-56635277D01*
X68371468Y-56664086D01*
X68366397Y-56667475D01*
X68365304Y-56665840D01*
X68309318Y-56689599D01*
X68240454Y-56677786D01*
X68223843Y-56667109D01*
X68223601Y-56667473D01*
X68218532Y-56664086D01*
X68044733Y-56571188D01*
X68044727Y-56571186D01*
X67856132Y-56513976D01*
X67856129Y-56513975D01*
X67660000Y-56494659D01*
X67463870Y-56513975D01*
X67275266Y-56571188D01*
X67101467Y-56664086D01*
X67096399Y-56667473D01*
X67095305Y-56665836D01*
X67039337Y-56689596D01*
X66970471Y-56677795D01*
X66953843Y-56667109D01*
X66953601Y-56667473D01*
X66948532Y-56664086D01*
X66774733Y-56571188D01*
X66774727Y-56571186D01*
X66586132Y-56513976D01*
X66586129Y-56513975D01*
X66390000Y-56494659D01*
X66193870Y-56513975D01*
X66005266Y-56571188D01*
X65831467Y-56664086D01*
X65826399Y-56667473D01*
X65825305Y-56665836D01*
X65769337Y-56689596D01*
X65700471Y-56677795D01*
X65683843Y-56667109D01*
X65683601Y-56667473D01*
X65678532Y-56664086D01*
X65504733Y-56571188D01*
X65504727Y-56571186D01*
X65316132Y-56513976D01*
X65316129Y-56513975D01*
X65120000Y-56494659D01*
X64923870Y-56513975D01*
X64735266Y-56571188D01*
X64561467Y-56664086D01*
X64556399Y-56667473D01*
X64555305Y-56665836D01*
X64499337Y-56689596D01*
X64430471Y-56677795D01*
X64413843Y-56667109D01*
X64413601Y-56667473D01*
X64408532Y-56664086D01*
X64234733Y-56571188D01*
X64234727Y-56571186D01*
X64046132Y-56513976D01*
X64046129Y-56513975D01*
X63850000Y-56494659D01*
X63653870Y-56513975D01*
X63465266Y-56571188D01*
X63291467Y-56664086D01*
X63286399Y-56667473D01*
X63285305Y-56665836D01*
X63229337Y-56689596D01*
X63160471Y-56677795D01*
X63143843Y-56667109D01*
X63143601Y-56667473D01*
X63138532Y-56664086D01*
X62964733Y-56571188D01*
X62964727Y-56571186D01*
X62776132Y-56513976D01*
X62776129Y-56513975D01*
X62580000Y-56494659D01*
X62383870Y-56513975D01*
X62195266Y-56571188D01*
X62021467Y-56664086D01*
X62016399Y-56667473D01*
X62015305Y-56665836D01*
X61959337Y-56689596D01*
X61890471Y-56677795D01*
X61873843Y-56667109D01*
X61873601Y-56667473D01*
X61868532Y-56664086D01*
X61694733Y-56571188D01*
X61694727Y-56571186D01*
X61506132Y-56513976D01*
X61506129Y-56513975D01*
X61310000Y-56494659D01*
X61113870Y-56513975D01*
X60925266Y-56571188D01*
X60751467Y-56664086D01*
X60746399Y-56667473D01*
X60745305Y-56665836D01*
X60689337Y-56689596D01*
X60620471Y-56677795D01*
X60603843Y-56667109D01*
X60603601Y-56667473D01*
X60598532Y-56664086D01*
X60424733Y-56571188D01*
X60424727Y-56571186D01*
X60236132Y-56513976D01*
X60236129Y-56513975D01*
X60040000Y-56494659D01*
X59843870Y-56513975D01*
X59655266Y-56571188D01*
X59481467Y-56664086D01*
X59476399Y-56667473D01*
X59475305Y-56665836D01*
X59419337Y-56689596D01*
X59350471Y-56677795D01*
X59333843Y-56667109D01*
X59333601Y-56667473D01*
X59328532Y-56664086D01*
X59154733Y-56571188D01*
X59154727Y-56571186D01*
X58966132Y-56513976D01*
X58966129Y-56513975D01*
X58770000Y-56494659D01*
X58573870Y-56513975D01*
X58385266Y-56571188D01*
X58211467Y-56664086D01*
X58206399Y-56667473D01*
X58205386Y-56665958D01*
X58148936Y-56689920D01*
X58080071Y-56678115D01*
X58063574Y-56667511D01*
X58063322Y-56667890D01*
X58058253Y-56664503D01*
X57884541Y-56571652D01*
X57750000Y-56530839D01*
X57750000Y-57251061D01*
X57668885Y-57187928D01*
X57558405Y-57150000D01*
X57470995Y-57150000D01*
X57384784Y-57164386D01*
X57282053Y-57219981D01*
X57250000Y-57254799D01*
X57250000Y-56530839D01*
X57249999Y-56530839D01*
X57115458Y-56571652D01*
X56941746Y-56664503D01*
X56941739Y-56664507D01*
X56789470Y-56789472D01*
X56698181Y-56900707D01*
X56640435Y-56940041D01*
X56570591Y-56941910D01*
X56510823Y-56905723D01*
X56487034Y-56867681D01*
X56485872Y-56864748D01*
X56357295Y-56591508D01*
X56357292Y-56591502D01*
X56195483Y-56336530D01*
X56114686Y-56238864D01*
X55185788Y-57167763D01*
X55085106Y-57026376D01*
X54933068Y-56881408D01*
X54830776Y-56815669D01*
X55763434Y-55883011D01*
X55763433Y-55883009D01*
X55545701Y-55724818D01*
X55503035Y-55669488D01*
X55497056Y-55599875D01*
X55529662Y-55538080D01*
X55590500Y-55503723D01*
X55618586Y-55500500D01*
X65964201Y-55500500D01*
X78506415Y-55500500D01*
X78573454Y-55520185D01*
G37*
%TD.AperFunction*%
%TA.AperFunction,Conductor*%
G36*
X52948454Y-55520185D02*
G01*
X52994209Y-55572989D01*
X53004153Y-55642147D01*
X52975128Y-55705703D01*
X52954300Y-55724818D01*
X52736565Y-55883010D01*
X52736564Y-55883011D01*
X53666693Y-56813140D01*
X53652590Y-56820411D01*
X53487460Y-56950271D01*
X53349890Y-57109035D01*
X53315334Y-57168887D01*
X52385311Y-56238864D01*
X52304522Y-56336523D01*
X52229197Y-56455217D01*
X52176655Y-56501272D01*
X52107554Y-56511611D01*
X52043834Y-56482949D01*
X52005724Y-56424388D01*
X52000500Y-56388774D01*
X52000500Y-55624500D01*
X52020185Y-55557461D01*
X52072989Y-55511706D01*
X52124500Y-55500500D01*
X52881415Y-55500500D01*
X52948454Y-55520185D01*
G37*
%TD.AperFunction*%
%TA.AperFunction,Conductor*%
G36*
X81942539Y-55520185D02*
G01*
X81988294Y-55572989D01*
X81999500Y-55624500D01*
X81999500Y-56208500D01*
X81979815Y-56275539D01*
X81927011Y-56321294D01*
X81857853Y-56331238D01*
X81794297Y-56302213D01*
X81779957Y-56287541D01*
X81739687Y-56238864D01*
X80810788Y-57167763D01*
X80710106Y-57026376D01*
X80558068Y-56881408D01*
X80455776Y-56815669D01*
X81388434Y-55883011D01*
X81388433Y-55883009D01*
X81170701Y-55724818D01*
X81128035Y-55669488D01*
X81122056Y-55599875D01*
X81154662Y-55538080D01*
X81215500Y-55503723D01*
X81243586Y-55500500D01*
X81875500Y-55500500D01*
X81942539Y-55520185D01*
G37*
%TD.AperFunction*%
%TD*%
M02*
