%TF.GenerationSoftware,KiCad,Pcbnew,7.0.11-7.0.11~ubuntu20.04.1*%
%TF.CreationDate,2024-05-21T12:38:46+01:00*%
%TF.ProjectId,crosspoint-switches,63726f73-7370-46f6-996e-742d73776974,rev?*%
%TF.SameCoordinates,Original*%
%TF.FileFunction,Legend,Top*%
%TF.FilePolarity,Positive*%
%FSLAX46Y46*%
G04 Gerber Fmt 4.6, Leading zero omitted, Abs format (unit mm)*
G04 Created by KiCad (PCBNEW 7.0.11-7.0.11~ubuntu20.04.1) date 2024-05-21 12:38:46*
%MOMM*%
%LPD*%
G01*
G04 APERTURE LIST*
%ADD10C,0.100000*%
%ADD11C,0.400000*%
%ADD12C,0.120000*%
%ADD13C,0.127000*%
%ADD14C,0.200000*%
G04 APERTURE END LIST*
D10*
X58800000Y-79200000D02*
X74600000Y-79200000D01*
X73800000Y-78400000D02*
X73800000Y-79900000D01*
X73800000Y-79900000D02*
X74600000Y-79200000D01*
X74600000Y-79200000D02*
X73800000Y-78400000D01*
D11*
X74748871Y-78234438D02*
X76082204Y-80234438D01*
X76082204Y-78234438D02*
X74748871Y-80234438D01*
D12*
%TO.C,J4*%
X75915000Y-82170000D02*
X56805000Y-82170000D01*
X75915000Y-82170000D02*
X75915000Y-82740000D01*
X56805000Y-82170000D02*
X56805000Y-83192470D01*
X77310000Y-83500000D02*
X77310000Y-84830000D01*
X56805000Y-83807530D02*
X56805000Y-84830000D01*
X75915000Y-84260000D02*
X75915000Y-84830000D01*
X77310000Y-84830000D02*
X76550000Y-84830000D01*
X75915000Y-84830000D02*
X56805000Y-84830000D01*
D13*
%TO.C,U1*%
X60690000Y-69625000D02*
X60690000Y-69925000D01*
X60690000Y-69625000D02*
X60990000Y-69625000D01*
X60690000Y-74625000D02*
X60690000Y-74325000D01*
X60690000Y-74625000D02*
X60990000Y-74625000D01*
X65690000Y-69625000D02*
X65390000Y-69625000D01*
X65690000Y-69625000D02*
X65690000Y-69925000D01*
X65690000Y-74625000D02*
X65390000Y-74625000D01*
X65690000Y-74625000D02*
X65690000Y-74325000D01*
D14*
X59815000Y-70375000D02*
G75*
G03*
X59615000Y-70375000I-100000J0D01*
G01*
X59615000Y-70375000D02*
G75*
G03*
X59815000Y-70375000I100000J0D01*
G01*
D12*
%TO.C,C2*%
X68488748Y-69640000D02*
X69011252Y-69640000D01*
X68488748Y-71110000D02*
X69011252Y-71110000D01*
%TO.C,J3*%
X81330000Y-79365000D02*
X81330000Y-60255000D01*
X81330000Y-79365000D02*
X80760000Y-79365000D01*
X81330000Y-60255000D02*
X80307530Y-60255000D01*
X80000000Y-80760000D02*
X78670000Y-80760000D01*
X79692470Y-60255000D02*
X78670000Y-60255000D01*
X79240000Y-79365000D02*
X78670000Y-79365000D01*
X78670000Y-80760000D02*
X78670000Y-80000000D01*
X78670000Y-79365000D02*
X78670000Y-60255000D01*
%TO.C,C1*%
X70765000Y-71261252D02*
X70765000Y-70738748D01*
X72235000Y-71261252D02*
X72235000Y-70738748D01*
%TO.C,D1*%
X71810000Y-77585000D02*
X71810000Y-75665000D01*
X71810000Y-75665000D02*
X69125000Y-75665000D01*
X69125000Y-77585000D02*
X71810000Y-77585000D01*
%TO.C,U2*%
X63630000Y-65635000D02*
X62220000Y-65635000D01*
X63620000Y-63315000D02*
X62220000Y-63315000D01*
X64240000Y-65915000D02*
X63760000Y-65915000D01*
X64000000Y-65585000D01*
X64240000Y-65915000D01*
G36*
X64240000Y-65915000D02*
G01*
X63760000Y-65915000D01*
X64000000Y-65585000D01*
X64240000Y-65915000D01*
G37*
%TO.C,J5*%
X75915000Y-56170000D02*
X56805000Y-56170000D01*
X75915000Y-56170000D02*
X75915000Y-56740000D01*
X56805000Y-56170000D02*
X56805000Y-57192470D01*
X77310000Y-57500000D02*
X77310000Y-58830000D01*
X56805000Y-57807530D02*
X56805000Y-58830000D01*
X75915000Y-58260000D02*
X75915000Y-58830000D01*
X77310000Y-58830000D02*
X76550000Y-58830000D01*
X75915000Y-58830000D02*
X56805000Y-58830000D01*
%TO.C,J6*%
X68305000Y-66345000D02*
X72235000Y-66345000D01*
X68305000Y-66345000D02*
X68305000Y-65702530D01*
X72235000Y-66345000D02*
X72235000Y-65702530D01*
X68305000Y-65087470D02*
X68305000Y-64885000D01*
X72235000Y-65087470D02*
X72235000Y-64432530D01*
X68240000Y-64125000D02*
X68240000Y-63175000D01*
X72235000Y-63817470D02*
X72235000Y-63175000D01*
X69635000Y-63365000D02*
X69635000Y-63175000D01*
X68240000Y-63175000D02*
X69000000Y-63175000D01*
X69635000Y-63175000D02*
X72235000Y-63175000D01*
%TO.C,R1*%
X68515000Y-73352064D02*
X68515000Y-72897936D01*
X69985000Y-73352064D02*
X69985000Y-72897936D01*
%TO.C,D4*%
X72065000Y-75665000D02*
X72065000Y-77585000D01*
X72065000Y-77585000D02*
X74750000Y-77585000D01*
X74750000Y-75665000D02*
X72065000Y-75665000D01*
%TO.C,J2*%
X55330000Y-79365000D02*
X55330000Y-60255000D01*
X55330000Y-79365000D02*
X54760000Y-79365000D01*
X55330000Y-60255000D02*
X54307530Y-60255000D01*
X54000000Y-80760000D02*
X52670000Y-80760000D01*
X53692470Y-60255000D02*
X52670000Y-60255000D01*
X53240000Y-79365000D02*
X52670000Y-79365000D01*
X52670000Y-80760000D02*
X52670000Y-80000000D01*
X52670000Y-79365000D02*
X52670000Y-60255000D01*
%TD*%
M02*
