%TF.GenerationSoftware,KiCad,Pcbnew,7.0.11-7.0.11~ubuntu20.04.1*%
%TF.CreationDate,2024-05-21T12:38:46+01:00*%
%TF.ProjectId,crosspoint-switches,63726f73-7370-46f6-996e-742d73776974,rev?*%
%TF.SameCoordinates,Original*%
%TF.FileFunction,Legend,Bot*%
%TF.FilePolarity,Positive*%
%FSLAX46Y46*%
G04 Gerber Fmt 4.6, Leading zero omitted, Abs format (unit mm)*
G04 Created by KiCad (PCBNEW 7.0.11-7.0.11~ubuntu20.04.1) date 2024-05-21 12:38:46*
%MOMM*%
%LPD*%
G01*
G04 APERTURE LIST*
%ADD10C,0.100000*%
%ADD11C,0.400000*%
%ADD12C,0.120000*%
G04 APERTURE END LIST*
D10*
X58800000Y-79200000D02*
X74600000Y-79200000D01*
X73800000Y-79900000D02*
X74600000Y-79200000D01*
X73800000Y-78400000D02*
X73800000Y-79900000D01*
X74600000Y-79200000D02*
X73800000Y-78400000D01*
X75567544Y-60594800D02*
X75662782Y-60642419D01*
X75662782Y-60642419D02*
X75853258Y-60642419D01*
X75853258Y-60642419D02*
X75948496Y-60594800D01*
X75948496Y-60594800D02*
X75996115Y-60547180D01*
X75996115Y-60547180D02*
X76043734Y-60451942D01*
X76043734Y-60451942D02*
X76043734Y-60166228D01*
X76043734Y-60166228D02*
X75996115Y-60070990D01*
X75996115Y-60070990D02*
X75948496Y-60023371D01*
X75948496Y-60023371D02*
X75853258Y-59975752D01*
X75853258Y-59975752D02*
X75662782Y-59975752D01*
X75662782Y-59975752D02*
X75567544Y-60023371D01*
X75138972Y-60642419D02*
X75138972Y-59975752D01*
X75138972Y-60166228D02*
X75091353Y-60070990D01*
X75091353Y-60070990D02*
X75043734Y-60023371D01*
X75043734Y-60023371D02*
X74948496Y-59975752D01*
X74948496Y-59975752D02*
X74853258Y-59975752D01*
X74377067Y-60642419D02*
X74472305Y-60594800D01*
X74472305Y-60594800D02*
X74519924Y-60547180D01*
X74519924Y-60547180D02*
X74567543Y-60451942D01*
X74567543Y-60451942D02*
X74567543Y-60166228D01*
X74567543Y-60166228D02*
X74519924Y-60070990D01*
X74519924Y-60070990D02*
X74472305Y-60023371D01*
X74472305Y-60023371D02*
X74377067Y-59975752D01*
X74377067Y-59975752D02*
X74234210Y-59975752D01*
X74234210Y-59975752D02*
X74138972Y-60023371D01*
X74138972Y-60023371D02*
X74091353Y-60070990D01*
X74091353Y-60070990D02*
X74043734Y-60166228D01*
X74043734Y-60166228D02*
X74043734Y-60451942D01*
X74043734Y-60451942D02*
X74091353Y-60547180D01*
X74091353Y-60547180D02*
X74138972Y-60594800D01*
X74138972Y-60594800D02*
X74234210Y-60642419D01*
X74234210Y-60642419D02*
X74377067Y-60642419D01*
X73662781Y-60594800D02*
X73567543Y-60642419D01*
X73567543Y-60642419D02*
X73377067Y-60642419D01*
X73377067Y-60642419D02*
X73281829Y-60594800D01*
X73281829Y-60594800D02*
X73234210Y-60499561D01*
X73234210Y-60499561D02*
X73234210Y-60451942D01*
X73234210Y-60451942D02*
X73281829Y-60356704D01*
X73281829Y-60356704D02*
X73377067Y-60309085D01*
X73377067Y-60309085D02*
X73519924Y-60309085D01*
X73519924Y-60309085D02*
X73615162Y-60261466D01*
X73615162Y-60261466D02*
X73662781Y-60166228D01*
X73662781Y-60166228D02*
X73662781Y-60118609D01*
X73662781Y-60118609D02*
X73615162Y-60023371D01*
X73615162Y-60023371D02*
X73519924Y-59975752D01*
X73519924Y-59975752D02*
X73377067Y-59975752D01*
X73377067Y-59975752D02*
X73281829Y-60023371D01*
X72853257Y-60594800D02*
X72758019Y-60642419D01*
X72758019Y-60642419D02*
X72567543Y-60642419D01*
X72567543Y-60642419D02*
X72472305Y-60594800D01*
X72472305Y-60594800D02*
X72424686Y-60499561D01*
X72424686Y-60499561D02*
X72424686Y-60451942D01*
X72424686Y-60451942D02*
X72472305Y-60356704D01*
X72472305Y-60356704D02*
X72567543Y-60309085D01*
X72567543Y-60309085D02*
X72710400Y-60309085D01*
X72710400Y-60309085D02*
X72805638Y-60261466D01*
X72805638Y-60261466D02*
X72853257Y-60166228D01*
X72853257Y-60166228D02*
X72853257Y-60118609D01*
X72853257Y-60118609D02*
X72805638Y-60023371D01*
X72805638Y-60023371D02*
X72710400Y-59975752D01*
X72710400Y-59975752D02*
X72567543Y-59975752D01*
X72567543Y-59975752D02*
X72472305Y-60023371D01*
X71996114Y-59975752D02*
X71996114Y-60975752D01*
X71996114Y-60023371D02*
X71900876Y-59975752D01*
X71900876Y-59975752D02*
X71710400Y-59975752D01*
X71710400Y-59975752D02*
X71615162Y-60023371D01*
X71615162Y-60023371D02*
X71567543Y-60070990D01*
X71567543Y-60070990D02*
X71519924Y-60166228D01*
X71519924Y-60166228D02*
X71519924Y-60451942D01*
X71519924Y-60451942D02*
X71567543Y-60547180D01*
X71567543Y-60547180D02*
X71615162Y-60594800D01*
X71615162Y-60594800D02*
X71710400Y-60642419D01*
X71710400Y-60642419D02*
X71900876Y-60642419D01*
X71900876Y-60642419D02*
X71996114Y-60594800D01*
X70948495Y-60642419D02*
X71043733Y-60594800D01*
X71043733Y-60594800D02*
X71091352Y-60547180D01*
X71091352Y-60547180D02*
X71138971Y-60451942D01*
X71138971Y-60451942D02*
X71138971Y-60166228D01*
X71138971Y-60166228D02*
X71091352Y-60070990D01*
X71091352Y-60070990D02*
X71043733Y-60023371D01*
X71043733Y-60023371D02*
X70948495Y-59975752D01*
X70948495Y-59975752D02*
X70805638Y-59975752D01*
X70805638Y-59975752D02*
X70710400Y-60023371D01*
X70710400Y-60023371D02*
X70662781Y-60070990D01*
X70662781Y-60070990D02*
X70615162Y-60166228D01*
X70615162Y-60166228D02*
X70615162Y-60451942D01*
X70615162Y-60451942D02*
X70662781Y-60547180D01*
X70662781Y-60547180D02*
X70710400Y-60594800D01*
X70710400Y-60594800D02*
X70805638Y-60642419D01*
X70805638Y-60642419D02*
X70948495Y-60642419D01*
X70186590Y-60642419D02*
X70186590Y-59975752D01*
X70186590Y-59642419D02*
X70234209Y-59690038D01*
X70234209Y-59690038D02*
X70186590Y-59737657D01*
X70186590Y-59737657D02*
X70138971Y-59690038D01*
X70138971Y-59690038D02*
X70186590Y-59642419D01*
X70186590Y-59642419D02*
X70186590Y-59737657D01*
X69710400Y-59975752D02*
X69710400Y-60642419D01*
X69710400Y-60070990D02*
X69662781Y-60023371D01*
X69662781Y-60023371D02*
X69567543Y-59975752D01*
X69567543Y-59975752D02*
X69424686Y-59975752D01*
X69424686Y-59975752D02*
X69329448Y-60023371D01*
X69329448Y-60023371D02*
X69281829Y-60118609D01*
X69281829Y-60118609D02*
X69281829Y-60642419D01*
X68948495Y-59975752D02*
X68567543Y-59975752D01*
X68805638Y-59642419D02*
X68805638Y-60499561D01*
X68805638Y-60499561D02*
X68758019Y-60594800D01*
X68758019Y-60594800D02*
X68662781Y-60642419D01*
X68662781Y-60642419D02*
X68567543Y-60642419D01*
X67472304Y-60642419D02*
X67472304Y-59642419D01*
X67472304Y-60023371D02*
X67377066Y-59975752D01*
X67377066Y-59975752D02*
X67186590Y-59975752D01*
X67186590Y-59975752D02*
X67091352Y-60023371D01*
X67091352Y-60023371D02*
X67043733Y-60070990D01*
X67043733Y-60070990D02*
X66996114Y-60166228D01*
X66996114Y-60166228D02*
X66996114Y-60451942D01*
X66996114Y-60451942D02*
X67043733Y-60547180D01*
X67043733Y-60547180D02*
X67091352Y-60594800D01*
X67091352Y-60594800D02*
X67186590Y-60642419D01*
X67186590Y-60642419D02*
X67377066Y-60642419D01*
X67377066Y-60642419D02*
X67472304Y-60594800D01*
X66424685Y-60642419D02*
X66519923Y-60594800D01*
X66519923Y-60594800D02*
X66567542Y-60499561D01*
X66567542Y-60499561D02*
X66567542Y-59642419D01*
X65900875Y-60642419D02*
X65996113Y-60594800D01*
X65996113Y-60594800D02*
X66043732Y-60547180D01*
X66043732Y-60547180D02*
X66091351Y-60451942D01*
X66091351Y-60451942D02*
X66091351Y-60166228D01*
X66091351Y-60166228D02*
X66043732Y-60070990D01*
X66043732Y-60070990D02*
X65996113Y-60023371D01*
X65996113Y-60023371D02*
X65900875Y-59975752D01*
X65900875Y-59975752D02*
X65758018Y-59975752D01*
X65758018Y-59975752D02*
X65662780Y-60023371D01*
X65662780Y-60023371D02*
X65615161Y-60070990D01*
X65615161Y-60070990D02*
X65567542Y-60166228D01*
X65567542Y-60166228D02*
X65567542Y-60451942D01*
X65567542Y-60451942D02*
X65615161Y-60547180D01*
X65615161Y-60547180D02*
X65662780Y-60594800D01*
X65662780Y-60594800D02*
X65758018Y-60642419D01*
X65758018Y-60642419D02*
X65900875Y-60642419D01*
X64710399Y-60594800D02*
X64805637Y-60642419D01*
X64805637Y-60642419D02*
X64996113Y-60642419D01*
X64996113Y-60642419D02*
X65091351Y-60594800D01*
X65091351Y-60594800D02*
X65138970Y-60547180D01*
X65138970Y-60547180D02*
X65186589Y-60451942D01*
X65186589Y-60451942D02*
X65186589Y-60166228D01*
X65186589Y-60166228D02*
X65138970Y-60070990D01*
X65138970Y-60070990D02*
X65091351Y-60023371D01*
X65091351Y-60023371D02*
X64996113Y-59975752D01*
X64996113Y-59975752D02*
X64805637Y-59975752D01*
X64805637Y-59975752D02*
X64710399Y-60023371D01*
X64281827Y-60642419D02*
X64281827Y-59642419D01*
X64186589Y-60261466D02*
X63900875Y-60642419D01*
X63900875Y-59975752D02*
X64281827Y-60356704D01*
X75996115Y-62252419D02*
X75996115Y-61252419D01*
X75567544Y-62252419D02*
X75567544Y-61728609D01*
X75567544Y-61728609D02*
X75615163Y-61633371D01*
X75615163Y-61633371D02*
X75710401Y-61585752D01*
X75710401Y-61585752D02*
X75853258Y-61585752D01*
X75853258Y-61585752D02*
X75948496Y-61633371D01*
X75948496Y-61633371D02*
X75996115Y-61680990D01*
X75234210Y-61585752D02*
X74853258Y-61585752D01*
X75091353Y-61252419D02*
X75091353Y-62109561D01*
X75091353Y-62109561D02*
X75043734Y-62204800D01*
X75043734Y-62204800D02*
X74948496Y-62252419D01*
X74948496Y-62252419D02*
X74853258Y-62252419D01*
X74662781Y-61585752D02*
X74281829Y-61585752D01*
X74519924Y-61252419D02*
X74519924Y-62109561D01*
X74519924Y-62109561D02*
X74472305Y-62204800D01*
X74472305Y-62204800D02*
X74377067Y-62252419D01*
X74377067Y-62252419D02*
X74281829Y-62252419D01*
X73948495Y-61585752D02*
X73948495Y-62585752D01*
X73948495Y-61633371D02*
X73853257Y-61585752D01*
X73853257Y-61585752D02*
X73662781Y-61585752D01*
X73662781Y-61585752D02*
X73567543Y-61633371D01*
X73567543Y-61633371D02*
X73519924Y-61680990D01*
X73519924Y-61680990D02*
X73472305Y-61776228D01*
X73472305Y-61776228D02*
X73472305Y-62061942D01*
X73472305Y-62061942D02*
X73519924Y-62157180D01*
X73519924Y-62157180D02*
X73567543Y-62204800D01*
X73567543Y-62204800D02*
X73662781Y-62252419D01*
X73662781Y-62252419D02*
X73853257Y-62252419D01*
X73853257Y-62252419D02*
X73948495Y-62204800D01*
X73091352Y-62204800D02*
X72996114Y-62252419D01*
X72996114Y-62252419D02*
X72805638Y-62252419D01*
X72805638Y-62252419D02*
X72710400Y-62204800D01*
X72710400Y-62204800D02*
X72662781Y-62109561D01*
X72662781Y-62109561D02*
X72662781Y-62061942D01*
X72662781Y-62061942D02*
X72710400Y-61966704D01*
X72710400Y-61966704D02*
X72805638Y-61919085D01*
X72805638Y-61919085D02*
X72948495Y-61919085D01*
X72948495Y-61919085D02*
X73043733Y-61871466D01*
X73043733Y-61871466D02*
X73091352Y-61776228D01*
X73091352Y-61776228D02*
X73091352Y-61728609D01*
X73091352Y-61728609D02*
X73043733Y-61633371D01*
X73043733Y-61633371D02*
X72948495Y-61585752D01*
X72948495Y-61585752D02*
X72805638Y-61585752D01*
X72805638Y-61585752D02*
X72710400Y-61633371D01*
X72234209Y-62157180D02*
X72186590Y-62204800D01*
X72186590Y-62204800D02*
X72234209Y-62252419D01*
X72234209Y-62252419D02*
X72281828Y-62204800D01*
X72281828Y-62204800D02*
X72234209Y-62157180D01*
X72234209Y-62157180D02*
X72234209Y-62252419D01*
X72234209Y-61633371D02*
X72186590Y-61680990D01*
X72186590Y-61680990D02*
X72234209Y-61728609D01*
X72234209Y-61728609D02*
X72281828Y-61680990D01*
X72281828Y-61680990D02*
X72234209Y-61633371D01*
X72234209Y-61633371D02*
X72234209Y-61728609D01*
X71043734Y-61204800D02*
X71900876Y-62490514D01*
X69996115Y-61204800D02*
X70853257Y-62490514D01*
X69662781Y-62252419D02*
X69662781Y-61585752D01*
X69662781Y-61776228D02*
X69615162Y-61680990D01*
X69615162Y-61680990D02*
X69567543Y-61633371D01*
X69567543Y-61633371D02*
X69472305Y-61585752D01*
X69472305Y-61585752D02*
X69377067Y-61585752D01*
X68662781Y-62204800D02*
X68758019Y-62252419D01*
X68758019Y-62252419D02*
X68948495Y-62252419D01*
X68948495Y-62252419D02*
X69043733Y-62204800D01*
X69043733Y-62204800D02*
X69091352Y-62109561D01*
X69091352Y-62109561D02*
X69091352Y-61728609D01*
X69091352Y-61728609D02*
X69043733Y-61633371D01*
X69043733Y-61633371D02*
X68948495Y-61585752D01*
X68948495Y-61585752D02*
X68758019Y-61585752D01*
X68758019Y-61585752D02*
X68662781Y-61633371D01*
X68662781Y-61633371D02*
X68615162Y-61728609D01*
X68615162Y-61728609D02*
X68615162Y-61823847D01*
X68615162Y-61823847D02*
X69091352Y-61919085D01*
X68186590Y-61585752D02*
X68186590Y-62585752D01*
X68186590Y-61633371D02*
X68091352Y-61585752D01*
X68091352Y-61585752D02*
X67900876Y-61585752D01*
X67900876Y-61585752D02*
X67805638Y-61633371D01*
X67805638Y-61633371D02*
X67758019Y-61680990D01*
X67758019Y-61680990D02*
X67710400Y-61776228D01*
X67710400Y-61776228D02*
X67710400Y-62061942D01*
X67710400Y-62061942D02*
X67758019Y-62157180D01*
X67758019Y-62157180D02*
X67805638Y-62204800D01*
X67805638Y-62204800D02*
X67900876Y-62252419D01*
X67900876Y-62252419D02*
X68091352Y-62252419D01*
X68091352Y-62252419D02*
X68186590Y-62204800D01*
X67281828Y-62252419D02*
X67281828Y-61585752D01*
X67281828Y-61776228D02*
X67234209Y-61680990D01*
X67234209Y-61680990D02*
X67186590Y-61633371D01*
X67186590Y-61633371D02*
X67091352Y-61585752D01*
X67091352Y-61585752D02*
X66996114Y-61585752D01*
X66234209Y-62252419D02*
X66234209Y-61728609D01*
X66234209Y-61728609D02*
X66281828Y-61633371D01*
X66281828Y-61633371D02*
X66377066Y-61585752D01*
X66377066Y-61585752D02*
X66567542Y-61585752D01*
X66567542Y-61585752D02*
X66662780Y-61633371D01*
X66234209Y-62204800D02*
X66329447Y-62252419D01*
X66329447Y-62252419D02*
X66567542Y-62252419D01*
X66567542Y-62252419D02*
X66662780Y-62204800D01*
X66662780Y-62204800D02*
X66710399Y-62109561D01*
X66710399Y-62109561D02*
X66710399Y-62014323D01*
X66710399Y-62014323D02*
X66662780Y-61919085D01*
X66662780Y-61919085D02*
X66567542Y-61871466D01*
X66567542Y-61871466D02*
X66329447Y-61871466D01*
X66329447Y-61871466D02*
X66234209Y-61823847D01*
X65758018Y-61585752D02*
X65758018Y-62585752D01*
X65758018Y-61633371D02*
X65662780Y-61585752D01*
X65662780Y-61585752D02*
X65472304Y-61585752D01*
X65472304Y-61585752D02*
X65377066Y-61633371D01*
X65377066Y-61633371D02*
X65329447Y-61680990D01*
X65329447Y-61680990D02*
X65281828Y-61776228D01*
X65281828Y-61776228D02*
X65281828Y-62061942D01*
X65281828Y-62061942D02*
X65329447Y-62157180D01*
X65329447Y-62157180D02*
X65377066Y-62204800D01*
X65377066Y-62204800D02*
X65472304Y-62252419D01*
X65472304Y-62252419D02*
X65662780Y-62252419D01*
X65662780Y-62252419D02*
X65758018Y-62204800D01*
X64710399Y-62252419D02*
X64805637Y-62204800D01*
X64805637Y-62204800D02*
X64853256Y-62109561D01*
X64853256Y-62109561D02*
X64853256Y-61252419D01*
X64472303Y-61585752D02*
X64091351Y-61585752D01*
X64329446Y-61252419D02*
X64329446Y-62109561D01*
X64329446Y-62109561D02*
X64281827Y-62204800D01*
X64281827Y-62204800D02*
X64186589Y-62252419D01*
X64186589Y-62252419D02*
X64091351Y-62252419D01*
X63329446Y-62252419D02*
X63329446Y-61252419D01*
X63329446Y-62204800D02*
X63424684Y-62252419D01*
X63424684Y-62252419D02*
X63615160Y-62252419D01*
X63615160Y-62252419D02*
X63710398Y-62204800D01*
X63710398Y-62204800D02*
X63758017Y-62157180D01*
X63758017Y-62157180D02*
X63805636Y-62061942D01*
X63805636Y-62061942D02*
X63805636Y-61776228D01*
X63805636Y-61776228D02*
X63758017Y-61680990D01*
X63758017Y-61680990D02*
X63710398Y-61633371D01*
X63710398Y-61633371D02*
X63615160Y-61585752D01*
X63615160Y-61585752D02*
X63424684Y-61585752D01*
X63424684Y-61585752D02*
X63329446Y-61633371D01*
X62853255Y-62157180D02*
X62805636Y-62204800D01*
X62805636Y-62204800D02*
X62853255Y-62252419D01*
X62853255Y-62252419D02*
X62900874Y-62204800D01*
X62900874Y-62204800D02*
X62853255Y-62157180D01*
X62853255Y-62157180D02*
X62853255Y-62252419D01*
X61948494Y-62204800D02*
X62043732Y-62252419D01*
X62043732Y-62252419D02*
X62234208Y-62252419D01*
X62234208Y-62252419D02*
X62329446Y-62204800D01*
X62329446Y-62204800D02*
X62377065Y-62157180D01*
X62377065Y-62157180D02*
X62424684Y-62061942D01*
X62424684Y-62061942D02*
X62424684Y-61776228D01*
X62424684Y-61776228D02*
X62377065Y-61680990D01*
X62377065Y-61680990D02*
X62329446Y-61633371D01*
X62329446Y-61633371D02*
X62234208Y-61585752D01*
X62234208Y-61585752D02*
X62043732Y-61585752D01*
X62043732Y-61585752D02*
X61948494Y-61633371D01*
X61377065Y-62252419D02*
X61472303Y-62204800D01*
X61472303Y-62204800D02*
X61519922Y-62157180D01*
X61519922Y-62157180D02*
X61567541Y-62061942D01*
X61567541Y-62061942D02*
X61567541Y-61776228D01*
X61567541Y-61776228D02*
X61519922Y-61680990D01*
X61519922Y-61680990D02*
X61472303Y-61633371D01*
X61472303Y-61633371D02*
X61377065Y-61585752D01*
X61377065Y-61585752D02*
X61234208Y-61585752D01*
X61234208Y-61585752D02*
X61138970Y-61633371D01*
X61138970Y-61633371D02*
X61091351Y-61680990D01*
X61091351Y-61680990D02*
X61043732Y-61776228D01*
X61043732Y-61776228D02*
X61043732Y-62061942D01*
X61043732Y-62061942D02*
X61091351Y-62157180D01*
X61091351Y-62157180D02*
X61138970Y-62204800D01*
X61138970Y-62204800D02*
X61234208Y-62252419D01*
X61234208Y-62252419D02*
X61377065Y-62252419D01*
X60615160Y-62252419D02*
X60615160Y-61585752D01*
X60615160Y-61680990D02*
X60567541Y-61633371D01*
X60567541Y-61633371D02*
X60472303Y-61585752D01*
X60472303Y-61585752D02*
X60329446Y-61585752D01*
X60329446Y-61585752D02*
X60234208Y-61633371D01*
X60234208Y-61633371D02*
X60186589Y-61728609D01*
X60186589Y-61728609D02*
X60186589Y-62252419D01*
X60186589Y-61728609D02*
X60138970Y-61633371D01*
X60138970Y-61633371D02*
X60043732Y-61585752D01*
X60043732Y-61585752D02*
X59900875Y-61585752D01*
X59900875Y-61585752D02*
X59805636Y-61633371D01*
X59805636Y-61633371D02*
X59758017Y-61728609D01*
X59758017Y-61728609D02*
X59758017Y-62252419D01*
X75472306Y-62910038D02*
X75567544Y-62862419D01*
X75567544Y-62862419D02*
X75710401Y-62862419D01*
X75710401Y-62862419D02*
X75853258Y-62910038D01*
X75853258Y-62910038D02*
X75948496Y-63005276D01*
X75948496Y-63005276D02*
X75996115Y-63100514D01*
X75996115Y-63100514D02*
X76043734Y-63290990D01*
X76043734Y-63290990D02*
X76043734Y-63433847D01*
X76043734Y-63433847D02*
X75996115Y-63624323D01*
X75996115Y-63624323D02*
X75948496Y-63719561D01*
X75948496Y-63719561D02*
X75853258Y-63814800D01*
X75853258Y-63814800D02*
X75710401Y-63862419D01*
X75710401Y-63862419D02*
X75615163Y-63862419D01*
X75615163Y-63862419D02*
X75472306Y-63814800D01*
X75472306Y-63814800D02*
X75424687Y-63767180D01*
X75424687Y-63767180D02*
X75424687Y-63433847D01*
X75424687Y-63433847D02*
X75615163Y-63433847D01*
X74996115Y-63862419D02*
X74996115Y-62862419D01*
X74996115Y-62862419D02*
X74615163Y-62862419D01*
X74615163Y-62862419D02*
X74519925Y-62910038D01*
X74519925Y-62910038D02*
X74472306Y-62957657D01*
X74472306Y-62957657D02*
X74424687Y-63052895D01*
X74424687Y-63052895D02*
X74424687Y-63195752D01*
X74424687Y-63195752D02*
X74472306Y-63290990D01*
X74472306Y-63290990D02*
X74519925Y-63338609D01*
X74519925Y-63338609D02*
X74615163Y-63386228D01*
X74615163Y-63386228D02*
X74996115Y-63386228D01*
X73519925Y-63862419D02*
X73996115Y-63862419D01*
X73996115Y-63862419D02*
X73996115Y-62862419D01*
X76138972Y-64472419D02*
X75805639Y-65472419D01*
X75805639Y-65472419D02*
X75472306Y-64472419D01*
X74615163Y-65472419D02*
X75186591Y-65472419D01*
X74900877Y-65472419D02*
X74900877Y-64472419D01*
X74900877Y-64472419D02*
X74996115Y-64615276D01*
X74996115Y-64615276D02*
X75091353Y-64710514D01*
X75091353Y-64710514D02*
X75186591Y-64758133D01*
D11*
X75951128Y-78234438D02*
X74617795Y-80234438D01*
X74617795Y-78234438D02*
X75951128Y-80234438D01*
D12*
%TO.C,D2*%
X68440000Y-75665000D02*
X71125000Y-75665000D01*
X68440000Y-77585000D02*
X68440000Y-75665000D01*
X71125000Y-77585000D02*
X68440000Y-77585000D01*
%TO.C,R2*%
X70515000Y-70352064D02*
X70515000Y-69897936D01*
X71985000Y-70352064D02*
X71985000Y-69897936D01*
%TO.C,D3*%
X75435000Y-77585000D02*
X72750000Y-77585000D01*
X75435000Y-75665000D02*
X75435000Y-77585000D01*
X72750000Y-75665000D02*
X75435000Y-75665000D01*
%TO.C,C3*%
X62113748Y-63515000D02*
X62636252Y-63515000D01*
X62113748Y-64985000D02*
X62636252Y-64985000D01*
%TD*%
M02*
