%TF.GenerationSoftware,KiCad,Pcbnew,7.0.11-7.0.11~ubuntu20.04.1*%
%TF.CreationDate,2024-05-21T12:12:53+01:00*%
%TF.ProjectId,crosspoint-switches,63726f73-7370-46f6-996e-742d73776974,rev?*%
%TF.SameCoordinates,Original*%
%TF.FileFunction,Soldermask,Bot*%
%TF.FilePolarity,Negative*%
%FSLAX46Y46*%
G04 Gerber Fmt 4.6, Leading zero omitted, Abs format (unit mm)*
G04 Created by KiCad (PCBNEW 7.0.11-7.0.11~ubuntu20.04.1) date 2024-05-21 12:12:53*
%MOMM*%
%LPD*%
G01*
G04 APERTURE LIST*
G04 Aperture macros list*
%AMRoundRect*
0 Rectangle with rounded corners*
0 $1 Rounding radius*
0 $2 $3 $4 $5 $6 $7 $8 $9 X,Y pos of 4 corners*
0 Add a 4 corners polygon primitive as box body*
4,1,4,$2,$3,$4,$5,$6,$7,$8,$9,$2,$3,0*
0 Add four circle primitives for the rounded corners*
1,1,$1+$1,$2,$3*
1,1,$1+$1,$4,$5*
1,1,$1+$1,$6,$7*
1,1,$1+$1,$8,$9*
0 Add four rect primitives between the rounded corners*
20,1,$1+$1,$2,$3,$4,$5,0*
20,1,$1+$1,$4,$5,$6,$7,0*
20,1,$1+$1,$6,$7,$8,$9,0*
20,1,$1+$1,$8,$9,$2,$3,0*%
G04 Aperture macros list end*
%ADD10R,1.000000X1.000000*%
%ADD11O,1.000000X1.000000*%
%ADD12C,3.800000*%
%ADD13RoundRect,0.243750X-0.243750X-0.456250X0.243750X-0.456250X0.243750X0.456250X-0.243750X0.456250X0*%
%ADD14RoundRect,0.250000X0.450000X-0.262500X0.450000X0.262500X-0.450000X0.262500X-0.450000X-0.262500X0*%
%ADD15RoundRect,0.243750X0.243750X0.456250X-0.243750X0.456250X-0.243750X-0.456250X0.243750X-0.456250X0*%
%ADD16RoundRect,0.250000X-0.250000X-0.475000X0.250000X-0.475000X0.250000X0.475000X-0.250000X0.475000X0*%
G04 APERTURE END LIST*
D10*
%TO.C,J4*%
X76550000Y-83500000D03*
D11*
X75280000Y-83500000D03*
X74010000Y-83500000D03*
X72740000Y-83500000D03*
X71470000Y-83500000D03*
X70200000Y-83500000D03*
X68930000Y-83500000D03*
X67660000Y-83500000D03*
X66390000Y-83500000D03*
X65120000Y-83500000D03*
X63850000Y-83500000D03*
X62580000Y-83500000D03*
X61310000Y-83500000D03*
X60040000Y-83500000D03*
X58770000Y-83500000D03*
X57500000Y-83500000D03*
%TD*%
D12*
%TO.C,H4*%
X54250000Y-83250000D03*
%TD*%
%TO.C,H3*%
X79875000Y-83375000D03*
%TD*%
D10*
%TO.C,J3*%
X80000000Y-80000000D03*
D11*
X80000000Y-78730000D03*
X80000000Y-77460000D03*
X80000000Y-76190000D03*
X80000000Y-74920000D03*
X80000000Y-73650000D03*
X80000000Y-72380000D03*
X80000000Y-71110000D03*
X80000000Y-69840000D03*
X80000000Y-68570000D03*
X80000000Y-67300000D03*
X80000000Y-66030000D03*
X80000000Y-64760000D03*
X80000000Y-63490000D03*
X80000000Y-62220000D03*
X80000000Y-60950000D03*
%TD*%
D12*
%TO.C,H1*%
X79875000Y-57750000D03*
%TD*%
D10*
%TO.C,J5*%
X76550000Y-57500000D03*
D11*
X75280000Y-57500000D03*
X74010000Y-57500000D03*
X72740000Y-57500000D03*
X71470000Y-57500000D03*
X70200000Y-57500000D03*
X68930000Y-57500000D03*
X67660000Y-57500000D03*
X66390000Y-57500000D03*
X65120000Y-57500000D03*
X63850000Y-57500000D03*
X62580000Y-57500000D03*
X61310000Y-57500000D03*
X60040000Y-57500000D03*
X58770000Y-57500000D03*
X57500000Y-57500000D03*
%TD*%
D10*
%TO.C,J6*%
X69000000Y-64125000D03*
D11*
X69000000Y-65395000D03*
X70270000Y-64125000D03*
X70270000Y-65395000D03*
X71540000Y-64125000D03*
X71540000Y-65395000D03*
%TD*%
D12*
%TO.C,H2*%
X54250000Y-57750000D03*
%TD*%
D10*
%TO.C,J2*%
X54000000Y-80000000D03*
D11*
X54000000Y-78730000D03*
X54000000Y-77460000D03*
X54000000Y-76190000D03*
X54000000Y-74920000D03*
X54000000Y-73650000D03*
X54000000Y-72380000D03*
X54000000Y-71110000D03*
X54000000Y-69840000D03*
X54000000Y-68570000D03*
X54000000Y-67300000D03*
X54000000Y-66030000D03*
X54000000Y-64760000D03*
X54000000Y-63490000D03*
X54000000Y-62220000D03*
X54000000Y-60950000D03*
%TD*%
D13*
%TO.C,D2*%
X69187500Y-76625000D03*
X71062500Y-76625000D03*
%TD*%
D14*
%TO.C,R2*%
X71250000Y-71037500D03*
X71250000Y-69212500D03*
%TD*%
D15*
%TO.C,D3*%
X74687500Y-76625000D03*
X72812500Y-76625000D03*
%TD*%
D16*
%TO.C,C3*%
X61425000Y-64250000D03*
X63325000Y-64250000D03*
%TD*%
M02*
