%TF.GenerationSoftware,KiCad,Pcbnew,7.0.8-7.0.8~ubuntu20.04.1*%
%TF.CreationDate,2023-11-06T15:40:33+00:00*%
%TF.ProjectId,one-synapse-electronic,6f6e652d-7379-46e6-9170-73652d656c65,rev?*%
%TF.SameCoordinates,Original*%
%TF.FileFunction,Legend,Bot*%
%TF.FilePolarity,Positive*%
%FSLAX46Y46*%
G04 Gerber Fmt 4.6, Leading zero omitted, Abs format (unit mm)*
G04 Created by KiCad (PCBNEW 7.0.8-7.0.8~ubuntu20.04.1) date 2023-11-06 15:40:33*
%MOMM*%
%LPD*%
G01*
G04 APERTURE LIST*
%ADD10C,0.150000*%
%ADD11C,0.120000*%
G04 APERTURE END LIST*
D10*
X139329887Y-149146009D02*
X139187030Y-149193628D01*
X139187030Y-149193628D02*
X139139411Y-149241247D01*
X139139411Y-149241247D02*
X139091792Y-149336485D01*
X139091792Y-149336485D02*
X139091792Y-149479342D01*
X139091792Y-149479342D02*
X139139411Y-149574580D01*
X139139411Y-149574580D02*
X139187030Y-149622200D01*
X139187030Y-149622200D02*
X139282268Y-149669819D01*
X139282268Y-149669819D02*
X139663220Y-149669819D01*
X139663220Y-149669819D02*
X139663220Y-148669819D01*
X139663220Y-148669819D02*
X139329887Y-148669819D01*
X139329887Y-148669819D02*
X139234649Y-148717438D01*
X139234649Y-148717438D02*
X139187030Y-148765057D01*
X139187030Y-148765057D02*
X139139411Y-148860295D01*
X139139411Y-148860295D02*
X139139411Y-148955533D01*
X139139411Y-148955533D02*
X139187030Y-149050771D01*
X139187030Y-149050771D02*
X139234649Y-149098390D01*
X139234649Y-149098390D02*
X139329887Y-149146009D01*
X139329887Y-149146009D02*
X139663220Y-149146009D01*
X138187030Y-149669819D02*
X138663220Y-149669819D01*
X138663220Y-149669819D02*
X138663220Y-148669819D01*
X137901315Y-149384104D02*
X137425125Y-149384104D01*
X137996553Y-149669819D02*
X137663220Y-148669819D01*
X137663220Y-148669819D02*
X137329887Y-149669819D01*
X136996553Y-149669819D02*
X136996553Y-148669819D01*
X136996553Y-148669819D02*
X136425125Y-149669819D01*
X136425125Y-149669819D02*
X136425125Y-148669819D01*
X135948934Y-149669819D02*
X135948934Y-148669819D01*
X135377506Y-149669819D02*
X135806077Y-149098390D01*
X135377506Y-148669819D02*
X135948934Y-149241247D01*
X58710839Y-151822200D02*
X58567982Y-151869819D01*
X58567982Y-151869819D02*
X58329887Y-151869819D01*
X58329887Y-151869819D02*
X58234649Y-151822200D01*
X58234649Y-151822200D02*
X58187030Y-151774580D01*
X58187030Y-151774580D02*
X58139411Y-151679342D01*
X58139411Y-151679342D02*
X58139411Y-151584104D01*
X58139411Y-151584104D02*
X58187030Y-151488866D01*
X58187030Y-151488866D02*
X58234649Y-151441247D01*
X58234649Y-151441247D02*
X58329887Y-151393628D01*
X58329887Y-151393628D02*
X58520363Y-151346009D01*
X58520363Y-151346009D02*
X58615601Y-151298390D01*
X58615601Y-151298390D02*
X58663220Y-151250771D01*
X58663220Y-151250771D02*
X58710839Y-151155533D01*
X58710839Y-151155533D02*
X58710839Y-151060295D01*
X58710839Y-151060295D02*
X58663220Y-150965057D01*
X58663220Y-150965057D02*
X58615601Y-150917438D01*
X58615601Y-150917438D02*
X58520363Y-150869819D01*
X58520363Y-150869819D02*
X58282268Y-150869819D01*
X58282268Y-150869819D02*
X58139411Y-150917438D01*
X57710839Y-151869819D02*
X57710839Y-151203152D01*
X57710839Y-150869819D02*
X57758458Y-150917438D01*
X57758458Y-150917438D02*
X57710839Y-150965057D01*
X57710839Y-150965057D02*
X57663220Y-150917438D01*
X57663220Y-150917438D02*
X57710839Y-150869819D01*
X57710839Y-150869819D02*
X57710839Y-150965057D01*
X57234649Y-151203152D02*
X57234649Y-151869819D01*
X57234649Y-151298390D02*
X57187030Y-151250771D01*
X57187030Y-151250771D02*
X57091792Y-151203152D01*
X57091792Y-151203152D02*
X56948935Y-151203152D01*
X56948935Y-151203152D02*
X56853697Y-151250771D01*
X56853697Y-151250771D02*
X56806078Y-151346009D01*
X56806078Y-151346009D02*
X56806078Y-151869819D01*
X60539411Y-143517438D02*
X60634649Y-143469819D01*
X60634649Y-143469819D02*
X60777506Y-143469819D01*
X60777506Y-143469819D02*
X60920363Y-143517438D01*
X60920363Y-143517438D02*
X61015601Y-143612676D01*
X61015601Y-143612676D02*
X61063220Y-143707914D01*
X61063220Y-143707914D02*
X61110839Y-143898390D01*
X61110839Y-143898390D02*
X61110839Y-144041247D01*
X61110839Y-144041247D02*
X61063220Y-144231723D01*
X61063220Y-144231723D02*
X61015601Y-144326961D01*
X61015601Y-144326961D02*
X60920363Y-144422200D01*
X60920363Y-144422200D02*
X60777506Y-144469819D01*
X60777506Y-144469819D02*
X60682268Y-144469819D01*
X60682268Y-144469819D02*
X60539411Y-144422200D01*
X60539411Y-144422200D02*
X60491792Y-144374580D01*
X60491792Y-144374580D02*
X60491792Y-144041247D01*
X60491792Y-144041247D02*
X60682268Y-144041247D01*
X60110839Y-144422200D02*
X59967982Y-144469819D01*
X59967982Y-144469819D02*
X59729887Y-144469819D01*
X59729887Y-144469819D02*
X59634649Y-144422200D01*
X59634649Y-144422200D02*
X59587030Y-144374580D01*
X59587030Y-144374580D02*
X59539411Y-144279342D01*
X59539411Y-144279342D02*
X59539411Y-144184104D01*
X59539411Y-144184104D02*
X59587030Y-144088866D01*
X59587030Y-144088866D02*
X59634649Y-144041247D01*
X59634649Y-144041247D02*
X59729887Y-143993628D01*
X59729887Y-143993628D02*
X59920363Y-143946009D01*
X59920363Y-143946009D02*
X60015601Y-143898390D01*
X60015601Y-143898390D02*
X60063220Y-143850771D01*
X60063220Y-143850771D02*
X60110839Y-143755533D01*
X60110839Y-143755533D02*
X60110839Y-143660295D01*
X60110839Y-143660295D02*
X60063220Y-143565057D01*
X60063220Y-143565057D02*
X60015601Y-143517438D01*
X60015601Y-143517438D02*
X59920363Y-143469819D01*
X59920363Y-143469819D02*
X59682268Y-143469819D01*
X59682268Y-143469819D02*
X59539411Y-143517438D01*
X58539411Y-144374580D02*
X58587030Y-144422200D01*
X58587030Y-144422200D02*
X58729887Y-144469819D01*
X58729887Y-144469819D02*
X58825125Y-144469819D01*
X58825125Y-144469819D02*
X58967982Y-144422200D01*
X58967982Y-144422200D02*
X59063220Y-144326961D01*
X59063220Y-144326961D02*
X59110839Y-144231723D01*
X59110839Y-144231723D02*
X59158458Y-144041247D01*
X59158458Y-144041247D02*
X59158458Y-143898390D01*
X59158458Y-143898390D02*
X59110839Y-143707914D01*
X59110839Y-143707914D02*
X59063220Y-143612676D01*
X59063220Y-143612676D02*
X58967982Y-143517438D01*
X58967982Y-143517438D02*
X58825125Y-143469819D01*
X58825125Y-143469819D02*
X58729887Y-143469819D01*
X58729887Y-143469819D02*
X58587030Y-143517438D01*
X58587030Y-143517438D02*
X58539411Y-143565057D01*
X57634649Y-144469819D02*
X58110839Y-144469819D01*
X58110839Y-144469819D02*
X58110839Y-143469819D01*
X57301315Y-144469819D02*
X57301315Y-143469819D01*
X56729887Y-144469819D02*
X57158458Y-143898390D01*
X56729887Y-143469819D02*
X57301315Y-144041247D01*
X141739411Y-140717438D02*
X141834649Y-140669819D01*
X141834649Y-140669819D02*
X141977506Y-140669819D01*
X141977506Y-140669819D02*
X142120363Y-140717438D01*
X142120363Y-140717438D02*
X142215601Y-140812676D01*
X142215601Y-140812676D02*
X142263220Y-140907914D01*
X142263220Y-140907914D02*
X142310839Y-141098390D01*
X142310839Y-141098390D02*
X142310839Y-141241247D01*
X142310839Y-141241247D02*
X142263220Y-141431723D01*
X142263220Y-141431723D02*
X142215601Y-141526961D01*
X142215601Y-141526961D02*
X142120363Y-141622200D01*
X142120363Y-141622200D02*
X141977506Y-141669819D01*
X141977506Y-141669819D02*
X141882268Y-141669819D01*
X141882268Y-141669819D02*
X141739411Y-141622200D01*
X141739411Y-141622200D02*
X141691792Y-141574580D01*
X141691792Y-141574580D02*
X141691792Y-141241247D01*
X141691792Y-141241247D02*
X141882268Y-141241247D01*
X141310839Y-141622200D02*
X141167982Y-141669819D01*
X141167982Y-141669819D02*
X140929887Y-141669819D01*
X140929887Y-141669819D02*
X140834649Y-141622200D01*
X140834649Y-141622200D02*
X140787030Y-141574580D01*
X140787030Y-141574580D02*
X140739411Y-141479342D01*
X140739411Y-141479342D02*
X140739411Y-141384104D01*
X140739411Y-141384104D02*
X140787030Y-141288866D01*
X140787030Y-141288866D02*
X140834649Y-141241247D01*
X140834649Y-141241247D02*
X140929887Y-141193628D01*
X140929887Y-141193628D02*
X141120363Y-141146009D01*
X141120363Y-141146009D02*
X141215601Y-141098390D01*
X141215601Y-141098390D02*
X141263220Y-141050771D01*
X141263220Y-141050771D02*
X141310839Y-140955533D01*
X141310839Y-140955533D02*
X141310839Y-140860295D01*
X141310839Y-140860295D02*
X141263220Y-140765057D01*
X141263220Y-140765057D02*
X141215601Y-140717438D01*
X141215601Y-140717438D02*
X141120363Y-140669819D01*
X141120363Y-140669819D02*
X140882268Y-140669819D01*
X140882268Y-140669819D02*
X140739411Y-140717438D01*
X139739411Y-141574580D02*
X139787030Y-141622200D01*
X139787030Y-141622200D02*
X139929887Y-141669819D01*
X139929887Y-141669819D02*
X140025125Y-141669819D01*
X140025125Y-141669819D02*
X140167982Y-141622200D01*
X140167982Y-141622200D02*
X140263220Y-141526961D01*
X140263220Y-141526961D02*
X140310839Y-141431723D01*
X140310839Y-141431723D02*
X140358458Y-141241247D01*
X140358458Y-141241247D02*
X140358458Y-141098390D01*
X140358458Y-141098390D02*
X140310839Y-140907914D01*
X140310839Y-140907914D02*
X140263220Y-140812676D01*
X140263220Y-140812676D02*
X140167982Y-140717438D01*
X140167982Y-140717438D02*
X140025125Y-140669819D01*
X140025125Y-140669819D02*
X139929887Y-140669819D01*
X139929887Y-140669819D02*
X139787030Y-140717438D01*
X139787030Y-140717438D02*
X139739411Y-140765057D01*
X138834649Y-141669819D02*
X139310839Y-141669819D01*
X139310839Y-141669819D02*
X139310839Y-140669819D01*
X138501315Y-141669819D02*
X138501315Y-140669819D01*
X137929887Y-141669819D02*
X138358458Y-141098390D01*
X137929887Y-140669819D02*
X138501315Y-141241247D01*
X139139411Y-158717438D02*
X139234649Y-158669819D01*
X139234649Y-158669819D02*
X139377506Y-158669819D01*
X139377506Y-158669819D02*
X139520363Y-158717438D01*
X139520363Y-158717438D02*
X139615601Y-158812676D01*
X139615601Y-158812676D02*
X139663220Y-158907914D01*
X139663220Y-158907914D02*
X139710839Y-159098390D01*
X139710839Y-159098390D02*
X139710839Y-159241247D01*
X139710839Y-159241247D02*
X139663220Y-159431723D01*
X139663220Y-159431723D02*
X139615601Y-159526961D01*
X139615601Y-159526961D02*
X139520363Y-159622200D01*
X139520363Y-159622200D02*
X139377506Y-159669819D01*
X139377506Y-159669819D02*
X139282268Y-159669819D01*
X139282268Y-159669819D02*
X139139411Y-159622200D01*
X139139411Y-159622200D02*
X139091792Y-159574580D01*
X139091792Y-159574580D02*
X139091792Y-159241247D01*
X139091792Y-159241247D02*
X139282268Y-159241247D01*
X138663220Y-159669819D02*
X138663220Y-158669819D01*
X138663220Y-158669819D02*
X138091792Y-159669819D01*
X138091792Y-159669819D02*
X138091792Y-158669819D01*
X137615601Y-159669819D02*
X137615601Y-158669819D01*
X137615601Y-158669819D02*
X137377506Y-158669819D01*
X137377506Y-158669819D02*
X137234649Y-158717438D01*
X137234649Y-158717438D02*
X137139411Y-158812676D01*
X137139411Y-158812676D02*
X137091792Y-158907914D01*
X137091792Y-158907914D02*
X137044173Y-159098390D01*
X137044173Y-159098390D02*
X137044173Y-159241247D01*
X137044173Y-159241247D02*
X137091792Y-159431723D01*
X137091792Y-159431723D02*
X137139411Y-159526961D01*
X137139411Y-159526961D02*
X137234649Y-159622200D01*
X137234649Y-159622200D02*
X137377506Y-159669819D01*
X137377506Y-159669819D02*
X137615601Y-159669819D01*
X135603152Y-138793922D02*
X135603152Y-139174874D01*
X135269819Y-138936779D02*
X136126961Y-138936779D01*
X136126961Y-138936779D02*
X136222200Y-138984398D01*
X136222200Y-138984398D02*
X136269819Y-139079636D01*
X136269819Y-139079636D02*
X136269819Y-139174874D01*
X136269819Y-139508208D02*
X135269819Y-139508208D01*
X136269819Y-139936779D02*
X135746009Y-139936779D01*
X135746009Y-139936779D02*
X135650771Y-139889160D01*
X135650771Y-139889160D02*
X135603152Y-139793922D01*
X135603152Y-139793922D02*
X135603152Y-139651065D01*
X135603152Y-139651065D02*
X135650771Y-139555827D01*
X135650771Y-139555827D02*
X135698390Y-139508208D01*
X136269819Y-140412970D02*
X135603152Y-140412970D01*
X135269819Y-140412970D02*
X135317438Y-140365351D01*
X135317438Y-140365351D02*
X135365057Y-140412970D01*
X135365057Y-140412970D02*
X135317438Y-140460589D01*
X135317438Y-140460589D02*
X135269819Y-140412970D01*
X135269819Y-140412970D02*
X135365057Y-140412970D01*
X136222200Y-140841541D02*
X136269819Y-140936779D01*
X136269819Y-140936779D02*
X136269819Y-141127255D01*
X136269819Y-141127255D02*
X136222200Y-141222493D01*
X136222200Y-141222493D02*
X136126961Y-141270112D01*
X136126961Y-141270112D02*
X136079342Y-141270112D01*
X136079342Y-141270112D02*
X135984104Y-141222493D01*
X135984104Y-141222493D02*
X135936485Y-141127255D01*
X135936485Y-141127255D02*
X135936485Y-140984398D01*
X135936485Y-140984398D02*
X135888866Y-140889160D01*
X135888866Y-140889160D02*
X135793628Y-140841541D01*
X135793628Y-140841541D02*
X135746009Y-140841541D01*
X135746009Y-140841541D02*
X135650771Y-140889160D01*
X135650771Y-140889160D02*
X135603152Y-140984398D01*
X135603152Y-140984398D02*
X135603152Y-141127255D01*
X135603152Y-141127255D02*
X135650771Y-141222493D01*
X68206077Y-165469819D02*
X67872744Y-166469819D01*
X67872744Y-166469819D02*
X67539411Y-165469819D01*
X67206077Y-166469819D02*
X67206077Y-165469819D01*
X67206077Y-165469819D02*
X66825125Y-165469819D01*
X66825125Y-165469819D02*
X66729887Y-165517438D01*
X66729887Y-165517438D02*
X66682268Y-165565057D01*
X66682268Y-165565057D02*
X66634649Y-165660295D01*
X66634649Y-165660295D02*
X66634649Y-165803152D01*
X66634649Y-165803152D02*
X66682268Y-165898390D01*
X66682268Y-165898390D02*
X66729887Y-165946009D01*
X66729887Y-165946009D02*
X66825125Y-165993628D01*
X66825125Y-165993628D02*
X67206077Y-165993628D01*
X65634649Y-166469819D02*
X65967982Y-165993628D01*
X66206077Y-166469819D02*
X66206077Y-165469819D01*
X66206077Y-165469819D02*
X65825125Y-165469819D01*
X65825125Y-165469819D02*
X65729887Y-165517438D01*
X65729887Y-165517438D02*
X65682268Y-165565057D01*
X65682268Y-165565057D02*
X65634649Y-165660295D01*
X65634649Y-165660295D02*
X65634649Y-165803152D01*
X65634649Y-165803152D02*
X65682268Y-165898390D01*
X65682268Y-165898390D02*
X65729887Y-165946009D01*
X65729887Y-165946009D02*
X65825125Y-165993628D01*
X65825125Y-165993628D02*
X66206077Y-165993628D01*
X64682268Y-165517438D02*
X64777506Y-165469819D01*
X64777506Y-165469819D02*
X64920363Y-165469819D01*
X64920363Y-165469819D02*
X65063220Y-165517438D01*
X65063220Y-165517438D02*
X65158458Y-165612676D01*
X65158458Y-165612676D02*
X65206077Y-165707914D01*
X65206077Y-165707914D02*
X65253696Y-165898390D01*
X65253696Y-165898390D02*
X65253696Y-166041247D01*
X65253696Y-166041247D02*
X65206077Y-166231723D01*
X65206077Y-166231723D02*
X65158458Y-166326961D01*
X65158458Y-166326961D02*
X65063220Y-166422200D01*
X65063220Y-166422200D02*
X64920363Y-166469819D01*
X64920363Y-166469819D02*
X64825125Y-166469819D01*
X64825125Y-166469819D02*
X64682268Y-166422200D01*
X64682268Y-166422200D02*
X64634649Y-166374580D01*
X64634649Y-166374580D02*
X64634649Y-166041247D01*
X64634649Y-166041247D02*
X64825125Y-166041247D01*
X139710839Y-152022200D02*
X139567982Y-152069819D01*
X139567982Y-152069819D02*
X139329887Y-152069819D01*
X139329887Y-152069819D02*
X139234649Y-152022200D01*
X139234649Y-152022200D02*
X139187030Y-151974580D01*
X139187030Y-151974580D02*
X139139411Y-151879342D01*
X139139411Y-151879342D02*
X139139411Y-151784104D01*
X139139411Y-151784104D02*
X139187030Y-151688866D01*
X139187030Y-151688866D02*
X139234649Y-151641247D01*
X139234649Y-151641247D02*
X139329887Y-151593628D01*
X139329887Y-151593628D02*
X139520363Y-151546009D01*
X139520363Y-151546009D02*
X139615601Y-151498390D01*
X139615601Y-151498390D02*
X139663220Y-151450771D01*
X139663220Y-151450771D02*
X139710839Y-151355533D01*
X139710839Y-151355533D02*
X139710839Y-151260295D01*
X139710839Y-151260295D02*
X139663220Y-151165057D01*
X139663220Y-151165057D02*
X139615601Y-151117438D01*
X139615601Y-151117438D02*
X139520363Y-151069819D01*
X139520363Y-151069819D02*
X139282268Y-151069819D01*
X139282268Y-151069819D02*
X139139411Y-151117438D01*
X138567982Y-152069819D02*
X138663220Y-152022200D01*
X138663220Y-152022200D02*
X138710839Y-151974580D01*
X138710839Y-151974580D02*
X138758458Y-151879342D01*
X138758458Y-151879342D02*
X138758458Y-151593628D01*
X138758458Y-151593628D02*
X138710839Y-151498390D01*
X138710839Y-151498390D02*
X138663220Y-151450771D01*
X138663220Y-151450771D02*
X138567982Y-151403152D01*
X138567982Y-151403152D02*
X138425125Y-151403152D01*
X138425125Y-151403152D02*
X138329887Y-151450771D01*
X138329887Y-151450771D02*
X138282268Y-151498390D01*
X138282268Y-151498390D02*
X138234649Y-151593628D01*
X138234649Y-151593628D02*
X138234649Y-151879342D01*
X138234649Y-151879342D02*
X138282268Y-151974580D01*
X138282268Y-151974580D02*
X138329887Y-152022200D01*
X138329887Y-152022200D02*
X138425125Y-152069819D01*
X138425125Y-152069819D02*
X138567982Y-152069819D01*
X137377506Y-151403152D02*
X137377506Y-152069819D01*
X137806077Y-151403152D02*
X137806077Y-151926961D01*
X137806077Y-151926961D02*
X137758458Y-152022200D01*
X137758458Y-152022200D02*
X137663220Y-152069819D01*
X137663220Y-152069819D02*
X137520363Y-152069819D01*
X137520363Y-152069819D02*
X137425125Y-152022200D01*
X137425125Y-152022200D02*
X137377506Y-151974580D01*
X137044172Y-151403152D02*
X136663220Y-151403152D01*
X136901315Y-151069819D02*
X136901315Y-151926961D01*
X136901315Y-151926961D02*
X136853696Y-152022200D01*
X136853696Y-152022200D02*
X136758458Y-152069819D01*
X136758458Y-152069819D02*
X136663220Y-152069819D01*
X60310839Y-154622200D02*
X60167982Y-154669819D01*
X60167982Y-154669819D02*
X59929887Y-154669819D01*
X59929887Y-154669819D02*
X59834649Y-154622200D01*
X59834649Y-154622200D02*
X59787030Y-154574580D01*
X59787030Y-154574580D02*
X59739411Y-154479342D01*
X59739411Y-154479342D02*
X59739411Y-154384104D01*
X59739411Y-154384104D02*
X59787030Y-154288866D01*
X59787030Y-154288866D02*
X59834649Y-154241247D01*
X59834649Y-154241247D02*
X59929887Y-154193628D01*
X59929887Y-154193628D02*
X60120363Y-154146009D01*
X60120363Y-154146009D02*
X60215601Y-154098390D01*
X60215601Y-154098390D02*
X60263220Y-154050771D01*
X60263220Y-154050771D02*
X60310839Y-153955533D01*
X60310839Y-153955533D02*
X60310839Y-153860295D01*
X60310839Y-153860295D02*
X60263220Y-153765057D01*
X60263220Y-153765057D02*
X60215601Y-153717438D01*
X60215601Y-153717438D02*
X60120363Y-153669819D01*
X60120363Y-153669819D02*
X59882268Y-153669819D01*
X59882268Y-153669819D02*
X59739411Y-153717438D01*
X58739411Y-154574580D02*
X58787030Y-154622200D01*
X58787030Y-154622200D02*
X58929887Y-154669819D01*
X58929887Y-154669819D02*
X59025125Y-154669819D01*
X59025125Y-154669819D02*
X59167982Y-154622200D01*
X59167982Y-154622200D02*
X59263220Y-154526961D01*
X59263220Y-154526961D02*
X59310839Y-154431723D01*
X59310839Y-154431723D02*
X59358458Y-154241247D01*
X59358458Y-154241247D02*
X59358458Y-154098390D01*
X59358458Y-154098390D02*
X59310839Y-153907914D01*
X59310839Y-153907914D02*
X59263220Y-153812676D01*
X59263220Y-153812676D02*
X59167982Y-153717438D01*
X59167982Y-153717438D02*
X59025125Y-153669819D01*
X59025125Y-153669819D02*
X58929887Y-153669819D01*
X58929887Y-153669819D02*
X58787030Y-153717438D01*
X58787030Y-153717438D02*
X58739411Y-153765057D01*
X57834649Y-154669819D02*
X58310839Y-154669819D01*
X58310839Y-154669819D02*
X58310839Y-153669819D01*
X57501315Y-154669819D02*
X57501315Y-153669819D01*
X56929887Y-154669819D02*
X57358458Y-154098390D01*
X56929887Y-153669819D02*
X57501315Y-154241247D01*
X139710839Y-154422200D02*
X139567982Y-154469819D01*
X139567982Y-154469819D02*
X139329887Y-154469819D01*
X139329887Y-154469819D02*
X139234649Y-154422200D01*
X139234649Y-154422200D02*
X139187030Y-154374580D01*
X139187030Y-154374580D02*
X139139411Y-154279342D01*
X139139411Y-154279342D02*
X139139411Y-154184104D01*
X139139411Y-154184104D02*
X139187030Y-154088866D01*
X139187030Y-154088866D02*
X139234649Y-154041247D01*
X139234649Y-154041247D02*
X139329887Y-153993628D01*
X139329887Y-153993628D02*
X139520363Y-153946009D01*
X139520363Y-153946009D02*
X139615601Y-153898390D01*
X139615601Y-153898390D02*
X139663220Y-153850771D01*
X139663220Y-153850771D02*
X139710839Y-153755533D01*
X139710839Y-153755533D02*
X139710839Y-153660295D01*
X139710839Y-153660295D02*
X139663220Y-153565057D01*
X139663220Y-153565057D02*
X139615601Y-153517438D01*
X139615601Y-153517438D02*
X139520363Y-153469819D01*
X139520363Y-153469819D02*
X139282268Y-153469819D01*
X139282268Y-153469819D02*
X139139411Y-153517438D01*
X138139411Y-154374580D02*
X138187030Y-154422200D01*
X138187030Y-154422200D02*
X138329887Y-154469819D01*
X138329887Y-154469819D02*
X138425125Y-154469819D01*
X138425125Y-154469819D02*
X138567982Y-154422200D01*
X138567982Y-154422200D02*
X138663220Y-154326961D01*
X138663220Y-154326961D02*
X138710839Y-154231723D01*
X138710839Y-154231723D02*
X138758458Y-154041247D01*
X138758458Y-154041247D02*
X138758458Y-153898390D01*
X138758458Y-153898390D02*
X138710839Y-153707914D01*
X138710839Y-153707914D02*
X138663220Y-153612676D01*
X138663220Y-153612676D02*
X138567982Y-153517438D01*
X138567982Y-153517438D02*
X138425125Y-153469819D01*
X138425125Y-153469819D02*
X138329887Y-153469819D01*
X138329887Y-153469819D02*
X138187030Y-153517438D01*
X138187030Y-153517438D02*
X138139411Y-153565057D01*
X137234649Y-154469819D02*
X137710839Y-154469819D01*
X137710839Y-154469819D02*
X137710839Y-153469819D01*
X136901315Y-154469819D02*
X136901315Y-153469819D01*
X136329887Y-154469819D02*
X136758458Y-153898390D01*
X136329887Y-153469819D02*
X136901315Y-154041247D01*
X58939411Y-163917438D02*
X59034649Y-163869819D01*
X59034649Y-163869819D02*
X59177506Y-163869819D01*
X59177506Y-163869819D02*
X59320363Y-163917438D01*
X59320363Y-163917438D02*
X59415601Y-164012676D01*
X59415601Y-164012676D02*
X59463220Y-164107914D01*
X59463220Y-164107914D02*
X59510839Y-164298390D01*
X59510839Y-164298390D02*
X59510839Y-164441247D01*
X59510839Y-164441247D02*
X59463220Y-164631723D01*
X59463220Y-164631723D02*
X59415601Y-164726961D01*
X59415601Y-164726961D02*
X59320363Y-164822200D01*
X59320363Y-164822200D02*
X59177506Y-164869819D01*
X59177506Y-164869819D02*
X59082268Y-164869819D01*
X59082268Y-164869819D02*
X58939411Y-164822200D01*
X58939411Y-164822200D02*
X58891792Y-164774580D01*
X58891792Y-164774580D02*
X58891792Y-164441247D01*
X58891792Y-164441247D02*
X59082268Y-164441247D01*
X58463220Y-164869819D02*
X58463220Y-163869819D01*
X58463220Y-163869819D02*
X57891792Y-164869819D01*
X57891792Y-164869819D02*
X57891792Y-163869819D01*
X57415601Y-164869819D02*
X57415601Y-163869819D01*
X57415601Y-163869819D02*
X57177506Y-163869819D01*
X57177506Y-163869819D02*
X57034649Y-163917438D01*
X57034649Y-163917438D02*
X56939411Y-164012676D01*
X56939411Y-164012676D02*
X56891792Y-164107914D01*
X56891792Y-164107914D02*
X56844173Y-164298390D01*
X56844173Y-164298390D02*
X56844173Y-164441247D01*
X56844173Y-164441247D02*
X56891792Y-164631723D01*
X56891792Y-164631723D02*
X56939411Y-164726961D01*
X56939411Y-164726961D02*
X57034649Y-164822200D01*
X57034649Y-164822200D02*
X57177506Y-164869819D01*
X57177506Y-164869819D02*
X57415601Y-164869819D01*
X59463220Y-156888866D02*
X58701316Y-156888866D01*
X59082268Y-157269819D02*
X59082268Y-156507914D01*
X57748935Y-156269819D02*
X58225125Y-156269819D01*
X58225125Y-156269819D02*
X58272744Y-156746009D01*
X58272744Y-156746009D02*
X58225125Y-156698390D01*
X58225125Y-156698390D02*
X58129887Y-156650771D01*
X58129887Y-156650771D02*
X57891792Y-156650771D01*
X57891792Y-156650771D02*
X57796554Y-156698390D01*
X57796554Y-156698390D02*
X57748935Y-156746009D01*
X57748935Y-156746009D02*
X57701316Y-156841247D01*
X57701316Y-156841247D02*
X57701316Y-157079342D01*
X57701316Y-157079342D02*
X57748935Y-157174580D01*
X57748935Y-157174580D02*
X57796554Y-157222200D01*
X57796554Y-157222200D02*
X57891792Y-157269819D01*
X57891792Y-157269819D02*
X58129887Y-157269819D01*
X58129887Y-157269819D02*
X58225125Y-157222200D01*
X58225125Y-157222200D02*
X58272744Y-157174580D01*
X57415601Y-156269819D02*
X57082268Y-157269819D01*
X57082268Y-157269819D02*
X56748935Y-156269819D01*
X58739411Y-158917438D02*
X58834649Y-158869819D01*
X58834649Y-158869819D02*
X58977506Y-158869819D01*
X58977506Y-158869819D02*
X59120363Y-158917438D01*
X59120363Y-158917438D02*
X59215601Y-159012676D01*
X59215601Y-159012676D02*
X59263220Y-159107914D01*
X59263220Y-159107914D02*
X59310839Y-159298390D01*
X59310839Y-159298390D02*
X59310839Y-159441247D01*
X59310839Y-159441247D02*
X59263220Y-159631723D01*
X59263220Y-159631723D02*
X59215601Y-159726961D01*
X59215601Y-159726961D02*
X59120363Y-159822200D01*
X59120363Y-159822200D02*
X58977506Y-159869819D01*
X58977506Y-159869819D02*
X58882268Y-159869819D01*
X58882268Y-159869819D02*
X58739411Y-159822200D01*
X58739411Y-159822200D02*
X58691792Y-159774580D01*
X58691792Y-159774580D02*
X58691792Y-159441247D01*
X58691792Y-159441247D02*
X58882268Y-159441247D01*
X58263220Y-159869819D02*
X58263220Y-158869819D01*
X58263220Y-158869819D02*
X57691792Y-159869819D01*
X57691792Y-159869819D02*
X57691792Y-158869819D01*
X57215601Y-159869819D02*
X57215601Y-158869819D01*
X57215601Y-158869819D02*
X56977506Y-158869819D01*
X56977506Y-158869819D02*
X56834649Y-158917438D01*
X56834649Y-158917438D02*
X56739411Y-159012676D01*
X56739411Y-159012676D02*
X56691792Y-159107914D01*
X56691792Y-159107914D02*
X56644173Y-159298390D01*
X56644173Y-159298390D02*
X56644173Y-159441247D01*
X56644173Y-159441247D02*
X56691792Y-159631723D01*
X56691792Y-159631723D02*
X56739411Y-159726961D01*
X56739411Y-159726961D02*
X56834649Y-159822200D01*
X56834649Y-159822200D02*
X56977506Y-159869819D01*
X56977506Y-159869819D02*
X57215601Y-159869819D01*
X139958458Y-146069819D02*
X139291792Y-147069819D01*
X139291792Y-146069819D02*
X139958458Y-147069819D01*
X138434649Y-147069819D02*
X138910839Y-147069819D01*
X138910839Y-147069819D02*
X138910839Y-146069819D01*
X138148934Y-146784104D02*
X137672744Y-146784104D01*
X138244172Y-147069819D02*
X137910839Y-146069819D01*
X137910839Y-146069819D02*
X137577506Y-147069819D01*
X137387029Y-146069819D02*
X136815601Y-146069819D01*
X137101315Y-147069819D02*
X137101315Y-146069819D01*
X133688866Y-147936779D02*
X133688866Y-148698684D01*
X134069819Y-148317731D02*
X133307914Y-148317731D01*
X133022200Y-149889159D02*
X134307914Y-149032017D01*
X133688866Y-150222493D02*
X133688866Y-150984398D01*
X126463220Y-126069819D02*
X126463220Y-125069819D01*
X125987030Y-126069819D02*
X125987030Y-125069819D01*
X125987030Y-125069819D02*
X125415602Y-126069819D01*
X125415602Y-126069819D02*
X125415602Y-125069819D01*
X124939411Y-126069819D02*
X124939411Y-125069819D01*
X124939411Y-125069819D02*
X124558459Y-125069819D01*
X124558459Y-125069819D02*
X124463221Y-125117438D01*
X124463221Y-125117438D02*
X124415602Y-125165057D01*
X124415602Y-125165057D02*
X124367983Y-125260295D01*
X124367983Y-125260295D02*
X124367983Y-125403152D01*
X124367983Y-125403152D02*
X124415602Y-125498390D01*
X124415602Y-125498390D02*
X124463221Y-125546009D01*
X124463221Y-125546009D02*
X124558459Y-125593628D01*
X124558459Y-125593628D02*
X124939411Y-125593628D01*
X123939411Y-125069819D02*
X123939411Y-125879342D01*
X123939411Y-125879342D02*
X123891792Y-125974580D01*
X123891792Y-125974580D02*
X123844173Y-126022200D01*
X123844173Y-126022200D02*
X123748935Y-126069819D01*
X123748935Y-126069819D02*
X123558459Y-126069819D01*
X123558459Y-126069819D02*
X123463221Y-126022200D01*
X123463221Y-126022200D02*
X123415602Y-125974580D01*
X123415602Y-125974580D02*
X123367983Y-125879342D01*
X123367983Y-125879342D02*
X123367983Y-125069819D01*
X123034649Y-125069819D02*
X122463221Y-125069819D01*
X122748935Y-126069819D02*
X122748935Y-125069819D01*
X122177506Y-126022200D02*
X122034649Y-126069819D01*
X122034649Y-126069819D02*
X121796554Y-126069819D01*
X121796554Y-126069819D02*
X121701316Y-126022200D01*
X121701316Y-126022200D02*
X121653697Y-125974580D01*
X121653697Y-125974580D02*
X121606078Y-125879342D01*
X121606078Y-125879342D02*
X121606078Y-125784104D01*
X121606078Y-125784104D02*
X121653697Y-125688866D01*
X121653697Y-125688866D02*
X121701316Y-125641247D01*
X121701316Y-125641247D02*
X121796554Y-125593628D01*
X121796554Y-125593628D02*
X121987030Y-125546009D01*
X121987030Y-125546009D02*
X122082268Y-125498390D01*
X122082268Y-125498390D02*
X122129887Y-125450771D01*
X122129887Y-125450771D02*
X122177506Y-125355533D01*
X122177506Y-125355533D02*
X122177506Y-125260295D01*
X122177506Y-125260295D02*
X122129887Y-125165057D01*
X122129887Y-125165057D02*
X122082268Y-125117438D01*
X122082268Y-125117438D02*
X121987030Y-125069819D01*
X121987030Y-125069819D02*
X121748935Y-125069819D01*
X121748935Y-125069819D02*
X121606078Y-125117438D01*
X60529887Y-149146009D02*
X60387030Y-149193628D01*
X60387030Y-149193628D02*
X60339411Y-149241247D01*
X60339411Y-149241247D02*
X60291792Y-149336485D01*
X60291792Y-149336485D02*
X60291792Y-149479342D01*
X60291792Y-149479342D02*
X60339411Y-149574580D01*
X60339411Y-149574580D02*
X60387030Y-149622200D01*
X60387030Y-149622200D02*
X60482268Y-149669819D01*
X60482268Y-149669819D02*
X60863220Y-149669819D01*
X60863220Y-149669819D02*
X60863220Y-148669819D01*
X60863220Y-148669819D02*
X60529887Y-148669819D01*
X60529887Y-148669819D02*
X60434649Y-148717438D01*
X60434649Y-148717438D02*
X60387030Y-148765057D01*
X60387030Y-148765057D02*
X60339411Y-148860295D01*
X60339411Y-148860295D02*
X60339411Y-148955533D01*
X60339411Y-148955533D02*
X60387030Y-149050771D01*
X60387030Y-149050771D02*
X60434649Y-149098390D01*
X60434649Y-149098390D02*
X60529887Y-149146009D01*
X60529887Y-149146009D02*
X60863220Y-149146009D01*
X59387030Y-149669819D02*
X59863220Y-149669819D01*
X59863220Y-149669819D02*
X59863220Y-148669819D01*
X59101315Y-149384104D02*
X58625125Y-149384104D01*
X59196553Y-149669819D02*
X58863220Y-148669819D01*
X58863220Y-148669819D02*
X58529887Y-149669819D01*
X58196553Y-149669819D02*
X58196553Y-148669819D01*
X58196553Y-148669819D02*
X57625125Y-149669819D01*
X57625125Y-149669819D02*
X57625125Y-148669819D01*
X57148934Y-149669819D02*
X57148934Y-148669819D01*
X56577506Y-149669819D02*
X57006077Y-149098390D01*
X56577506Y-148669819D02*
X57148934Y-149241247D01*
X128263220Y-140288866D02*
X127501316Y-140288866D01*
X68158458Y-162669819D02*
X67491792Y-163669819D01*
X67491792Y-162669819D02*
X68158458Y-163669819D01*
X67110839Y-163146009D02*
X66777506Y-163146009D01*
X66634649Y-163669819D02*
X67110839Y-163669819D01*
X67110839Y-163669819D02*
X67110839Y-162669819D01*
X67110839Y-162669819D02*
X66634649Y-162669819D01*
X65634649Y-163669819D02*
X65967982Y-163193628D01*
X66206077Y-163669819D02*
X66206077Y-162669819D01*
X66206077Y-162669819D02*
X65825125Y-162669819D01*
X65825125Y-162669819D02*
X65729887Y-162717438D01*
X65729887Y-162717438D02*
X65682268Y-162765057D01*
X65682268Y-162765057D02*
X65634649Y-162860295D01*
X65634649Y-162860295D02*
X65634649Y-163003152D01*
X65634649Y-163003152D02*
X65682268Y-163098390D01*
X65682268Y-163098390D02*
X65729887Y-163146009D01*
X65729887Y-163146009D02*
X65825125Y-163193628D01*
X65825125Y-163193628D02*
X66206077Y-163193628D01*
X64634649Y-163669819D02*
X64967982Y-163193628D01*
X65206077Y-163669819D02*
X65206077Y-162669819D01*
X65206077Y-162669819D02*
X64825125Y-162669819D01*
X64825125Y-162669819D02*
X64729887Y-162717438D01*
X64729887Y-162717438D02*
X64682268Y-162765057D01*
X64682268Y-162765057D02*
X64634649Y-162860295D01*
X64634649Y-162860295D02*
X64634649Y-163003152D01*
X64634649Y-163003152D02*
X64682268Y-163098390D01*
X64682268Y-163098390D02*
X64729887Y-163146009D01*
X64729887Y-163146009D02*
X64825125Y-163193628D01*
X64825125Y-163193628D02*
X65206077Y-163193628D01*
X136663220Y-148288866D02*
X135901316Y-148288866D01*
X136282268Y-148669819D02*
X136282268Y-147907914D01*
X59758458Y-145869819D02*
X59091792Y-146869819D01*
X59091792Y-145869819D02*
X59758458Y-146869819D01*
X58234649Y-146869819D02*
X58710839Y-146869819D01*
X58710839Y-146869819D02*
X58710839Y-145869819D01*
X57948934Y-146584104D02*
X57472744Y-146584104D01*
X58044172Y-146869819D02*
X57710839Y-145869819D01*
X57710839Y-145869819D02*
X57377506Y-146869819D01*
X57187029Y-145869819D02*
X56615601Y-145869819D01*
X56901315Y-146869819D02*
X56901315Y-145869819D01*
X59663220Y-167688866D02*
X58901316Y-167688866D01*
X59282268Y-168069819D02*
X59282268Y-167307914D01*
X57948935Y-167069819D02*
X58425125Y-167069819D01*
X58425125Y-167069819D02*
X58472744Y-167546009D01*
X58472744Y-167546009D02*
X58425125Y-167498390D01*
X58425125Y-167498390D02*
X58329887Y-167450771D01*
X58329887Y-167450771D02*
X58091792Y-167450771D01*
X58091792Y-167450771D02*
X57996554Y-167498390D01*
X57996554Y-167498390D02*
X57948935Y-167546009D01*
X57948935Y-167546009D02*
X57901316Y-167641247D01*
X57901316Y-167641247D02*
X57901316Y-167879342D01*
X57901316Y-167879342D02*
X57948935Y-167974580D01*
X57948935Y-167974580D02*
X57996554Y-168022200D01*
X57996554Y-168022200D02*
X58091792Y-168069819D01*
X58091792Y-168069819D02*
X58329887Y-168069819D01*
X58329887Y-168069819D02*
X58425125Y-168022200D01*
X58425125Y-168022200D02*
X58472744Y-167974580D01*
X57615601Y-167069819D02*
X57282268Y-168069819D01*
X57282268Y-168069819D02*
X56948935Y-167069819D01*
X139663220Y-156688866D02*
X138901316Y-156688866D01*
X139282268Y-157069819D02*
X139282268Y-156307914D01*
X137948935Y-156069819D02*
X138425125Y-156069819D01*
X138425125Y-156069819D02*
X138472744Y-156546009D01*
X138472744Y-156546009D02*
X138425125Y-156498390D01*
X138425125Y-156498390D02*
X138329887Y-156450771D01*
X138329887Y-156450771D02*
X138091792Y-156450771D01*
X138091792Y-156450771D02*
X137996554Y-156498390D01*
X137996554Y-156498390D02*
X137948935Y-156546009D01*
X137948935Y-156546009D02*
X137901316Y-156641247D01*
X137901316Y-156641247D02*
X137901316Y-156879342D01*
X137901316Y-156879342D02*
X137948935Y-156974580D01*
X137948935Y-156974580D02*
X137996554Y-157022200D01*
X137996554Y-157022200D02*
X138091792Y-157069819D01*
X138091792Y-157069819D02*
X138329887Y-157069819D01*
X138329887Y-157069819D02*
X138425125Y-157022200D01*
X138425125Y-157022200D02*
X138472744Y-156974580D01*
X137615601Y-156069819D02*
X137282268Y-157069819D01*
X137282268Y-157069819D02*
X136948935Y-156069819D01*
X95872744Y-116469819D02*
X95682268Y-116469819D01*
X95682268Y-116469819D02*
X95587030Y-116517438D01*
X95587030Y-116517438D02*
X95491792Y-116612676D01*
X95491792Y-116612676D02*
X95444173Y-116803152D01*
X95444173Y-116803152D02*
X95444173Y-117136485D01*
X95444173Y-117136485D02*
X95491792Y-117326961D01*
X95491792Y-117326961D02*
X95587030Y-117422200D01*
X95587030Y-117422200D02*
X95682268Y-117469819D01*
X95682268Y-117469819D02*
X95872744Y-117469819D01*
X95872744Y-117469819D02*
X95967982Y-117422200D01*
X95967982Y-117422200D02*
X96063220Y-117326961D01*
X96063220Y-117326961D02*
X96110839Y-117136485D01*
X96110839Y-117136485D02*
X96110839Y-116803152D01*
X96110839Y-116803152D02*
X96063220Y-116612676D01*
X96063220Y-116612676D02*
X95967982Y-116517438D01*
X95967982Y-116517438D02*
X95872744Y-116469819D01*
X95015601Y-116469819D02*
X95015601Y-117279342D01*
X95015601Y-117279342D02*
X94967982Y-117374580D01*
X94967982Y-117374580D02*
X94920363Y-117422200D01*
X94920363Y-117422200D02*
X94825125Y-117469819D01*
X94825125Y-117469819D02*
X94634649Y-117469819D01*
X94634649Y-117469819D02*
X94539411Y-117422200D01*
X94539411Y-117422200D02*
X94491792Y-117374580D01*
X94491792Y-117374580D02*
X94444173Y-117279342D01*
X94444173Y-117279342D02*
X94444173Y-116469819D01*
X94110839Y-116469819D02*
X93539411Y-116469819D01*
X93825125Y-117469819D02*
X93825125Y-116469819D01*
X93206077Y-117469819D02*
X93206077Y-116469819D01*
X93206077Y-116469819D02*
X92825125Y-116469819D01*
X92825125Y-116469819D02*
X92729887Y-116517438D01*
X92729887Y-116517438D02*
X92682268Y-116565057D01*
X92682268Y-116565057D02*
X92634649Y-116660295D01*
X92634649Y-116660295D02*
X92634649Y-116803152D01*
X92634649Y-116803152D02*
X92682268Y-116898390D01*
X92682268Y-116898390D02*
X92729887Y-116946009D01*
X92729887Y-116946009D02*
X92825125Y-116993628D01*
X92825125Y-116993628D02*
X93206077Y-116993628D01*
X92206077Y-116469819D02*
X92206077Y-117279342D01*
X92206077Y-117279342D02*
X92158458Y-117374580D01*
X92158458Y-117374580D02*
X92110839Y-117422200D01*
X92110839Y-117422200D02*
X92015601Y-117469819D01*
X92015601Y-117469819D02*
X91825125Y-117469819D01*
X91825125Y-117469819D02*
X91729887Y-117422200D01*
X91729887Y-117422200D02*
X91682268Y-117374580D01*
X91682268Y-117374580D02*
X91634649Y-117279342D01*
X91634649Y-117279342D02*
X91634649Y-116469819D01*
X91301315Y-116469819D02*
X90729887Y-116469819D01*
X91015601Y-117469819D02*
X91015601Y-116469819D01*
X89729886Y-117469819D02*
X89206077Y-116803152D01*
X89729886Y-116803152D02*
X89206077Y-117469819D01*
X87539410Y-117469819D02*
X88110838Y-117469819D01*
X87825124Y-117469819D02*
X87825124Y-116469819D01*
X87825124Y-116469819D02*
X87920362Y-116612676D01*
X87920362Y-116612676D02*
X88015600Y-116707914D01*
X88015600Y-116707914D02*
X88110838Y-116755533D01*
X86682267Y-116469819D02*
X86872743Y-116469819D01*
X86872743Y-116469819D02*
X86967981Y-116517438D01*
X86967981Y-116517438D02*
X87015600Y-116565057D01*
X87015600Y-116565057D02*
X87110838Y-116707914D01*
X87110838Y-116707914D02*
X87158457Y-116898390D01*
X87158457Y-116898390D02*
X87158457Y-117279342D01*
X87158457Y-117279342D02*
X87110838Y-117374580D01*
X87110838Y-117374580D02*
X87063219Y-117422200D01*
X87063219Y-117422200D02*
X86967981Y-117469819D01*
X86967981Y-117469819D02*
X86777505Y-117469819D01*
X86777505Y-117469819D02*
X86682267Y-117422200D01*
X86682267Y-117422200D02*
X86634648Y-117374580D01*
X86634648Y-117374580D02*
X86587029Y-117279342D01*
X86587029Y-117279342D02*
X86587029Y-117041247D01*
X86587029Y-117041247D02*
X86634648Y-116946009D01*
X86634648Y-116946009D02*
X86682267Y-116898390D01*
X86682267Y-116898390D02*
X86777505Y-116850771D01*
X86777505Y-116850771D02*
X86967981Y-116850771D01*
X86967981Y-116850771D02*
X87063219Y-116898390D01*
X87063219Y-116898390D02*
X87110838Y-116946009D01*
X87110838Y-116946009D02*
X87158457Y-117041247D01*
X84510839Y-125894104D02*
X84034649Y-125894104D01*
X84606077Y-126179819D02*
X84272744Y-125179819D01*
X84272744Y-125179819D02*
X83939411Y-126179819D01*
X83606077Y-125513152D02*
X83606077Y-126179819D01*
X83606077Y-125608390D02*
X83558458Y-125560771D01*
X83558458Y-125560771D02*
X83463220Y-125513152D01*
X83463220Y-125513152D02*
X83320363Y-125513152D01*
X83320363Y-125513152D02*
X83225125Y-125560771D01*
X83225125Y-125560771D02*
X83177506Y-125656009D01*
X83177506Y-125656009D02*
X83177506Y-126179819D01*
X82272744Y-126179819D02*
X82272744Y-125656009D01*
X82272744Y-125656009D02*
X82320363Y-125560771D01*
X82320363Y-125560771D02*
X82415601Y-125513152D01*
X82415601Y-125513152D02*
X82606077Y-125513152D01*
X82606077Y-125513152D02*
X82701315Y-125560771D01*
X82272744Y-126132200D02*
X82367982Y-126179819D01*
X82367982Y-126179819D02*
X82606077Y-126179819D01*
X82606077Y-126179819D02*
X82701315Y-126132200D01*
X82701315Y-126132200D02*
X82748934Y-126036961D01*
X82748934Y-126036961D02*
X82748934Y-125941723D01*
X82748934Y-125941723D02*
X82701315Y-125846485D01*
X82701315Y-125846485D02*
X82606077Y-125798866D01*
X82606077Y-125798866D02*
X82367982Y-125798866D01*
X82367982Y-125798866D02*
X82272744Y-125751247D01*
X81653696Y-126179819D02*
X81748934Y-126132200D01*
X81748934Y-126132200D02*
X81796553Y-126036961D01*
X81796553Y-126036961D02*
X81796553Y-125179819D01*
X81129886Y-126179819D02*
X81225124Y-126132200D01*
X81225124Y-126132200D02*
X81272743Y-126084580D01*
X81272743Y-126084580D02*
X81320362Y-125989342D01*
X81320362Y-125989342D02*
X81320362Y-125703628D01*
X81320362Y-125703628D02*
X81272743Y-125608390D01*
X81272743Y-125608390D02*
X81225124Y-125560771D01*
X81225124Y-125560771D02*
X81129886Y-125513152D01*
X81129886Y-125513152D02*
X80987029Y-125513152D01*
X80987029Y-125513152D02*
X80891791Y-125560771D01*
X80891791Y-125560771D02*
X80844172Y-125608390D01*
X80844172Y-125608390D02*
X80796553Y-125703628D01*
X80796553Y-125703628D02*
X80796553Y-125989342D01*
X80796553Y-125989342D02*
X80844172Y-126084580D01*
X80844172Y-126084580D02*
X80891791Y-126132200D01*
X80891791Y-126132200D02*
X80987029Y-126179819D01*
X80987029Y-126179819D02*
X81129886Y-126179819D01*
X79939410Y-125513152D02*
X79939410Y-126322676D01*
X79939410Y-126322676D02*
X79987029Y-126417914D01*
X79987029Y-126417914D02*
X80034648Y-126465533D01*
X80034648Y-126465533D02*
X80129886Y-126513152D01*
X80129886Y-126513152D02*
X80272743Y-126513152D01*
X80272743Y-126513152D02*
X80367981Y-126465533D01*
X79939410Y-126132200D02*
X80034648Y-126179819D01*
X80034648Y-126179819D02*
X80225124Y-126179819D01*
X80225124Y-126179819D02*
X80320362Y-126132200D01*
X80320362Y-126132200D02*
X80367981Y-126084580D01*
X80367981Y-126084580D02*
X80415600Y-125989342D01*
X80415600Y-125989342D02*
X80415600Y-125703628D01*
X80415600Y-125703628D02*
X80367981Y-125608390D01*
X80367981Y-125608390D02*
X80320362Y-125560771D01*
X80320362Y-125560771D02*
X80225124Y-125513152D01*
X80225124Y-125513152D02*
X80034648Y-125513152D01*
X80034648Y-125513152D02*
X79939410Y-125560771D01*
X79034648Y-125513152D02*
X79034648Y-126179819D01*
X79463219Y-125513152D02*
X79463219Y-126036961D01*
X79463219Y-126036961D02*
X79415600Y-126132200D01*
X79415600Y-126132200D02*
X79320362Y-126179819D01*
X79320362Y-126179819D02*
X79177505Y-126179819D01*
X79177505Y-126179819D02*
X79082267Y-126132200D01*
X79082267Y-126132200D02*
X79034648Y-126084580D01*
X78177505Y-126132200D02*
X78272743Y-126179819D01*
X78272743Y-126179819D02*
X78463219Y-126179819D01*
X78463219Y-126179819D02*
X78558457Y-126132200D01*
X78558457Y-126132200D02*
X78606076Y-126036961D01*
X78606076Y-126036961D02*
X78606076Y-125656009D01*
X78606076Y-125656009D02*
X78558457Y-125560771D01*
X78558457Y-125560771D02*
X78463219Y-125513152D01*
X78463219Y-125513152D02*
X78272743Y-125513152D01*
X78272743Y-125513152D02*
X78177505Y-125560771D01*
X78177505Y-125560771D02*
X78129886Y-125656009D01*
X78129886Y-125656009D02*
X78129886Y-125751247D01*
X78129886Y-125751247D02*
X78606076Y-125846485D01*
X76987028Y-125894104D02*
X76510838Y-125894104D01*
X77082266Y-126179819D02*
X76748933Y-125179819D01*
X76748933Y-125179819D02*
X76415600Y-126179819D01*
X76082266Y-126179819D02*
X76082266Y-125513152D01*
X76082266Y-125703628D02*
X76034647Y-125608390D01*
X76034647Y-125608390D02*
X75987028Y-125560771D01*
X75987028Y-125560771D02*
X75891790Y-125513152D01*
X75891790Y-125513152D02*
X75796552Y-125513152D01*
X75606075Y-125513152D02*
X75225123Y-125513152D01*
X75463218Y-125179819D02*
X75463218Y-126036961D01*
X75463218Y-126036961D02*
X75415599Y-126132200D01*
X75415599Y-126132200D02*
X75320361Y-126179819D01*
X75320361Y-126179819D02*
X75225123Y-126179819D01*
X74891789Y-126179819D02*
X74891789Y-125513152D01*
X74891789Y-125179819D02*
X74939408Y-125227438D01*
X74939408Y-125227438D02*
X74891789Y-125275057D01*
X74891789Y-125275057D02*
X74844170Y-125227438D01*
X74844170Y-125227438D02*
X74891789Y-125179819D01*
X74891789Y-125179819D02*
X74891789Y-125275057D01*
X74558456Y-125513152D02*
X74177504Y-125513152D01*
X74415599Y-126179819D02*
X74415599Y-125322676D01*
X74415599Y-125322676D02*
X74367980Y-125227438D01*
X74367980Y-125227438D02*
X74272742Y-125179819D01*
X74272742Y-125179819D02*
X74177504Y-125179819D01*
X73844170Y-126179819D02*
X73844170Y-125513152D01*
X73844170Y-125179819D02*
X73891789Y-125227438D01*
X73891789Y-125227438D02*
X73844170Y-125275057D01*
X73844170Y-125275057D02*
X73796551Y-125227438D01*
X73796551Y-125227438D02*
X73844170Y-125179819D01*
X73844170Y-125179819D02*
X73844170Y-125275057D01*
X72939409Y-126132200D02*
X73034647Y-126179819D01*
X73034647Y-126179819D02*
X73225123Y-126179819D01*
X73225123Y-126179819D02*
X73320361Y-126132200D01*
X73320361Y-126132200D02*
X73367980Y-126084580D01*
X73367980Y-126084580D02*
X73415599Y-125989342D01*
X73415599Y-125989342D02*
X73415599Y-125703628D01*
X73415599Y-125703628D02*
X73367980Y-125608390D01*
X73367980Y-125608390D02*
X73320361Y-125560771D01*
X73320361Y-125560771D02*
X73225123Y-125513152D01*
X73225123Y-125513152D02*
X73034647Y-125513152D01*
X73034647Y-125513152D02*
X72939409Y-125560771D01*
X72510837Y-126179819D02*
X72510837Y-125513152D01*
X72510837Y-125179819D02*
X72558456Y-125227438D01*
X72558456Y-125227438D02*
X72510837Y-125275057D01*
X72510837Y-125275057D02*
X72463218Y-125227438D01*
X72463218Y-125227438D02*
X72510837Y-125179819D01*
X72510837Y-125179819D02*
X72510837Y-125275057D01*
X71606076Y-126179819D02*
X71606076Y-125656009D01*
X71606076Y-125656009D02*
X71653695Y-125560771D01*
X71653695Y-125560771D02*
X71748933Y-125513152D01*
X71748933Y-125513152D02*
X71939409Y-125513152D01*
X71939409Y-125513152D02*
X72034647Y-125560771D01*
X71606076Y-126132200D02*
X71701314Y-126179819D01*
X71701314Y-126179819D02*
X71939409Y-126179819D01*
X71939409Y-126179819D02*
X72034647Y-126132200D01*
X72034647Y-126132200D02*
X72082266Y-126036961D01*
X72082266Y-126036961D02*
X72082266Y-125941723D01*
X72082266Y-125941723D02*
X72034647Y-125846485D01*
X72034647Y-125846485D02*
X71939409Y-125798866D01*
X71939409Y-125798866D02*
X71701314Y-125798866D01*
X71701314Y-125798866D02*
X71606076Y-125751247D01*
X70987028Y-126179819D02*
X71082266Y-126132200D01*
X71082266Y-126132200D02*
X71129885Y-126036961D01*
X71129885Y-126036961D02*
X71129885Y-125179819D01*
X69844170Y-126179819D02*
X69844170Y-125179819D01*
X69844170Y-125179819D02*
X69272742Y-126179819D01*
X69272742Y-126179819D02*
X69272742Y-125179819D01*
X68415599Y-126132200D02*
X68510837Y-126179819D01*
X68510837Y-126179819D02*
X68701313Y-126179819D01*
X68701313Y-126179819D02*
X68796551Y-126132200D01*
X68796551Y-126132200D02*
X68844170Y-126036961D01*
X68844170Y-126036961D02*
X68844170Y-125656009D01*
X68844170Y-125656009D02*
X68796551Y-125560771D01*
X68796551Y-125560771D02*
X68701313Y-125513152D01*
X68701313Y-125513152D02*
X68510837Y-125513152D01*
X68510837Y-125513152D02*
X68415599Y-125560771D01*
X68415599Y-125560771D02*
X68367980Y-125656009D01*
X68367980Y-125656009D02*
X68367980Y-125751247D01*
X68367980Y-125751247D02*
X68844170Y-125846485D01*
X67510837Y-125513152D02*
X67510837Y-126179819D01*
X67939408Y-125513152D02*
X67939408Y-126036961D01*
X67939408Y-126036961D02*
X67891789Y-126132200D01*
X67891789Y-126132200D02*
X67796551Y-126179819D01*
X67796551Y-126179819D02*
X67653694Y-126179819D01*
X67653694Y-126179819D02*
X67558456Y-126132200D01*
X67558456Y-126132200D02*
X67510837Y-126084580D01*
X67034646Y-126179819D02*
X67034646Y-125513152D01*
X67034646Y-125703628D02*
X66987027Y-125608390D01*
X66987027Y-125608390D02*
X66939408Y-125560771D01*
X66939408Y-125560771D02*
X66844170Y-125513152D01*
X66844170Y-125513152D02*
X66748932Y-125513152D01*
X65987027Y-126179819D02*
X65987027Y-125656009D01*
X65987027Y-125656009D02*
X66034646Y-125560771D01*
X66034646Y-125560771D02*
X66129884Y-125513152D01*
X66129884Y-125513152D02*
X66320360Y-125513152D01*
X66320360Y-125513152D02*
X66415598Y-125560771D01*
X65987027Y-126132200D02*
X66082265Y-126179819D01*
X66082265Y-126179819D02*
X66320360Y-126179819D01*
X66320360Y-126179819D02*
X66415598Y-126132200D01*
X66415598Y-126132200D02*
X66463217Y-126036961D01*
X66463217Y-126036961D02*
X66463217Y-125941723D01*
X66463217Y-125941723D02*
X66415598Y-125846485D01*
X66415598Y-125846485D02*
X66320360Y-125798866D01*
X66320360Y-125798866D02*
X66082265Y-125798866D01*
X66082265Y-125798866D02*
X65987027Y-125751247D01*
X65367979Y-126179819D02*
X65463217Y-126132200D01*
X65463217Y-126132200D02*
X65510836Y-126036961D01*
X65510836Y-126036961D02*
X65510836Y-125179819D01*
X84463220Y-127789819D02*
X84463220Y-126789819D01*
X84463220Y-126789819D02*
X83891792Y-127789819D01*
X83891792Y-127789819D02*
X83891792Y-126789819D01*
X83034649Y-127742200D02*
X83129887Y-127789819D01*
X83129887Y-127789819D02*
X83320363Y-127789819D01*
X83320363Y-127789819D02*
X83415601Y-127742200D01*
X83415601Y-127742200D02*
X83463220Y-127646961D01*
X83463220Y-127646961D02*
X83463220Y-127266009D01*
X83463220Y-127266009D02*
X83415601Y-127170771D01*
X83415601Y-127170771D02*
X83320363Y-127123152D01*
X83320363Y-127123152D02*
X83129887Y-127123152D01*
X83129887Y-127123152D02*
X83034649Y-127170771D01*
X83034649Y-127170771D02*
X82987030Y-127266009D01*
X82987030Y-127266009D02*
X82987030Y-127361247D01*
X82987030Y-127361247D02*
X83463220Y-127456485D01*
X82701315Y-127123152D02*
X82320363Y-127123152D01*
X82558458Y-126789819D02*
X82558458Y-127646961D01*
X82558458Y-127646961D02*
X82510839Y-127742200D01*
X82510839Y-127742200D02*
X82415601Y-127789819D01*
X82415601Y-127789819D02*
X82320363Y-127789819D01*
X82082267Y-127123152D02*
X81891791Y-127789819D01*
X81891791Y-127789819D02*
X81701315Y-127313628D01*
X81701315Y-127313628D02*
X81510839Y-127789819D01*
X81510839Y-127789819D02*
X81320363Y-127123152D01*
X80796553Y-127789819D02*
X80891791Y-127742200D01*
X80891791Y-127742200D02*
X80939410Y-127694580D01*
X80939410Y-127694580D02*
X80987029Y-127599342D01*
X80987029Y-127599342D02*
X80987029Y-127313628D01*
X80987029Y-127313628D02*
X80939410Y-127218390D01*
X80939410Y-127218390D02*
X80891791Y-127170771D01*
X80891791Y-127170771D02*
X80796553Y-127123152D01*
X80796553Y-127123152D02*
X80653696Y-127123152D01*
X80653696Y-127123152D02*
X80558458Y-127170771D01*
X80558458Y-127170771D02*
X80510839Y-127218390D01*
X80510839Y-127218390D02*
X80463220Y-127313628D01*
X80463220Y-127313628D02*
X80463220Y-127599342D01*
X80463220Y-127599342D02*
X80510839Y-127694580D01*
X80510839Y-127694580D02*
X80558458Y-127742200D01*
X80558458Y-127742200D02*
X80653696Y-127789819D01*
X80653696Y-127789819D02*
X80796553Y-127789819D01*
X80034648Y-127789819D02*
X80034648Y-127123152D01*
X80034648Y-127313628D02*
X79987029Y-127218390D01*
X79987029Y-127218390D02*
X79939410Y-127170771D01*
X79939410Y-127170771D02*
X79844172Y-127123152D01*
X79844172Y-127123152D02*
X79748934Y-127123152D01*
X79415600Y-127789819D02*
X79415600Y-126789819D01*
X79320362Y-127408866D02*
X79034648Y-127789819D01*
X79034648Y-127123152D02*
X79415600Y-127504104D01*
X77891790Y-127742200D02*
X77748933Y-127789819D01*
X77748933Y-127789819D02*
X77510838Y-127789819D01*
X77510838Y-127789819D02*
X77415600Y-127742200D01*
X77415600Y-127742200D02*
X77367981Y-127694580D01*
X77367981Y-127694580D02*
X77320362Y-127599342D01*
X77320362Y-127599342D02*
X77320362Y-127504104D01*
X77320362Y-127504104D02*
X77367981Y-127408866D01*
X77367981Y-127408866D02*
X77415600Y-127361247D01*
X77415600Y-127361247D02*
X77510838Y-127313628D01*
X77510838Y-127313628D02*
X77701314Y-127266009D01*
X77701314Y-127266009D02*
X77796552Y-127218390D01*
X77796552Y-127218390D02*
X77844171Y-127170771D01*
X77844171Y-127170771D02*
X77891790Y-127075533D01*
X77891790Y-127075533D02*
X77891790Y-126980295D01*
X77891790Y-126980295D02*
X77844171Y-126885057D01*
X77844171Y-126885057D02*
X77796552Y-126837438D01*
X77796552Y-126837438D02*
X77701314Y-126789819D01*
X77701314Y-126789819D02*
X77463219Y-126789819D01*
X77463219Y-126789819D02*
X77320362Y-126837438D01*
X76987028Y-127123152D02*
X76748933Y-127789819D01*
X76510838Y-127123152D02*
X76748933Y-127789819D01*
X76748933Y-127789819D02*
X76844171Y-128027914D01*
X76844171Y-128027914D02*
X76891790Y-128075533D01*
X76891790Y-128075533D02*
X76987028Y-128123152D01*
X76129885Y-127123152D02*
X76129885Y-127789819D01*
X76129885Y-127218390D02*
X76082266Y-127170771D01*
X76082266Y-127170771D02*
X75987028Y-127123152D01*
X75987028Y-127123152D02*
X75844171Y-127123152D01*
X75844171Y-127123152D02*
X75748933Y-127170771D01*
X75748933Y-127170771D02*
X75701314Y-127266009D01*
X75701314Y-127266009D02*
X75701314Y-127789819D01*
X74796552Y-127789819D02*
X74796552Y-127266009D01*
X74796552Y-127266009D02*
X74844171Y-127170771D01*
X74844171Y-127170771D02*
X74939409Y-127123152D01*
X74939409Y-127123152D02*
X75129885Y-127123152D01*
X75129885Y-127123152D02*
X75225123Y-127170771D01*
X74796552Y-127742200D02*
X74891790Y-127789819D01*
X74891790Y-127789819D02*
X75129885Y-127789819D01*
X75129885Y-127789819D02*
X75225123Y-127742200D01*
X75225123Y-127742200D02*
X75272742Y-127646961D01*
X75272742Y-127646961D02*
X75272742Y-127551723D01*
X75272742Y-127551723D02*
X75225123Y-127456485D01*
X75225123Y-127456485D02*
X75129885Y-127408866D01*
X75129885Y-127408866D02*
X74891790Y-127408866D01*
X74891790Y-127408866D02*
X74796552Y-127361247D01*
X74320361Y-127123152D02*
X74320361Y-128123152D01*
X74320361Y-127170771D02*
X74225123Y-127123152D01*
X74225123Y-127123152D02*
X74034647Y-127123152D01*
X74034647Y-127123152D02*
X73939409Y-127170771D01*
X73939409Y-127170771D02*
X73891790Y-127218390D01*
X73891790Y-127218390D02*
X73844171Y-127313628D01*
X73844171Y-127313628D02*
X73844171Y-127599342D01*
X73844171Y-127599342D02*
X73891790Y-127694580D01*
X73891790Y-127694580D02*
X73939409Y-127742200D01*
X73939409Y-127742200D02*
X74034647Y-127789819D01*
X74034647Y-127789819D02*
X74225123Y-127789819D01*
X74225123Y-127789819D02*
X74320361Y-127742200D01*
X73463218Y-127742200D02*
X73367980Y-127789819D01*
X73367980Y-127789819D02*
X73177504Y-127789819D01*
X73177504Y-127789819D02*
X73082266Y-127742200D01*
X73082266Y-127742200D02*
X73034647Y-127646961D01*
X73034647Y-127646961D02*
X73034647Y-127599342D01*
X73034647Y-127599342D02*
X73082266Y-127504104D01*
X73082266Y-127504104D02*
X73177504Y-127456485D01*
X73177504Y-127456485D02*
X73320361Y-127456485D01*
X73320361Y-127456485D02*
X73415599Y-127408866D01*
X73415599Y-127408866D02*
X73463218Y-127313628D01*
X73463218Y-127313628D02*
X73463218Y-127266009D01*
X73463218Y-127266009D02*
X73415599Y-127170771D01*
X73415599Y-127170771D02*
X73320361Y-127123152D01*
X73320361Y-127123152D02*
X73177504Y-127123152D01*
X73177504Y-127123152D02*
X73082266Y-127170771D01*
X72225123Y-127742200D02*
X72320361Y-127789819D01*
X72320361Y-127789819D02*
X72510837Y-127789819D01*
X72510837Y-127789819D02*
X72606075Y-127742200D01*
X72606075Y-127742200D02*
X72653694Y-127646961D01*
X72653694Y-127646961D02*
X72653694Y-127266009D01*
X72653694Y-127266009D02*
X72606075Y-127170771D01*
X72606075Y-127170771D02*
X72510837Y-127123152D01*
X72510837Y-127123152D02*
X72320361Y-127123152D01*
X72320361Y-127123152D02*
X72225123Y-127170771D01*
X72225123Y-127170771D02*
X72177504Y-127266009D01*
X72177504Y-127266009D02*
X72177504Y-127361247D01*
X72177504Y-127361247D02*
X72653694Y-127456485D01*
X83891792Y-131009819D02*
X84225125Y-130533628D01*
X84463220Y-131009819D02*
X84463220Y-130009819D01*
X84463220Y-130009819D02*
X84082268Y-130009819D01*
X84082268Y-130009819D02*
X83987030Y-130057438D01*
X83987030Y-130057438D02*
X83939411Y-130105057D01*
X83939411Y-130105057D02*
X83891792Y-130200295D01*
X83891792Y-130200295D02*
X83891792Y-130343152D01*
X83891792Y-130343152D02*
X83939411Y-130438390D01*
X83939411Y-130438390D02*
X83987030Y-130486009D01*
X83987030Y-130486009D02*
X84082268Y-130533628D01*
X84082268Y-130533628D02*
X84463220Y-130533628D01*
X83082268Y-130962200D02*
X83177506Y-131009819D01*
X83177506Y-131009819D02*
X83367982Y-131009819D01*
X83367982Y-131009819D02*
X83463220Y-130962200D01*
X83463220Y-130962200D02*
X83510839Y-130866961D01*
X83510839Y-130866961D02*
X83510839Y-130486009D01*
X83510839Y-130486009D02*
X83463220Y-130390771D01*
X83463220Y-130390771D02*
X83367982Y-130343152D01*
X83367982Y-130343152D02*
X83177506Y-130343152D01*
X83177506Y-130343152D02*
X83082268Y-130390771D01*
X83082268Y-130390771D02*
X83034649Y-130486009D01*
X83034649Y-130486009D02*
X83034649Y-130581247D01*
X83034649Y-130581247D02*
X83510839Y-130676485D01*
X82606077Y-130343152D02*
X82606077Y-131343152D01*
X82606077Y-130390771D02*
X82510839Y-130343152D01*
X82510839Y-130343152D02*
X82320363Y-130343152D01*
X82320363Y-130343152D02*
X82225125Y-130390771D01*
X82225125Y-130390771D02*
X82177506Y-130438390D01*
X82177506Y-130438390D02*
X82129887Y-130533628D01*
X82129887Y-130533628D02*
X82129887Y-130819342D01*
X82129887Y-130819342D02*
X82177506Y-130914580D01*
X82177506Y-130914580D02*
X82225125Y-130962200D01*
X82225125Y-130962200D02*
X82320363Y-131009819D01*
X82320363Y-131009819D02*
X82510839Y-131009819D01*
X82510839Y-131009819D02*
X82606077Y-130962200D01*
X81129887Y-131009819D02*
X81463220Y-130533628D01*
X81701315Y-131009819D02*
X81701315Y-130009819D01*
X81701315Y-130009819D02*
X81320363Y-130009819D01*
X81320363Y-130009819D02*
X81225125Y-130057438D01*
X81225125Y-130057438D02*
X81177506Y-130105057D01*
X81177506Y-130105057D02*
X81129887Y-130200295D01*
X81129887Y-130200295D02*
X81129887Y-130343152D01*
X81129887Y-130343152D02*
X81177506Y-130438390D01*
X81177506Y-130438390D02*
X81225125Y-130486009D01*
X81225125Y-130486009D02*
X81320363Y-130533628D01*
X81320363Y-130533628D02*
X81701315Y-130533628D01*
X80272744Y-131009819D02*
X80272744Y-130486009D01*
X80272744Y-130486009D02*
X80320363Y-130390771D01*
X80320363Y-130390771D02*
X80415601Y-130343152D01*
X80415601Y-130343152D02*
X80606077Y-130343152D01*
X80606077Y-130343152D02*
X80701315Y-130390771D01*
X80272744Y-130962200D02*
X80367982Y-131009819D01*
X80367982Y-131009819D02*
X80606077Y-131009819D01*
X80606077Y-131009819D02*
X80701315Y-130962200D01*
X80701315Y-130962200D02*
X80748934Y-130866961D01*
X80748934Y-130866961D02*
X80748934Y-130771723D01*
X80748934Y-130771723D02*
X80701315Y-130676485D01*
X80701315Y-130676485D02*
X80606077Y-130628866D01*
X80606077Y-130628866D02*
X80367982Y-130628866D01*
X80367982Y-130628866D02*
X80272744Y-130581247D01*
X79796553Y-130343152D02*
X79796553Y-131343152D01*
X79796553Y-130390771D02*
X79701315Y-130343152D01*
X79701315Y-130343152D02*
X79510839Y-130343152D01*
X79510839Y-130343152D02*
X79415601Y-130390771D01*
X79415601Y-130390771D02*
X79367982Y-130438390D01*
X79367982Y-130438390D02*
X79320363Y-130533628D01*
X79320363Y-130533628D02*
X79320363Y-130819342D01*
X79320363Y-130819342D02*
X79367982Y-130914580D01*
X79367982Y-130914580D02*
X79415601Y-130962200D01*
X79415601Y-130962200D02*
X79510839Y-131009819D01*
X79510839Y-131009819D02*
X79701315Y-131009819D01*
X79701315Y-131009819D02*
X79796553Y-130962200D01*
X77653696Y-131009819D02*
X78129886Y-131009819D01*
X78129886Y-131009819D02*
X78129886Y-130009819D01*
X77463219Y-130343152D02*
X77082267Y-130343152D01*
X77320362Y-130009819D02*
X77320362Y-130866961D01*
X77320362Y-130866961D02*
X77272743Y-130962200D01*
X77272743Y-130962200D02*
X77177505Y-131009819D01*
X77177505Y-131009819D02*
X77082267Y-131009819D01*
X76320362Y-131009819D02*
X76320362Y-130009819D01*
X76320362Y-130962200D02*
X76415600Y-131009819D01*
X76415600Y-131009819D02*
X76606076Y-131009819D01*
X76606076Y-131009819D02*
X76701314Y-130962200D01*
X76701314Y-130962200D02*
X76748933Y-130914580D01*
X76748933Y-130914580D02*
X76796552Y-130819342D01*
X76796552Y-130819342D02*
X76796552Y-130533628D01*
X76796552Y-130533628D02*
X76748933Y-130438390D01*
X76748933Y-130438390D02*
X76701314Y-130390771D01*
X76701314Y-130390771D02*
X76606076Y-130343152D01*
X76606076Y-130343152D02*
X76415600Y-130343152D01*
X76415600Y-130343152D02*
X76320362Y-130390771D01*
X84463220Y-134229819D02*
X84463220Y-133563152D01*
X84463220Y-133753628D02*
X84415601Y-133658390D01*
X84415601Y-133658390D02*
X84367982Y-133610771D01*
X84367982Y-133610771D02*
X84272744Y-133563152D01*
X84272744Y-133563152D02*
X84177506Y-133563152D01*
X83463220Y-134182200D02*
X83558458Y-134229819D01*
X83558458Y-134229819D02*
X83748934Y-134229819D01*
X83748934Y-134229819D02*
X83844172Y-134182200D01*
X83844172Y-134182200D02*
X83891791Y-134086961D01*
X83891791Y-134086961D02*
X83891791Y-133706009D01*
X83891791Y-133706009D02*
X83844172Y-133610771D01*
X83844172Y-133610771D02*
X83748934Y-133563152D01*
X83748934Y-133563152D02*
X83558458Y-133563152D01*
X83558458Y-133563152D02*
X83463220Y-133610771D01*
X83463220Y-133610771D02*
X83415601Y-133706009D01*
X83415601Y-133706009D02*
X83415601Y-133801247D01*
X83415601Y-133801247D02*
X83891791Y-133896485D01*
X82987029Y-133563152D02*
X82987029Y-134563152D01*
X82987029Y-133610771D02*
X82891791Y-133563152D01*
X82891791Y-133563152D02*
X82701315Y-133563152D01*
X82701315Y-133563152D02*
X82606077Y-133610771D01*
X82606077Y-133610771D02*
X82558458Y-133658390D01*
X82558458Y-133658390D02*
X82510839Y-133753628D01*
X82510839Y-133753628D02*
X82510839Y-134039342D01*
X82510839Y-134039342D02*
X82558458Y-134134580D01*
X82558458Y-134134580D02*
X82606077Y-134182200D01*
X82606077Y-134182200D02*
X82701315Y-134229819D01*
X82701315Y-134229819D02*
X82891791Y-134229819D01*
X82891791Y-134229819D02*
X82987029Y-134182200D01*
X82082267Y-134229819D02*
X82082267Y-133563152D01*
X82082267Y-133753628D02*
X82034648Y-133658390D01*
X82034648Y-133658390D02*
X81987029Y-133610771D01*
X81987029Y-133610771D02*
X81891791Y-133563152D01*
X81891791Y-133563152D02*
X81796553Y-133563152D01*
X81034648Y-134229819D02*
X81034648Y-133706009D01*
X81034648Y-133706009D02*
X81082267Y-133610771D01*
X81082267Y-133610771D02*
X81177505Y-133563152D01*
X81177505Y-133563152D02*
X81367981Y-133563152D01*
X81367981Y-133563152D02*
X81463219Y-133610771D01*
X81034648Y-134182200D02*
X81129886Y-134229819D01*
X81129886Y-134229819D02*
X81367981Y-134229819D01*
X81367981Y-134229819D02*
X81463219Y-134182200D01*
X81463219Y-134182200D02*
X81510838Y-134086961D01*
X81510838Y-134086961D02*
X81510838Y-133991723D01*
X81510838Y-133991723D02*
X81463219Y-133896485D01*
X81463219Y-133896485D02*
X81367981Y-133848866D01*
X81367981Y-133848866D02*
X81129886Y-133848866D01*
X81129886Y-133848866D02*
X81034648Y-133801247D01*
X80558457Y-133563152D02*
X80558457Y-134563152D01*
X80558457Y-133610771D02*
X80463219Y-133563152D01*
X80463219Y-133563152D02*
X80272743Y-133563152D01*
X80272743Y-133563152D02*
X80177505Y-133610771D01*
X80177505Y-133610771D02*
X80129886Y-133658390D01*
X80129886Y-133658390D02*
X80082267Y-133753628D01*
X80082267Y-133753628D02*
X80082267Y-134039342D01*
X80082267Y-134039342D02*
X80129886Y-134134580D01*
X80129886Y-134134580D02*
X80177505Y-134182200D01*
X80177505Y-134182200D02*
X80272743Y-134229819D01*
X80272743Y-134229819D02*
X80463219Y-134229819D01*
X80463219Y-134229819D02*
X80558457Y-134182200D01*
X79510838Y-134229819D02*
X79606076Y-134182200D01*
X79606076Y-134182200D02*
X79653695Y-134086961D01*
X79653695Y-134086961D02*
X79653695Y-133229819D01*
X79272742Y-133563152D02*
X78891790Y-133563152D01*
X79129885Y-133229819D02*
X79129885Y-134086961D01*
X79129885Y-134086961D02*
X79082266Y-134182200D01*
X79082266Y-134182200D02*
X78987028Y-134229819D01*
X78987028Y-134229819D02*
X78891790Y-134229819D01*
X78129885Y-134229819D02*
X78129885Y-133229819D01*
X78129885Y-134182200D02*
X78225123Y-134229819D01*
X78225123Y-134229819D02*
X78415599Y-134229819D01*
X78415599Y-134229819D02*
X78510837Y-134182200D01*
X78510837Y-134182200D02*
X78558456Y-134134580D01*
X78558456Y-134134580D02*
X78606075Y-134039342D01*
X78606075Y-134039342D02*
X78606075Y-133753628D01*
X78606075Y-133753628D02*
X78558456Y-133658390D01*
X78558456Y-133658390D02*
X78510837Y-133610771D01*
X78510837Y-133610771D02*
X78415599Y-133563152D01*
X78415599Y-133563152D02*
X78225123Y-133563152D01*
X78225123Y-133563152D02*
X78129885Y-133610771D01*
X77653694Y-134134580D02*
X77606075Y-134182200D01*
X77606075Y-134182200D02*
X77653694Y-134229819D01*
X77653694Y-134229819D02*
X77701313Y-134182200D01*
X77701313Y-134182200D02*
X77653694Y-134134580D01*
X77653694Y-134134580D02*
X77653694Y-134229819D01*
X76748933Y-134182200D02*
X76844171Y-134229819D01*
X76844171Y-134229819D02*
X77034647Y-134229819D01*
X77034647Y-134229819D02*
X77129885Y-134182200D01*
X77129885Y-134182200D02*
X77177504Y-134134580D01*
X77177504Y-134134580D02*
X77225123Y-134039342D01*
X77225123Y-134039342D02*
X77225123Y-133753628D01*
X77225123Y-133753628D02*
X77177504Y-133658390D01*
X77177504Y-133658390D02*
X77129885Y-133610771D01*
X77129885Y-133610771D02*
X77034647Y-133563152D01*
X77034647Y-133563152D02*
X76844171Y-133563152D01*
X76844171Y-133563152D02*
X76748933Y-133610771D01*
X76177504Y-134229819D02*
X76272742Y-134182200D01*
X76272742Y-134182200D02*
X76320361Y-134134580D01*
X76320361Y-134134580D02*
X76367980Y-134039342D01*
X76367980Y-134039342D02*
X76367980Y-133753628D01*
X76367980Y-133753628D02*
X76320361Y-133658390D01*
X76320361Y-133658390D02*
X76272742Y-133610771D01*
X76272742Y-133610771D02*
X76177504Y-133563152D01*
X76177504Y-133563152D02*
X76034647Y-133563152D01*
X76034647Y-133563152D02*
X75939409Y-133610771D01*
X75939409Y-133610771D02*
X75891790Y-133658390D01*
X75891790Y-133658390D02*
X75844171Y-133753628D01*
X75844171Y-133753628D02*
X75844171Y-134039342D01*
X75844171Y-134039342D02*
X75891790Y-134134580D01*
X75891790Y-134134580D02*
X75939409Y-134182200D01*
X75939409Y-134182200D02*
X76034647Y-134229819D01*
X76034647Y-134229819D02*
X76177504Y-134229819D01*
X75415599Y-134229819D02*
X75415599Y-133563152D01*
X75415599Y-133658390D02*
X75367980Y-133610771D01*
X75367980Y-133610771D02*
X75272742Y-133563152D01*
X75272742Y-133563152D02*
X75129885Y-133563152D01*
X75129885Y-133563152D02*
X75034647Y-133610771D01*
X75034647Y-133610771D02*
X74987028Y-133706009D01*
X74987028Y-133706009D02*
X74987028Y-134229819D01*
X74987028Y-133706009D02*
X74939409Y-133610771D01*
X74939409Y-133610771D02*
X74844171Y-133563152D01*
X74844171Y-133563152D02*
X74701314Y-133563152D01*
X74701314Y-133563152D02*
X74606075Y-133610771D01*
X74606075Y-133610771D02*
X74558456Y-133706009D01*
X74558456Y-133706009D02*
X74558456Y-134229819D01*
X83987030Y-137449819D02*
X84463220Y-137449819D01*
X84463220Y-137449819D02*
X84463220Y-136449819D01*
X83653696Y-137449819D02*
X83653696Y-136783152D01*
X83653696Y-136449819D02*
X83701315Y-136497438D01*
X83701315Y-136497438D02*
X83653696Y-136545057D01*
X83653696Y-136545057D02*
X83606077Y-136497438D01*
X83606077Y-136497438D02*
X83653696Y-136449819D01*
X83653696Y-136449819D02*
X83653696Y-136545057D01*
X82748935Y-137402200D02*
X82844173Y-137449819D01*
X82844173Y-137449819D02*
X83034649Y-137449819D01*
X83034649Y-137449819D02*
X83129887Y-137402200D01*
X83129887Y-137402200D02*
X83177506Y-137354580D01*
X83177506Y-137354580D02*
X83225125Y-137259342D01*
X83225125Y-137259342D02*
X83225125Y-136973628D01*
X83225125Y-136973628D02*
X83177506Y-136878390D01*
X83177506Y-136878390D02*
X83129887Y-136830771D01*
X83129887Y-136830771D02*
X83034649Y-136783152D01*
X83034649Y-136783152D02*
X82844173Y-136783152D01*
X82844173Y-136783152D02*
X82748935Y-136830771D01*
X81939411Y-137402200D02*
X82034649Y-137449819D01*
X82034649Y-137449819D02*
X82225125Y-137449819D01*
X82225125Y-137449819D02*
X82320363Y-137402200D01*
X82320363Y-137402200D02*
X82367982Y-137306961D01*
X82367982Y-137306961D02*
X82367982Y-136926009D01*
X82367982Y-136926009D02*
X82320363Y-136830771D01*
X82320363Y-136830771D02*
X82225125Y-136783152D01*
X82225125Y-136783152D02*
X82034649Y-136783152D01*
X82034649Y-136783152D02*
X81939411Y-136830771D01*
X81939411Y-136830771D02*
X81891792Y-136926009D01*
X81891792Y-136926009D02*
X81891792Y-137021247D01*
X81891792Y-137021247D02*
X82367982Y-137116485D01*
X81463220Y-136783152D02*
X81463220Y-137449819D01*
X81463220Y-136878390D02*
X81415601Y-136830771D01*
X81415601Y-136830771D02*
X81320363Y-136783152D01*
X81320363Y-136783152D02*
X81177506Y-136783152D01*
X81177506Y-136783152D02*
X81082268Y-136830771D01*
X81082268Y-136830771D02*
X81034649Y-136926009D01*
X81034649Y-136926009D02*
X81034649Y-137449819D01*
X80129887Y-137402200D02*
X80225125Y-137449819D01*
X80225125Y-137449819D02*
X80415601Y-137449819D01*
X80415601Y-137449819D02*
X80510839Y-137402200D01*
X80510839Y-137402200D02*
X80558458Y-137354580D01*
X80558458Y-137354580D02*
X80606077Y-137259342D01*
X80606077Y-137259342D02*
X80606077Y-136973628D01*
X80606077Y-136973628D02*
X80558458Y-136878390D01*
X80558458Y-136878390D02*
X80510839Y-136830771D01*
X80510839Y-136830771D02*
X80415601Y-136783152D01*
X80415601Y-136783152D02*
X80225125Y-136783152D01*
X80225125Y-136783152D02*
X80129887Y-136830771D01*
X79320363Y-137402200D02*
X79415601Y-137449819D01*
X79415601Y-137449819D02*
X79606077Y-137449819D01*
X79606077Y-137449819D02*
X79701315Y-137402200D01*
X79701315Y-137402200D02*
X79748934Y-137306961D01*
X79748934Y-137306961D02*
X79748934Y-136926009D01*
X79748934Y-136926009D02*
X79701315Y-136830771D01*
X79701315Y-136830771D02*
X79606077Y-136783152D01*
X79606077Y-136783152D02*
X79415601Y-136783152D01*
X79415601Y-136783152D02*
X79320363Y-136830771D01*
X79320363Y-136830771D02*
X79272744Y-136926009D01*
X79272744Y-136926009D02*
X79272744Y-137021247D01*
X79272744Y-137021247D02*
X79748934Y-137116485D01*
X78844172Y-137354580D02*
X78796553Y-137402200D01*
X78796553Y-137402200D02*
X78844172Y-137449819D01*
X78844172Y-137449819D02*
X78891791Y-137402200D01*
X78891791Y-137402200D02*
X78844172Y-137354580D01*
X78844172Y-137354580D02*
X78844172Y-137449819D01*
X78844172Y-136830771D02*
X78796553Y-136878390D01*
X78796553Y-136878390D02*
X78844172Y-136926009D01*
X78844172Y-136926009D02*
X78891791Y-136878390D01*
X78891791Y-136878390D02*
X78844172Y-136830771D01*
X78844172Y-136830771D02*
X78844172Y-136926009D01*
X77082268Y-136497438D02*
X77177506Y-136449819D01*
X77177506Y-136449819D02*
X77320363Y-136449819D01*
X77320363Y-136449819D02*
X77463220Y-136497438D01*
X77463220Y-136497438D02*
X77558458Y-136592676D01*
X77558458Y-136592676D02*
X77606077Y-136687914D01*
X77606077Y-136687914D02*
X77653696Y-136878390D01*
X77653696Y-136878390D02*
X77653696Y-137021247D01*
X77653696Y-137021247D02*
X77606077Y-137211723D01*
X77606077Y-137211723D02*
X77558458Y-137306961D01*
X77558458Y-137306961D02*
X77463220Y-137402200D01*
X77463220Y-137402200D02*
X77320363Y-137449819D01*
X77320363Y-137449819D02*
X77225125Y-137449819D01*
X77225125Y-137449819D02*
X77082268Y-137402200D01*
X77082268Y-137402200D02*
X77034649Y-137354580D01*
X77034649Y-137354580D02*
X77034649Y-137021247D01*
X77034649Y-137021247D02*
X77225125Y-137021247D01*
X76606077Y-137449819D02*
X76606077Y-136449819D01*
X76606077Y-136449819D02*
X76225125Y-136449819D01*
X76225125Y-136449819D02*
X76129887Y-136497438D01*
X76129887Y-136497438D02*
X76082268Y-136545057D01*
X76082268Y-136545057D02*
X76034649Y-136640295D01*
X76034649Y-136640295D02*
X76034649Y-136783152D01*
X76034649Y-136783152D02*
X76082268Y-136878390D01*
X76082268Y-136878390D02*
X76129887Y-136926009D01*
X76129887Y-136926009D02*
X76225125Y-136973628D01*
X76225125Y-136973628D02*
X76606077Y-136973628D01*
X75129887Y-137449819D02*
X75606077Y-137449819D01*
X75606077Y-137449819D02*
X75606077Y-136449819D01*
X84463220Y-140669819D02*
X84463220Y-139669819D01*
X84463220Y-139669819D02*
X84225125Y-139669819D01*
X84225125Y-139669819D02*
X84082268Y-139717438D01*
X84082268Y-139717438D02*
X83987030Y-139812676D01*
X83987030Y-139812676D02*
X83939411Y-139907914D01*
X83939411Y-139907914D02*
X83891792Y-140098390D01*
X83891792Y-140098390D02*
X83891792Y-140241247D01*
X83891792Y-140241247D02*
X83939411Y-140431723D01*
X83939411Y-140431723D02*
X83987030Y-140526961D01*
X83987030Y-140526961D02*
X84082268Y-140622200D01*
X84082268Y-140622200D02*
X84225125Y-140669819D01*
X84225125Y-140669819D02*
X84463220Y-140669819D01*
X83082268Y-140622200D02*
X83177506Y-140669819D01*
X83177506Y-140669819D02*
X83367982Y-140669819D01*
X83367982Y-140669819D02*
X83463220Y-140622200D01*
X83463220Y-140622200D02*
X83510839Y-140526961D01*
X83510839Y-140526961D02*
X83510839Y-140146009D01*
X83510839Y-140146009D02*
X83463220Y-140050771D01*
X83463220Y-140050771D02*
X83367982Y-140003152D01*
X83367982Y-140003152D02*
X83177506Y-140003152D01*
X83177506Y-140003152D02*
X83082268Y-140050771D01*
X83082268Y-140050771D02*
X83034649Y-140146009D01*
X83034649Y-140146009D02*
X83034649Y-140241247D01*
X83034649Y-140241247D02*
X83510839Y-140336485D01*
X82653696Y-140622200D02*
X82558458Y-140669819D01*
X82558458Y-140669819D02*
X82367982Y-140669819D01*
X82367982Y-140669819D02*
X82272744Y-140622200D01*
X82272744Y-140622200D02*
X82225125Y-140526961D01*
X82225125Y-140526961D02*
X82225125Y-140479342D01*
X82225125Y-140479342D02*
X82272744Y-140384104D01*
X82272744Y-140384104D02*
X82367982Y-140336485D01*
X82367982Y-140336485D02*
X82510839Y-140336485D01*
X82510839Y-140336485D02*
X82606077Y-140288866D01*
X82606077Y-140288866D02*
X82653696Y-140193628D01*
X82653696Y-140193628D02*
X82653696Y-140146009D01*
X82653696Y-140146009D02*
X82606077Y-140050771D01*
X82606077Y-140050771D02*
X82510839Y-140003152D01*
X82510839Y-140003152D02*
X82367982Y-140003152D01*
X82367982Y-140003152D02*
X82272744Y-140050771D01*
X81796553Y-140669819D02*
X81796553Y-140003152D01*
X81796553Y-139669819D02*
X81844172Y-139717438D01*
X81844172Y-139717438D02*
X81796553Y-139765057D01*
X81796553Y-139765057D02*
X81748934Y-139717438D01*
X81748934Y-139717438D02*
X81796553Y-139669819D01*
X81796553Y-139669819D02*
X81796553Y-139765057D01*
X80891792Y-140003152D02*
X80891792Y-140812676D01*
X80891792Y-140812676D02*
X80939411Y-140907914D01*
X80939411Y-140907914D02*
X80987030Y-140955533D01*
X80987030Y-140955533D02*
X81082268Y-141003152D01*
X81082268Y-141003152D02*
X81225125Y-141003152D01*
X81225125Y-141003152D02*
X81320363Y-140955533D01*
X80891792Y-140622200D02*
X80987030Y-140669819D01*
X80987030Y-140669819D02*
X81177506Y-140669819D01*
X81177506Y-140669819D02*
X81272744Y-140622200D01*
X81272744Y-140622200D02*
X81320363Y-140574580D01*
X81320363Y-140574580D02*
X81367982Y-140479342D01*
X81367982Y-140479342D02*
X81367982Y-140193628D01*
X81367982Y-140193628D02*
X81320363Y-140098390D01*
X81320363Y-140098390D02*
X81272744Y-140050771D01*
X81272744Y-140050771D02*
X81177506Y-140003152D01*
X81177506Y-140003152D02*
X80987030Y-140003152D01*
X80987030Y-140003152D02*
X80891792Y-140050771D01*
X80415601Y-140003152D02*
X80415601Y-140669819D01*
X80415601Y-140098390D02*
X80367982Y-140050771D01*
X80367982Y-140050771D02*
X80272744Y-140003152D01*
X80272744Y-140003152D02*
X80129887Y-140003152D01*
X80129887Y-140003152D02*
X80034649Y-140050771D01*
X80034649Y-140050771D02*
X79987030Y-140146009D01*
X79987030Y-140146009D02*
X79987030Y-140669819D01*
X79510839Y-140574580D02*
X79463220Y-140622200D01*
X79463220Y-140622200D02*
X79510839Y-140669819D01*
X79510839Y-140669819D02*
X79558458Y-140622200D01*
X79558458Y-140622200D02*
X79510839Y-140574580D01*
X79510839Y-140574580D02*
X79510839Y-140669819D01*
X79510839Y-140050771D02*
X79463220Y-140098390D01*
X79463220Y-140098390D02*
X79510839Y-140146009D01*
X79510839Y-140146009D02*
X79558458Y-140098390D01*
X79558458Y-140098390D02*
X79510839Y-140050771D01*
X79510839Y-140050771D02*
X79510839Y-140146009D01*
X78320363Y-140384104D02*
X77844173Y-140384104D01*
X78415601Y-140669819D02*
X78082268Y-139669819D01*
X78082268Y-139669819D02*
X77748935Y-140669819D01*
X76987030Y-140669819D02*
X76987030Y-139669819D01*
X76987030Y-140622200D02*
X77082268Y-140669819D01*
X77082268Y-140669819D02*
X77272744Y-140669819D01*
X77272744Y-140669819D02*
X77367982Y-140622200D01*
X77367982Y-140622200D02*
X77415601Y-140574580D01*
X77415601Y-140574580D02*
X77463220Y-140479342D01*
X77463220Y-140479342D02*
X77463220Y-140193628D01*
X77463220Y-140193628D02*
X77415601Y-140098390D01*
X77415601Y-140098390D02*
X77367982Y-140050771D01*
X77367982Y-140050771D02*
X77272744Y-140003152D01*
X77272744Y-140003152D02*
X77082268Y-140003152D01*
X77082268Y-140003152D02*
X76987030Y-140050771D01*
X76510839Y-140669819D02*
X76510839Y-140003152D01*
X76510839Y-140193628D02*
X76463220Y-140098390D01*
X76463220Y-140098390D02*
X76415601Y-140050771D01*
X76415601Y-140050771D02*
X76320363Y-140003152D01*
X76320363Y-140003152D02*
X76225125Y-140003152D01*
X75891791Y-140669819D02*
X75891791Y-140003152D01*
X75891791Y-139669819D02*
X75939410Y-139717438D01*
X75939410Y-139717438D02*
X75891791Y-139765057D01*
X75891791Y-139765057D02*
X75844172Y-139717438D01*
X75844172Y-139717438D02*
X75891791Y-139669819D01*
X75891791Y-139669819D02*
X75891791Y-139765057D01*
X74987030Y-140669819D02*
X74987030Y-140146009D01*
X74987030Y-140146009D02*
X75034649Y-140050771D01*
X75034649Y-140050771D02*
X75129887Y-140003152D01*
X75129887Y-140003152D02*
X75320363Y-140003152D01*
X75320363Y-140003152D02*
X75415601Y-140050771D01*
X74987030Y-140622200D02*
X75082268Y-140669819D01*
X75082268Y-140669819D02*
X75320363Y-140669819D01*
X75320363Y-140669819D02*
X75415601Y-140622200D01*
X75415601Y-140622200D02*
X75463220Y-140526961D01*
X75463220Y-140526961D02*
X75463220Y-140431723D01*
X75463220Y-140431723D02*
X75415601Y-140336485D01*
X75415601Y-140336485D02*
X75320363Y-140288866D01*
X75320363Y-140288866D02*
X75082268Y-140288866D01*
X75082268Y-140288866D02*
X74987030Y-140241247D01*
X74510839Y-140003152D02*
X74510839Y-140669819D01*
X74510839Y-140098390D02*
X74463220Y-140050771D01*
X74463220Y-140050771D02*
X74367982Y-140003152D01*
X74367982Y-140003152D02*
X74225125Y-140003152D01*
X74225125Y-140003152D02*
X74129887Y-140050771D01*
X74129887Y-140050771D02*
X74082268Y-140146009D01*
X74082268Y-140146009D02*
X74082268Y-140669819D01*
X72510839Y-140146009D02*
X72367982Y-140193628D01*
X72367982Y-140193628D02*
X72320363Y-140241247D01*
X72320363Y-140241247D02*
X72272744Y-140336485D01*
X72272744Y-140336485D02*
X72272744Y-140479342D01*
X72272744Y-140479342D02*
X72320363Y-140574580D01*
X72320363Y-140574580D02*
X72367982Y-140622200D01*
X72367982Y-140622200D02*
X72463220Y-140669819D01*
X72463220Y-140669819D02*
X72844172Y-140669819D01*
X72844172Y-140669819D02*
X72844172Y-139669819D01*
X72844172Y-139669819D02*
X72510839Y-139669819D01*
X72510839Y-139669819D02*
X72415601Y-139717438D01*
X72415601Y-139717438D02*
X72367982Y-139765057D01*
X72367982Y-139765057D02*
X72320363Y-139860295D01*
X72320363Y-139860295D02*
X72320363Y-139955533D01*
X72320363Y-139955533D02*
X72367982Y-140050771D01*
X72367982Y-140050771D02*
X72415601Y-140098390D01*
X72415601Y-140098390D02*
X72510839Y-140146009D01*
X72510839Y-140146009D02*
X72844172Y-140146009D01*
X71701315Y-140669819D02*
X71796553Y-140622200D01*
X71796553Y-140622200D02*
X71844172Y-140574580D01*
X71844172Y-140574580D02*
X71891791Y-140479342D01*
X71891791Y-140479342D02*
X71891791Y-140193628D01*
X71891791Y-140193628D02*
X71844172Y-140098390D01*
X71844172Y-140098390D02*
X71796553Y-140050771D01*
X71796553Y-140050771D02*
X71701315Y-140003152D01*
X71701315Y-140003152D02*
X71558458Y-140003152D01*
X71558458Y-140003152D02*
X71463220Y-140050771D01*
X71463220Y-140050771D02*
X71415601Y-140098390D01*
X71415601Y-140098390D02*
X71367982Y-140193628D01*
X71367982Y-140193628D02*
X71367982Y-140479342D01*
X71367982Y-140479342D02*
X71415601Y-140574580D01*
X71415601Y-140574580D02*
X71463220Y-140622200D01*
X71463220Y-140622200D02*
X71558458Y-140669819D01*
X71558458Y-140669819D02*
X71701315Y-140669819D01*
X71034648Y-140003152D02*
X70844172Y-140669819D01*
X70844172Y-140669819D02*
X70653696Y-140193628D01*
X70653696Y-140193628D02*
X70463220Y-140669819D01*
X70463220Y-140669819D02*
X70272744Y-140003152D01*
X69987029Y-140003152D02*
X69748934Y-140669819D01*
X69510839Y-140003152D02*
X69748934Y-140669819D01*
X69748934Y-140669819D02*
X69844172Y-140907914D01*
X69844172Y-140907914D02*
X69891791Y-140955533D01*
X69891791Y-140955533D02*
X69987029Y-141003152D01*
X68748934Y-140622200D02*
X68844172Y-140669819D01*
X68844172Y-140669819D02*
X69034648Y-140669819D01*
X69034648Y-140669819D02*
X69129886Y-140622200D01*
X69129886Y-140622200D02*
X69177505Y-140526961D01*
X69177505Y-140526961D02*
X69177505Y-140146009D01*
X69177505Y-140146009D02*
X69129886Y-140050771D01*
X69129886Y-140050771D02*
X69034648Y-140003152D01*
X69034648Y-140003152D02*
X68844172Y-140003152D01*
X68844172Y-140003152D02*
X68748934Y-140050771D01*
X68748934Y-140050771D02*
X68701315Y-140146009D01*
X68701315Y-140146009D02*
X68701315Y-140241247D01*
X68701315Y-140241247D02*
X69177505Y-140336485D01*
X68272743Y-140669819D02*
X68272743Y-140003152D01*
X68272743Y-140193628D02*
X68225124Y-140098390D01*
X68225124Y-140098390D02*
X68177505Y-140050771D01*
X68177505Y-140050771D02*
X68082267Y-140003152D01*
X68082267Y-140003152D02*
X67987029Y-140003152D01*
X132974580Y-138108207D02*
X133022200Y-138060588D01*
X133022200Y-138060588D02*
X133069819Y-137917731D01*
X133069819Y-137917731D02*
X133069819Y-137822493D01*
X133069819Y-137822493D02*
X133022200Y-137679636D01*
X133022200Y-137679636D02*
X132926961Y-137584398D01*
X132926961Y-137584398D02*
X132831723Y-137536779D01*
X132831723Y-137536779D02*
X132641247Y-137489160D01*
X132641247Y-137489160D02*
X132498390Y-137489160D01*
X132498390Y-137489160D02*
X132307914Y-137536779D01*
X132307914Y-137536779D02*
X132212676Y-137584398D01*
X132212676Y-137584398D02*
X132117438Y-137679636D01*
X132117438Y-137679636D02*
X132069819Y-137822493D01*
X132069819Y-137822493D02*
X132069819Y-137917731D01*
X132069819Y-137917731D02*
X132117438Y-138060588D01*
X132117438Y-138060588D02*
X132165057Y-138108207D01*
X133069819Y-138679636D02*
X133022200Y-138584398D01*
X133022200Y-138584398D02*
X132974580Y-138536779D01*
X132974580Y-138536779D02*
X132879342Y-138489160D01*
X132879342Y-138489160D02*
X132593628Y-138489160D01*
X132593628Y-138489160D02*
X132498390Y-138536779D01*
X132498390Y-138536779D02*
X132450771Y-138584398D01*
X132450771Y-138584398D02*
X132403152Y-138679636D01*
X132403152Y-138679636D02*
X132403152Y-138822493D01*
X132403152Y-138822493D02*
X132450771Y-138917731D01*
X132450771Y-138917731D02*
X132498390Y-138965350D01*
X132498390Y-138965350D02*
X132593628Y-139012969D01*
X132593628Y-139012969D02*
X132879342Y-139012969D01*
X132879342Y-139012969D02*
X132974580Y-138965350D01*
X132974580Y-138965350D02*
X133022200Y-138917731D01*
X133022200Y-138917731D02*
X133069819Y-138822493D01*
X133069819Y-138822493D02*
X133069819Y-138679636D01*
X133069819Y-139441541D02*
X132403152Y-139441541D01*
X132498390Y-139441541D02*
X132450771Y-139489160D01*
X132450771Y-139489160D02*
X132403152Y-139584398D01*
X132403152Y-139584398D02*
X132403152Y-139727255D01*
X132403152Y-139727255D02*
X132450771Y-139822493D01*
X132450771Y-139822493D02*
X132546009Y-139870112D01*
X132546009Y-139870112D02*
X133069819Y-139870112D01*
X132546009Y-139870112D02*
X132450771Y-139917731D01*
X132450771Y-139917731D02*
X132403152Y-140012969D01*
X132403152Y-140012969D02*
X132403152Y-140155826D01*
X132403152Y-140155826D02*
X132450771Y-140251065D01*
X132450771Y-140251065D02*
X132546009Y-140298684D01*
X132546009Y-140298684D02*
X133069819Y-140298684D01*
X132403152Y-140774874D02*
X133403152Y-140774874D01*
X132450771Y-140774874D02*
X132403152Y-140870112D01*
X132403152Y-140870112D02*
X132403152Y-141060588D01*
X132403152Y-141060588D02*
X132450771Y-141155826D01*
X132450771Y-141155826D02*
X132498390Y-141203445D01*
X132498390Y-141203445D02*
X132593628Y-141251064D01*
X132593628Y-141251064D02*
X132879342Y-141251064D01*
X132879342Y-141251064D02*
X132974580Y-141203445D01*
X132974580Y-141203445D02*
X133022200Y-141155826D01*
X133022200Y-141155826D02*
X133069819Y-141060588D01*
X133069819Y-141060588D02*
X133069819Y-140870112D01*
X133069819Y-140870112D02*
X133022200Y-140774874D01*
X130517438Y-148660588D02*
X130469819Y-148565350D01*
X130469819Y-148565350D02*
X130469819Y-148422493D01*
X130469819Y-148422493D02*
X130517438Y-148279636D01*
X130517438Y-148279636D02*
X130612676Y-148184398D01*
X130612676Y-148184398D02*
X130707914Y-148136779D01*
X130707914Y-148136779D02*
X130898390Y-148089160D01*
X130898390Y-148089160D02*
X131041247Y-148089160D01*
X131041247Y-148089160D02*
X131231723Y-148136779D01*
X131231723Y-148136779D02*
X131326961Y-148184398D01*
X131326961Y-148184398D02*
X131422200Y-148279636D01*
X131422200Y-148279636D02*
X131469819Y-148422493D01*
X131469819Y-148422493D02*
X131469819Y-148517731D01*
X131469819Y-148517731D02*
X131422200Y-148660588D01*
X131422200Y-148660588D02*
X131374580Y-148708207D01*
X131374580Y-148708207D02*
X131041247Y-148708207D01*
X131041247Y-148708207D02*
X131041247Y-148517731D01*
X131469819Y-149136779D02*
X130469819Y-149136779D01*
X130469819Y-149136779D02*
X131469819Y-149708207D01*
X131469819Y-149708207D02*
X130469819Y-149708207D01*
X131469819Y-150184398D02*
X130469819Y-150184398D01*
X130469819Y-150184398D02*
X130469819Y-150422493D01*
X130469819Y-150422493D02*
X130517438Y-150565350D01*
X130517438Y-150565350D02*
X130612676Y-150660588D01*
X130612676Y-150660588D02*
X130707914Y-150708207D01*
X130707914Y-150708207D02*
X130898390Y-150755826D01*
X130898390Y-150755826D02*
X131041247Y-150755826D01*
X131041247Y-150755826D02*
X131231723Y-150708207D01*
X131231723Y-150708207D02*
X131326961Y-150660588D01*
X131326961Y-150660588D02*
X131422200Y-150565350D01*
X131422200Y-150565350D02*
X131469819Y-150422493D01*
X131469819Y-150422493D02*
X131469819Y-150184398D01*
X131063220Y-140288866D02*
X130301316Y-140288866D01*
X130682268Y-140669819D02*
X130682268Y-139907914D01*
D11*
%TO.C,J5*%
X141200000Y-142590000D02*
X140090000Y-142590000D01*
X140090000Y-142590000D02*
X140090000Y-143920000D01*
%TD*%
M02*
